<svg width="20" height="20" viewBox="0 0 20 20" fill="none" xmlns="http://www.w3.org/2000/svg">
<path fill-rule="evenodd" clip-rule="evenodd" d="M0 10C0 4.47715 4.47715 0 10 0C15.5228 0 20 4.47715 20 10C20 15.5228 15.5228 20 10 20C4.47715 20 0 15.5228 0 10ZM7.73042 6.317C7.35321 5.9136 6.7204 5.89238 6.317 6.26959C5.9136 6.6468 5.89238 7.27961 6.26959 7.68301L8.63092 10.2082L6.26959 12.7335C5.89238 13.1369 5.9136 13.7697 6.317 14.1469C6.7204 14.5241 7.35321 14.5029 7.73042 14.0995L10 11.6724L12.2696 14.0995C12.6468 14.5029 13.2796 14.5241 13.683 14.1469C14.0864 13.7697 14.1076 13.1369 13.7304 12.7335L11.3691 10.2082L13.7304 7.68301C14.1076 7.27961 14.0864 6.6468 13.683 6.26959C13.2796 5.89238 12.6468 5.9136 12.2696 6.317L10 8.74413L7.73042 6.317Z" fill="white"/>
</svg>
