<svg width="21" height="31" viewBox="0 0 21 31" fill="none" xmlns="http://www.w3.org/2000/svg">
<path d="M4.54598 29.931L4.86782 26.8333C6.03448 29.1264 8.56896 30.454 11.546 30.454C17.2586 30.454 21 26.2299 21 20.1149C21 13.8391 17.5402 9.41379 11.8678 9.41379C8.85057 9.41379 6.1954 10.7414 4.90804 12.954V0H0V29.931H4.54598ZM2.37639 19.3707C2.37639 15.7902 7.04306 12.8333 10.4224 12.8333C13.9425 12.3305 17.4626 15.8305 17.4626 19.3707C17.4626 22.9109 15.0057 27.9195 11.546 27.9195C8.16667 27.9195 2.37639 22.9512 2.37639 19.3707Z" fill="black"/>
</svg>
