<svg width="70" height="70" viewBox="0 0 70 70" fill="none" xmlns="http://www.w3.org/2000/svg">
<path d="M34.9996 66.5686C30.8539 66.5686 26.7489 65.7521 22.9188 64.1656C19.0887 62.5791 15.6086 60.2538 12.6772 57.3224C9.74575 54.391 7.42042 50.9109 5.83395 47.0808C4.24748 43.2507 3.43093 39.1457 3.43093 35C3.43093 30.8543 4.24748 26.7493 5.83395 22.9192C7.42043 19.0891 9.74575 15.609 12.6772 12.6776C15.6086 9.74619 19.0887 7.42086 22.9188 5.83439C26.7489 4.24792 30.8539 3.43137 34.9996 3.43137C39.1452 3.43137 43.2503 4.24792 47.0804 5.83439C50.9104 7.42087 54.3905 9.7462 57.322 12.6776C60.2534 15.609 62.5787 19.0891 64.1652 22.9192C65.7517 26.7493 66.5682 30.8544 66.5682 35C66.5682 39.1457 65.7516 43.2507 64.1652 47.0808C62.5787 50.9109 60.2534 54.391 57.322 57.3224C54.3905 60.2538 50.9104 62.5791 47.0804 64.1656C43.2503 65.7521 39.1452 66.5686 34.9996 66.5686L34.9996 66.5686Z" stroke="black" stroke-opacity="0.1" stroke-width="6.84253"/>
</svg>
