<svg width="70" height="70" viewBox="0 0 70 70" fill="none" xmlns="http://www.w3.org/2000/svg">
<path d="M35.0001 66.5686C30.8544 66.5686 26.7493 65.7521 22.9193 64.1656C19.0892 62.5791 15.6091 60.2538 12.6777 57.3224C9.74624 54.391 7.42091 50.9109 5.83444 47.0808C4.24797 43.2507 3.43142 39.1457 3.43142 35C3.43142 30.8543 4.24797 26.7493 5.83444 22.9192C7.42092 19.0891 9.74624 15.609 12.6777 12.6776C15.6091 9.74619 19.0892 7.42086 22.9193 5.83439C26.7493 4.24792 30.8544 3.43137 35.0001 3.43137C39.1457 3.43137 43.2508 4.24792 47.0809 5.83439C50.9109 7.42087 54.391 9.7462 57.3225 12.6776C60.2539 15.609 62.5792 19.0891 64.1657 22.9192C65.7521 26.7493 66.5687 30.8544 66.5687 35C66.5687 39.1457 65.7521 43.2507 64.1657 47.0808C62.5792 50.9109 60.2539 54.391 57.3224 57.3224C54.391 60.2538 50.9109 62.5791 47.0808 64.1656C43.2508 65.7521 39.1457 66.5686 35 66.5686L35.0001 66.5686Z" stroke="black" stroke-opacity="0.1" stroke-width="6.84253"/>
</svg>
