<svg width="45" height="45" viewBox="0 0 45 45" fill="none" xmlns="http://www.w3.org/2000/svg">
<path d="M22.4998 42.7941C19.8347 42.7941 17.1958 42.2692 14.7336 41.2493C12.2714 40.2294 10.0342 38.7346 8.14968 36.8501C6.2652 34.9656 4.77034 32.7284 3.75047 30.2662C2.73059 27.804 2.20567 25.1651 2.20567 22.5C2.20567 19.8349 2.73059 17.196 3.75047 14.7338C4.77034 12.2716 6.2652 10.0344 8.14968 8.14989C10.0342 6.2654 12.2714 4.77055 14.7336 3.75068C17.1958 2.7308 19.8347 2.20588 22.4998 2.20588C25.1648 2.20588 27.8038 2.7308 30.266 3.75068C32.7282 4.77055 34.9654 6.26541 36.8499 8.14989C38.7344 10.0344 40.2292 12.2716 41.2491 14.7338C42.269 17.196 42.7939 19.8349 42.7939 22.5C42.7939 25.1651 42.269 27.804 41.2491 30.2662C40.2292 32.7284 38.7344 34.9656 36.8499 36.8501C34.9654 38.7346 32.7282 40.2294 30.266 41.2493C27.8038 42.2692 25.1648 42.7941 22.4998 42.7941L22.4998 42.7941Z" stroke="black" stroke-opacity="0.1" stroke-width="4.33777"/>
</svg>
