<svg width="70" height="70" viewBox="0 0 70 70" fill="none" xmlns="http://www.w3.org/2000/svg">
<path d="M35 66.5685C30.8543 66.5685 26.7493 65.7519 22.9192 64.1654C19.0891 62.579 15.609 60.2537 12.6776 57.3222C9.74622 54.3908 7.42089 50.9107 5.83443 47.0807C4.24796 43.2506 3.43141 39.1456 3.43141 34.9999C3.43141 30.8543 4.24796 26.7492 5.83443 22.9191C7.4209 19.0891 9.74622 15.609 12.6776 12.6776C15.609 9.74616 19.0891 7.42084 22.9192 5.83438C26.7493 4.24791 30.8543 3.43136 35 3.43136C39.1456 3.43136 43.2507 4.24791 47.0807 5.83438C50.9108 7.42085 54.3909 9.74617 57.3223 12.6776C60.2537 15.609 62.579 19.0891 64.1655 22.9192C65.752 26.7492 66.5685 30.8543 66.5685 34.9999C66.5685 39.1456 65.752 43.2506 64.1655 47.0807C62.579 50.9108 60.2537 54.3908 57.3223 57.3223C54.3909 60.2537 50.9108 62.579 47.0807 64.1655C43.2506 65.7519 39.1456 66.5685 35 66.5685L35 66.5685Z" stroke="black" stroke-opacity="0.1" stroke-width="6.84253"/>
</svg>
