<svg width="428" height="100" viewBox="0 0 428 100" fill="none" xmlns="http://www.w3.org/2000/svg">
<rect width="428" height="100" fill="white"/>
<rect width="428" height="100" fill="white"/>
<path fill-rule="evenodd" clip-rule="evenodd" d="M57.9931 41.4336C56.8564 40.4232 55.1436 40.4232 54.0069 41.4336L46.3356 48.2525C45.9229 48.6194 45.8857 49.2515 46.2526 49.6642C46.6195 50.077 47.2516 50.1142 47.6644 49.7473L48 49.4489L48 55.0657C48 55.9522 47.9999 56.716 48.0822 57.3277C48.1703 57.9832 48.369 58.6115 48.8787 59.1212C49.3884 59.6309 50.0167 59.8296 50.6722 59.9177C51.2839 60 52.0477 59.9999 52.9342 59.9999H59.0658C59.9523 59.9999 60.7161 60 61.3278 59.9177C61.9833 59.8296 62.6117 59.6309 63.1213 59.1212C63.631 58.6115 63.8297 57.9832 63.9179 57.3277C64.0001 56.716 64.0001 55.9522 64 55.0657L64 49.4489L64.3356 49.7473C64.7484 50.1142 65.3805 50.077 65.7474 49.6642C66.1143 49.2515 66.0772 48.6194 65.6644 48.2525L57.9931 41.4336ZM56 53.9999C55.4477 53.9999 55 54.4476 55 54.9999V56.9999C55 57.5522 54.5523 57.9999 54 57.9999C53.4477 57.9999 53 57.5522 53 56.9999V54.9999C53 53.343 54.3431 51.9999 56 51.9999C57.6569 51.9999 59 53.343 59 54.9999V56.9999C59 57.5522 58.5523 57.9999 58 57.9999C57.4477 57.9999 57 57.5522 57 56.9999V54.9999C57 54.4476 56.5523 53.9999 56 53.9999Z" fill="#1A1C20" fill-opacity="0.5"/>
<g filter="url(#filter0_d_183_4564)">
<path fill-rule="evenodd" clip-rule="evenodd" d="M171 45L171 44.9342C171 44.0477 171 43.2839 170.918 42.6722C170.83 42.0167 170.631 41.3883 170.121 40.8787C169.612 40.369 168.983 40.1703 168.328 40.0821C167.716 39.9999 166.952 40 166.066 40L166 40L155.934 40C155.048 40 154.284 39.9999 153.672 40.0821C153.017 40.1703 152.388 40.369 151.879 40.8787C151.369 41.3883 151.17 42.0167 151.082 42.6722C151 43.2839 151 44.0477 151 44.9342L151 51.0658C151 51.9523 151 52.7161 151.082 53.3278C151.17 53.9833 151.369 54.6117 151.879 55.1213C152.388 55.631 153.017 55.8297 153.672 55.9179C154.284 56.0001 155.048 56.0001 155.934 56H155.934H159L157.2 58.4C156.869 58.8418 156.958 59.4686 157.4 59.8C157.842 60.1314 158.469 60.0418 158.8 59.6L161 56.6667L163.2 59.6C163.531 60.0418 164.158 60.1314 164.6 59.8C165.042 59.4686 165.131 58.8418 164.8 58.4L163 56H166.066C166.952 56.0001 167.716 56.0001 168.328 55.9179C168.983 55.8297 169.612 55.631 170.121 55.1213C170.631 54.6117 170.83 53.9833 170.918 53.3278C171 52.7161 171 51.9523 171 51.0658L171 45ZM165 44C165.552 44 166 44.4477 166 45L166 51C166 51.5523 165.552 52 165 52C164.448 52 164 51.5523 164 51L164 45C164 44.4477 164.448 44 165 44ZM161 46C161.552 46 162 46.4477 162 47V51C162 51.5523 161.552 52 161 52C160.448 52 160 51.5523 160 51V47C160 46.4477 160.448 46 161 46ZM158 48C158 47.4477 157.552 47 157 47C156.448 47 156 47.4477 156 48V51C156 51.5523 156.448 52 157 52C157.552 52 158 51.5523 158 51L158 48Z" fill="#ED8350"/>
</g>
<path fill-rule="evenodd" clip-rule="evenodd" d="M263.796 40.244C265.653 39.8262 267 41.4224 267 43.0001V48.0001C267 48.5524 267.448 49.0001 268 49.0001H273C274.578 49.0001 276.174 50.3473 275.756 52.204C274.752 56.6662 270.767 60.0001 266 60.0001C260.477 60.0001 256 55.523 256 50.0001C256 45.2336 259.334 41.2481 263.796 40.244Z" fill="#1A1C20" fill-opacity="0.5"/>
<path fill-rule="evenodd" clip-rule="evenodd" d="M275.128 47.0791C274.604 47.6604 273.821 48.0001 273 48.0001L271 48.0001C269.343 48.0001 268 46.6569 268 45.0001L268 43.0001C268 42.1789 268.34 41.3959 268.921 40.8719C269.522 40.3299 270.388 40.0714 271.291 40.3838C273.315 41.0845 274.915 42.6854 275.616 44.7091C275.929 45.6115 275.67 46.4778 275.128 47.0791Z" fill="#1A1C20" fill-opacity="0.5"/>
<path fill-rule="evenodd" clip-rule="evenodd" d="M368.332 41.8034C369.32 39.4317 372.68 39.4317 373.668 41.8034C373.861 42.2663 374.406 42.4804 374.868 42.2673C377.322 41.1345 379.866 43.6777 378.733 46.1323C378.52 46.5938 378.734 47.139 379.197 47.3318C381.568 48.32 381.568 51.6799 379.197 52.668C378.734 52.8609 378.52 53.4061 378.733 53.8676C379.866 56.3221 377.322 58.8654 374.868 57.7325C374.406 57.5195 373.861 57.7336 373.668 58.1965C372.68 60.5681 369.32 60.5681 368.332 58.1965C368.139 57.7336 367.594 57.5195 367.133 57.7325C364.678 58.8654 362.135 56.3221 363.268 53.8676C363.481 53.4061 363.267 52.8609 362.804 52.668C360.432 51.6799 360.432 48.32 362.804 47.3318C363.267 47.139 363.481 46.5938 363.268 46.1323C362.135 43.6777 364.678 41.1345 367.133 42.2673C367.594 42.4804 368.139 42.2663 368.332 41.8034ZM367 50C367 47.7909 368.791 46 371 46C373.209 46 375 47.7909 375 50C375 52.2091 373.209 54 371 54C368.791 54 367 52.2091 367 50Z" fill="#1A1C20" fill-opacity="0.5"/>
<path fill-rule="evenodd" clip-rule="evenodd" d="M371 48C369.895 48 369 48.8954 369 50C369 51.1046 369.895 52 371 52C372.105 52 373 51.1046 373 50C373 48.8954 372.105 48 371 48Z" fill="#1A1C20" fill-opacity="0.5"/>
<rect width="428" height="1" fill="#D9D9D9"/>
<defs>
<filter id="filter0_d_183_4564" x="121" y="10" width="80" height="80" filterUnits="userSpaceOnUse" color-interpolation-filters="sRGB">
<feFlood flood-opacity="0" result="BackgroundImageFix"/>
<feColorMatrix in="SourceAlpha" type="matrix" values="0 0 0 0 0 0 0 0 0 0 0 0 0 0 0 0 0 0 127 0" result="hardAlpha"/>
<feOffset/>
<feGaussianBlur stdDeviation="15"/>
<feComposite in2="hardAlpha" operator="out"/>
<feColorMatrix type="matrix" values="0 0 0 0 0.929412 0 0 0 0 0.513726 0 0 0 0 0.313726 0 0 0 1 0"/>
<feBlend mode="normal" in2="BackgroundImageFix" result="effect1_dropShadow_183_4564"/>
<feBlend mode="normal" in="SourceGraphic" in2="effect1_dropShadow_183_4564" result="shape"/>
</filter>
</defs>
</svg>
