<svg width="48" height="48" viewBox="0 0 48 48" fill="none" xmlns="http://www.w3.org/2000/svg">
<circle cx="24" cy="24" r="23" stroke="#ED8350" stroke-width="2"/>
<path fill-rule="evenodd" clip-rule="evenodd" d="M14 24C14 18.4772 18.4772 14 24 14C29.5228 14 34 18.4772 34 24C34 29.5228 29.5228 34 24 34C18.4772 34 14 29.5228 14 24ZM25.7071 20.2929C26.0976 20.6834 26.0976 21.3166 25.7071 21.7071L23.4142 24L25.7071 26.2929C26.0976 26.6834 26.0976 27.3166 25.7071 27.7071C25.3166 28.0976 24.6834 28.0976 24.2929 27.7071L21.5554 24.9696C21.0199 24.4341 21.0199 23.5659 21.5554 23.0304L24.2929 20.2929C24.6834 19.9024 25.3166 19.9024 25.7071 20.2929Z" fill="#ED8350"/>
</svg>
