<svg width="76" height="27" viewBox="0 0 76 27" fill="none" xmlns="http://www.w3.org/2000/svg">
<path d="M2.86219 20.14C2.55552 20.14 2.31552 20.0533 2.14219 19.88C1.96885 19.7067 1.88219 19.46 1.88219 19.14V6.8C1.88219 6.46667 1.96219 6.21333 2.12219 6.04C2.29552 5.85333 2.52219 5.76 2.80219 5.76C3.04219 5.76 3.22219 5.80667 3.34219 5.9C3.47552 5.98 3.62885 6.13333 3.80219 6.36L12.0422 17.22H11.5422V6.74C11.5422 6.43333 11.6222 6.19333 11.7822 6.02C11.9555 5.84667 12.1955 5.76 12.5022 5.76C12.8222 5.76 13.0622 5.84667 13.2222 6.02C13.3822 6.19333 13.4622 6.43333 13.4622 6.74V19.16C13.4622 19.4667 13.3822 19.7067 13.2222 19.88C13.0755 20.0533 12.8755 20.14 12.6222 20.14C12.3822 20.14 12.1822 20.0933 12.0222 20C11.8755 19.9067 11.7155 19.7467 11.5422 19.52L3.34219 8.68H3.80219V19.14C3.80219 19.46 3.72219 19.7067 3.56219 19.88C3.40219 20.0533 3.16885 20.14 2.86219 20.14ZM21.1055 20.18C20.0388 20.18 19.1188 19.98 18.3455 19.58C17.5855 19.1667 16.9921 18.5867 16.5655 17.84C16.1521 17.08 15.9455 16.18 15.9455 15.14C15.9455 14.1267 16.1521 13.24 16.5655 12.48C16.9788 11.72 17.5455 11.1267 18.2655 10.7C18.9855 10.2733 19.8055 10.06 20.7255 10.06C21.4055 10.06 22.0121 10.1733 22.5455 10.4C23.0788 10.6133 23.5321 10.9333 23.9055 11.36C24.2921 11.7733 24.5788 12.28 24.7655 12.88C24.9655 13.48 25.0655 14.1533 25.0655 14.9C25.0655 15.1267 24.9988 15.3 24.8655 15.42C24.7321 15.5267 24.5321 15.58 24.2655 15.58H17.5455V14.34H23.7055L23.3655 14.62C23.3655 13.9533 23.2655 13.3867 23.0655 12.92C22.8788 12.4533 22.5921 12.1 22.2055 11.86C21.8321 11.6067 21.3655 11.48 20.8055 11.48C20.1788 11.48 19.6455 11.6267 19.2055 11.92C18.7788 12.2133 18.4521 12.62 18.2255 13.14C17.9988 13.66 17.8855 14.2667 17.8855 14.96V15.08C17.8855 16.2533 18.1588 17.14 18.7055 17.74C19.2655 18.3267 20.0721 18.62 21.1255 18.62C21.5255 18.62 21.9455 18.5667 22.3855 18.46C22.8388 18.3533 23.2655 18.1733 23.6655 17.92C23.8921 17.7867 24.0921 17.7267 24.2655 17.74C24.4521 17.7533 24.5988 17.8133 24.7055 17.92C24.8255 18.0267 24.8988 18.16 24.9255 18.32C24.9521 18.48 24.9255 18.6467 24.8455 18.82C24.7655 18.98 24.6255 19.1267 24.4255 19.26C23.9721 19.5667 23.4455 19.8 22.8455 19.96C22.2455 20.1067 21.6655 20.18 21.1055 20.18ZM27.5295 20.12C27.2895 20.12 27.0895 20.0533 26.9295 19.92C26.7829 19.7733 26.7029 19.5933 26.6895 19.38C26.6895 19.1667 26.7829 18.9333 26.9695 18.68L30.3495 14.46V15.46L27.1895 11.52C26.9762 11.28 26.8762 11.0533 26.8895 10.84C26.9029 10.6133 26.9895 10.4333 27.1495 10.3C27.3095 10.1667 27.5029 10.1 27.7295 10.1C27.9829 10.1 28.1895 10.1467 28.3495 10.24C28.5229 10.32 28.6829 10.46 28.8295 10.66L31.4895 14.04H30.7695L33.4495 10.66C33.5962 10.46 33.7495 10.32 33.9095 10.24C34.0829 10.1467 34.2895 10.1 34.5295 10.1C34.7695 10.1 34.9629 10.1733 35.1095 10.32C35.2695 10.4533 35.3495 10.6333 35.3495 10.86C35.3629 11.0733 35.2695 11.3 35.0695 11.54L31.9095 15.42V14.52L35.2895 18.68C35.4895 18.92 35.5829 19.1533 35.5695 19.38C35.5695 19.5933 35.4895 19.7733 35.3295 19.92C35.1695 20.0533 34.9695 20.12 34.7295 20.12C34.4895 20.12 34.2829 20.0733 34.1095 19.98C33.9495 19.8867 33.7895 19.7467 33.6295 19.56L30.7695 15.96H31.4495L28.6095 19.56C28.4629 19.7333 28.3029 19.8733 28.1295 19.98C27.9695 20.0733 27.7695 20.12 27.5295 20.12ZM42.0331 20.18C41.2331 20.18 40.5598 20.04 40.0131 19.76C39.4665 19.48 39.0598 19.0667 38.7931 18.52C38.5265 17.9733 38.3931 17.3067 38.3931 16.52V11.8H37.1931C36.9265 11.8 36.7198 11.7333 36.5731 11.6C36.4265 11.4533 36.3531 11.26 36.3531 11.02C36.3531 10.7667 36.4265 10.5733 36.5731 10.44C36.7198 10.3067 36.9265 10.24 37.1931 10.24H38.3931V8.18C38.3931 7.84667 38.4798 7.59333 38.6531 7.42C38.8398 7.24667 39.0931 7.16 39.4131 7.16C39.7331 7.16 39.9798 7.24667 40.1531 7.42C40.3265 7.59333 40.4131 7.84667 40.4131 8.18V10.24H42.7531C43.0198 10.24 43.2265 10.3067 43.3731 10.44C43.5198 10.5733 43.5931 10.7667 43.5931 11.02C43.5931 11.26 43.5198 11.4533 43.3731 11.6C43.2265 11.7333 43.0198 11.8 42.7531 11.8H40.4131V16.36C40.4131 17.0667 40.5598 17.6 40.8531 17.96C41.1598 18.32 41.6531 18.5 42.3331 18.5C42.5731 18.5 42.7798 18.48 42.9531 18.44C43.1398 18.3867 43.2931 18.3533 43.4131 18.34C43.5598 18.34 43.6798 18.3933 43.7731 18.5C43.8665 18.5933 43.9131 18.78 43.9131 19.06C43.9131 19.26 43.8731 19.4467 43.7931 19.62C43.7265 19.7933 43.5998 19.9067 43.4131 19.96C43.2531 20.0133 43.0331 20.06 42.7531 20.1C42.4865 20.1533 42.2465 20.18 42.0331 20.18Z" fill="#ED8350"/>
<path fill-rule="evenodd" clip-rule="evenodd" d="M74 13.5C74 7.97715 69.5228 3.5 64 3.5C58.4772 3.5 54 7.97715 54 13.5C54 19.0228 58.4772 23.5 64 23.5C69.5228 23.5 74 19.0228 74 13.5ZM66.1893 14.25L64.4697 15.9697C64.1768 16.2626 64.1768 16.7374 64.4697 17.0303C64.7626 17.3232 65.2374 17.3232 65.5303 17.0303L67.8232 14.7374C68.5066 14.054 68.5066 12.946 67.8232 12.2626L65.5303 9.96967C65.2374 9.67678 64.7626 9.67678 64.4697 9.96967C64.1768 10.2626 64.1768 10.7374 64.4697 11.0303L66.1893 12.75L60 12.75C59.5858 12.75 59.25 13.0858 59.25 13.5C59.25 13.9142 59.5858 14.25 60 14.25L66.1893 14.25Z" fill="#ED8350"/>
</svg>
