<svg width="348" height="123" viewBox="0 0 348 123" fill="none" xmlns="http://www.w3.org/2000/svg">
<g filter="url(#filter0_f_175_2038)">
<rect x="30" y="30" width="288" height="63" rx="10" fill="#ED8350"/>
</g>
<rect x="5" y="21" width="338" height="60" rx="10" fill="#ED8350"/>
<path d="M121.281 58.216C119.473 58.216 117.937 57.872 116.673 57.184C115.425 56.48 114.473 55.48 113.817 54.184C113.177 52.888 112.857 51.344 112.857 49.552C112.857 48.208 113.041 47.008 113.409 45.952C113.777 44.88 114.313 43.968 115.017 43.216C115.737 42.448 116.601 41.864 117.609 41.464C118.633 41.064 119.785 40.864 121.065 40.864C122.057 40.864 123.017 41 123.945 41.272C124.873 41.528 125.721 41.952 126.489 42.544C126.681 42.688 126.801 42.856 126.849 43.048C126.913 43.24 126.921 43.432 126.873 43.624C126.825 43.816 126.729 43.984 126.585 44.128C126.457 44.272 126.289 44.36 126.081 44.392C125.889 44.408 125.681 44.344 125.457 44.2C124.801 43.72 124.113 43.376 123.393 43.168C122.689 42.96 121.913 42.856 121.065 42.856C119.801 42.856 118.729 43.12 117.849 43.648C116.969 44.16 116.305 44.92 115.857 45.928C115.425 46.92 115.209 48.128 115.209 49.552C115.209 51.744 115.721 53.408 116.745 54.544C117.785 55.68 119.321 56.248 121.353 56.248C122.105 56.248 122.833 56.176 123.537 56.032C124.257 55.888 124.945 55.688 125.601 55.432L125.121 56.632V50.848H121.857C121.569 50.848 121.337 50.768 121.161 50.608C121.001 50.448 120.921 50.232 120.921 49.96C120.921 49.688 121.001 49.48 121.161 49.336C121.337 49.192 121.569 49.12 121.857 49.12H126.105C126.393 49.12 126.617 49.2 126.777 49.36C126.953 49.52 127.041 49.752 127.041 50.056V56.224C127.041 56.48 126.993 56.704 126.897 56.896C126.801 57.072 126.641 57.2 126.417 57.28C125.745 57.552 124.945 57.776 124.017 57.952C123.089 58.128 122.177 58.216 121.281 58.216ZM136.078 58.216C134.814 58.216 133.726 57.976 132.814 57.496C131.918 57 131.222 56.304 130.726 55.408C130.23 54.496 129.982 53.424 129.982 52.192C129.982 50.976 130.222 49.912 130.702 49C131.198 48.088 131.87 47.376 132.718 46.864C133.582 46.352 134.566 46.096 135.67 46.096C136.454 46.096 137.158 46.232 137.782 46.504C138.422 46.76 138.966 47.136 139.414 47.632C139.862 48.128 140.198 48.736 140.422 49.456C140.662 50.16 140.782 50.96 140.782 51.856C140.782 52.112 140.702 52.312 140.542 52.456C140.398 52.584 140.182 52.648 139.894 52.648H131.686V51.256H139.342L138.934 51.592C138.934 50.76 138.806 50.056 138.55 49.48C138.31 48.888 137.95 48.44 137.47 48.136C137.006 47.832 136.422 47.68 135.718 47.68C134.95 47.68 134.294 47.864 133.75 48.232C133.206 48.584 132.79 49.088 132.502 49.744C132.214 50.384 132.07 51.128 132.07 51.976V52.12C132.07 53.56 132.414 54.648 133.102 55.384C133.79 56.12 134.782 56.488 136.078 56.488C136.59 56.488 137.11 56.424 137.638 56.296C138.182 56.168 138.702 55.936 139.198 55.6C139.438 55.456 139.654 55.392 139.846 55.408C140.054 55.408 140.222 55.472 140.35 55.6C140.478 55.712 140.558 55.856 140.59 56.032C140.622 56.192 140.598 56.368 140.518 56.56C140.438 56.752 140.286 56.92 140.062 57.064C139.534 57.432 138.902 57.72 138.166 57.928C137.446 58.12 136.75 58.216 136.078 58.216ZM148.323 58.216C147.379 58.216 146.587 58.048 145.947 57.712C145.323 57.376 144.851 56.888 144.531 56.248C144.227 55.608 144.075 54.824 144.075 53.896V47.992H142.539C142.251 47.992 142.027 47.92 141.867 47.776C141.707 47.616 141.627 47.408 141.627 47.152C141.627 46.88 141.707 46.672 141.867 46.528C142.027 46.384 142.251 46.312 142.539 46.312H144.075V43.696C144.075 43.328 144.171 43.056 144.363 42.88C144.555 42.688 144.827 42.592 145.179 42.592C145.531 42.592 145.795 42.688 145.971 42.88C146.163 43.056 146.259 43.328 146.259 43.696V46.312H149.163C149.467 46.312 149.699 46.384 149.859 46.528C150.019 46.672 150.099 46.88 150.099 47.152C150.099 47.408 150.019 47.616 149.859 47.776C149.699 47.92 149.467 47.992 149.163 47.992H146.259V53.704C146.259 54.584 146.443 55.248 146.811 55.696C147.179 56.144 147.787 56.368 148.635 56.368C148.939 56.368 149.195 56.344 149.403 56.296C149.611 56.232 149.795 56.2 149.955 56.2C150.099 56.184 150.219 56.232 150.315 56.344C150.427 56.456 150.483 56.664 150.483 56.968C150.483 57.192 150.443 57.4 150.363 57.592C150.299 57.768 150.163 57.888 149.955 57.952C149.763 58.016 149.507 58.072 149.187 58.12C148.867 58.184 148.579 58.216 148.323 58.216ZM164.166 58.216C163.414 58.216 162.686 58.152 161.982 58.024C161.278 57.912 160.614 57.736 159.99 57.496C159.366 57.256 158.806 56.96 158.31 56.608C158.102 56.464 157.95 56.288 157.854 56.08C157.774 55.872 157.75 55.672 157.782 55.48C157.83 55.272 157.918 55.096 158.046 54.952C158.19 54.808 158.358 54.72 158.55 54.688C158.742 54.656 158.95 54.72 159.174 54.88C159.91 55.376 160.678 55.736 161.478 55.96C162.294 56.184 163.19 56.296 164.166 56.296C165.574 56.296 166.606 56.04 167.262 55.528C167.934 55.016 168.27 54.344 168.27 53.512C168.27 52.824 168.03 52.288 167.55 51.904C167.07 51.504 166.262 51.192 165.126 50.968L162.582 50.44C161.078 50.12 159.95 49.592 159.198 48.856C158.462 48.12 158.094 47.136 158.094 45.904C158.094 45.152 158.246 44.472 158.55 43.864C158.854 43.24 159.286 42.704 159.846 42.256C160.406 41.808 161.062 41.464 161.814 41.224C162.582 40.984 163.43 40.864 164.358 40.864C165.35 40.864 166.278 41 167.142 41.272C168.022 41.544 168.814 41.944 169.518 42.472C169.71 42.616 169.838 42.792 169.902 43C169.966 43.192 169.974 43.384 169.926 43.576C169.894 43.768 169.806 43.928 169.662 44.056C169.534 44.184 169.366 44.256 169.158 44.272C168.966 44.288 168.75 44.216 168.51 44.056C167.87 43.608 167.214 43.288 166.542 43.096C165.87 42.888 165.134 42.784 164.334 42.784C163.518 42.784 162.806 42.912 162.198 43.168C161.606 43.424 161.142 43.784 160.806 44.248C160.486 44.696 160.326 45.224 160.326 45.832C160.326 46.568 160.55 47.144 160.998 47.56C161.446 47.976 162.198 48.296 163.254 48.52L165.774 49.024C167.374 49.36 168.558 49.88 169.326 50.584C170.11 51.272 170.502 52.2 170.502 53.368C170.502 54.104 170.35 54.768 170.046 55.36C169.758 55.952 169.342 56.464 168.798 56.896C168.254 57.312 167.59 57.64 166.806 57.88C166.022 58.104 165.142 58.216 164.166 58.216ZM177.948 58.216C177.004 58.216 176.212 58.048 175.572 57.712C174.948 57.376 174.476 56.888 174.156 56.248C173.852 55.608 173.7 54.824 173.7 53.896V47.992H172.164C171.876 47.992 171.652 47.92 171.492 47.776C171.332 47.616 171.252 47.408 171.252 47.152C171.252 46.88 171.332 46.672 171.492 46.528C171.652 46.384 171.876 46.312 172.164 46.312H173.7V43.696C173.7 43.328 173.796 43.056 173.988 42.88C174.18 42.688 174.452 42.592 174.804 42.592C175.156 42.592 175.42 42.688 175.596 42.88C175.788 43.056 175.884 43.328 175.884 43.696V46.312H178.788C179.092 46.312 179.324 46.384 179.484 46.528C179.644 46.672 179.724 46.88 179.724 47.152C179.724 47.408 179.644 47.616 179.484 47.776C179.324 47.92 179.092 47.992 178.788 47.992H175.884V53.704C175.884 54.584 176.068 55.248 176.436 55.696C176.804 56.144 177.412 56.368 178.26 56.368C178.564 56.368 178.82 56.344 179.028 56.296C179.236 56.232 179.42 56.2 179.58 56.2C179.724 56.184 179.844 56.232 179.94 56.344C180.052 56.456 180.108 56.664 180.108 56.968C180.108 57.192 180.068 57.4 179.988 57.592C179.924 57.768 179.788 57.888 179.58 57.952C179.388 58.016 179.132 58.072 178.812 58.12C178.492 58.184 178.204 58.216 177.948 58.216ZM185.421 58.216C184.621 58.216 183.893 58.056 183.237 57.736C182.597 57.416 182.093 56.984 181.725 56.44C181.373 55.896 181.197 55.288 181.197 54.616C181.197 53.752 181.413 53.072 181.845 52.576C182.277 52.08 183.005 51.728 184.029 51.52C185.053 51.296 186.429 51.184 188.157 51.184H189.285V52.576H188.205C186.973 52.576 185.997 52.632 185.277 52.744C184.573 52.856 184.077 53.056 183.789 53.344C183.501 53.616 183.357 54 183.357 54.496C183.357 55.12 183.573 55.632 184.005 56.032C184.453 56.432 185.061 56.632 185.829 56.632C186.437 56.632 186.973 56.488 187.437 56.2C187.901 55.896 188.269 55.496 188.541 55C188.813 54.488 188.949 53.904 188.949 53.248V50.488C188.949 49.544 188.757 48.864 188.373 48.448C187.989 48.016 187.341 47.8 186.429 47.8C185.901 47.8 185.357 47.872 184.797 48.016C184.237 48.16 183.653 48.384 183.045 48.688C182.805 48.8 182.597 48.84 182.421 48.808C182.245 48.76 182.101 48.664 181.989 48.52C181.893 48.36 181.837 48.192 181.821 48.016C181.821 47.824 181.861 47.64 181.941 47.464C182.037 47.288 182.197 47.16 182.421 47.08C183.125 46.728 183.821 46.48 184.509 46.336C185.213 46.176 185.869 46.096 186.477 46.096C187.517 46.096 188.373 46.264 189.045 46.6C189.717 46.92 190.221 47.424 190.557 48.112C190.893 48.784 191.061 49.648 191.061 50.704V57.04C191.061 57.408 190.973 57.688 190.797 57.88C190.621 58.072 190.365 58.168 190.029 58.168C189.709 58.168 189.453 58.072 189.261 57.88C189.085 57.688 188.997 57.408 188.997 57.04V55.336H189.213C189.085 55.928 188.845 56.44 188.493 56.872C188.141 57.304 187.701 57.64 187.173 57.88C186.661 58.104 186.077 58.216 185.421 58.216ZM195.626 58.168C195.258 58.168 194.978 58.072 194.786 57.88C194.594 57.688 194.498 57.408 194.498 57.04V47.248C194.498 46.88 194.594 46.608 194.786 46.432C194.978 46.24 195.242 46.144 195.578 46.144C195.914 46.144 196.17 46.24 196.346 46.432C196.538 46.608 196.634 46.88 196.634 47.248V49.096H196.394C196.65 48.136 197.13 47.408 197.834 46.912C198.538 46.416 199.426 46.136 200.498 46.072C200.754 46.056 200.962 46.12 201.122 46.264C201.282 46.392 201.37 46.616 201.386 46.936C201.402 47.24 201.33 47.488 201.17 47.68C201.01 47.856 200.762 47.96 200.426 47.992L199.994 48.016C198.938 48.128 198.122 48.472 197.546 49.048C196.986 49.624 196.706 50.416 196.706 51.424V57.04C196.706 57.408 196.61 57.688 196.418 57.88C196.242 58.072 195.978 58.168 195.626 58.168ZM208.768 58.216C207.824 58.216 207.032 58.048 206.392 57.712C205.768 57.376 205.296 56.888 204.976 56.248C204.672 55.608 204.52 54.824 204.52 53.896V47.992H202.984C202.696 47.992 202.472 47.92 202.312 47.776C202.152 47.616 202.072 47.408 202.072 47.152C202.072 46.88 202.152 46.672 202.312 46.528C202.472 46.384 202.696 46.312 202.984 46.312H204.52V43.696C204.52 43.328 204.616 43.056 204.808 42.88C205 42.688 205.272 42.592 205.624 42.592C205.976 42.592 206.24 42.688 206.416 42.88C206.608 43.056 206.704 43.328 206.704 43.696V46.312H209.608C209.912 46.312 210.144 46.384 210.304 46.528C210.464 46.672 210.544 46.88 210.544 47.152C210.544 47.408 210.464 47.616 210.304 47.776C210.144 47.92 209.912 47.992 209.608 47.992H206.704V53.704C206.704 54.584 206.888 55.248 207.256 55.696C207.624 56.144 208.232 56.368 209.08 56.368C209.384 56.368 209.64 56.344 209.848 56.296C210.056 56.232 210.24 56.2 210.4 56.2C210.544 56.184 210.664 56.232 210.76 56.344C210.872 56.456 210.928 56.664 210.928 56.968C210.928 57.192 210.888 57.4 210.808 57.592C210.744 57.768 210.608 57.888 210.4 57.952C210.208 58.016 209.952 58.072 209.632 58.12C209.312 58.184 209.024 58.216 208.768 58.216ZM217.804 58.216C216.54 58.216 215.452 57.976 214.54 57.496C213.644 57 212.948 56.304 212.452 55.408C211.956 54.496 211.708 53.424 211.708 52.192C211.708 50.976 211.948 49.912 212.428 49C212.924 48.088 213.596 47.376 214.444 46.864C215.308 46.352 216.292 46.096 217.396 46.096C218.18 46.096 218.884 46.232 219.508 46.504C220.148 46.76 220.692 47.136 221.14 47.632C221.588 48.128 221.924 48.736 222.148 49.456C222.388 50.16 222.508 50.96 222.508 51.856C222.508 52.112 222.428 52.312 222.268 52.456C222.124 52.584 221.908 52.648 221.62 52.648H213.412V51.256H221.068L220.66 51.592C220.66 50.76 220.532 50.056 220.276 49.48C220.036 48.888 219.676 48.44 219.196 48.136C218.732 47.832 218.148 47.68 217.444 47.68C216.676 47.68 216.02 47.864 215.476 48.232C214.932 48.584 214.516 49.088 214.228 49.744C213.94 50.384 213.796 51.128 213.796 51.976V52.12C213.796 53.56 214.14 54.648 214.828 55.384C215.516 56.12 216.508 56.488 217.804 56.488C218.316 56.488 218.836 56.424 219.364 56.296C219.908 56.168 220.428 55.936 220.924 55.6C221.164 55.456 221.38 55.392 221.572 55.408C221.78 55.408 221.948 55.472 222.076 55.6C222.204 55.712 222.284 55.856 222.316 56.032C222.348 56.192 222.324 56.368 222.244 56.56C222.164 56.752 222.012 56.92 221.788 57.064C221.26 57.432 220.628 57.72 219.892 57.928C219.172 58.12 218.476 58.216 217.804 58.216ZM229.689 58.216C228.665 58.216 227.761 57.976 226.977 57.496C226.209 57 225.609 56.296 225.177 55.384C224.745 54.456 224.529 53.376 224.529 52.144C224.529 50.896 224.737 49.824 225.153 48.928C225.585 48.016 226.185 47.32 226.953 46.84C227.737 46.344 228.649 46.096 229.689 46.096C230.729 46.096 231.625 46.36 232.377 46.888C233.129 47.4 233.633 48.088 233.889 48.952H233.625V42.016C233.625 41.648 233.713 41.376 233.889 41.2C234.081 41.008 234.353 40.912 234.705 40.912C235.057 40.912 235.329 41.008 235.521 41.2C235.713 41.376 235.809 41.648 235.809 42.016V57.04C235.809 57.408 235.713 57.688 235.521 57.88C235.329 58.072 235.057 58.168 234.705 58.168C234.369 58.168 234.105 58.072 233.913 57.88C233.721 57.688 233.625 57.408 233.625 57.04V54.856L233.889 55.288C233.649 56.184 233.145 56.896 232.377 57.424C231.625 57.952 230.729 58.216 229.689 58.216ZM230.193 56.488C230.897 56.488 231.505 56.32 232.017 55.984C232.545 55.648 232.945 55.16 233.217 54.52C233.505 53.88 233.649 53.088 233.649 52.144C233.649 50.736 233.337 49.664 232.713 48.928C232.089 48.192 231.249 47.824 230.193 47.824C229.505 47.824 228.897 47.992 228.369 48.328C227.857 48.648 227.457 49.128 227.169 49.768C226.881 50.408 226.737 51.2 226.737 52.144C226.737 53.552 227.049 54.632 227.673 55.384C228.313 56.12 229.153 56.488 230.193 56.488Z" fill="white"/>
<defs>
<filter id="filter0_f_175_2038" x="0" y="0" width="348" height="123" filterUnits="userSpaceOnUse" color-interpolation-filters="sRGB">
<feFlood flood-opacity="0" result="BackgroundImageFix"/>
<feBlend mode="normal" in="SourceGraphic" in2="BackgroundImageFix" result="shape"/>
<feGaussianBlur stdDeviation="15" result="effect1_foregroundBlur_175_2038"/>
</filter>
</defs>
</svg>
