<svg width="159" height="60" viewBox="0 0 159 60" fill="none" xmlns="http://www.w3.org/2000/svg">
<rect width="159" height="60" rx="10" fill="#ED8350"/>
<path d="M39.1038 35.112C38.8691 35.112 38.6878 35.048 38.5598 34.92C38.4318 34.7813 38.3678 34.5893 38.3678 34.344V24.376C38.3678 24.12 38.4318 23.928 38.5598 23.8C38.6878 23.672 38.8691 23.608 39.1038 23.608C39.3491 23.608 39.5358 23.672 39.6638 23.8C39.7918 23.928 39.8558 24.12 39.8558 24.376V28.648H46.3838V24.376C46.3838 24.12 46.4478 23.928 46.5758 23.8C46.7038 23.672 46.8905 23.608 47.1358 23.608C47.3705 23.608 47.5518 23.672 47.6798 23.8C47.8078 23.928 47.8718 24.12 47.8718 24.376V34.344C47.8718 34.5893 47.8078 34.7813 47.6798 34.92C47.5518 35.048 47.3705 35.112 47.1358 35.112C46.8905 35.112 46.7038 35.048 46.5758 34.92C46.4478 34.7813 46.3838 34.5893 46.3838 34.344V29.912H39.8558V34.344C39.8558 34.5893 39.7918 34.7813 39.6638 34.92C39.5465 35.048 39.3598 35.112 39.1038 35.112ZM53.7066 35.144C52.9386 35.144 52.2719 34.9787 51.7066 34.648C51.1412 34.3173 50.7039 33.848 50.3946 33.24C50.0852 32.632 49.9306 31.9173 49.9306 31.096C49.9306 30.4773 50.0159 29.9227 50.1866 29.432C50.3679 28.9307 50.6239 28.504 50.9546 28.152C51.2852 27.8 51.6799 27.5333 52.1386 27.352C52.6079 27.16 53.1306 27.064 53.7066 27.064C54.4746 27.064 55.1412 27.2293 55.7066 27.56C56.2719 27.8907 56.7092 28.36 57.0186 28.968C57.3279 29.5653 57.4826 30.2747 57.4826 31.096C57.4826 31.7147 57.3919 32.2747 57.2106 32.776C57.0399 33.2773 56.7892 33.704 56.4586 34.056C56.1279 34.408 55.7279 34.68 55.2586 34.872C54.7999 35.0533 54.2826 35.144 53.7066 35.144ZM53.7066 33.992C54.1759 33.992 54.5812 33.88 54.9226 33.656C55.2746 33.432 55.5412 33.1067 55.7226 32.68C55.9146 32.2533 56.0106 31.7253 56.0106 31.096C56.0106 30.1573 55.8026 29.4427 55.3866 28.952C54.9706 28.4613 54.4106 28.216 53.7066 28.216C53.2479 28.216 52.8426 28.328 52.4906 28.552C52.1492 28.7653 51.8826 29.0853 51.6906 29.512C51.4986 29.9387 51.4026 30.4667 51.4026 31.096C51.4026 32.0347 51.6106 32.7547 52.0266 33.256C52.4532 33.7467 53.0132 33.992 53.7066 33.992ZM60.0997 35.112C59.8757 35.112 59.6997 35.048 59.5717 34.92C59.4437 34.792 59.3797 34.6053 59.3797 34.36V27.832C59.3797 27.5867 59.4437 27.4053 59.5717 27.288C59.6997 27.16 59.8757 27.096 60.0997 27.096C60.3237 27.096 60.4944 27.16 60.6117 27.288C60.7397 27.4053 60.8037 27.5867 60.8037 27.832V29.192L60.6277 28.904C60.8304 28.3173 61.1557 27.864 61.6037 27.544C62.0624 27.224 62.6064 27.064 63.2357 27.064C63.897 27.064 64.4304 27.224 64.8357 27.544C65.241 27.8533 65.513 28.328 65.6517 28.968H65.4277C65.6197 28.3813 65.961 27.9173 66.4517 27.576C66.953 27.2347 67.5344 27.064 68.1957 27.064C68.7824 27.064 69.2624 27.1813 69.6357 27.416C70.0197 27.64 70.3077 27.9813 70.4997 28.44C70.6917 28.888 70.7877 29.464 70.7877 30.168V34.36C70.7877 34.6053 70.7237 34.792 70.5957 34.92C70.4677 35.048 70.2917 35.112 70.0677 35.112C69.833 35.112 69.6517 35.048 69.5237 34.92C69.3957 34.792 69.3317 34.6053 69.3317 34.36V30.232C69.3317 29.5493 69.2144 29.048 68.9797 28.728C68.745 28.408 68.3504 28.248 67.7957 28.248C67.1877 28.248 66.7024 28.4613 66.3397 28.888C65.9877 29.304 65.8117 29.88 65.8117 30.616V34.36C65.8117 34.6053 65.7477 34.792 65.6197 34.92C65.5024 35.048 65.3264 35.112 65.0917 35.112C64.857 35.112 64.6757 35.048 64.5477 34.92C64.4197 34.792 64.3557 34.6053 64.3557 34.36V30.232C64.3557 29.5493 64.2384 29.048 64.0037 28.728C63.769 28.408 63.3744 28.248 62.8197 28.248C62.2117 28.248 61.7264 28.4613 61.3637 28.888C61.0117 29.304 60.8357 29.88 60.8357 30.616V34.36C60.8357 34.8613 60.5904 35.112 60.0997 35.112ZM76.7289 35.144C75.8863 35.144 75.1609 34.984 74.5529 34.664C73.9556 34.3333 73.4916 33.8693 73.1609 33.272C72.8303 32.664 72.6649 31.9493 72.6649 31.128C72.6649 30.3173 72.8249 29.608 73.1449 29C73.4756 28.392 73.9236 27.9173 74.4889 27.576C75.0649 27.2347 75.7209 27.064 76.4569 27.064C76.9796 27.064 77.4489 27.1547 77.8649 27.336C78.2916 27.5067 78.6543 27.7573 78.9529 28.088C79.2516 28.4187 79.4756 28.824 79.6249 29.304C79.7849 29.7733 79.8649 30.3067 79.8649 30.904C79.8649 31.0747 79.8116 31.208 79.7049 31.304C79.6089 31.3893 79.4649 31.432 79.2729 31.432H73.8009V30.504H78.9049L78.6329 30.728C78.6329 30.1733 78.5476 29.704 78.3769 29.32C78.2169 28.9253 77.9769 28.6267 77.6569 28.424C77.3476 28.2213 76.9583 28.12 76.4889 28.12C75.9769 28.12 75.5396 28.2427 75.1769 28.488C74.8143 28.7227 74.5369 29.0587 74.3449 29.496C74.1529 29.9227 74.0569 30.4187 74.0569 30.984V31.08C74.0569 32.04 74.2863 32.7653 74.7449 33.256C75.2036 33.7467 75.8649 33.992 76.7289 33.992C77.0703 33.992 77.4169 33.9493 77.7689 33.864C78.1316 33.7787 78.4783 33.624 78.8089 33.4C78.9689 33.304 79.1129 33.2613 79.2409 33.272C79.3796 33.272 79.4916 33.3147 79.5769 33.4C79.6623 33.4747 79.7156 33.5707 79.7369 33.688C79.7583 33.7947 79.7423 33.912 79.6889 34.04C79.6356 34.168 79.5343 34.28 79.3849 34.376C79.0329 34.6213 78.6116 34.8133 78.1209 34.952C77.6409 35.08 77.1769 35.144 76.7289 35.144ZM86.7757 35.112C86.541 35.112 86.3597 35.048 86.2317 34.92C86.1037 34.7813 86.0397 34.5893 86.0397 34.344V24.472C86.0397 24.2267 86.1037 24.04 86.2317 23.912C86.3704 23.784 86.557 23.72 86.7917 23.72H90.5997C91.8157 23.72 92.749 24.0187 93.3997 24.616C94.061 25.2133 94.3917 26.0507 94.3917 27.128C94.3917 28.216 94.061 29.0587 93.3997 29.656C92.749 30.2533 91.8157 30.552 90.5997 30.552H87.5277V34.344C87.5277 34.5893 87.4637 34.7813 87.3357 34.92C87.2184 35.048 87.0317 35.112 86.7757 35.112ZM87.5277 29.352H90.4077C91.2397 29.352 91.8637 29.1653 92.2797 28.792C92.7064 28.408 92.9197 27.8533 92.9197 27.128C92.9197 26.4027 92.7064 25.8587 92.2797 25.496C91.8637 25.1227 91.2397 24.936 90.4077 24.936H87.5277V29.352ZM98.1246 35.144C97.5912 35.144 97.1059 35.0373 96.6686 34.824C96.2419 34.6107 95.9059 34.3227 95.6606 33.96C95.4259 33.5973 95.3086 33.192 95.3086 32.744C95.3086 32.168 95.4526 31.7147 95.7406 31.384C96.0286 31.0533 96.5139 30.8187 97.1966 30.68C97.8792 30.5307 98.7966 30.456 99.9486 30.456H100.701V31.384H99.9806C99.1592 31.384 98.5086 31.4213 98.0286 31.496C97.5592 31.5707 97.2286 31.704 97.0366 31.896C96.8446 32.0773 96.7486 32.3333 96.7486 32.664C96.7486 33.08 96.8926 33.4213 97.1806 33.688C97.4792 33.9547 97.8846 34.088 98.3966 34.088C98.8019 34.088 99.1592 33.992 99.4686 33.8C99.7779 33.5973 100.023 33.3307 100.205 33C100.386 32.6587 100.477 32.2693 100.477 31.832V29.992C100.477 29.3627 100.349 28.9093 100.093 28.632C99.8366 28.344 99.4046 28.2 98.7966 28.2C98.4446 28.2 98.0819 28.248 97.7086 28.344C97.3352 28.44 96.9459 28.5893 96.5406 28.792C96.3806 28.8667 96.2419 28.8933 96.1246 28.872C96.0072 28.84 95.9112 28.776 95.8366 28.68C95.7726 28.5733 95.7352 28.4613 95.7246 28.344C95.7246 28.216 95.7512 28.0933 95.8046 27.976C95.8686 27.8587 95.9752 27.7733 96.1246 27.72C96.5939 27.4853 97.0579 27.32 97.5166 27.224C97.9859 27.1173 98.4232 27.064 98.8286 27.064C99.5219 27.064 100.093 27.176 100.541 27.4C100.989 27.6133 101.325 27.9493 101.549 28.408C101.773 28.856 101.885 29.432 101.885 30.136V34.36C101.885 34.6053 101.826 34.792 101.709 34.92C101.591 35.048 101.421 35.112 101.197 35.112C100.983 35.112 100.813 35.048 100.685 34.92C100.567 34.792 100.509 34.6053 100.509 34.36V33.224H100.653C100.567 33.6187 100.407 33.96 100.173 34.248C99.9379 34.536 99.6446 34.76 99.2926 34.92C98.9512 35.0693 98.5619 35.144 98.1246 35.144ZM107.68 38.024C107.104 38.024 106.544 37.96 106 37.832C105.466 37.704 104.981 37.5067 104.544 37.24C104.405 37.1547 104.309 37.0533 104.256 36.936C104.213 36.8293 104.202 36.7173 104.224 36.6C104.256 36.4827 104.309 36.376 104.384 36.28C104.469 36.1947 104.565 36.136 104.672 36.104C104.789 36.0827 104.906 36.1093 105.024 36.184C105.493 36.4507 105.941 36.632 106.368 36.728C106.794 36.824 107.2 36.872 107.584 36.872C108.341 36.872 108.906 36.6747 109.28 36.28C109.664 35.896 109.856 35.3307 109.856 34.584V32.856H110C109.85 33.4533 109.514 33.928 108.992 34.28C108.48 34.632 107.882 34.808 107.2 34.808C106.496 34.808 105.882 34.648 105.36 34.328C104.837 33.9973 104.432 33.544 104.144 32.968C103.856 32.3813 103.712 31.704 103.712 30.936C103.712 30.3493 103.792 29.8213 103.952 29.352C104.122 28.872 104.357 28.4667 104.656 28.136C104.965 27.7947 105.333 27.5333 105.76 27.352C106.186 27.16 106.666 27.064 107.2 27.064C107.893 27.064 108.496 27.24 109.008 27.592C109.52 27.944 109.85 28.4187 110 29.016L109.824 29.24V27.832C109.824 27.5867 109.888 27.4053 110.016 27.288C110.144 27.16 110.325 27.096 110.56 27.096C110.784 27.096 110.96 27.16 111.088 27.288C111.216 27.4053 111.28 27.5867 111.28 27.832V34.392C111.28 35.5973 110.97 36.504 110.352 37.112C109.744 37.72 108.853 38.024 107.68 38.024ZM107.52 33.656C108 33.656 108.41 33.5493 108.752 33.336C109.104 33.112 109.37 32.7973 109.552 32.392C109.744 31.976 109.84 31.4907 109.84 30.936C109.84 30.0933 109.632 29.432 109.216 28.952C108.8 28.4613 108.234 28.216 107.52 28.216C107.04 28.216 106.624 28.328 106.272 28.552C105.93 28.7653 105.664 29.0747 105.472 29.48C105.28 29.8853 105.184 30.3707 105.184 30.936C105.184 31.768 105.392 32.4293 105.808 32.92C106.234 33.4107 106.805 33.656 107.52 33.656ZM117.213 35.144C116.371 35.144 115.645 34.984 115.037 34.664C114.44 34.3333 113.976 33.8693 113.645 33.272C113.315 32.664 113.149 31.9493 113.149 31.128C113.149 30.3173 113.309 29.608 113.629 29C113.96 28.392 114.408 27.9173 114.973 27.576C115.549 27.2347 116.205 27.064 116.941 27.064C117.464 27.064 117.933 27.1547 118.349 27.336C118.776 27.5067 119.139 27.7573 119.437 28.088C119.736 28.4187 119.96 28.824 120.109 29.304C120.269 29.7733 120.349 30.3067 120.349 30.904C120.349 31.0747 120.296 31.208 120.189 31.304C120.093 31.3893 119.949 31.432 119.757 31.432H114.285V30.504H119.389L119.117 30.728C119.117 30.1733 119.032 29.704 118.861 29.32C118.701 28.9253 118.461 28.6267 118.141 28.424C117.832 28.2213 117.443 28.12 116.973 28.12C116.461 28.12 116.024 28.2427 115.661 28.488C115.299 28.7227 115.021 29.0587 114.829 29.496C114.637 29.9227 114.541 30.4187 114.541 30.984V31.08C114.541 32.04 114.771 32.7653 115.229 33.256C115.688 33.7467 116.349 33.992 117.213 33.992C117.555 33.992 117.901 33.9493 118.253 33.864C118.616 33.7787 118.963 33.624 119.293 33.4C119.453 33.304 119.597 33.2613 119.725 33.272C119.864 33.272 119.976 33.3147 120.061 33.4C120.147 33.4747 120.2 33.5707 120.221 33.688C120.243 33.7947 120.227 33.912 120.173 34.04C120.12 34.168 120.019 34.28 119.869 34.376C119.517 34.6213 119.096 34.8133 118.605 34.952C118.125 35.08 117.661 35.144 117.213 35.144Z" fill="white"/>
</svg>
