<svg width="338" height="48" viewBox="0 0 338 48" fill="none" xmlns="http://www.w3.org/2000/svg">
<rect width="338" height="47.0412" rx="6.96907" fill="white"/>
<path d="M143.445 29.1051C145.857 29.1051 147.724 27.6834 148.115 25.537H146.261C145.926 26.6659 144.867 27.3907 143.487 27.3907C141.619 27.3907 140.421 25.9969 140.421 23.8365C140.421 21.6622 141.605 20.2962 143.487 20.2962C144.839 20.2962 145.857 20.9931 146.205 22.1779H148.087C147.738 19.9896 145.94 18.5818 143.529 18.5818C140.546 18.5818 138.553 20.6865 138.553 23.8504C138.553 27.0423 140.476 29.1051 143.445 29.1051ZM149.059 25.4812C149.059 27.6277 150.607 29.1051 152.739 29.1051C154.872 29.1051 156.419 27.6277 156.419 25.4812C156.419 23.3347 154.872 21.8573 152.739 21.8573C150.607 21.8573 149.059 23.3347 149.059 25.4812ZM150.76 25.4812C150.76 24.2268 151.568 23.3765 152.739 23.3765C153.91 23.3765 154.718 24.2268 154.718 25.4812C154.718 26.7356 153.91 27.5859 152.739 27.5859C151.568 27.5859 150.76 26.7356 150.76 25.4812ZM159.467 28.9379V25.2303C159.467 24.1153 160.108 23.3905 161.154 23.3905C162.032 23.3905 162.603 23.948 162.603 25.1049V28.9379H164.304V24.7007C164.304 22.9166 163.412 21.8434 161.683 21.8434C160.749 21.8434 159.913 22.2476 159.481 22.9445L159.342 22.0524H157.767V28.9379H159.467ZM168.316 28.9379V23.4741H169.654V22.0524H168.316V19.9059H166.615V22.0524H165.291V23.4741H166.615V28.9379H168.316ZM171.561 20.6725C172.119 20.6725 172.579 20.2126 172.579 19.6411C172.579 19.0697 172.119 18.6236 171.561 18.6236C170.976 18.6236 170.516 19.0697 170.516 19.6411C170.516 20.2126 170.976 20.6725 171.561 20.6725ZM170.711 28.9379H172.412V22.0524H170.711V28.9379ZM175.869 28.9379V25.2303C175.869 24.1153 176.51 23.3905 177.555 23.3905C178.433 23.3905 179.005 23.948 179.005 25.1049V28.9379H180.705V24.7007C180.705 22.9166 179.813 21.8434 178.085 21.8434C177.151 21.8434 176.315 22.2476 175.883 22.9445L175.743 22.0524H174.168V28.9379H175.869ZM187.045 22.0524V25.6624C187.045 26.9726 186.53 27.5998 185.456 27.5998C184.509 27.5998 183.993 27.0702 183.993 25.76V22.0524H182.292V26.3593C182.292 28.0458 183.226 29.1191 184.815 29.1191C185.735 29.1191 186.627 28.673 187.045 28.0179L187.171 28.9379H188.746V22.0524H187.045ZM193.446 29.1191C195.244 29.1191 196.499 28.2131 196.792 26.7078H195.217C195.021 27.3629 194.408 27.7252 193.474 27.7252C192.345 27.7252 191.704 27.112 191.579 25.8994L196.764 25.8854V25.3697C196.764 23.2232 195.453 21.8434 193.391 21.8434C191.37 21.8434 189.962 23.3347 189.962 25.4951C189.962 27.6277 191.397 29.1191 193.446 29.1191ZM193.405 23.2372C194.422 23.2372 195.077 23.8644 195.077 24.8122H191.62C191.788 23.7808 192.401 23.2372 193.405 23.2372Z" fill="#1A1C20"/>
</svg>
