<svg width="33" height="12" viewBox="0 0 33 12" fill="none" xmlns="http://www.w3.org/2000/svg">
<path d="M0.160465 3.3369C0.160465 5.00535 1.13907 6.09626 3.03212 6.52941L4.94121 6.96257C6.04816 7.21925 6.54549 7.79679 6.54549 8.71123C6.54549 9.86631 5.56688 10.5882 4.02677 10.5882C2.56688 10.5882 1.6364 9.88235 1.60431 8.7754H3.7233e-05C0.0962939 10.7647 1.66849 12 4.02677 12C6.49736 12 8.11768 10.6684 8.11768 8.58289C8.11768 6.94652 7.15512 5.91979 5.26207 5.48663L3.35298 5.03743C2.26207 4.78075 1.73266 4.21925 1.73266 3.28877C1.73266 2.14973 2.67918 1.41177 4.13907 1.41177C5.43854 1.41177 6.25672 2.08556 6.33693 3.24064H7.92517C7.79683 1.23529 6.36902 0 4.15512 0C1.76474 0 0.160465 1.34759 0.160465 3.3369ZM11.6655 0.208556H10.0933V11.8075H11.6655V9.14438L13.7832 6.46524L16.9436 11.8075H18.7725L14.8259 5.13369L18.7083 0.208556H16.8313L11.6655 6.7861V0.208556ZM21.9743 0.208556H20.4021V11.8075H21.9743V0.208556ZM29.1871 7.66845C31.4491 7.66845 32.9251 6.09626 32.9251 3.93048C32.9251 1.70053 31.4652 0.208556 29.1871 0.208556H24.6791V11.8075H26.2513V7.66845H29.1871ZM28.9144 1.62032C30.3903 1.62032 31.2727 2.45455 31.2727 3.91444C31.2727 5.34225 30.4064 6.25668 28.8502 6.25668H26.2513V1.62032H28.9144Z" fill="#1A1C20"/>
</svg>
