<svg width="338" height="219" viewBox="0 0 338 219" fill="none" xmlns="http://www.w3.org/2000/svg">
<path d="M338 44.5118C338 36.0304 330.974 29.2358 322.497 29.5203L14.4969 39.8568C6.41299 40.1281 0 46.7599 0 54.8483V191.794C0 199.859 6.37576 206.48 14.4341 206.784L322.434 218.412C330.934 218.733 338 211.929 338 203.423V44.5118Z" fill="#FDF0E0"/>
<path d="M327 53.3409C327 46.0605 320.975 40.2247 313.698 40.457L23.4793 49.7196C16.5237 49.9416 11 55.6444 11 62.6035V184.181C11 191.121 16.4932 196.815 23.428 197.064L313.647 207.484C320.943 207.746 327 201.902 327 194.602V53.3409Z" stroke="url(#paint0_linear_52_1348)" stroke-width="2"/>
<path d="M126.336 171.808H131.568V187H133.92V171.808H139.128V169.648H126.336V171.808ZM144.274 187.288C147.178 187.288 149.146 185.872 149.722 183.352H147.61C147.226 184.696 146.074 185.416 144.322 185.416C142.09 185.416 140.794 184.048 140.626 181.576L149.698 181.552V180.712C149.698 177.232 147.514 174.928 144.178 174.928C140.77 174.928 138.442 177.472 138.442 181.144C138.442 184.792 140.818 187.288 144.274 187.288ZM144.178 176.824C146.17 176.824 147.442 178.12 147.442 180.064H140.674C140.962 178 142.21 176.824 144.178 176.824ZM155.533 187.288C157.429 187.288 159.037 186.448 159.637 185.104L159.877 187H161.797V179.632C161.797 176.464 159.829 174.928 156.925 174.928C153.901 174.928 151.885 176.536 151.885 178.984H153.853C153.853 177.568 154.933 176.728 156.829 176.728C158.413 176.728 159.589 177.424 159.589 179.392V179.728L155.893 180.016C153.133 180.232 151.525 181.576 151.525 183.736C151.525 185.872 153.013 187.288 155.533 187.288ZM156.181 185.536C154.717 185.536 153.805 184.912 153.805 183.664C153.805 182.512 154.621 181.744 156.613 181.552L159.613 181.312V181.936C159.613 184.144 158.317 185.536 156.181 185.536ZM164.153 181.144C164.153 184.84 166.433 187.288 169.889 187.288C172.721 187.288 174.905 185.584 175.361 183.04H173.105C172.697 184.432 171.497 185.272 169.889 185.272C167.753 185.272 166.385 183.64 166.385 181.12C166.385 178.576 167.849 176.944 169.985 176.944C171.497 176.944 172.697 177.736 173.081 179.224H175.337C174.929 176.608 172.865 174.928 169.913 174.928C166.481 174.928 164.153 177.472 164.153 181.144ZM179.997 186.976V180.592C179.997 178.576 181.173 176.992 183.357 176.992C185.037 176.992 186.165 177.952 186.165 180.328V187H188.421V179.824C188.421 176.824 186.981 174.928 183.981 174.928C182.157 174.928 180.741 175.792 179.997 177.064V169.336H177.741V186.976H179.997ZM196.61 187.288C199.514 187.288 201.482 185.872 202.058 183.352H199.946C199.562 184.696 198.41 185.416 196.658 185.416C194.426 185.416 193.13 184.048 192.962 181.576L202.034 181.552V180.712C202.034 177.232 199.85 174.928 196.514 174.928C193.106 174.928 190.778 177.472 190.778 181.144C190.778 184.792 193.154 187.288 196.61 187.288ZM196.514 176.824C198.506 176.824 199.778 178.12 199.778 180.064H193.01C193.298 178 194.546 176.824 196.514 176.824ZM211.274 175.168C210.818 175.072 210.482 175.024 210.074 175.024C208.466 175.024 207.29 175.84 206.81 177.064L206.666 175.288H204.554V187H206.81V180.784C206.81 178.528 208.13 177.232 210.266 177.232H211.274V175.168Z" fill="#1A1C20"/>
<path d="M133.925 70.8419V84.1828C133.925 86.0908 132.384 87.6318 130.476 87.6318H128.23C126.323 87.6318 124.781 89.1728 124.781 91.0808V96.3056C124.781 98.2135 126.323 99.7545 128.23 99.7545H182.445C184.353 99.7545 185.894 101.296 185.894 103.204V107.562C185.894 109.47 187.435 111.011 189.343 111.011H192.102C194.01 111.011 195.551 109.47 195.551 107.562V97.9787C195.551 96.0708 197.092 94.5297 199 94.5297H243.47C245.378 94.5297 246.919 92.9887 246.919 91.0808V75.4357" stroke="#231F20" stroke-width="0.587637" stroke-linecap="round" stroke-linejoin="round"/>
<path d="M97.0181 14.6252L94.7242 11.119L98.2861 12.999L99.5101 6.69843L100.827 13.4217L106.465 10.6611L102.354 15.497L107.479 20.509L101.207 18.2283L100.728 25.2333L98.5327 18.877L92.985 22.0867L96.864 16.7577L91.2532 14.9701L97.0181 14.6252Z" fill="#EE7C97"/>
<path d="M258.01 8.61954L264.205 70.5659C264.682 75.3446 260.288 79.2265 254.36 79.2427L164.91 79.476C159.004 79.4907 153.835 75.6337 153.358 70.8551L147.163 8.90866C146.685 4.13001 151.08 0.248082 156.986 0.233406L246.435 5.04962e-05C252.34 -0.0160936 257.532 3.84088 258.01 8.61954Z" fill="white"/>
<path d="M258.609 79.4511H224.239L206.628 70.6232L193.975 79.4511H175.364L173.318 77.4874L165.933 79.4511H161.195C157.398 79.4511 153.986 76.3661 153.588 72.5429L146.717 6.92295C146.321 3.11441 149.071 0.01474 152.883 0.01474H168.36L180.895 8.0002L189.135 0.01474H224.21L244.323 6.77619C248.059 6.77619 257.402 3.01167 257.888 6.76004C257.888 6.82022 257.903 6.86425 257.903 6.92295L258.506 12.7539L252.738 22.4829L259.962 26.5571L264.773 72.5429C265.171 76.3661 262.404 79.4511 258.609 79.4511Z" fill="white"/>
<path d="M160.268 61.1906L193.975 38.8251L164.771 43.8592C164.653 43.8738 164.549 43.9472 164.476 44.0514L162.402 47.1364L161.166 50.9156L160.033 61.0424C160.018 61.1744 160.165 61.264 160.268 61.1906Z" fill="#EE7C97"/>
<path d="M161.093 29.761L160.253 30.7502L158.297 34.1302L157.444 38.426C157.398 38.6329 157.561 38.8399 157.782 38.8399L176.526 39.1496L161.459 29.5834C161.386 29.5394 161.298 29.5394 161.21 29.5688C161.166 29.5688 161.107 29.7317 161.093 29.761Z" fill="#ED8350"/>
<path d="M196.888 32.212L189.135 0.0294495H177.071L175.85 0.339123L168.036 6.89363L167.992 6.98169C167.933 7.08589 167.963 7.2033 168.051 7.27815L196.888 32.212Z" fill="#ED8350"/>
<path d="M257.888 6.76007C257.402 3.02638 254.033 0.0294479 250.296 0.0294479L224.21 0.0147705L214.279 30.0413L257.888 6.76007Z" fill="#ED8350"/>
<path d="M259.962 26.5571L258.506 12.7539L236.025 28.6676L259.962 26.5571Z" fill="#ED8350"/>
<path d="M218.928 42.8113L251.782 68.4232C251.811 68.4379 251.84 68.4232 251.855 68.3939L254.328 52.1999C254.328 52.1999 254.328 52.1999 254.328 52.1852L253.827 47.2539C253.827 47.2392 253.813 47.2245 253.783 47.2099L218.958 42.7218C218.914 42.7218 218.884 42.7805 218.928 42.8113Z" fill="#EE7C97"/>
<path d="M165.933 79.4511H175.364L180.69 70.0479L165.933 79.4511Z" fill="#ED8350"/>
<path d="M193.975 79.451L200.288 46.3395L224.24 79.451H193.975Z" fill="#ED8350"/>
<path d="M183.455 51.1079C185.456 51.1079 187.074 49.4818 187.074 47.4755C187.074 45.4707 185.456 43.8445 183.455 43.8445C181.456 43.8445 179.836 45.4707 179.836 47.4755C179.836 49.4818 181.456 51.1079 183.455 51.1079Z" fill="#989898"/>
<path d="M164.52 43.9766L158.37 49.04L160.033 61.0718C160.048 61.1451 160.15 61.1451 160.165 61.0864L164.609 44.0353C164.609 43.9913 164.565 43.9473 164.52 43.9766Z" fill="#EE7C97"/>
<path d="M167.963 7.08589L168.36 0.0147705L177.071 0.0294479L168.214 7.21798C168.109 7.3075 167.963 7.21798 167.963 7.08589Z" fill="#040405"/>
<path d="M157.474 38.6476L155.869 35.3116L161.195 29.5541C161.21 29.5247 161.254 29.5541 161.24 29.5834L157.796 38.6476C157.738 38.7958 157.532 38.7958 157.474 38.6476Z" fill="#989898"/>
<path d="M251.84 68.4085L256.799 62.9166L253.813 47.2539C253.813 47.2392 253.783 47.2392 253.783 47.2539L251.84 68.4085Z" fill="#EE7C97"/>
<path d="M211.519 121.608L211.24 116.53L211.255 116.5C211.725 115.987 212.136 115.429 212.473 114.827C212.899 114.093 213.163 112.949 213.325 111.217V111.158C213.398 110.292 213.442 109.294 213.471 108.017V107.988C213.501 106.843 213.501 105.64 213.501 104.348C213.515 100.958 213.53 97.1274 213.912 93.4877C214.205 90.6845 215.321 87.1474 217.111 83.1701L217.522 82.9353L228.617 89.2022L228.632 90.3763C226.651 93.2382 225.609 95.3663 225.359 97.1421C225.124 98.7712 225.33 100.709 225.55 102.954C225.711 104.466 225.873 106.183 225.932 108.003V108.032C225.946 108.737 225.946 109.412 225.932 110.072C225.888 111.775 225.77 113.521 225.565 115.268V115.297C225.271 117.968 224.875 120.111 224.581 121.49L224.332 121.872L211.519 121.608Z" fill="#EAA58B"/>
<path d="M246.024 121.608L242.751 116.72L242.722 116.471C243.118 115.766 243.265 115.003 243.118 114.211C243 113.726 242.81 113.271 242.575 112.831L242.56 112.802C242.179 112.009 241.591 110.967 240.667 109.426L240.652 109.397C240.241 108.692 239.786 107.959 239.331 107.21C237.379 103.981 235.163 100.312 233.989 97.5677C233.153 95.6304 232.712 93.2675 232.683 90.3615L232.903 90.1267L244.468 90.2148L244.585 90.3469C244.512 91.4916 244.674 92.4016 244.982 93.0914C245.598 94.4416 246.449 95.7918 247.447 97.3475C248.812 99.505 250.5 102.176 251.982 105.625L251.997 105.654L252.012 105.684C252.364 106.506 252.687 107.357 252.995 108.208C253.788 110.512 254.375 112.89 254.742 115.312V115.341C255.064 117.41 255.211 119.392 255.285 121.49L254.521 122.253L246.024 121.652V121.608Z" fill="#EAA58B"/>
<path d="M243.411 60.2895L238.729 53.9933L246.038 50.0306L246.068 50.0747C247.08 51.8212 247.741 53.4796 248.034 55.006C248.9 59.497 244.527 62.2121 244.483 62.2415L244.453 62.2561L243.411 60.2895Z" fill="#EAA58B"/>
<path d="M243.764 60.3776L243.587 60.1574L243.455 60.1868L242.193 60.4803V60.4657L233.857 59.2769L230.496 62.946C225.77 68.3322 221.675 74.1588 218.667 79.9707C218.124 81.0127 217.61 82.0841 217.126 83.1408L217.111 83.1701L228.632 90.3763C229.909 88.5417 231.406 86.6485 232.991 84.6525C232.771 86.6338 232.653 88.527 232.683 90.3323V90.3616L244.585 90.3469V90.3176C244.703 88.3362 245.363 85.9146 246.053 83.3463C246.097 83.2142 246.141 83.0527 246.185 82.8766C247.257 79.0314 250.661 67.5544 243.764 60.3776Z" fill="#21ADE0"/>
<path opacity="0.3" d="M232.683 89.4663C232.668 88.2042 232.932 85.0927 232.991 84.6524C232.991 84.6524 238.524 77.9013 240.314 74.555C240.447 74.3202 240.725 74.9366 240.887 75.465C241.151 76.3456 240.858 77.4316 240.036 78.6938C237.981 81.8346 236.895 83.3609 235.941 84.7111C235.002 86.032 234.194 87.1621 232.741 89.481L232.683 89.5691C232.683 89.5691 232.683 89.4957 232.683 89.4663Z" fill="#353839"/>
<path d="M232.991 84.6524C233.138 84.4763 233.329 84.1828 233.475 83.992C236.146 80.6458 238.906 77.1821 240.579 74.0707C240.96 73.3662 241.298 72.6324 241.591 71.8839" stroke="#353839" stroke-width="0.587637" stroke-linecap="round" stroke-linejoin="round"/>
<path d="M223.818 41.7531C223.525 41.9145 222.336 42.5309 221.103 42.5309C220.692 42.5309 220.281 42.4576 219.914 42.3108C218.138 41.5623 218.006 38.8765 218.094 37.3208C217.904 37.1887 217.17 36.6604 217.126 36.176C217.126 36.0293 217.17 35.8972 217.272 35.7944C217.522 35.5009 218.021 35.2074 218.153 35.134C218.153 34.4442 218.182 33.8131 218.226 33.2701C218.285 32.4629 220.046 31.8905 220.266 31.2594C220.868 29.7477 220.78 29.4542 224.523 29.2781C224.567 29.3515 224.978 29.8065 225.227 29.5716C226.827 28.0746 228.368 29.9385 229.058 32.2721C229.41 33.4462 231.773 37.7317 232.228 39.7864V39.8158L224.288 43.2207L223.818 41.7531Z" fill="#EAA58B"/>
<path opacity="0.3" d="M223.818 41.7532C223.818 41.7532 224.258 41.5183 224.699 41.2248C224.86 41.1221 225.066 41.1221 225.168 41.2835C225.212 41.3422 225.227 41.4156 225.227 41.489V42.942L224.302 43.2502L223.818 41.7532Z" fill="#222120"/>
<path d="M205.517 63.533L214.455 59.7318C217.684 50.3536 219.856 47.11 221.206 45.4956C221.206 45.481 222.101 44.1748 224.068 43.3969L223.789 42.6337L232.213 39.7571V39.7865C232.331 40.3442 232.419 40.7551 232.448 40.8872C232.859 40.8432 233.255 40.8138 233.666 40.8138C235.046 40.7992 236.425 41.0487 237.717 41.5623L237.746 41.577L237.79 41.5917C238.363 41.8265 238.906 42.1347 239.405 42.5016C241.826 44.2775 244.365 47.1834 246.039 50.0894L246.053 50.1187L242.634 54.463L243.764 60.3776L230.496 62.9459L225.946 58.2201C225.932 58.2055 225.902 58.2055 225.888 58.2348C225.535 58.998 222.806 64.0173 219.445 66.6738C215.409 69.8586 208.702 71.6344 208.628 71.6491L206.676 71.3849L204.9 64.1788L205.517 63.533Z" fill="#FFC930"/>
<path d="M249.223 45.3048C248.225 42.8979 245.451 41.7531 243.044 42.7511C243.074 42.2961 243.044 41.8412 242.971 41.3862C242.545 39.1114 240.814 37.6437 238.539 37.6437C238.054 37.6437 237.57 37.7171 237.1 37.8345C236.778 34.048 234.092 33.4756 232.521 33.4756C232.14 33.4756 231.758 33.5049 231.377 33.5783C230.907 31.2007 230.1 28.9699 227.766 28.06C227.722 28.0453 227.722 27.9719 227.766 27.9572C229.527 27.2234 230.731 25.4329 230.569 23.3782C230.393 21.162 228.588 19.3715 226.357 19.2101C223.701 19.0193 221.485 21.1327 221.485 23.7451C221.485 25.4329 222.409 26.9005 223.76 27.6784C223.818 27.7077 223.804 27.7958 223.745 27.7958C220.956 28.2948 219.195 29.7624 218.638 31.1567C218.403 31.8172 218.271 32.4923 218.227 33.1821V33.2408H218.3C219.063 33.2114 219.797 32.9032 220.384 32.4042C220.413 32.3895 220.443 32.4042 220.443 32.4336C220.443 32.9619 220.545 33.3288 220.766 33.5637C220.942 33.7398 221.191 33.8425 221.441 33.8278C221.808 33.8131 222.131 33.7251 222.453 33.5637C222.512 33.5343 222.571 33.5783 222.556 33.637C222.38 34.5617 222.688 35.1487 222.996 35.4863C223.231 35.7504 223.51 35.9412 223.833 36.0586H223.862L223.877 36.044C223.892 36.044 225.095 35.2368 226.269 35.2368C226.827 35.2074 227.37 35.4422 227.722 35.8825C228.001 36.2201 228.133 36.6604 228.074 37.1007C227.884 38.627 226.357 39.6397 226.049 39.7424C226.049 39.7424 225.682 41.5476 226.768 42.8832C227.575 43.8665 228.955 44.3655 230.848 44.3655C231.083 44.3655 231.347 44.3508 231.611 44.3362C231.656 45.0847 231.846 45.8038 232.184 46.4789C232.712 47.4769 233.813 48.6657 236.161 48.6657C236.513 48.6657 236.88 48.6364 237.233 48.5923C238.275 48.4749 239.273 48.1374 240.168 47.609C240.417 50.0013 242.443 51.8358 244.864 51.8212C245.481 51.8212 246.097 51.7038 246.67 51.4543C249.076 50.4856 250.221 47.7118 249.223 45.3048Z" fill="#C65A42"/>
<path d="M190.004 63.0046L192.499 62.1387L193.82 59.585C193.849 59.5557 193.908 59.5263 193.937 59.5557L201.525 67.98L197.606 71.5317L190.004 63.078C189.96 63.0193 190.004 63.0046 190.004 63.0046Z" fill="#21ADE0"/>
<path d="M200.145 73.5423C199.059 73.5423 198.575 73.2781 198.355 73.058C198.252 72.9553 198.193 72.8525 198.164 72.7204C198.164 72.7058 198.149 72.6911 198.135 72.6911C198.076 72.6911 198.002 72.7057 197.944 72.7057C196.505 72.7057 196.271 71.5463 196.256 71.3702C195.698 71.2675 195.317 71.0473 195.126 70.7098C194.862 70.2548 195.023 69.7264 195.067 69.609C194.348 69.3448 193.922 68.9926 193.776 68.5376C193.673 68.2001 193.717 67.8185 193.908 67.5103L193.922 67.4956H193.937C194.568 67.613 195.214 67.657 195.86 67.657C197.43 67.6424 199.059 67.3782 200.556 66.9085L199.088 65.2941L199.133 65.2795C199.177 65.2648 203.491 64.3989 205.517 63.533L208.643 71.649L208.614 71.6637C208.569 71.6784 204.607 72.9846 201.569 73.4249C201.099 73.4983 200.63 73.5276 200.145 73.5423Z" fill="#EAA58B"/>
<path d="M225.917 58.1908L227.575 54.9473" stroke="black" stroke-width="0.587637" stroke-linecap="round" stroke-linejoin="round"/>
<path d="M243.764 60.3776L242.634 54.463" stroke="black" stroke-width="0.587637" stroke-linecap="round" stroke-linejoin="round"/>
<path d="M243.044 42.7511C242.927 43.1914 242.795 43.6317 242.677 43.9692" stroke="#222020" stroke-width="0.587637" stroke-linecap="round" stroke-linejoin="round"/>
<path d="M237.1 37.8345C237.247 39.1554 236.792 40.5203 236.792 40.5203" stroke="#222020" stroke-width="0.587637" stroke-linecap="round" stroke-linejoin="round"/>
<path d="M231.611 44.3656C231.464 42.6044 232.389 40.9606 232.389 40.9606" stroke="#222020" stroke-width="0.587637" stroke-linecap="round" stroke-linejoin="round"/>
<path d="M240.168 47.6383C240.08 46.9485 240.153 46.1854 240.315 45.5103" stroke="#222020" stroke-width="0.587637" stroke-linecap="round" stroke-linejoin="round"/>
<path d="M242.986 56.3269L245.011 55.9012" stroke="#222120" stroke-width="0.587637" stroke-linecap="round" stroke-linejoin="round"/>
<path d="M214.484 59.7465L215.893 62.2268" stroke="black" stroke-width="0.587637" stroke-linecap="round" stroke-linejoin="round"/>
<path d="M219.269 38.3629C220.017 38.6124 220.457 38.04 220.677 37.6584" stroke="#222120" stroke-width="0.587637" stroke-linecap="round" stroke-linejoin="round"/>
<path d="M225.051 38.0253L226.078 37.1447" stroke="#222120" stroke-width="0.587637" stroke-linecap="round" stroke-linejoin="round"/>
<path opacity="0.3" d="M243.764 60.3776L242.634 54.463L242.369 52.8486L242.59 52.8192C243.103 52.8192 243.353 53.3182 243.558 54.0227C243.749 54.6831 244.131 56.0627 244.586 56.958C245.129 58.0587 246.141 58.8512 247.33 59.1301H247.374L247.359 59.1594C246.787 60.2162 245.965 61.1408 245.011 61.8746C244.497 61.1261 243.764 60.3776 243.764 60.3776Z" fill="#222120"/>
<path opacity="0.3" d="M225.917 58.1907L227.12 55.8425C227.253 55.5636 227.414 55.3582 227.708 55.3582C228.016 55.3582 228.309 55.5343 228.427 55.8278C229.205 57.6477 231.068 60.8765 234.723 62.0653V62.124L230.496 62.9459L225.917 58.1907Z" fill="black"/>
<path d="M195.067 69.5943C196.3 69.6677 197.547 69.6677 198.78 69.5797" stroke="#222120" stroke-width="0.587637" stroke-linecap="round" stroke-linejoin="round"/>
<path d="M196.256 71.3702C197.606 71.4876 199.514 71.3408 199.514 71.3408" stroke="#222120" stroke-width="0.587637" stroke-linecap="round" stroke-linejoin="round"/>
<path d="M198.164 72.6912C199.074 72.8086 200.541 72.5004 200.541 72.5004" stroke="#222120" stroke-width="0.587637" stroke-linecap="round" stroke-linejoin="round"/>
<path d="M191.148 63.2688C190.825 63.2688 190.253 63.1367 190.033 63.078C190.004 63.0633 189.974 63.0193 190.004 63.0046L193.849 59.5409C193.864 59.5263 193.908 59.5263 193.908 59.5556C193.981 59.8785 194.26 61.5223 193.086 62.579C192.543 63.0339 191.853 63.2835 191.148 63.2688Z" fill="#FFC930"/>
<path d="M255.285 121.549V121.49H246.787C245.892 117.718 242.78 116.5 242.751 116.486L242.722 116.471L242.707 116.5C242.076 117.674 240.858 118.702 239.786 119.612C239.185 120.14 238.671 120.786 238.289 121.49L238.231 121.608C237.878 122.356 237.629 123.149 237.526 123.971V124H255.299V123.971C255.299 123.956 255.329 122.826 255.285 121.549Z" fill="#FFC930"/>
<path d="M215.042 121.49C213.736 117.733 211.299 116.53 211.27 116.515L211.255 116.5L211.241 116.515C210.316 117.557 209.245 118.335 208.305 119.025C207.249 119.803 206.251 120.536 205.576 121.49L205.561 121.52C204.783 122.547 204.768 123.956 204.768 123.971V124L224.053 123.971C224.053 123.971 224.288 122.885 224.567 121.564L224.582 121.49H215.042Z" fill="#FFC930"/>
<path d="M220.017 35.5897C220.22 35.5897 220.385 35.4252 220.385 35.2224C220.385 35.0197 220.22 34.8552 220.017 34.8552C219.815 34.8552 219.65 35.0197 219.65 35.2224C219.65 35.4252 219.815 35.5897 220.017 35.5897Z" fill="#231F20"/>
<path d="M242.634 54.4629L242.369 52.8485" stroke="black" stroke-width="0.587637" stroke-linecap="round" stroke-linejoin="round"/>
<path d="M119.464 73.4103C119.185 73.425 118.921 73.3223 118.716 73.1315C118.554 72.926 118.466 72.6765 118.34 72.7367C117.674 72.8086 116.778 72.9994 115.883 72.97C115.076 72.97 114.269 72.8526 113.476 72.6472C113.403 72.6912 113.021 72.8673 112.405 73.1608L112.17 73.0728L111.113 65.6025L111.392 65.485C114.093 65.2649 116.764 65.1622 119.171 65.1622C122.577 65.1622 126.276 65.4263 126.422 66.1455C126.481 66.3363 126.452 66.5418 126.334 66.7032C126.041 67.0701 125.101 67.2462 122.768 67.349C122.856 67.5691 123.223 68.7139 122.357 69.345C122.533 69.5798 122.606 69.8586 122.592 70.1375C122.562 70.4897 122.357 70.8273 121.99 71.1502C122.151 71.3997 122.181 71.6932 122.078 71.972C121.946 72.3536 121.506 72.8967 120.199 73.2929C119.95 73.3663 119.714 73.4103 119.464 73.4103Z" fill="#C65A42"/>
<path d="M93.9402 114.507L93.5879 113.73L93.5732 113.7C93.72 112.335 93.9548 110.956 94.2337 109.561L94.8648 107.683L106.343 107.903L106.93 109.576C106.637 110.471 106.461 111.367 106.343 112.291L103.041 118.809L93.9402 114.507Z" fill="#C65A42"/>
<path d="M93.2078 123.139V123.109C93.1931 122.273 93.1785 121.466 93.1785 120.658L93.6334 120.13L110.381 120.585L110.513 120.644C110.542 120.658 110.572 120.673 110.586 120.702C110.953 121.421 111.188 122.463 111.188 123.109V123.139H93.2078Z" fill="#21ADE0"/>
<path d="M93.1785 120.658V120.629C93.1785 119.646 93.2225 118.692 93.2518 117.767C93.2665 117.385 93.2959 117.002 93.3106 116.65C93.3693 115.637 93.5747 113.7 93.5747 113.7H93.6041C98.2859 113.906 101.369 116.415 102.03 117.002C102.059 117.017 102.089 117.002 102.089 116.973L101.663 114.273C101.59 113.774 101.722 113.26 102.059 112.878C102.382 112.497 102.852 112.291 103.351 112.291H106.301C106.315 112.291 106.33 112.306 106.33 112.335C106.315 112.423 106.301 112.614 106.301 112.658C106.286 112.937 106.257 113.187 106.257 113.436C106.271 116.43 107.592 117.635 108.884 118.809C109.397 119.264 109.838 119.734 109.984 119.895C110.014 119.924 110.043 119.969 110.073 119.998L110.513 120.614C110.528 120.644 110.513 120.673 110.483 120.673L93.1785 120.658Z" fill="#CECECE"/>
<path d="M94.2352 109.561C95.2185 104.351 96.9356 99.3173 99.3 94.5753L93.5894 89.9522C89.7735 89.9522 85.6348 93.4306 83.9029 91.2585C82.4353 89.4239 81.951 86.9582 82.538 84.3458C83.4039 80.5887 84.7982 78.1817 84.8129 78.1524L84.8275 78.1377L89.3039 78.6367C89.4653 78.6514 105.64 80.5153 110.572 86.3859C113.844 90.2605 110.865 98.4807 108.473 105.1C107.886 106.729 107.328 108.27 106.932 109.576L94.2352 109.561Z" fill="#FFC930"/>
<path opacity="0.3" d="M103.336 101.533C100.709 99.5374 97.1998 99.464 97.1705 99.464H97.1264L97.1411 99.4053C97.7869 97.7468 98.506 96.1163 99.3 94.5459H92.3859C88.57 94.5459 85.6348 93.4012 83.9029 91.229C82.4353 89.3945 81.951 86.9288 82.538 84.3164C83.4039 80.5592 84.7982 78.1523 84.8129 78.123L84.8275 78.1083L89.3039 78.6073C89.4653 78.622 105.64 80.4859 110.572 86.3564C113.844 90.231 110.865 98.4513 108.473 105.07C108.253 105.687 108.033 106.289 107.827 106.861L107.798 106.934C107.812 106.934 105.2 102.972 103.336 101.533Z" fill="black"/>
<path d="M106.593 115.682L104.597 116.518" stroke="#040404" stroke-width="0.587637" stroke-linecap="round" stroke-linejoin="round"/>
<path d="M107.444 117.312L106.079 118.339" stroke="#040404" stroke-width="0.587637" stroke-linecap="round" stroke-linejoin="round"/>
<path d="M106.93 109.576L94.2336 109.561" stroke="black" stroke-width="0.587637" stroke-linecap="round" stroke-linejoin="round"/>
<path d="M113.564 115.3L113.549 114.977C113.447 114.698 112.463 114.962 112.346 114.654C111.906 113.465 111.333 111.778 111.025 110.662L111.407 109.209L120.963 103.617L122.518 105.085C122.812 106.597 123.017 107.507 123.164 107.874L122.489 115.285L113.564 115.3Z" fill="#C65A42"/>
<path d="M114.944 120.776C114.914 120.776 114.9 120.761 114.9 120.732C114.401 119.66 113.505 117.62 113.388 117.283C113.021 116.386 112.434 114.86 112.375 114.669C112.375 114.654 112.375 114.639 112.39 114.639L112.595 114.551C114.415 113.715 116.206 113.377 118.216 113.377C119.347 113.363 120.449 113.509 121.535 113.788C121.608 113.803 121.667 113.73 121.623 113.656L120.302 111.763C119.684 110.868 119.906 109.635 120.801 109.018C120.889 108.96 120.977 108.901 121.065 108.857L123.12 107.903C123.164 107.888 123.208 107.903 123.237 107.932C123.267 107.976 123.281 108.035 123.296 108.079C123.369 108.255 123.457 108.431 123.545 108.593C124.896 111.264 126.628 111.748 128.301 112.218C129.108 112.453 129.871 112.658 130.561 113.113L130.576 113.186L115.912 121.025L114.944 120.776Z" fill="#CECECE"/>
<path d="M124.778 110.427L123.472 112.012" stroke="#040404" stroke-width="0.587637" stroke-linecap="round" stroke-linejoin="round"/>
<path d="M126.246 111.513L125.527 113.069" stroke="#040404" stroke-width="0.587637" stroke-linecap="round" stroke-linejoin="round"/>
<path d="M84.9728 53.8746C84.5472 51.7758 85.4718 49.1781 85.281 48.0334L84.6793 47.1528C84.327 45.3182 84.3417 42.8526 86.323 41.0474C87.5852 39.9319 87.5999 40.3576 89.4785 40.3576C90.4618 40.3576 90.8581 40.02 91.7827 40.3722C92.9421 40.8125 94.4685 40.1521 95.0262 41.062C95.6279 42.016 96.0389 43.2488 96.5232 44.7165L96.5966 44.9513C97.3304 45.054 97.756 45.2595 97.8294 45.5384C97.9468 46.0374 97.3451 46.8005 97.257 46.9179C98.0495 49.3836 98.0202 50.7338 97.1689 51.8933C96.6406 52.6124 95.5839 53.0527 94.3217 53.0527C93.8521 53.0527 93.3971 52.994 92.9568 52.8472L93.1623 54.1388L84.9434 53.9333L84.9728 53.8746Z" fill="#C65A42"/>
<path opacity="0.3" d="M91.3146 52.6417C91.2706 52.5536 91.2706 52.4509 91.3293 52.3628C91.4026 52.2307 91.5641 52.1867 91.6962 52.2601L92.973 52.8325L93.1345 53.8305L91.8576 54.4029L91.3146 52.6417Z" fill="#222020"/>
<path d="M80.5259 82.0122C80.4525 81.9829 73.6705 78.2697 74.918 71.5758C75.2703 69.301 76.1509 66.2629 77.3396 63.2689C78.706 59.8053 80.0122 58.2349 80.3791 57.8386C82.1403 55.9014 84.8555 55.4317 85.1783 55.3877C85.1637 55.2703 85.105 54.918 85.0609 54.579C85.0169 54.2855 84.9875 54.0213 84.9582 53.9039V53.8305H93.5146L93.7787 55.4317C99.4747 56.327 101.016 59.365 103.584 64.399C103.892 65.0008 104.201 65.6172 104.538 66.2629C106.651 65.9547 109.19 65.6759 111.363 65.4851H111.392L112.405 73.1609L112.229 73.2489C110.511 74.0561 107.928 75.2743 104.274 75.4064C104.201 75.4064 104.127 75.4064 104.054 75.4064C100.634 75.4064 97.712 72.4417 97.3451 72.0601L95.9949 77.4479L95.9802 77.5359H82.5953C82.4632 77.7708 80.9515 80.5593 80.5846 81.9682L80.5699 81.9976L80.5259 82.0122Z" fill="#21ADE0"/>
<path opacity="0.3" d="M80.5259 82.0269C79.3812 81.3664 78.3538 80.5299 77.4571 79.5612L77.4277 79.5319L77.4571 79.5172C78.4419 78.8127 79.2197 77.8294 79.6894 76.714C80.0416 75.8481 80.159 74.8046 80.2764 73.88C80.4526 72.471 81.8321 72.3976 81.8321 72.3976L82.5806 77.5212L82.61 77.5652C82.5953 77.5946 80.9662 80.5592 80.5846 82.0122L80.57 82.0415L80.5259 82.0269Z" fill="#353839"/>
<path d="M85.1638 57.5452C83.8282 57.5452 82.6394 57.0315 81.8909 56.1362C81.2452 55.3731 80.981 54.3442 81.1718 53.3609C81.5827 50.998 83.9603 50.0294 84.2245 49.9266C84.0484 48.9433 83.8869 47.9453 83.7989 47.4023L83.7842 47.3289C83.432 45.4943 82.7715 42.0747 84.7528 40.2842C86.015 39.1688 87.8202 38.523 89.6988 38.523C90.6821 38.523 91.6655 38.6991 92.5901 39.0514C93.6027 39.4183 94.4687 40.1227 95.041 41.0474V41.062V41.0767C95.0513 43.3472 92.2378 42.6853 92.4081 43.0023C93.7701 45.1979 91.9164 47.097 91.8489 47.1792L91.7873 47.2599L91.7344 47.3274C91.5319 47.163 89.8456 45.8025 88.422 45.8025C87.7909 45.8025 87.3506 46.0814 87.1011 46.6391C85.9563 49.2221 89.5961 51.1448 89.5124 51.1521C89.5623 51.3722 90.462 56.0922 87.0864 57.2076C86.4553 57.4278 85.8095 57.5452 85.1638 57.5452Z" fill="#231F20"/>
<path d="M97.3451 72.0602L94.8208 68.5966" stroke="#353839" stroke-width="0.587637" stroke-linecap="round" stroke-linejoin="round"/>
<path d="M78.53 73.0141L81.8322 72.3976" stroke="#353839" stroke-width="0.587637" stroke-linecap="round" stroke-linejoin="round"/>
<path d="M104.538 66.2629L103.936 68.7873" stroke="#353839" stroke-width="0.587637" stroke-linecap="round" stroke-linejoin="round"/>
<path d="M111.392 65.485L112.405 73.1608" stroke="#353839" stroke-width="0.587637" stroke-linecap="round" stroke-linejoin="round"/>
<path d="M93.7788 55.4317C93.2504 55.4023 92.3845 55.461 92.3845 55.461" stroke="#353839" stroke-width="0.587637" stroke-linecap="round" stroke-linejoin="round"/>
<path d="M89.2583 48.3856L90.2857 49.1194" stroke="#222020" stroke-width="0.587637" stroke-linecap="round" stroke-linejoin="round"/>
<path d="M94.8354 47.3582C95.173 47.8278 95.7307 48.092 96.3031 48.092" stroke="#222020" stroke-width="0.587637" stroke-linecap="round" stroke-linejoin="round"/>
<path d="M92.9717 52.8325L91.6948 52.2601" stroke="#222020" stroke-width="0.587637" stroke-linecap="round" stroke-linejoin="round"/>
<path d="M95.056 45.7445C95.2587 45.7445 95.4233 45.58 95.4233 45.3772C95.4233 45.1745 95.2587 45.0099 95.056 45.0099C94.8533 45.0099 94.6887 45.1745 94.6887 45.3772C94.6887 45.58 94.8533 45.7445 95.056 45.7445Z" fill="#231F20"/>
<path d="M122.724 67.3196C121.55 66.7326 119.64 66.5858 119.64 66.5858" stroke="#222020" stroke-width="0.587637" stroke-linecap="round" stroke-linejoin="round"/>
<path d="M122.313 69.345C121.403 68.934 119.347 68.6405 119.347 68.6405" stroke="#222020" stroke-width="0.587637" stroke-linecap="round" stroke-linejoin="round"/>
<path d="M121.946 71.1501C121.109 70.8419 119.053 70.5484 119.053 70.5484" stroke="#222020" stroke-width="0.587637" stroke-linecap="round" stroke-linejoin="round"/>
<path d="M102.087 116.973L102.85 120.658" stroke="#040404" stroke-width="0.587637" stroke-linecap="round" stroke-linejoin="round"/>
<path opacity="0.3" d="M93.7055 69.1542C93.5881 68.8313 93.7643 68.4644 94.1018 68.3617C94.366 68.2736 94.6595 68.3617 94.821 68.5965C95.3787 69.4184 97.3453 72.0602 97.3453 72.0602L96.2152 76.5526L93.7055 69.1542Z" fill="#353839"/>
<path d="M111.026 110.662C109.001 103.016 108.854 99.3319 108.869 94.6046L87.572 94.6486C85.2971 94.6486 83.3598 93.768 81.9362 92.1096C80.674 90.6273 79.9255 88.6166 79.8375 86.4592C79.7201 83.8027 80.63 80.7647 82.5379 77.4331L82.5673 77.3891L95.9962 77.4478C96.1577 77.4772 112.215 80.3978 116.457 84.742C119.363 87.736 120.054 91.6546 121.023 97.0864C121.184 97.9816 121.345 98.9063 121.536 99.8749L121.668 100.55C121.977 102.194 122.52 105.085 122.52 105.085L111.026 110.662Z" fill="#FFC930"/>
<path d="M116.074 123.051C115.692 122.317 115.443 121.847 115.09 121.128L114.914 120.761C114.914 120.746 114.914 120.732 114.929 120.717L130.546 113.113L130.59 113.143C130.81 113.289 130.986 113.436 131.177 113.612L131.207 113.642C131.207 113.642 131.97 114.537 132.219 115.065L132.234 115.094L116.118 123.139L116.074 123.051Z" fill="#21ADE0"/>
<path d="M80.8928 65.8521L81.8321 72.3978L82.5659 77.3892L95.9949 77.4479" stroke="#353839" stroke-width="0.587637" stroke-linecap="round" stroke-linejoin="round"/>
<path d="M109.339 102.708C108.913 99.7429 108.869 97.38 108.869 94.6047L99.2708 94.6193" stroke="black" stroke-width="0.587637" stroke-linecap="round" stroke-linejoin="round"/>
<path d="M111.128 92.1243L108.868 94.6047" stroke="black" stroke-width="0.587637" stroke-linecap="round" stroke-linejoin="round"/>
<path d="M122.518 105.085L111.025 110.662" stroke="black" stroke-width="0.587637" stroke-linecap="round" stroke-linejoin="round"/>
<path d="M121.594 113.656L123.56 116.518" stroke="#040404" stroke-width="0.587637" stroke-linecap="round" stroke-linejoin="round"/>
<path d="M87.1819 97.892L86.9104 118.942" stroke="#331E1A" stroke-width="0.587637" stroke-linecap="round" stroke-linejoin="round"/>
<path d="M86.9104 118.943L92.2203 123.093" stroke="#331E1A" stroke-width="0.587637" stroke-linecap="round" stroke-linejoin="round"/>
<path d="M86.9104 118.943L81.6592 123.093" stroke="#331E1A" stroke-width="0.587637" stroke-linecap="round" stroke-linejoin="round"/>
<path d="M74.7171 94.4578H99.9049C100.849 94.4578 101.622 95.2297 101.622 96.1749C101.622 97.1186 100.849 97.8921 99.9049 97.8921H74.7171C73.7734 97.8921 73 97.1186 73 96.1749C73 95.2297 73.7734 94.4578 74.7171 94.4578Z" fill="#AFC967"/>
<defs>
<linearGradient id="paint0_linear_52_1348" x1="169" y1="39" x2="169" y2="209" gradientUnits="userSpaceOnUse">
<stop stop-color="#ED8350"/>
<stop offset="1" stop-color="white" stop-opacity="0"/>
</linearGradient>
</defs>
</svg>
