<svg width="338" height="219" viewBox="0 0 338 219" fill="none" xmlns="http://www.w3.org/2000/svg">
<path d="M0 44.5118C0 36.0303 7.02641 29.2358 15.5031 29.5203L323.503 39.8567C331.587 40.128 338 46.7599 338 54.8483V191.794C338 199.858 331.624 206.479 323.566 206.784L15.5659 218.412C7.06576 218.733 0 211.929 0 203.423V44.5118Z" fill="#FFE2E9"/>
<path d="M11 53.3409C11 46.0605 17.025 40.2247 24.3017 40.4569L314.521 49.7195C321.476 49.9415 327 55.6443 327 62.6035V184.181C327 191.121 321.507 196.815 314.572 197.064L24.3531 207.484C17.0572 207.746 11 201.902 11 194.602V53.3409Z" stroke="url(#paint0_linear_52_1343)" stroke-width="2"/>
<path d="M128.008 170.328C128.008 172.824 129.472 174.456 132.304 175.104L135.16 175.752C136.816 176.136 137.56 177 137.56 178.368C137.56 180.096 136.096 181.176 133.792 181.176C131.608 181.176 130.216 180.12 130.168 178.464H127.768C127.912 181.44 130.264 183.288 133.792 183.288C137.488 183.288 139.912 181.296 139.912 178.176C139.912 175.728 138.472 174.192 135.64 173.544L132.784 172.872C131.152 172.488 130.36 171.648 130.36 170.256C130.36 168.552 131.776 167.448 133.96 167.448C135.904 167.448 137.128 168.456 137.248 170.184H139.624C139.432 167.184 137.296 165.336 133.984 165.336C130.408 165.336 128.008 167.352 128.008 170.328ZM145.796 183V173.16H148.1V171.264H145.796V167.592H143.54V171.264H141.236V173.16H143.54V183H145.796ZM158.236 171.264V177.456C158.236 179.976 157.108 181.296 155.044 181.296C153.316 181.296 152.236 180.336 152.236 177.816V171.264H149.98V178.56C149.98 181.44 151.516 183.288 154.252 183.288C155.98 183.288 157.54 182.448 158.212 181.224L158.452 183H160.468V171.264H158.236ZM168.211 183.288C170.083 183.288 171.667 182.472 172.435 180.864L172.627 183H174.643V165.336H172.411V173.16C171.619 171.72 170.107 170.928 168.307 170.928C164.827 170.928 162.739 173.568 162.739 177.168C162.739 180.744 164.803 183.288 168.211 183.288ZM168.667 181.248C166.363 181.248 165.019 179.52 165.019 177.096C165.019 174.696 166.363 172.968 168.667 172.968C170.971 172.968 172.387 174.696 172.387 177.096C172.387 179.544 170.971 181.248 168.667 181.248ZM182.962 183.288C185.866 183.288 187.834 181.872 188.41 179.352H186.298C185.914 180.696 184.762 181.416 183.01 181.416C180.778 181.416 179.482 180.048 179.314 177.576L188.386 177.552V176.712C188.386 173.232 186.202 170.928 182.866 170.928C179.458 170.928 177.13 173.472 177.13 177.144C177.13 180.792 179.506 183.288 182.962 183.288ZM182.866 172.824C184.858 172.824 186.13 174.12 186.13 176.064H179.362C179.65 174 180.898 172.824 182.866 172.824ZM193.161 183V176.784C193.161 174.504 194.385 172.992 196.497 172.992C198.225 172.992 199.329 173.952 199.329 176.328V183H201.585V175.824C201.585 172.824 200.169 170.928 197.073 170.928C195.417 170.928 193.929 171.72 193.185 173.064L192.945 171.264H190.905V183H193.161ZM208.022 183V173.16H210.326V171.264H208.022V167.592H205.766V171.264H203.462V173.16H205.766V183H208.022Z" fill="#1A1C20"/>
<path d="M123.184 6.60748H110.263C110.263 6.60748 108.77 14.2445 113.266 18.2951H126.186C121.69 14.2445 123.184 6.60748 123.184 6.60748Z" fill="#EE7C97"/>
<path d="M105.074 0H92.1541C92.1541 0 90.6602 7.63858 95.1562 11.6892H108.077C103.565 7.63858 105.074 0 105.074 0Z" fill="#FFC930"/>
<path d="M198.965 124.027H195.145V82.325C195.145 77.7296 190.972 73.9853 185.854 73.9853H121.153C116.033 73.9853 111.862 77.7296 111.862 82.325V124.027H108.041V82.325C108.041 76.024 113.925 70.8964 121.153 70.8964H185.854C193.082 70.8964 198.965 76.024 198.965 82.325V124.027Z" fill="#AFC967"/>
<path d="M169.78 70.8965H153.157L152.091 64.8624L151.023 58.7888H167.646L168.036 60.9838L169.78 70.8965Z" fill="#ED8350"/>
<path opacity="0.2" d="M152.091 64.8624L151.023 58.7888H167.646L168.036 60.9838L152.091 64.8624Z" fill="#7B1100"/>
<path d="M181.128 59.9368H137.951C135.078 59.9368 132.349 57.6185 131.836 54.746L126.603 25.1123C126.09 22.2398 128.019 19.9215 130.871 19.9215H174.069C176.941 19.9215 179.672 22.2398 180.183 25.1123L185.396 54.7665C185.909 57.6185 184 59.9368 181.128 59.9368Z" fill="#ED8350"/>
<path d="M178.892 56.818H139.08C137.232 56.818 135.489 55.3209 135.161 53.4938L130.379 26.4058C130.05 24.5597 131.282 23.0816 133.13 23.0816H172.94C174.787 23.0816 176.531 24.5802 176.859 26.4058L181.641 53.4938C181.949 55.3209 180.717 56.818 178.892 56.818Z" fill="white"/>
<path d="M167.851 59.9369H151.229" stroke="#7B1100" stroke-width="0.631679" stroke-linecap="round" stroke-linejoin="round"/>
<path d="M157.549 33.0352C156.898 32.8757 156.409 32.3151 156.453 31.7829C156.497 31.2507 157.059 30.9491 157.71 31.107C158.359 31.2665 158.85 31.8271 158.806 32.3593C158.762 32.8915 158.198 33.1931 157.549 33.0352Z" fill="white"/>
<path d="M161.718 38.5434C161.16 38.4787 160.682 37.9086 160.649 37.2722C160.614 36.6326 161.039 36.1683 161.595 36.233C162.151 36.2978 162.629 36.8679 162.664 37.5059C162.697 38.1439 162.274 38.6082 161.718 38.5434Z" fill="white"/>
<path d="M151.597 33.5421C151.218 33.1141 151.267 32.4793 151.704 32.1224C152.143 31.7655 152.805 31.8239 153.184 32.2503C153.563 32.6783 153.514 33.3147 153.077 33.67C152.638 34.0269 151.976 33.9701 151.597 33.5421Z" fill="white"/>
<path d="M162.484 37.5059C164.584 37.498 164.916 39.832 162.994 40.7843C160.723 41.9087 157.891 40.5237 157.891 40.5237" stroke="#AFC967" stroke-width="0.631679" stroke-linecap="round" stroke-linejoin="round"/>
<path d="M151.584 32.1967C149.602 31.0849 147.225 32.702 150.96 36.0752" stroke="#AFC967" stroke-width="0.631679" stroke-linecap="round" stroke-linejoin="round"/>
<path d="M161.206 35.3013C162.289 34.3064 161.181 32.5598 159.627 33.0778" stroke="#AFC967" stroke-width="0.631679" stroke-linecap="round" stroke-linejoin="round"/>
<path d="M161.206 41.9514C163.016 42.1677 163.565 43.2526 163.45 43.9396C163.278 44.9787 162.045 45.5835 162.045 45.5835" stroke="#AFC967" stroke-width="0.631679" stroke-linecap="round" stroke-linejoin="round"/>
<path d="M154.869 43.6458C154.572 43.7627 154.169 43.8274 153.724 43.8274C152.682 43.8274 151.723 43.4642 151.189 42.8673C150.308 41.8913 150.098 40.7669 150.408 38.695C150.308 38.5955 149.7 37.9512 149.732 37.5533C149.752 37.1901 150.565 37.0906 150.674 37.0732L150.701 36.8584C150.787 36.3436 150.864 35.8588 150.952 35.4182C151.275 33.8185 152.776 34.207 154.231 33.61C154.948 33.3084 155.197 33.3258 156.025 33.3337C157.599 33.3337 157.809 33.3463 159.035 34.2891C160.947 35.7814 159.96 36.5852 159.927 38.1281L160.5 39.1498C160.511 39.8968 161.726 42.0287 161.674 43.7722C161.667 43.9364 161.677 44.0911 161.674 44.2475L160.976 45.0166L155.366 44.8571L154.842 44.2475L154.869 43.6458Z" fill="#EAA58B"/>
<path opacity="0.3" d="M154.841 44.2428L154.869 43.6459C155.28 43.469 155.681 43.2653 156.061 43.041C156.188 42.9668 156.374 43.0189 156.47 43.1579C156.522 43.2305 156.541 43.3174 156.526 43.3995C156.401 43.9617 156.18 44.636 155.829 44.636C155.224 44.636 154.863 44.546 154.863 44.546L154.841 44.2428Z" fill="black"/>
<path d="M151.388 45.713C152.988 44.9092 154.795 44.9345 154.795 44.9345L154.84 44.2428H161.677C161.672 44.4891 161.664 44.7229 161.653 44.9345C161.653 44.9345 163.933 45.0213 165.358 46.0162C166.857 47.0617 167.149 48.1339 167.149 48.1339H149.421C149.421 48.1339 149.834 46.4916 151.388 45.713Z" fill="#AFC967"/>
<path d="M161.677 43.7675C161.713 42.561 161.743 41.2771 161.759 40.3343L160.93 39.3663L159.248 39.063L159.115 39.1404C158.904 40.3043 157.71 41.1555 157.697 41.165L157.694 41.1681L157.696 41.1729C157.754 41.5187 157.98 41.9214 158.282 42.223C158.645 42.5957 159.134 42.8073 159.61 42.8026C159.911 42.7994 160.199 42.7347 160.455 42.6131C160.818 43.4643 161.677 43.7675 161.677 43.7675Z" fill="#C65A42"/>
<path d="M161.759 40.3342C161.765 39.772 161.775 39.0456 161.775 39.0456C161.809 37.5059 161.871 34.6396 159.949 33.1441C158.733 32.2045 157.132 31.6692 155.549 31.6692C154.722 31.6644 153.928 31.816 153.204 32.1192C151.767 32.7114 151.278 33.809 150.954 35.4055L150.952 35.4182L155.557 37.5059L155.56 37.5011C155.56 37.5011 156.44 36.8316 157.356 36.8316C157.975 36.8316 158.466 37.13 158.826 37.7143C159.103 38.1676 159.202 38.6429 159.114 39.1324L159.111 39.1403L161.759 40.3342Z" fill="#21ADE0"/>
<path d="M153.994 35.2839C153.583 34.8481 153.609 34.1785 154.051 33.7853C154.493 33.3936 155.183 33.4284 155.592 33.8642C156.003 34.2985 155.977 34.9697 155.535 35.3613C155.093 35.753 154.403 35.7182 153.994 35.2839Z" fill="white"/>
<path d="M154.506 34.8291C154.357 34.6728 154.365 34.4312 154.525 34.2891C154.684 34.1485 154.934 34.1611 155.08 34.3175C155.229 34.4754 155.219 34.717 155.06 34.8576C154.902 34.9997 154.653 34.9871 154.506 34.8291Z" fill="#21ADE0"/>
<path d="M158.604 35.4008C158.338 34.7786 158.491 34.1754 158.945 34.0554C159.399 33.9354 159.982 34.3412 160.248 34.9634C160.513 35.5872 160.36 36.1889 159.905 36.3105C159.452 36.4305 158.869 36.0231 158.604 35.4008Z" fill="white"/>
<path d="M159.137 35.2603C159.043 35.0392 159.096 34.826 159.256 34.7849C159.415 34.7423 159.621 34.886 159.714 35.1055C159.807 35.325 159.755 35.5382 159.595 35.5809C159.436 35.6235 159.231 35.4798 159.137 35.2603Z" fill="#21ADE0"/>
<path d="M152.608 38.9682C152.418 39.4736 151.868 39.7247 151.284 39.5731" stroke="black" stroke-width="0.631679" stroke-linecap="round" stroke-linejoin="round"/>
<path d="M156.386 39.3663L157.184 38.9241" stroke="black" stroke-width="0.631679" stroke-linecap="round" stroke-linejoin="round"/>
<path d="M154.869 43.6458C155.562 43.3347 156.098 43.0236 156.098 43.0236" stroke="black" stroke-width="0.631679" stroke-linecap="round" stroke-linejoin="round"/>
<path d="M157.263 44.2428L157.165 48.1339" stroke="black" stroke-width="0.631679" stroke-linecap="round" stroke-linejoin="round"/>
<path d="M157.653 31.2286C158.365 30.1389 160.295 29.8436 160.792 31.4876C161.283 33.1094 159.756 34.8433 159.42 35.1797" stroke="#AFC967" stroke-width="0.631679" stroke-linecap="round" stroke-linejoin="round"/>
<path d="M154.795 34.5797C153.776 33.4332 152.784 31.3313 153.555 30.8828C154.223 30.4927 155.188 31.6818 155.188 31.6818" stroke="#AFC967" stroke-width="0.631679" stroke-linecap="round" stroke-linejoin="round"/>
<path d="M151.838 37.757C151.695 37.757 151.559 37.6401 151.534 37.498C151.51 37.3543 151.606 37.2374 151.748 37.2374C151.892 37.2374 152.028 37.3543 152.053 37.498C152.077 37.6401 151.982 37.757 151.838 37.757Z" fill="black"/>
<path d="M172.708 123.978C173.185 123.073 173.644 122.214 174.074 121.323C174.688 120.019 175.132 119.023 175.515 118.118L175.531 118.086H175.515C174.917 117.871 173.26 117.35 170.944 117.35C170.13 117.35 169.333 117.412 168.565 117.549H168.55L167.599 121.57L172.662 124.085L172.708 123.978Z" fill="#343434"/>
<path d="M210.114 38.5339C210.39 37.0463 210.758 35.1276 211.035 33.5784C211.264 32.3514 211.464 29.5593 211.556 29.0224C211.556 29.0224 202.104 20.3842 201.03 20.8138C199.573 21.3807 198.576 22.2098 197.855 23.3452C197.18 24.4191 196.751 25.7693 196.198 27.4116L196.059 27.8254C195.89 27.8412 194.695 28.0086 194.572 28.5313C194.434 29.084 195.154 30.0347 195.262 30.1579C194.311 33.1489 194.327 34.7754 195.339 36.1714C195.952 37.0305 197.226 37.5532 198.73 37.5532C199.374 37.5532 199.972 37.4601 200.448 37.2769L200.048 39.731L210.114 38.5339Z" fill="#ED8350"/>
<path opacity="0.2" d="M201.03 39.7152L202.611 36.2489C201.398 36.9232 200.448 37.2769 200.448 37.2769L200.171 38.9493L201.03 39.7152Z" fill="#030202"/>
<path d="M196.228 32.0292C196.628 32.1666 197.441 32.075 197.701 31.5539" stroke="#030202" stroke-width="0.631679" stroke-linecap="round" stroke-linejoin="round"/>
<path d="M197.9 28.7461C197.664 28.7461 197.471 28.5534 197.471 28.3165C197.471 28.0781 197.664 27.887 197.9 27.887C198.139 27.887 198.33 28.0781 198.33 28.3165C198.33 28.5534 198.139 28.7461 197.9 28.7461Z" fill="#231F20"/>
<path d="M203.639 32.0292L204.989 31.2159" stroke="#030202" stroke-width="0.631679" stroke-linecap="round" stroke-linejoin="round"/>
<path d="M215.467 26.0141C212.596 26.0141 210.267 23.6864 210.267 20.8138C210.267 17.9413 212.596 15.6119 215.467 15.6119C218.34 15.6119 220.669 17.9413 220.669 20.8138C220.669 23.6864 218.34 26.0141 215.467 26.0141Z" fill="#231F20"/>
<path d="M198.545 113.407L198.974 112.456V112.44C198.791 110.752 198.515 109.018 198.177 107.286L197.409 104.983L182.097 105.23L182.481 107.316C182.911 108.774 183.217 109.863 183.294 110.738L187.315 118.73L198.545 113.407Z" fill="#ED8350"/>
<path d="M199.465 124.07V124.04C199.497 122.996 199.497 121.968 199.497 120.971C199.497 119.758 199.45 118.577 199.404 117.442V117.412H199.374C197.103 117.75 194.985 118.716 193.251 120.234L193.237 120.249L193.712 124.07H199.465Z" fill="#343434"/>
<path d="M191.702 121.983C193.774 119.436 196.351 117.933 199.374 117.487H199.404V117.38C199.374 116.936 199.358 116.491 199.328 116.077C199.251 114.926 199.02 112.778 198.99 112.456C198.99 112.44 198.974 112.425 198.944 112.425C193.144 112.701 189.324 115.831 188.526 116.537C188.496 116.567 188.449 116.537 188.465 116.507L189.002 113.146C189.095 112.594 188.972 112.027 188.634 111.581C188.312 111.12 187.82 110.814 187.268 110.722C187.16 110.706 187.039 110.691 186.915 110.691H183.279C183.249 110.691 183.233 110.706 183.233 110.738C183.249 110.953 183.34 111.858 183.34 112.102C183.324 115.801 181.684 117.304 180.087 118.746C179.321 119.436 178.599 120.096 178.078 120.971C177.894 121.278 177.756 121.6 177.633 121.938L177.617 121.983H191.702Z" fill="#21ADE0"/>
<path d="M198.193 107.316V107.286C196.966 100.825 194.848 94.5654 191.887 88.6892L190.935 86.8337C197.594 86.8179 203.301 84.8392 205.864 81.6476C207.183 79.991 207.628 78.1181 207.167 76.0778C206.093 71.4286 204.359 68.4376 204.345 68.4218L204.299 68.3302L204.252 69.0203C203.424 69.1119 183.97 71.476 177.955 78.6092C173.92 83.3958 177.603 93.5847 180.548 101.762C181.27 103.772 181.96 105.673 182.465 107.316H198.193Z" fill="#FFC930"/>
<path opacity="0.2" d="M181.944 105.52C181.976 105.445 184.261 97.2043 194.05 93.5232L194.08 93.5074L194.065 93.4774C193.375 91.805 192.639 90.1927 191.871 88.6751C191.565 88.0765 191.38 87.6928 191.288 87.5238C191.304 87.508 191.304 87.508 191.15 87.2017V87.1859L176.267 82.7515V82.7831C175.609 88.0908 178.339 95.6709 180.533 101.746C181.024 103.082 181.469 104.339 181.867 105.52L181.899 105.614L181.944 105.52Z" fill="#211800"/>
<path d="M182.465 116L184.921 117.012" stroke="#343434" stroke-width="0.631679" stroke-linecap="round" stroke-linejoin="round"/>
<path d="M181.069 117.887L183.141 119.452" stroke="#343434" stroke-width="0.631679" stroke-linecap="round" stroke-linejoin="round"/>
<path d="M182.604 107.332L198.161 107.3" stroke="#211800" stroke-width="0.631679" stroke-linecap="round" stroke-linejoin="round"/>
<path d="M177.265 113.622C177.91 111.842 178.492 109.955 178.953 108.282L178.983 106.978L165.39 100.274L164.73 101.531C164.332 103.619 164.101 104.814 163.916 105.23L164.775 114.358L176.482 113.898L177.265 113.622Z" fill="#ED8350"/>
<path d="M165.957 118.301C167.507 117.718 169.18 117.412 170.928 117.412C173.23 117.412 174.871 117.933 175.47 118.148L175.501 118.163L175.515 118.132C175.716 117.718 176.943 114.634 177.311 113.653L177.327 113.592L177.265 113.576C175.01 112.548 172.586 112.027 170.069 112.027C167.736 112.027 165.567 112.668 165.666 112.609L167.462 110.016C168.227 108.911 167.953 107.393 166.847 106.626C166.74 106.548 163.902 105.184 163.902 105.184C163.902 105.184 163.564 105.936 163.457 106.135C161.784 109.434 159.651 110.046 157.581 110.631C156.582 110.905 155.648 111.182 154.788 111.734C154.512 111.919 154.252 112.134 154.021 112.349L154.037 112.41L165.957 118.301Z" fill="#21ADE0"/>
<path d="M178.906 108.436C180.073 104.049 180.84 100.535 181.223 97.2816C181.576 94.3207 181.638 91.7576 181.622 88.5819L203.93 88.6434C206.892 88.6434 210.176 88.1223 212.385 85.9746C213.964 84.4396 214.67 82.3077 214.946 80.1742C215.177 78.4102 215.177 76.6005 214.732 74.8965C214.24 73.041 214.226 71.4902 213.459 70.0642L212.063 67.9007H196.075L195.385 68.406C195.139 68.4534 190.766 69.2509 185.673 70.6311C176.973 72.9936 173.552 75.0813 172.216 76.4157C168.627 80.1126 167.768 84.9766 166.571 91.6976C166.372 92.8015 166.173 93.9527 165.942 95.1497L165.789 95.9772C165.405 98.0176 165.052 99.9663 164.729 101.593L178.906 108.436Z" fill="#FFC930"/>
<path d="M180.532 101.577C181.515 96.4684 181.606 92.9862 181.592 88.6892" stroke="#211800" stroke-width="0.631679" stroke-linecap="round" stroke-linejoin="round"/>
<path d="M160.786 109.34L162.458 111.382" stroke="#343434" stroke-width="0.631679" stroke-linecap="round" stroke-linejoin="round"/>
<path d="M158.837 110.354L159.927 112.701" stroke="#343434" stroke-width="0.631679" stroke-linecap="round" stroke-linejoin="round"/>
<path d="M164.807 101.577L178.661 108.344" stroke="#211800" stroke-width="0.631679" stroke-linecap="round" stroke-linejoin="round"/>
<path d="M180.564 45.5314L180.533 44.9329C178.124 42.3856 175.408 39.562 173.429 38.1818C170.437 36.0957 165.097 34.0696 163.318 34.0696C162.751 34.0696 162.474 34.2386 162.459 34.5765C162.444 35.5114 163.763 36.3247 165.604 37.4443C165.789 37.5533 165.988 37.6749 166.187 37.7981C165.957 37.8439 165.728 38.0586 165.589 38.3508C165.374 38.8261 165.451 39.3788 165.819 39.8226C165.435 39.9458 165.175 40.1763 165.052 40.5143C164.914 40.928 165.006 41.4192 165.298 41.8487C165.022 42.0935 164.868 42.4314 164.853 42.831C164.837 43.4295 165.145 44.0122 165.467 44.3028C165.957 44.7939 166.433 45.1934 167.247 45.1934C167.446 45.1934 167.66 45.1619 167.905 45.1161C168.858 46.3131 170.055 47.1264 171.282 47.3869C171.435 47.6333 171.665 48.1386 172.002 48.8445C172.264 49.3815 172.57 50.0574 172.938 50.7933L173.245 51.008L180.564 45.5314Z" fill="#ED8350"/>
<path d="M214.532 73.9301C222.879 70.9376 223.063 64.8782 222.28 59.9369C221.85 57.1607 220.777 53.4938 219.351 49.8884C218.03 46.5595 216.619 43.8275 215.668 42.7852C213.534 40.437 210.205 39.8542 209.853 39.8084C209.883 39.6553 209.913 39.5005 209.945 39.3331C209.991 39.0709 210.052 38.7804 210.114 38.4724V38.4424H200.233L200.002 39.7926H199.619C195.599 39.7926 192.04 41.7572 188.725 45.792L185.028 50.0116C184.798 49.7353 182.865 47.4186 180.532 44.9013L180.518 44.8871L172.938 50.7933C176.283 57.3596 179.627 61.1797 182.865 62.1004C183.418 62.2551 184 62.3309 184.599 62.3309C189.079 62.3309 193.621 58.0039 194.11 57.5286L195.4 68.3919H212.047C213.55 70.6628 214.487 73.8528 214.487 73.9001L214.501 73.9301H214.532Z" fill="#21ADE0"/>
<path opacity="0.2" d="M212.047 68.3919L213.904 61.4418L213.934 61.4561C214.87 61.9472 215.099 63.3432 215.376 64.954C215.76 67.2864 216.251 70.1859 219.196 71.3071H219.212C218.046 72.3193 216.527 73.2084 214.533 73.9301H214.501L214.487 73.9001C214.487 73.8527 213.55 70.6628 212.047 68.3919Z" fill="#081921"/>
<path opacity="0.2" d="M200.907 68.3918L196.029 55.7329L194.11 57.5285L195.401 68.3918H200.907Z" fill="#081921"/>
<path d="M212.063 68.376L214.823 58.097" stroke="#081921" stroke-width="0.631679" stroke-linecap="round" stroke-linejoin="round"/>
<path d="M215.76 65.047L213.443 63.9258" stroke="#081921" stroke-width="0.631679" stroke-linecap="round" stroke-linejoin="round"/>
<path d="M194.126 57.4827L196.689 54.9055" stroke="#081921" stroke-width="0.631679" stroke-linecap="round" stroke-linejoin="round"/>
<path d="M185.058 50.119L185.212 52.1135" stroke="#081921" stroke-width="0.631679" stroke-linecap="round" stroke-linejoin="round"/>
<path d="M166.08 37.7207C167.153 37.7207 168.979 38.0902 169.671 38.504" stroke="#030202" stroke-width="0.631679" stroke-linecap="round" stroke-linejoin="round"/>
<path d="M165.881 39.8541C166.954 39.7152 169.118 40.6674 169.118 40.6674" stroke="#030202" stroke-width="0.631679" stroke-linecap="round" stroke-linejoin="round"/>
<path d="M165.344 41.8645C166.034 41.7255 167.507 42.0019 168.458 42.6762" stroke="#030202" stroke-width="0.631679" stroke-linecap="round" stroke-linejoin="round"/>
<path d="M167.814 45.0086L167.185 43.9806" stroke="#030202" stroke-width="0.631679" stroke-linecap="round" stroke-linejoin="round"/>
<path d="M200.539 37.2453C201.229 36.9848 201.752 36.7242 201.752 36.7242" stroke="#030202" stroke-width="0.631679" stroke-linecap="round" stroke-linejoin="round"/>
<path d="M227.359 51.0996C227.866 48.8145 226.684 46.6052 224.183 45.1934C225.442 41.8028 225.165 38.5339 223.386 35.9566C221.544 33.302 218.398 31.7686 214.732 31.7686C213.596 31.7686 212.446 31.9218 211.279 32.2139C211.325 31.9518 211.371 31.707 211.418 31.4923C211.478 31.1859 211.526 30.9237 211.556 30.7406L211.586 30.5416C212.001 28.3465 212.769 24.2501 210.405 22.1324C208.887 20.7821 206.708 20.0162 204.421 20.0162C203.21 20.0162 201.997 20.231 200.923 20.6605C199.42 21.2433 198.407 22.1939 197.64 23.6831C197.64 23.6831 198.591 24.956 200.34 24.956C200.724 24.956 201.138 24.8944 201.078 24.926C200.678 26.3362 201.267 28.6623 201.986 29.6714L202.209 29.9541L202.286 30.0568C202.428 29.9573 204.115 28.746 205.65 28.746C206.539 28.746 207.167 29.1598 207.521 29.9889C208.611 32.5503 204.345 34.7754 204.299 34.8054H204.284V34.8212C204.007 35.8951 203.808 40.7432 206.308 43.9663C207.766 45.8377 209.853 46.7884 212.522 46.7884C214.011 46.7884 215.684 46.482 217.509 45.8993C217.678 46.2214 219.442 49.7493 221.222 55.6113C221.222 55.6113 226.347 55.7645 227.359 51.0996Z" fill="#231F20"/>
<path d="M191.855 88.6434L177.971 88.5202" stroke="#211800" stroke-width="0.631679" stroke-linecap="round" stroke-linejoin="round"/>
<path d="M204.544 36.77C203.698 36.77 203.009 36.0831 203.009 35.235C203.009 34.3886 203.698 33.7016 204.544 33.7016C205.39 33.7016 206.079 34.3886 206.079 35.235C206.079 36.0831 205.39 36.77 204.544 36.77Z" fill="white"/>
<path d="M211.279 32.214C210.619 32.443 209.929 32.7652 209.301 33.0873" stroke="#231F20" stroke-width="0.631679" stroke-linecap="round" stroke-linejoin="round"/>
<path d="M224.183 45.1934C223.845 45.9909 223.415 46.7742 222.956 47.5101" stroke="#231F20" stroke-width="0.631679" stroke-linecap="round" stroke-linejoin="round"/>
<path d="M217.539 45.8994C218.967 45.5156 219.733 44.9013 219.733 44.9013" stroke="#231F20" stroke-width="0.631679" stroke-linecap="round" stroke-linejoin="round"/>
<path d="M180.502 44.9329L172.954 50.8091" stroke="#081921" stroke-width="0.631679" stroke-linecap="round" stroke-linejoin="round"/>
<path d="M163.532 119.529C164.3 119.022 165.113 118.609 165.972 118.301L166.034 118.271L154.082 112.303L154.067 112.317C153.514 112.84 153.069 113.437 152.746 114.128L152.732 114.159L163.532 119.529Z" fill="#343434"/>
<path d="M190.214 124.069C190.674 123.318 191.197 122.598 191.748 121.938L191.779 121.892H177.649L177.633 121.906C177.388 122.598 177.311 123.318 177.311 124.039V124.069H190.214Z" fill="#343434"/>
<path d="M213.752 92.3878L221.364 123.796" stroke="#231F20" stroke-width="0.631679" stroke-linecap="round" stroke-linejoin="round"/>
<path d="M198.961 92.3878L191.351 123.796" stroke="#231F20" stroke-width="0.631679" stroke-linecap="round" stroke-linejoin="round"/>
<path d="M196.06 104.454H216.637" stroke="#231F20" stroke-width="0.631679" stroke-linecap="round" stroke-linejoin="round"/>
<path d="M194.833 88.3577H217.864C219.573 88.3577 220.949 89.3937 220.949 90.6791C220.949 91.963 219.573 92.999 217.864 92.999H194.833C193.125 92.999 191.749 91.963 191.749 90.6791C191.749 89.4063 193.142 88.3577 194.833 88.3577Z" fill="#AFC967"/>
<path opacity="0.3" d="M191.815 91.1276C192.097 92.1888 193.341 92.999 194.833 92.999H217.864C219.573 92.999 220.948 91.963 220.948 90.6791C220.948 90.1548 220.716 89.6795 220.336 89.2926C216.306 90.2922 211.497 91.0281 206.29 91.3771C201.002 91.7261 196.043 91.614 191.815 91.1276Z" fill="#1C1C1C"/>
<path d="M127.563 70.9139V58.5188H138.501V70.9139H127.563Z" fill="#21ADE0"/>
<path d="M133.032 61.726C129.43 61.726 127.781 58.9182 127.584 58.5565C127.582 58.5518 127.582 58.5471 127.582 58.5423C127.582 58.5392 127.582 58.5344 127.584 58.5313C127.587 58.5265 127.59 58.5234 127.595 58.5218C127.598 58.5202 127.601 58.5186 127.607 58.5186H138.396C138.406 58.5186 138.418 58.5218 138.426 58.5265C138.437 58.5313 138.444 58.5408 138.45 58.5487C138.456 58.5581 138.458 58.5692 138.458 58.5787C138.458 58.5913 138.456 58.6008 138.45 58.6118C138.15 59.1377 136.492 61.726 133.032 61.726Z" fill="#19333F"/>
<path d="M140.805 65.5177C141.932 65.5177 142.846 64.6033 142.846 63.4758C142.846 62.3498 141.932 61.4355 140.805 61.4355C139.677 61.4355 138.763 62.3498 138.763 63.4758C138.763 64.6033 139.677 65.5177 140.805 65.5177Z" stroke="#142026" stroke-width="0.631679" stroke-linecap="round" stroke-linejoin="round"/>
<path d="M98.3351 99.6978C97.6118 97.0037 93.6702 96.1983 92.0483 101.4C90.6365 105.939 88.642 106.604 87.7324 111.093C86.8702 115.386 89.3542 121.59 95.7215 121.148C102.428 120.681 98.3351 99.6978 98.3351 99.6978Z" stroke="white" stroke-width="0.631679" stroke-linecap="round" stroke-linejoin="round"/>
<path d="M101.028 88.2092L109.642 104.369L94.6145 112.38L86 96.2204L101.028 88.2092Z" fill="#FFC930"/>
<path d="M105.228 90.3553H105.181C102.593 90.3553 100.492 92.4557 100.492 95.044V99.4183H109.917V95.044C109.917 92.4557 107.818 90.3553 105.228 90.3553Z" stroke="white" stroke-width="0.631679" stroke-linecap="round" stroke-linejoin="round"/>
<path d="M105.217 94.7533H105.112C98.3936 94.7533 92.958 100.2 92.958 106.907V121.382C92.958 122.932 94.2182 124.193 95.769 124.193H114.56C116.111 124.193 117.371 122.932 117.371 121.382V106.919C117.382 100.2 111.935 94.7533 105.217 94.7533C105.217 94.7533 105.228 94.7533 105.217 94.7533Z" fill="#ED8350"/>
<path opacity="0.3" d="M110.034 109.683H100.317C98.7425 109.683 97.4602 110.967 97.4602 112.541V118.664C97.4602 120.238 98.7425 121.522 100.317 121.522H110.034C111.608 121.522 112.891 120.238 112.891 118.664V112.541C112.891 110.967 111.608 109.683 110.034 109.683Z" fill="#ED8350"/>
<path d="M109.994 110.332H100.317C98.9778 110.253 98.6635 111.109 97.4539 112.859V117.382C97.4602 118.956 98.7425 120.238 100.317 120.238H110.034C111.608 120.238 112.891 118.956 112.891 117.382V112.805C111.96 110.58 111.512 110.41 109.994 110.253V110.332Z" fill="#D69E00"/>
<path d="M110.034 108.401H100.317C98.7425 108.401 97.4602 109.683 97.4602 111.258V112.797H112.891V111.258C112.891 109.683 111.608 108.401 110.034 108.401Z" fill="#FFC930" stroke="#AFC967" stroke-width="0.631679"/>
<path d="M112.891 112.797H97.4492" stroke="#FCFCFC" stroke-width="0.631679" stroke-linecap="round" stroke-linejoin="round"/>
<path d="M105.17 104.715C103.881 104.715 102.837 103.67 102.837 102.382C102.837 101.092 103.881 100.048 105.17 100.048C106.457 100.048 107.502 101.092 107.502 102.382C107.502 103.67 106.457 104.715 105.17 104.715Z" fill="#FFC930"/>
<path d="M248.004 117L246.061 116.977L247.313 113.094C246.985 112.491 246.581 111.927 246.124 111.419L244.746 109.87C243.876 108.883 243.707 107.441 244.332 106.283L245.499 104.098H235.261H235.25L236.428 106.283C237.044 107.45 236.873 108.894 235.994 109.87L234.614 111.419C234.148 111.927 233.743 112.491 233.404 113.094L234.487 116.851L232.81 116.829L232.205 117.953C232.259 120.373 233.224 122.664 234.922 124.393H245.818C247.516 122.675 248.481 120.395 248.534 117.976L248.004 117Z" fill="#ED8350"/>
<path d="M243.872 119.419C244.003 119.531 242.688 118.441 241.586 118.05C241.181 117.912 240.758 117.836 240.333 117.836C238.721 117.836 237.278 118.866 236.785 119.157C236.636 119.233 234.763 117.836 233.151 117.836C232.832 117.836 232.515 117.879 232.207 117.953C232.164 116.256 232.589 114.56 233.416 113.085C234.944 113.191 236.174 114.452 236.747 114.424C237.26 114.452 237.979 113.678 239.081 113.285C239.485 113.148 239.909 113.074 240.333 113.074C241.946 113.074 243.4 114.291 243.929 114.272C244.57 114.28 245.766 113.17 247.315 113.085C248.152 114.569 248.577 116.267 248.534 117.975C248.206 117.89 247.855 117.836 247.516 117.836C245.914 117.836 244.941 118.394 244.123 119.185L243.872 119.419Z" fill="#FFC930"/>
<path d="M240.365 106.231C237.511 106.231 235.863 104.807 235.694 104.112H245.068C245.079 104.59 243.241 106.231 240.365 106.231Z" fill="#3F231E"/>
<path d="M241.129 105.923C241.341 104.639 242.285 99.5795 244.673 96.8206" stroke="#FFC930" stroke-width="0.631679" stroke-linecap="round" stroke-linejoin="round"/>
<path d="M240.025 105.955C240.014 104.502 239.856 97.3718 238.445 93.1174" stroke="#FFC930" stroke-width="0.631679" stroke-linecap="round" stroke-linejoin="round"/>
<path d="M243.165 100.555C242.9 100.205 242.825 99.9285 242.942 99.7485C243.133 99.4406 243.833 99.42 244.916 99.6853C245.998 99.9506 247.325 100.481 248.661 101.17C250.549 102.146 252.098 103.27 252.724 104.098C252.989 104.448 253.063 104.725 252.946 104.905C252.755 105.213 252.056 105.233 250.974 104.968C249.891 104.702 248.566 104.173 247.228 103.483C245.339 102.507 243.79 101.392 243.165 100.555Z" fill="#FFC930"/>
<path d="M226.583 95.112C226.5 95.0172 226.457 94.9114 226.446 94.8151C226.403 94.4976 226.7 94.2213 227.273 94.0413C227.847 93.8502 228.632 93.776 229.48 93.8281C230.934 93.9133 232.261 94.3381 232.684 94.8782C232.769 94.9746 232.812 95.0804 232.823 95.1767C232.906 95.8226 231.548 96.2679 229.787 96.1732C228.335 96.0784 227.019 95.6536 226.583 95.112Z" fill="#FFC930"/>
<path d="M229.968 103.038C228.568 103.281 227.698 103.186 227.581 102.773C227.359 101.997 229.819 100.342 233.088 99.0804C234.498 98.5387 235.899 98.125 237.034 97.9244C238.434 97.6797 239.304 97.7744 239.421 98.1882C239.526 98.5608 239.018 99.1546 237.979 99.8542C236.938 100.555 235.496 101.266 233.916 101.88C232.504 102.433 231.103 102.847 229.968 103.038Z" fill="#FFC930"/>
<path d="M244.416 85.7267C244.657 85.005 244.212 84.206 243.421 83.9438C242.631 83.6817 241.796 84.0559 241.557 84.7776C241.317 85.5009 241.763 86.2984 242.552 86.5605C243.342 86.8243 244.176 86.45 244.416 85.7267Z" fill="#FFC930"/>
<path d="M238.675 93.798C240.821 93.0495 242.033 90.9223 241.377 89.0462C240.723 87.1717 238.453 86.2574 236.306 87.0075C234.159 87.756 232.949 89.8832 233.604 91.7593C234.258 93.6338 236.529 94.5481 238.675 93.798Z" fill="#EE7C97"/>
<path d="M237.669 90.9129C237.99 90.8023 238.17 90.4818 238.072 90.2007C237.974 89.918 237.633 89.7806 237.312 89.8912C236.992 90.0033 236.812 90.3238 236.91 90.6049C237.009 90.8876 237.349 91.025 237.669 90.9129Z" fill="#615C5F"/>
<path d="M249.152 97.1317C250.079 95.6599 249.466 93.6053 247.781 92.541C246.096 91.4797 243.978 91.8114 243.05 93.2832C242.121 94.755 242.734 96.8095 244.419 97.8723C246.104 98.9351 248.223 98.6035 249.152 97.1317Z" fill="#EE7C97"/>
<path d="M246.62 95.5351C246.781 95.2825 246.677 94.9303 246.39 94.7487C246.102 94.5687 245.739 94.6271 245.579 94.8782C245.42 95.1309 245.524 95.483 245.812 95.6646C246.099 95.8463 246.461 95.7878 246.62 95.5351Z" fill="#615C5F"/>
<path opacity="0.2" d="M247.324 113.094C247.324 113.085 247.324 113.085 247.324 113.094C247.324 113.085 247.324 113.085 247.324 113.094C246.985 112.491 246.582 111.938 246.137 111.419L244.758 109.869C243.877 108.882 243.718 107.45 244.345 106.283L245.478 104.11H242.519L241.352 106.283C240.727 107.441 240.896 108.882 241.766 109.869L243.144 111.419C243.601 111.927 244.005 112.491 244.333 113.085C245.172 114.569 245.586 116.256 245.543 117.964C245.489 120.384 244.525 122.675 242.827 124.393H242.87H245.818L245.829 124.384C247.527 122.664 248.491 120.384 248.545 117.964C248.588 116.267 248.163 114.58 247.324 113.094Z" fill="#3F231E"/>
<defs>
<linearGradient id="paint0_linear_52_1343" x1="169" y1="39" x2="169" y2="209" gradientUnits="userSpaceOnUse">
<stop stop-color="white"/>
<stop offset="1" stop-color="#FFC930" stop-opacity="0"/>
</linearGradient>
</defs>
</svg>
