<svg width="388" height="54" viewBox="0 0 388 54" fill="none" xmlns="http://www.w3.org/2000/svg">
<rect width="388" height="54" rx="8" fill="#ED8350"/>
<path d="M165.24 33.192C168.008 33.192 170.152 31.56 170.6 29.096H168.472C168.088 30.392 166.872 31.224 165.288 31.224C163.144 31.224 161.768 29.624 161.768 27.144C161.768 24.648 163.128 23.08 165.288 23.08C166.84 23.08 168.008 23.88 168.408 25.24H170.568C170.168 22.728 168.104 21.112 165.336 21.112C161.912 21.112 159.624 23.528 159.624 27.16C159.624 30.824 161.832 33.192 165.24 33.192ZM171.685 29.032C171.685 31.496 173.461 33.192 175.909 33.192C178.357 33.192 180.133 31.496 180.133 29.032C180.133 26.568 178.357 24.872 175.909 24.872C173.461 24.872 171.685 26.568 171.685 29.032ZM173.637 29.032C173.637 27.592 174.565 26.616 175.909 26.616C177.253 26.616 178.181 27.592 178.181 29.032C178.181 30.472 177.253 31.448 175.909 31.448C174.565 31.448 173.637 30.472 173.637 29.032ZM183.632 33V28.744C183.632 27.464 184.368 26.632 185.568 26.632C186.576 26.632 187.232 27.272 187.232 28.6V33H189.184V28.136C189.184 26.088 188.16 24.856 186.176 24.856C185.104 24.856 184.144 25.32 183.648 26.12L183.488 25.096H181.68V33H183.632ZM193.79 33V26.728H195.326V25.096H193.79V22.632H191.838V25.096H190.318V26.728H191.838V33H193.79ZM197.515 23.512C198.155 23.512 198.683 22.984 198.683 22.328C198.683 21.672 198.155 21.16 197.515 21.16C196.843 21.16 196.315 21.672 196.315 22.328C196.315 22.984 196.843 23.512 197.515 23.512ZM196.539 33H198.491V25.096H196.539V33ZM202.46 33V28.744C202.46 27.464 203.196 26.632 204.396 26.632C205.404 26.632 206.06 27.272 206.06 28.6V33H208.012V28.136C208.012 26.088 206.988 24.856 205.004 24.856C203.932 24.856 202.972 25.32 202.476 26.12L202.316 25.096H200.508V33H202.46ZM215.29 25.096V29.24C215.29 30.744 214.698 31.464 213.466 31.464C212.378 31.464 211.786 30.856 211.786 29.352V25.096H209.834V30.04C209.834 31.976 210.906 33.208 212.73 33.208C213.786 33.208 214.81 32.696 215.29 31.944L215.434 33H217.242V25.096H215.29ZM222.638 33.208C224.702 33.208 226.142 32.168 226.478 30.44H224.67C224.446 31.192 223.742 31.608 222.67 31.608C221.374 31.608 220.638 30.904 220.494 29.512L226.446 29.496V28.904C226.446 26.44 224.942 24.856 222.574 24.856C220.254 24.856 218.638 26.568 218.638 29.048C218.638 31.496 220.286 33.208 222.638 33.208ZM222.59 26.456C223.758 26.456 224.51 27.176 224.51 28.264H220.542C220.734 27.08 221.438 26.456 222.59 26.456Z" fill="white"/>
</svg>
