<svg width="75" height="27" viewBox="0 0 75 27" fill="none" xmlns="http://www.w3.org/2000/svg">
<path d="M3.85875 21V9.82L11.2588 21H13.2188V6.54H11.2588V17.72L3.85875 6.54H1.89875V21H3.85875ZM20.4863 21.24C22.9063 21.24 24.5463 20.06 25.0263 17.96H23.2663C22.9463 19.08 21.9863 19.68 20.5263 19.68C18.6663 19.68 17.5863 18.54 17.4463 16.48L25.0062 16.46V15.76C25.0062 12.86 23.1863 10.94 20.4063 10.94C17.5663 10.94 15.6263 13.06 15.6263 16.12C15.6263 19.16 17.6063 21.24 20.4863 21.24ZM20.4063 12.52C22.0663 12.52 23.1263 13.6 23.1263 15.22H17.4863C17.7263 13.5 18.7663 12.52 20.4063 12.52ZM27.735 21L30.135 17.42L32.575 21H34.755L31.415 16.16L34.815 11.22H32.675L30.255 14.86L27.775 11.22H25.595L28.995 16.16L25.575 21H27.735ZM39.5341 21V12.8H41.4541V11.22H39.5341V8.16H37.6541V11.22H35.7341V12.8H37.6541V21H39.5341Z" fill="#ED8350"/>
<path fill-rule="evenodd" clip-rule="evenodd" d="M73 13.5C73 7.97715 68.5228 3.5 63 3.5C57.4772 3.5 53 7.97715 53 13.5C53 19.0228 57.4772 23.5 63 23.5C68.5228 23.5 73 19.0228 73 13.5ZM65.1893 14.25L63.4697 15.9697C63.1768 16.2626 63.1768 16.7374 63.4697 17.0303C63.7626 17.3232 64.2374 17.3232 64.5303 17.0303L66.8232 14.7374C67.5066 14.054 67.5066 12.946 66.8232 12.2626L64.5303 9.96967C64.2374 9.67678 63.7626 9.67678 63.4697 9.96967C63.1768 10.2626 63.1768 10.7374 63.4697 11.0303L65.1893 12.75L59 12.75C58.5858 12.75 58.25 13.0858 58.25 13.5C58.25 13.9142 58.5858 14.25 59 14.25L65.1893 14.25Z" fill="#ED8350"/>
</svg>
