<svg width="338" height="189" viewBox="0 0 338 189" fill="none" xmlns="http://www.w3.org/2000/svg">
<path d="M0 15.0002C0 6.5187 7.02641 -0.275851 15.5031 0.00862706L323.503 10.3451C331.587 10.6164 338 17.2482 338 25.3367V162.283C338 170.347 331.624 176.968 323.566 177.272L15.5659 188.901C7.06576 189.222 0 182.418 0 173.911V15.0002Z" fill="#EE7C97"/>
<path d="M35.672 150.04C35.672 151.704 36.648 152.792 38.536 153.224L40.44 153.656C41.544 153.912 42.04 154.488 42.04 155.4C42.04 156.552 41.064 157.272 39.528 157.272C38.072 157.272 37.144 156.568 37.112 155.464H35.512C35.608 157.448 37.176 158.68 39.528 158.68C41.992 158.68 43.608 157.352 43.608 155.272C43.608 153.64 42.648 152.616 40.76 152.184L38.856 151.736C37.768 151.48 37.24 150.92 37.24 149.992C37.24 148.856 38.184 148.12 39.64 148.12C40.936 148.12 41.752 148.792 41.832 149.944H43.416C43.288 147.944 41.864 146.712 39.656 146.712C37.272 146.712 35.672 148.056 35.672 150.04ZM47.5304 158.488V151.928H49.0664V150.664H47.5304V148.216H46.0264V150.664H44.4904V151.928H46.0264V158.488H47.5304ZM52.6104 158.68C53.8744 158.68 54.9464 158.12 55.3464 157.224L55.5064 158.488H56.7864V153.576C56.7864 151.464 55.4744 150.44 53.5384 150.44C51.5224 150.44 50.1784 151.512 50.1784 153.144H51.4904C51.4904 152.2 52.2104 151.64 53.4744 151.64C54.5304 151.64 55.3144 152.104 55.3144 153.416V153.64L52.8504 153.832C51.0104 153.976 49.9384 154.872 49.9384 156.312C49.9384 157.736 50.9304 158.68 52.6104 158.68ZM53.0424 157.512C52.0664 157.512 51.4584 157.096 51.4584 156.264C51.4584 155.496 52.0024 154.984 53.3304 154.856L55.3304 154.696V155.112C55.3304 156.584 54.4664 157.512 53.0424 157.512ZM63.3493 150.6C63.0453 150.536 62.8213 150.504 62.5493 150.504C61.4773 150.504 60.6933 151.048 60.3733 151.864L60.2773 150.68H58.8693V158.488H60.3733V154.344C60.3733 152.84 61.2533 151.976 62.6773 151.976H63.3493V150.6ZM67.2804 158.488V151.928H68.8164V150.664H67.2804V148.216H65.7764V150.664H64.2404V151.928H65.7764V158.488H67.2804Z" fill="white"/>
<path fill-rule="evenodd" clip-rule="evenodd" d="M98 152.488C98 158.011 93.5228 162.488 88 162.488C82.4772 162.488 78 158.011 78 152.488C78 146.965 82.4772 142.488 88 142.488C93.5228 142.488 98 146.965 98 152.488ZM86.2929 156.195C85.9024 155.805 85.9024 155.172 86.2929 154.781L88.5858 152.488L86.2929 150.195C85.9024 149.805 85.9024 149.172 86.2929 148.781C86.6834 148.391 87.3166 148.391 87.7071 148.781L90.4446 151.519C90.9801 152.054 90.9801 152.922 90.4446 153.458L87.7071 156.195C87.3166 156.586 86.6834 156.586 86.2929 156.195Z" fill="white"/>
<path d="M11 23.8293C11 16.5489 17.025 10.7131 24.3017 10.9453L314.521 20.2079C321.476 20.4299 327 26.1327 327 33.0919V154.67C327 161.609 321.507 167.303 314.572 167.552L24.3531 177.972C17.0572 178.234 11 172.391 11 165.09V23.8293Z" stroke="url(#paint0_linear_52_3201)" stroke-width="2"/>
<path d="M40.016 64.4883V57.0483H47.792V64.4883H50.864V46.9443H47.792V54.1923H40.016V46.9443H36.944V64.4883H40.016ZM59.6285 64.8003C62.7245 64.8003 64.8845 63.2403 65.3885 60.6483H62.6765C62.3405 61.7763 61.2845 62.4003 59.6765 62.4003C57.7325 62.4003 56.6285 61.3443 56.4125 59.2563L65.3405 59.2323V58.3443C65.3405 54.6483 63.0845 52.2723 59.5325 52.2723C56.0525 52.2723 53.6285 54.8403 53.6285 58.5603C53.6285 62.2323 56.1005 64.8003 59.6285 64.8003ZM59.5565 54.6723C61.3085 54.6723 62.4365 55.7523 62.4365 57.3843H56.4845C56.7725 55.6083 57.8285 54.6723 59.5565 54.6723ZM71.0947 64.8003C72.9427 64.8003 74.5507 63.9603 75.0547 62.7363L75.2707 64.4883H77.8387V57.2883C77.8387 54.0003 75.8707 52.2723 72.6787 52.2723C69.4627 52.2723 67.3507 53.9523 67.3507 56.5203H69.8467C69.8467 55.2723 70.8067 54.5523 72.5347 54.5523C74.0227 54.5523 74.9827 55.2003 74.9827 56.8083V57.0723L71.4307 57.3363C68.6227 57.5523 67.0387 58.9203 67.0387 61.1043C67.0387 63.3363 68.5747 64.8003 71.0947 64.8003ZM72.0547 62.5923C70.7347 62.5923 70.0147 62.0643 70.0147 60.9843C70.0147 60.0243 70.7107 59.4243 72.5347 59.2563L75.0067 59.0643V59.6883C75.0067 61.5123 73.8547 62.5923 72.0547 62.5923ZM85.5871 64.8003C87.3871 64.8003 88.9231 64.0083 89.6431 62.6403L89.8351 64.4883H92.5231V46.6323H89.6191V54.1443C88.8751 52.9683 87.4111 52.2723 85.7551 52.2723C82.1791 52.2723 80.0191 54.9123 80.0191 58.6083C80.0191 62.2803 82.1551 64.8003 85.5871 64.8003ZM86.2351 62.1123C84.1951 62.1123 82.9471 60.6243 82.9471 58.5123C82.9471 56.4003 84.1951 54.8883 86.2351 54.8883C88.2751 54.8883 89.5951 56.3763 89.5951 58.5123C89.5951 60.6483 88.2751 62.1123 86.2351 62.1123ZM94.6625 60.8883C94.6625 63.2163 96.5345 64.8003 99.4865 64.8003C102.415 64.8003 104.455 63.3123 104.455 60.9123C104.455 59.0883 103.447 58.1763 101.455 57.7203L99.3185 57.2163C98.3105 56.9763 97.7825 56.5443 97.7825 55.8723C97.7825 54.9843 98.4545 54.4563 99.6065 54.4563C100.735 54.4563 101.407 55.1043 101.431 56.1123H104.215C104.191 53.8083 102.391 52.2723 99.7265 52.2723C96.9905 52.2723 95.0225 53.6643 95.0225 55.9923C95.0225 57.8883 96.0545 58.8963 98.1905 59.3763L100.327 59.8803C101.383 60.1203 101.695 60.5523 101.695 61.1523C101.695 62.0163 100.951 62.5683 99.5825 62.5683C98.2385 62.5683 97.4705 61.9203 97.4465 60.8883H94.6625ZM36.824 90.0803C36.824 94.2083 39.512 96.7763 43.76 96.7763C48.032 96.7763 50.72 94.1843 50.72 90.0803V78.9443H47.648V89.8883C47.648 92.3843 46.256 93.8003 43.76 93.8003C41.264 93.8003 39.896 92.4083 39.896 89.8883V78.9443H36.824V90.0803ZM54.0667 101.984H56.9947V94.9043C57.7387 96.1043 59.2747 96.8003 61.0507 96.8003C64.5787 96.8003 66.5947 94.1123 66.5947 90.4163C66.5947 86.6963 64.3867 84.2723 61.0507 84.2723C59.2507 84.2723 57.6907 85.0643 56.9707 86.4323L56.7787 84.6323H54.0667V101.984ZM57.0187 90.5603C57.0187 88.4243 58.3387 86.9363 60.3547 86.9363C62.4187 86.9363 63.6427 88.4483 63.6427 90.5603C63.6427 92.6723 62.4187 94.1603 60.3547 94.1603C58.3387 94.1603 57.0187 92.6963 57.0187 90.5603Z" fill="white"/>
<path d="M280.655 58.2117C283.341 58.2117 285.517 56.0348 285.517 53.3495C285.517 50.6641 283.341 48.4883 280.655 48.4883C277.969 48.4883 275.793 50.6641 275.793 53.3495C275.793 56.0348 277.969 58.2117 280.655 58.2117Z" fill="#EE7C97"/>
<path d="M276.203 137.589C276.195 137.589 276.195 137.58 276.195 137.58L276.564 135.635C276.571 135.595 276.66 135.267 276.651 135.227C276.603 134.963 276.66 134.851 276.292 134.851L274.235 134.562C274.227 134.562 274.227 134.555 274.227 134.555C274.346 133.858 274.411 133.138 274.394 132.434C274.394 132.425 274.394 132.425 274.403 132.425L282.719 131.97C282.727 131.97 282.727 131.97 282.727 131.977C282.67 132.738 282.583 133.651 282.47 134.571C282.374 135.363 282.27 136.156 282.159 136.867C282.142 136.948 282.126 137.084 282.118 137.115C282.118 137.115 282.118 137.124 282.111 137.124L276.203 137.589Z" fill="#AE805A"/>
<path opacity="0.2" d="M274.907 132.201L282.694 132.297C282.703 132.297 282.703 132.297 282.703 132.305C282.655 132.962 282.487 134.434 282.47 134.571C282.47 134.579 282.463 134.579 282.463 134.579L274.907 132.225C274.899 132.209 274.899 132.201 274.907 132.201Z" fill="#151413"/>
<path d="M284.103 141.294C284.096 141.294 284.096 141.294 284.096 141.286C284.096 140.718 284.2 140.277 284.424 139.87L284.44 139.846L291.307 139.485L296.349 139.846C296.357 139.846 296.357 139.853 296.357 139.853C296.205 140.694 296.101 141.23 296.085 141.286C296.085 141.286 296.085 141.294 296.077 141.294H284.103Z" fill="#231F20"/>
<path d="M291.09 137.204L291.483 135.379C291.49 135.339 291.554 134.851 291.186 134.851L288.848 134.562C288.841 134.562 288.841 134.555 288.841 134.555C288.889 133.842 288.833 132.77 288.745 132.066C288.745 132.057 288.745 132.057 288.752 132.057L297.18 132.401C297.189 132.401 297.189 132.41 297.189 132.41C297.157 133.162 297.109 133.851 297.045 134.562C296.989 135.187 296.917 135.827 296.828 136.547C296.821 136.619 296.765 137.076 296.756 137.124C296.756 137.124 296.756 137.132 296.749 137.132L291.483 137.932C291.483 137.932 291.474 137.932 291.474 137.924L291.09 137.204Z" fill="#AE805A"/>
<path opacity="0.2" d="M288.89 132.233L297.182 132.401C297.19 132.401 297.19 132.401 297.19 132.41C297.158 133.098 297.11 133.842 297.047 134.562L288.89 132.249C288.874 132.249 288.874 132.233 288.89 132.233Z" fill="#151413"/>
<path d="M280.285 76.558L283.223 76.3016V80.7918L279.533 81.0961L280.285 76.558Z" fill="#FFC930"/>
<path d="M274.403 132.425C274.394 132.425 274.394 132.425 274.403 132.425C273.835 120.924 272.626 114.425 277.573 101.105C279.141 96.9361 280.661 94.1508 280.734 94.0299L280.742 94.0226H291.98H291.987C293.212 95.9035 293.981 97.7437 294.444 99.5527C295.333 103.043 295.101 106.413 294.869 109.718C294.533 113.576 294.485 116.969 295.718 120.668C296.454 123.077 297.206 126.487 297.238 129.296C297.262 130.313 297.262 131.353 297.199 132.401C297.199 132.41 297.199 132.41 297.19 132.41C296.742 132.425 274.867 132.425 274.403 132.425Z" fill="#21ADE0"/>
<path opacity="0.2" d="M282.742 94.0383H291.971C293.115 95.7431 293.932 97.5844 294.436 99.5528C294.436 99.5528 286.856 98.2565 282.742 94.0383Z" fill="#172830"/>
<path d="M282.302 78.5181V77.574C282.302 77.5656 282.294 77.5583 282.278 77.5583C281.15 77.8783 279.837 77.3979 279.277 76.3975C278.741 75.4774 278.86 74.7167 279.069 73.46C279.301 71.9792 279.221 69.8743 280.045 68.6572C280.061 68.6332 280.085 68.6019 280.101 68.578C281.558 66.472 285.929 66.2407 287.986 67.9851C288.721 68.7697 289.106 69.7784 289.073 70.8267C289.034 72.1793 288.762 76.6778 288.617 78.9432L282.311 78.5264C282.302 78.5264 282.302 78.5181 282.302 78.5181Z" fill="#AE805A"/>
<path opacity="0.2" d="M282.31 77.5499C282.758 77.4301 283.198 77.2696 283.614 77.0612C283.63 77.0539 283.654 77.0779 283.638 77.0935C283.446 77.3176 282.854 77.9584 282.301 78.2304V77.5656C282.301 77.5499 282.301 77.5499 282.31 77.5499Z" fill="#151413"/>
<path d="M281.181 72.9555L281.118 73.1879C281.077 73.3161 281.118 73.4599 281.214 73.5474L281.238 73.5724" stroke="#151413" stroke-width="0.416819" stroke-linecap="round" stroke-linejoin="round"/>
<path d="M280.957 74.5801C281.101 74.6843 281.59 74.701 281.87 74.3561" stroke="#151413" stroke-width="0.416819" stroke-linecap="round" stroke-linejoin="round"/>
<path d="M282.583 72.7795C282.733 72.7795 282.854 72.6576 282.854 72.5075C282.854 72.3575 282.733 72.2355 282.583 72.2355C282.432 72.2355 282.311 72.3575 282.311 72.5075C282.311 72.6576 282.432 72.7795 282.583 72.7795Z" fill="#231F20"/>
<path d="M280.285 72.4356C280.435 72.4356 280.558 72.3137 280.558 72.1636C280.558 72.0125 280.435 71.8917 280.285 71.8917C280.135 71.8917 280.013 72.0125 280.013 72.1636C280.013 72.3137 280.135 72.4356 280.285 72.4356Z" fill="#231F20"/>
<path d="M282.301 77.55C282.782 77.4458 283.166 77.254 283.623 77.054" stroke="#151413" stroke-width="0.416819" stroke-linecap="round" stroke-linejoin="round"/>
<path d="M265.821 85.8498C265.893 85.8498 264.725 85.4257 264.653 85.1777C264.436 84.4253 264.221 83.6011 264.021 82.9362C264.021 82.9362 264.021 82.9362 264.021 82.929C263.956 82.8967 263.188 82.5361 261.94 79.807C260.763 78.3419 259.611 76.7892 259.859 76.4453C260.514 75.5492 262.54 78.815 261.371 76.9341C260.859 76.0692 259.746 74.4925 260.707 74.0924L260.715 74.0841C260.627 73.4036 261.115 73.1233 261.699 73.3557H261.707C261.851 73.2358 262.02 73.1712 262.203 73.1712C263.452 73.1316 265.141 76.1411 266.213 77.0372C266.221 77.0456 266.23 77.0372 266.23 77.0299C266.374 75.2209 266.669 74.4206 267.214 74.4206C267.574 74.4206 267.582 75.0125 267.75 75.7649C268.039 77.4374 268.951 78.7826 268.919 80.5916C268.919 80.6073 268.919 80.6239 268.927 80.6312C269.111 80.9835 269.911 82.6882 269.951 82.7601C269.951 82.7601 269.951 82.7601 269.951 82.7685L269.583 84.4014C269.583 84.4014 269.583 84.4097 269.575 84.4097C269.431 84.4649 265.749 85.8498 265.821 85.8498Z" fill="#AE805A"/>
<path d="M271.401 94.8062C268.535 94.8062 266.326 91.653 264.653 85.1777L269.935 82.7769C270.512 83.9294 271.344 85.6258 271.84 86.6428C272.001 86.9711 272.121 87.2191 272.184 87.3389C275.154 83.8408 276.827 79.7112 282.27 79.5913C282.286 79.5913 282.301 79.5746 282.301 79.559C282.301 79.3506 282.301 78.518 282.301 78.518H288.617C288.593 78.8306 288.569 79.4392 288.569 79.4631L292.459 82.136L291.475 94.0383H280.733L279.524 89.2198C279.468 89.3157 278.62 90.4765 277.348 91.7093C275.778 93.2223 273.577 94.8542 271.401 94.8062Z" fill="#21ADE0"/>
<path opacity="0.2" d="M290.507 93.1817L288.569 79.4548L292.468 82.136L291.467 94.0622L290.507 93.1817Z" fill="#172830"/>
<path opacity="0.2" d="M278.932 86.5304L279.516 89.2043C279.516 89.2116 279.516 89.2199 279.516 89.2199C279.18 89.7159 278.211 90.8611 277.411 91.6374C277.395 91.6531 277.363 91.6374 277.371 91.6135L278.86 86.5304C278.868 86.4908 278.924 86.4908 278.932 86.5304Z" fill="#172830"/>
<path d="M269.336 141.294C269.328 141.294 269.328 141.294 269.328 141.286C269.328 140.718 269.432 140.277 269.656 139.87L269.672 139.846L275.955 139.453L281.614 139.846C281.622 139.846 281.622 139.853 281.622 139.853C281.446 140.694 281.326 141.23 281.31 141.286C281.31 141.286 281.31 141.294 281.302 141.294H269.336Z" fill="#231F20"/>
<path d="M269.689 139.846C269.68 139.846 269.68 139.837 269.68 139.829C270.361 138.717 271.937 137.837 273.098 136.78C273.755 136.228 274.083 135.395 274.227 134.571C274.227 134.571 274.227 134.562 274.235 134.562C274.355 134.562 276.308 134.562 276.308 134.562C276.708 134.555 277.044 134.947 276.964 135.339C276.964 135.339 276.684 136.98 276.66 137.115C276.66 137.124 276.66 137.124 276.668 137.124H282.111C282.118 137.124 282.118 137.132 282.118 137.132C281.974 137.996 281.646 139.725 281.622 139.837C281.622 139.837 281.622 139.846 281.615 139.846H269.689Z" fill="#AFC967"/>
<path d="M284.455 139.846C284.448 139.846 284.448 139.837 284.448 139.829C284.807 139.205 285.296 138.853 286.081 138.261C286.512 137.932 287.049 137.524 287.681 136.988C288.393 136.371 288.793 135.508 288.842 134.571C288.842 134.562 288.842 134.562 288.849 134.562C288.986 134.562 291.202 134.562 291.202 134.562C291.602 134.555 291.939 134.947 291.859 135.339C291.859 135.339 291.571 136.98 291.547 137.115C291.547 137.124 291.547 137.124 291.555 137.124L296.742 137.132C296.749 137.132 296.749 137.139 296.749 137.139C296.638 138.013 296.525 138.876 296.381 139.733L296.357 139.837L296.349 139.846H284.455Z" fill="#AFC967"/>
<path d="M272.184 87.3389L271.136 88.6998" stroke="#172830" stroke-width="0.416819" stroke-linecap="round" stroke-linejoin="round"/>
<path d="M279.524 89.2115L279.196 88.011" stroke="#172830" stroke-width="0.416819" stroke-linecap="round" stroke-linejoin="round"/>
<path d="M284.527 78.518L285.224 93.1817L284.896 132.353" stroke="#172830" stroke-width="0.416819" stroke-linecap="round" stroke-linejoin="round"/>
<path d="M273.346 136.539L274.338 137.444" stroke="black" stroke-width="0.416819" stroke-linecap="round" stroke-linejoin="round"/>
<path d="M272.53 137.26L273.346 138.413" stroke="black" stroke-width="0.416819" stroke-linecap="round" stroke-linejoin="round"/>
<path d="M288.097 136.563L289.066 137.444" stroke="black" stroke-width="0.416819" stroke-linecap="round" stroke-linejoin="round"/>
<path d="M287.297 137.308L288.073 138.413" stroke="black" stroke-width="0.416819" stroke-linecap="round" stroke-linejoin="round"/>
<path d="M279.94 98.865C279.292 98.8087 280.597 97.0393 280.501 96.9435C280.365 96.808 278.067 99.2245 277.531 97.9126L277.524 97.9042C277.5 97.9126 277.379 97.9366 277.243 97.9366C277.051 97.9366 276.778 97.8886 276.643 97.6562C276.515 97.4239 276.643 97.08 276.659 97.0393C276.659 97.032 276.667 97.0393 276.651 97.0237C275.874 96.1515 277.331 94.7906 278.107 94.0706C281.237 91.2133 284.095 91.0132 288.081 90.9402C288.089 91.0684 288.609 93.3734 288.609 93.3734C288.609 93.3734 287.809 96.0473 287.768 96.0713C287.048 95.9431 286.248 95.6711 285.504 95.5346C284.663 96.1995 283.486 96.5673 282.486 96.56C282.453 96.6152 280.885 98.865 279.94 98.865Z" fill="#AE805A"/>
<path d="M292.396 96.6236C291.035 96.6236 289.482 96.4319 287.777 96.063L288.082 90.9403C288.082 90.933 288.09 90.933 288.09 90.933C288.306 90.933 288.514 90.9247 288.714 90.9247C290.147 90.9247 291.283 90.9893 291.611 91.0049C291.652 91.0049 291.683 90.9643 291.667 90.9247L289.066 85.5696L288.249 79.5111C288.249 79.5111 288.466 79.4788 288.817 79.4788C289.819 79.4788 292.339 79.7591 294.172 82.3924C294.22 82.4643 298.982 89.5398 298.189 93.8143C297.885 95.1752 296.205 96.6236 292.396 96.6236Z" fill="#21ADE0"/>
<path d="M282.301 78.9432V79.4871" stroke="#172830" stroke-width="0.416819" stroke-linecap="round" stroke-linejoin="round"/>
<path d="M292.667 91.1007C292.667 91.1007 290.098 90.909 288.081 90.9329" stroke="#172830" stroke-width="0.416819" stroke-linecap="round" stroke-linejoin="round"/>
<path d="M289.058 85.6019L291.707 91.0132" stroke="#172830" stroke-width="0.416819" stroke-linecap="round" stroke-linejoin="round"/>
<path d="M285.224 73.2516C283.768 72.3638 283.103 70.8424 283.063 69.818C283.063 69.818 283.063 69.8097 283.055 69.8097C280.926 69.4335 280.109 68.7218 280.045 68.6655V68.6572C280.782 67.241 282.598 66.6085 284.56 66.6085C286.512 66.5689 288.186 67.4005 288.986 69.0177C291.891 74.5885 295.142 80.6074 295.229 80.7835V80.7918C294.54 82.481 292.716 83.2167 292.596 83.2646L292.587 83.2729L293.068 84.7058C293.068 84.7058 293.068 84.7058 293.068 84.7141C292.059 88.2591 288.826 89.8847 286.673 89.9962C286.664 89.9962 286.664 89.9962 286.664 89.9879L285.224 73.2516Z" fill="#FFC930"/>
<path opacity="0.2" d="M290.194 76.8215C291.13 78.222 292.859 80.2155 294.723 81.6483C293.875 82.7529 292.666 83.2166 292.586 83.2572L290.161 76.8372C290.153 76.8215 290.177 76.8059 290.194 76.8215Z" fill="black"/>
<path d="M284.262 70.3702C283.678 70.3702 283.062 70.3139 282.446 70.2024C281.949 70.1065 281.47 69.9784 280.997 69.8179C280.541 69.6657 280.109 69.4823 279.716 69.2812L279.709 69.2739C279.516 69.1854 279.38 68.9936 279.38 68.7612C279.38 68.4497 279.628 68.2017 279.94 68.2017C280.076 68.2017 280.172 68.2496 280.229 68.2809C280.572 68.457 280.949 68.6174 281.349 68.7539C281.773 68.8977 282.205 69.0092 282.646 69.0978C283.198 69.1937 283.742 69.25 284.262 69.25C284.871 69.25 285.511 69.202 286.152 69.1062C286.624 69.0332 287.096 68.9217 287.52 68.7935H287.528C287.808 68.705 288.224 68.5612 288.617 68.3611C288.672 68.3371 288.761 68.2892 288.897 68.2892C289.153 68.2892 289.377 68.457 289.441 68.705C289.505 68.954 289.393 69.2093 289.177 69.3375C289.161 69.3458 288.689 69.6095 287.856 69.8658C287.384 70.0096 286.88 70.1222 286.367 70.2024C286.36 70.2024 286.352 70.2024 286.343 70.2097C286.336 70.2097 286.336 70.2097 286.328 70.2097C285.68 70.3139 284.982 70.3702 284.262 70.3702Z" fill="#231F20"/>
<path d="M287.777 96.063C290.05 96.56 291.948 96.6872 293.404 96.584" stroke="#172830" stroke-width="0.416819" stroke-linecap="round" stroke-linejoin="round"/>
<path d="M292.586 83.2572L290.186 76.8538" stroke="black" stroke-width="0.416819" stroke-linecap="round" stroke-linejoin="round"/>
<path d="M276.659 97.0238C276.659 97.0238 278.02 95.5034 280.42 93.7424" stroke="#151413" stroke-width="0.416819" stroke-linecap="round" stroke-linejoin="round"/>
<path d="M277.539 97.9043C278.683 96.7674 279.916 95.7275 281.221 94.7823" stroke="#151413" stroke-width="0.416819" stroke-linecap="round" stroke-linejoin="round"/>
<path d="M280.5 96.9435L281.701 95.9827" stroke="#151413" stroke-width="0.416819" stroke-linecap="round" stroke-linejoin="round"/>
<path d="M266.221 76.9341L266.11 77.9501C266.11 77.9501 265.357 79.2308 265.725 80.7751" stroke="#151413" stroke-width="0.416819" stroke-linecap="round" stroke-linejoin="round"/>
<path d="M261.7 73.3641C263.013 74.7562 264.246 76.5579 264.246 76.5579" stroke="#151413" stroke-width="0.416819" stroke-linecap="round" stroke-linejoin="round"/>
<path d="M260.715 74.0997C261.292 74.677 263.172 77.2936 263.172 77.2936" stroke="#151413" stroke-width="0.416819" stroke-linecap="round" stroke-linejoin="round"/>
<path d="M261.724 77.5343L262.189 78.1106" stroke="#151413" stroke-width="0.416819" stroke-linecap="round" stroke-linejoin="round"/>
<path d="M304.874 82.4882L303.783 79.6121L305.957 81.5222L306.35 79.5517L307.009 81.4211L308.815 79.7497L307.793 82.112L311 82.1464L307.79 83.251L310.258 85.4924L307.103 84.6265L306.582 87.9193L305.74 84.6702L303.212 86.7585L304.883 83.6126L301.788 82.8175L304.874 82.4882Z" fill="#ED8350"/>
<path d="M216.84 105.488C215.708 107.981 215.103 113.867 219.182 115.091C222.962 116.222 228.635 112.898 230.827 110.101C233.02 107.304 232.304 104.331 229.012 106.393C224.549 109.191 223.086 115.826 226.898 117.732C230.528 119.548 235.289 116.6 235.745 114.408C236.136 112.501 234.392 112.846 233.553 115.163C232.643 117.66 234.197 119.781 235.973 120.757C238.998 122.423 239.525 124.238 239.752 125.441" stroke="#231F20" stroke-width="0.416819" stroke-linecap="round"/>
<path d="M251.62 70.8612C251.62 71.5926 251.24 72.1828 250.773 72.1828H241.401C240.931 72.1828 240.553 71.592 240.553 70.8612C240.553 70.1325 240.931 69.5389 241.401 69.5389H250.773C251.239 69.5383 251.619 70.1325 251.619 70.8612" fill="#FFC930"/>
<path d="M241.629 71.3522C241.629 70.6208 242.008 70.0292 242.477 70.0292H251.425C251.27 69.7335 251.036 69.5416 250.773 69.5416H241.401C240.931 69.5416 240.553 70.1358 240.553 70.8639C240.553 71.5953 240.931 72.1855 241.401 72.1855H241.823C241.692 71.9275 241.625 71.6416 241.628 71.3522" fill="#FFC930"/>
<path d="M250.142 61.3156C250.543 61.9271 250.552 62.6292 250.159 62.8816L242.297 67.9323C241.904 68.1847 241.261 67.8923 240.86 67.2808C240.458 66.6679 240.45 65.9658 240.843 65.7134L248.704 60.6628C249.097 60.4103 249.739 60.7041 250.142 61.3156Z" fill="#FFC930"/>
<path d="M242.031 67.1095C241.629 66.498 241.62 65.7946 242.013 65.5434L249.521 60.7187C249.228 60.5561 248.926 60.5208 248.704 60.6627L240.843 65.7133C240.45 65.9658 240.458 66.6679 240.86 67.2807C241.261 67.8922 241.903 68.1846 242.296 67.9322L242.651 67.703C242.4 67.5567 242.188 67.3534 242.031 67.1095Z" fill="#FFC930"/>
<path d="M250.142 80.4136C250.543 79.8021 250.552 79.1 250.159 78.8488L242.297 73.7982C241.904 73.5438 241.261 73.8362 240.86 74.4497C240.458 75.0612 240.45 75.7633 240.843 76.0158L248.704 81.0664C249.097 81.3188 249.739 81.0264 250.142 80.4136Z" fill="#FFC930"/>
<path d="M242.031 74.6176C241.629 75.2324 241.62 75.9325 242.013 76.1857L249.521 81.0084C249.228 81.171 248.926 81.2083 248.704 81.0644L240.843 76.0138C240.45 75.7613 240.458 75.0592 240.86 74.4477C241.261 73.8342 241.903 73.5424 242.296 73.7962L242.651 74.0234C242.427 74.15 242.205 74.3511 242.031 74.6176Z" fill="#FFC930"/>
<path d="M236.147 67.1749C236.555 66.8058 236.525 66.652 236.682 66.3655C236.913 65.9465 236.916 65.5948 236.782 65.2844C235.252 64.4717 233.922 63.2867 233.37 61.6267C233.169 61.0238 233.125 60.2878 233.172 59.6563C233.207 59.172 232.953 58.6018 232.632 58.0522C232.514 57.909 232.371 57.7791 232.231 57.6472C232.454 57.3874 232.71 57.0843 232.884 56.5721C233.147 55.8273 233.141 53.8729 233.073 53.0502C232.939 51.4402 231.303 50.8047 229.655 50.2758C229.53 50.2372 229.414 50.3817 229.318 50.6269C228.225 50.5769 226.854 50.9786 226.128 51.0319C225.324 51.0878 224.532 51.1131 223.742 51.1384C220.356 52.3928 217.141 52.1843 214.264 55.1106C212.738 56.6633 211.398 58.3753 209.927 59.9693C210.497 59.9487 211.064 59.9367 211.658 59.9987C211.989 60.034 211.847 61.219 211.755 61.4082C211.124 62.7045 210.07 63.5704 209 64.4624C212.064 66.2383 213.349 69.5376 214.294 72.9123C214.872 73.2404 215.427 73.6076 215.955 74.0114C216.258 77.0356 216.564 81.0111 216.407 83.1407C216.378 83.4185 216.344 83.6789 216.298 83.8948C216.286 83.9594 216.254 84.0693 216.218 84.1945C216.056 84.5416 215.671 85.1944 215.403 85.7779H231.894C231.612 85.3036 231.26 84.8014 231.122 84.5149C231.114 84.471 231.107 84.4237 231.101 84.3924C230.846 83.3392 230.65 81.055 230.585 79.9972C230.575 79.9912 230.553 79.9826 230.541 79.9779L230.54 79.9706C232.247 80.5854 232.708 80.8099 234.372 80.9631C235.651 81.0817 235.78 79.7814 235.81 79.6175C236.05 78.3739 235.752 77.4106 235.864 76.3262C235.929 75.6747 236.588 74.8327 236.353 74.2698C236.195 73.8921 235.946 73.5358 235.58 73.206C235.385 73.0315 234.076 73.1707 233.839 73.0022C232.971 72.3933 233.436 72.4406 234.003 71.7912C235.043 70.9558 235.563 70.7627 235.864 70.0213C236.02 69.6316 235.4 69.3411 235.183 68.8795C235.04 68.5738 235.288 68.0861 235.28 67.8257C235.425 67.6931 235.999 67.3121 236.147 67.1762" fill="#FFC930"/>
<rect x="218.798" y="58.1582" width="19.3124" height="9.1099" rx="3.02172" transform="rotate(-39.1674 218.798 58.1582)" fill="#ED8350" stroke="#FDF0E0" stroke-width="0.671493"/>
<defs>
<linearGradient id="paint0_linear_52_3201" x1="169" y1="9.48834" x2="169" y2="179.488" gradientUnits="userSpaceOnUse">
<stop stop-color="white"/>
<stop offset="1" stop-color="#EE7C97" stop-opacity="0"/>
</linearGradient>
</defs>
</svg>
