<svg width="338" height="189" viewBox="0 0 338 189" fill="none" xmlns="http://www.w3.org/2000/svg">
<path d="M338 15.0002C338 6.5187 330.974 -0.275851 322.497 0.00862706L14.4969 10.3451C6.41299 10.6164 0 17.2482 0 25.3367V162.283C0 170.347 6.37576 176.968 14.4341 177.272L322.434 188.901C330.934 189.222 338 182.418 338 173.911V15.0002Z" fill="#21ADE0"/>
<path d="M35.672 150.04C35.672 151.704 36.648 152.792 38.536 153.224L40.44 153.656C41.544 153.912 42.04 154.488 42.04 155.4C42.04 156.552 41.064 157.272 39.528 157.272C38.072 157.272 37.144 156.568 37.112 155.464H35.512C35.608 157.448 37.176 158.68 39.528 158.68C41.992 158.68 43.608 157.352 43.608 155.272C43.608 153.64 42.648 152.616 40.76 152.184L38.856 151.736C37.768 151.48 37.24 150.92 37.24 149.992C37.24 148.856 38.184 148.12 39.64 148.12C40.936 148.12 41.752 148.792 41.832 149.944H43.416C43.288 147.944 41.864 146.712 39.656 146.712C37.272 146.712 35.672 148.056 35.672 150.04ZM47.5304 158.488V151.928H49.0664V150.664H47.5304V148.216H46.0264V150.664H44.4904V151.928H46.0264V158.488H47.5304ZM52.6104 158.68C53.8744 158.68 54.9464 158.12 55.3464 157.224L55.5064 158.488H56.7864V153.576C56.7864 151.464 55.4744 150.44 53.5384 150.44C51.5224 150.44 50.1784 151.512 50.1784 153.144H51.4904C51.4904 152.2 52.2104 151.64 53.4744 151.64C54.5304 151.64 55.3144 152.104 55.3144 153.416V153.64L52.8504 153.832C51.0104 153.976 49.9384 154.872 49.9384 156.312C49.9384 157.736 50.9304 158.68 52.6104 158.68ZM53.0424 157.512C52.0664 157.512 51.4584 157.096 51.4584 156.264C51.4584 155.496 52.0024 154.984 53.3304 154.856L55.3304 154.696V155.112C55.3304 156.584 54.4664 157.512 53.0424 157.512ZM63.3493 150.6C63.0453 150.536 62.8213 150.504 62.5493 150.504C61.4773 150.504 60.6933 151.048 60.3733 151.864L60.2773 150.68H58.8693V158.488H60.3733V154.344C60.3733 152.84 61.2533 151.976 62.6773 151.976H63.3493V150.6ZM67.2804 158.488V151.928H68.8164V150.664H67.2804V148.216H65.7764V150.664H64.2404V151.928H65.7764V158.488H67.2804Z" fill="white"/>
<path fill-rule="evenodd" clip-rule="evenodd" d="M98 152.488C98 158.011 93.5228 162.488 88 162.488C82.4772 162.488 78 158.011 78 152.488C78 146.965 82.4772 142.488 88 142.488C93.5228 142.488 98 146.965 98 152.488ZM86.2929 156.195C85.9024 155.805 85.9024 155.172 86.2929 154.781L88.5858 152.488L86.2929 150.195C85.9024 149.805 85.9024 149.172 86.2929 148.781C86.6834 148.391 87.3166 148.391 87.7071 148.781L90.4446 151.519C90.9801 152.054 90.9801 152.922 90.4446 153.458L87.7071 156.195C87.3166 156.586 86.6834 156.586 86.2929 156.195Z" fill="white"/>
<path d="M327 23.8293C327 16.5489 320.975 10.7131 313.698 10.9453L23.4793 20.2079C16.5237 20.4299 11 26.1327 11 33.0919V154.67C11 161.609 16.4932 167.303 23.428 167.552L313.647 177.972C320.943 178.234 327 172.391 327 165.09V23.8293Z" stroke="url(#paint0_linear_52_3274)" stroke-width="2"/>
<path d="M36.944 64.4883H44.048C47.672 64.4883 49.76 62.7363 49.76 59.7363C49.76 57.6963 48.824 56.3043 46.976 55.7043C48.632 55.0083 49.496 53.6163 49.496 51.6723C49.496 48.7443 47.384 46.9443 43.928 46.9443H36.944V64.4883ZM43.664 49.6563C45.392 49.6563 46.352 50.4723 46.352 51.9843C46.352 53.5443 45.416 54.4323 43.736 54.4323H40.016V49.6563H43.664ZM43.928 57.0243C45.632 57.0243 46.616 57.8643 46.616 59.3523C46.616 60.9363 45.656 61.7763 43.928 61.7763H40.016V57.0243H43.928ZM53.6088 50.2563C54.5688 50.2563 55.3608 49.4643 55.3608 48.4803C55.3608 47.4963 54.5688 46.7283 53.6088 46.7283C52.6008 46.7283 51.8088 47.4963 51.8088 48.4803C51.8088 49.4643 52.6008 50.2563 53.6088 50.2563ZM52.1448 64.4883H55.0728V52.6323H52.1448V64.4883ZM65.5379 52.5843C65.0579 52.4643 64.6499 52.4163 64.2419 52.4163C62.6579 52.4163 61.5299 53.2083 61.0259 54.3843L60.8579 52.6563H58.0979V64.4883H61.0259V58.7283C61.0259 56.4243 62.3459 55.2963 64.4579 55.2963H65.5379V52.5843ZM72.0206 64.4883V55.0803H74.3246V52.6323H72.0206V48.9363H69.0926V52.6323H66.8126V55.0803H69.0926V64.4883H72.0206ZM79.0728 64.4883V58.0083C79.0728 56.2323 80.1528 54.9363 82.0008 54.9363C83.4888 54.9363 84.4728 55.8963 84.4728 57.8883V64.4883H87.4008V57.1923C87.4008 54.1203 85.8648 52.2723 82.9368 52.2723C81.2328 52.2723 79.8408 53.0163 79.0968 54.1683V46.6323H76.1448V64.4883H79.0728ZM35.408 81.7763H40.544V96.4883H43.616V81.7763H48.752V78.9443H35.408V81.7763ZM52.1323 82.2563C53.0923 82.2563 53.8843 81.4643 53.8843 80.4803C53.8843 79.4963 53.0923 78.7283 52.1323 78.7283C51.1243 78.7283 50.3323 79.4963 50.3323 80.4803C50.3323 81.4643 51.1243 82.2563 52.1323 82.2563ZM50.6683 96.4883H53.5963V84.6323H50.6683V96.4883ZM59.5494 96.4883V89.7683C59.5494 87.8483 60.6774 86.9363 62.0694 86.9363C63.4614 86.9363 64.3494 87.8243 64.3494 89.4803V96.4883H67.2774V89.7683C67.2774 87.8243 68.3574 86.9123 69.7734 86.9123C71.1654 86.9123 72.0774 87.8003 72.0774 89.5043V96.4883H74.9814V88.7363C74.9814 86.0003 73.3974 84.2723 70.5174 84.2723C68.7174 84.2723 67.3254 85.1603 66.7254 86.5283C66.1014 85.1603 64.8534 84.2723 63.0534 84.2723C61.3494 84.2723 60.1494 85.0403 59.5494 86.0243L59.3094 84.6323H56.6214V96.4883H59.5494ZM83.1598 96.8003C86.2558 96.8003 88.4158 95.2403 88.9198 92.6483H86.2078C85.8718 93.7763 84.8158 94.4003 83.2078 94.4003C81.2638 94.4003 80.1598 93.3443 79.9438 91.2563L88.8718 91.2323V90.3443C88.8718 86.6483 86.6158 84.2723 83.0638 84.2723C79.5838 84.2723 77.1598 86.8403 77.1598 90.5603C77.1598 94.2323 79.6318 96.8003 83.1598 96.8003ZM83.0878 86.6723C84.8398 86.6723 85.9678 87.7523 85.9678 89.3843H80.0158C80.3038 87.6083 81.3598 86.6723 83.0878 86.6723ZM94.1671 96.4883V78.6323H91.2631V96.4883H94.1671ZM98.7026 82.2563C99.6626 82.2563 100.455 81.4643 100.455 80.4803C100.455 79.4963 99.6626 78.7283 98.7026 78.7283C97.6946 78.7283 96.9026 79.4963 96.9026 80.4803C96.9026 81.4643 97.6946 82.2563 98.7026 82.2563ZM97.2386 96.4883H100.167V84.6323H97.2386V96.4883ZM106.12 96.4883V90.1043C106.12 88.1843 107.224 86.9363 109.024 86.9363C110.536 86.9363 111.52 87.8963 111.52 89.8883V96.4883H114.448V89.1923C114.448 86.1203 112.912 84.2723 109.936 84.2723C108.328 84.2723 106.888 84.9683 106.144 86.1683L105.904 84.6323H103.192V96.4883H106.12ZM122.629 96.8003C125.725 96.8003 127.885 95.2403 128.389 92.6483H125.677C125.341 93.7763 124.285 94.4003 122.677 94.4003C120.733 94.4003 119.629 93.3443 119.413 91.2563L128.341 91.2323V90.3443C128.341 86.6483 126.085 84.2723 122.533 84.2723C119.053 84.2723 116.629 86.8403 116.629 90.5603C116.629 94.2323 119.101 96.8003 122.629 96.8003ZM122.557 86.6723C124.309 86.6723 125.437 87.7523 125.437 89.3843H119.485C119.773 87.6083 120.829 86.6723 122.557 86.6723Z" fill="white"/>
<path d="M274.964 52.6225L273.058 47.5944L276.859 50.9333L277.546 47.4883L278.696 50.7565L281.853 47.8347L280.069 51.9651L285.673 52.0244L280.063 53.9549L284.375 57.8741L278.861 56.3597L277.951 62.1158L276.478 56.4366L272.06 60.0854L274.982 54.5883L269.572 53.1977L274.964 52.6225Z" fill="#EE7C97"/>
<path d="M293.149 139.402C293.86 139.576 298.513 137.149 298.677 137.067C298.677 137.067 298.677 137.067 298.677 137.058C298.805 134.659 298.641 132.214 298.203 129.86C298.203 129.86 298.203 129.852 298.193 129.852L293.615 128.93L289.519 129.896C289.509 129.896 289.509 129.906 289.509 129.906C290.385 131.904 291.014 133.491 291.179 134.65C291.188 134.686 292.437 139.228 293.149 139.402Z" fill="#A66241"/>
<path d="M279.703 138.946C280.387 139.11 285.44 137.149 285.614 137.076C285.614 137.076 285.623 137.076 285.623 137.067C285.851 135.224 286.098 133.709 286.144 131.621C286.153 131.037 286.125 130.444 286.107 129.842C286.107 129.842 286.107 129.833 286.098 129.833L282.047 129.276L277.541 129.814C277.532 129.814 277.532 129.823 277.532 129.823C277.769 131.301 277.934 132.67 277.951 133.792C277.951 134.093 277.951 134.357 277.942 134.622C277.942 134.631 277.942 134.631 277.951 134.631C279.311 134.677 278.982 138.763 279.703 138.946Z" fill="#A66241"/>
<path d="M264.577 75.8194C264.386 75.628 263.683 75.9016 263.757 76.8689C263.757 76.8772 263.747 76.8866 263.738 76.8772C262.908 75.3087 260.745 72.1883 260.208 73.8036C260.208 73.813 260.198 73.813 260.198 73.813C259.478 73.3751 259.122 74.0865 259.295 74.7158C259.295 74.7252 259.295 74.7252 259.286 74.7252C258.483 74.7335 258.565 75.5365 258.748 75.9931V76.0014C257.854 76.5579 259.733 79.7147 259.852 79.8239C260.116 80.6456 260.582 82.1871 261.311 82.9256C261.311 82.9256 261.311 82.9256 261.311 82.935C261.275 83.7837 261.266 84.6044 261.284 85.3429C261.284 85.3523 261.284 85.3523 261.294 85.3523L264.258 85.526C264.258 85.526 264.258 85.526 264.267 85.526L267.241 83.3822V83.3729C266.602 80.8641 265.489 76.7316 264.577 75.8194Z" fill="#A66241"/>
<path d="M275.982 69.5433C277.058 67.1811 279.795 66.5061 282.531 67.9831C284.876 69.2791 284.574 70.7113 284.41 72.6262C284.365 73.1286 284.593 75.1715 284.456 76.7046C284.419 77.1238 284.365 77.5076 284.328 77.8352L284.301 77.9538L277.934 78.1369C277.925 78.1369 277.915 77.854 277.915 77.854L277.979 77.4161C277.979 77.4067 277.97 77.4067 277.97 77.4067C274.439 78.0641 273.756 75.6094 274.686 73.0465V73.0371C273.947 72.3163 274.093 71.8513 275.188 71.7692C275.188 71.7692 275.196 71.7692 275.196 71.7598C275.315 71.2127 275.744 70.054 275.982 69.5433Z" fill="#A66241"/>
<path opacity="0.2" d="M277.978 77.4162L277.914 77.8354V77.8448L277.841 78.8485C277.841 78.8579 277.851 78.8578 277.859 78.8578L279.839 76.8504C279.848 76.841 279.839 76.8327 279.83 76.8327C278.79 77.2155 278.051 77.3892 277.978 77.4162C277.978 77.4069 277.978 77.4069 277.978 77.4162Z" fill="#171717"/>
<path d="M275.56 73.9952C275.56 73.9952 276.026 74.1044 276.399 73.6758" stroke="#171717" stroke-width="0.416055" stroke-linecap="round" stroke-linejoin="round"/>
<path d="M277.978 77.4067C278.343 77.3151 279.484 77.0052 279.83 76.8408" stroke="#171717" stroke-width="0.416055" stroke-linecap="round" stroke-linejoin="round"/>
<path d="M280.322 74.4788L281.171 73.8401" stroke="#171717" stroke-width="0.416055" stroke-linecap="round" stroke-linejoin="round"/>
<path d="M276.428 71.5508C276.801 71.5592 276.801 72.1073 276.428 72.1156C276.053 72.1073 276.053 71.5592 276.428 71.5508Z" fill="#231F20"/>
<path d="M284.811 72.982C284.994 71.0754 284.93 68.8505 282.585 67.5639C279.785 66.168 277.148 66.6975 275.981 69.5339V69.5433C276.045 69.6161 277.012 70.6469 279.721 69.6067C279.73 69.6067 279.739 69.6161 279.73 69.6161C279.21 70.3733 278.699 71.8326 279.292 72.9913C279.292 73.0007 279.302 73.0007 279.311 72.9913C282.905 70.4742 284.328 73.968 281.227 75.911C281.218 75.911 281.218 75.9203 281.227 75.9287C282.458 76.869 284.319 76.714 284.447 76.6953L284.455 76.6859C284.602 75.2359 284.748 73.4843 284.811 72.982Z" fill="#231F20"/>
<path d="M288.35 82.5972C287.045 80.5908 285.86 79.715 284.217 79.0764L284.209 79.067L284.328 77.8542C284.328 77.8448 284.328 77.8448 284.318 77.8448H277.923C277.914 77.8448 277.914 77.8448 277.914 77.8542L277.778 78.9484C277.778 78.9578 277.768 78.9578 277.768 78.9578C273.6 78.7113 270.087 82.616 267.679 85.2797C267.67 85.2891 267.66 85.2797 267.66 85.2797C267.633 85.1612 267.478 84.4404 267.222 83.3909C267.222 83.3825 267.214 83.3825 267.214 83.3825L261.275 85.3526L261.266 85.3619C261.302 95.1683 266.22 96.0348 272.094 91.8024C272.906 91.246 273.663 90.625 274.357 89.9229C274.365 89.9136 274.365 89.9229 274.374 89.9229L275.15 92.4411L275.952 95.0498L275.962 95.0591L281.316 96.1076L285.741 95.0768H285.75L287.036 96.6828C287.055 96.7556 287.848 100.094 288.579 99.5109C289.244 98.9721 289.746 98.2513 290.092 97.4213C292.017 92.8873 289.773 84.8054 288.35 82.5972Z" fill="#ED8350"/>
<path opacity="0.2" d="M290.084 97.4303C287.072 95.2408 286.735 90.0048 286.699 89.2933C286.699 89.284 286.68 89.284 286.68 89.2933C286.471 90.607 285.951 93.872 285.76 95.0495V95.0588L287.036 96.7189C287.055 96.7646 288.323 99.8934 288.961 99.1913C289.673 98.4882 290.065 97.5302 290.101 97.448C290.084 97.4397 290.084 97.4397 290.084 97.4303Z" fill="#2F2F2F"/>
<path d="M296.068 123.174C293.586 117.856 292.874 118.886 290.767 105.103C290.028 100.276 288.204 97.2569 285.75 95.0497C285.75 95.0497 285.75 95.0497 285.741 95.0497H282.74H275.952C275.952 95.0497 275.944 95.0497 275.944 95.059C275.898 95.369 274.302 106.024 275.697 119.059C275.998 121.897 276.71 125.245 277.248 128.264C277.348 128.811 277.44 129.295 277.513 129.824C277.513 129.824 277.513 129.833 277.522 129.833L286.079 129.842C286.087 129.842 286.087 129.842 286.087 129.833C285.969 126.796 285.422 123.612 284.209 118.904C284.008 117.873 283.834 115.93 283.871 115.93C284.619 118.357 285.523 120.939 286.58 123.52C287.438 125.618 288.405 127.735 289.491 129.896C289.491 129.896 289.491 129.906 289.499 129.906C289.728 129.906 297.846 129.869 298.184 129.869C298.193 129.869 298.193 129.86 298.193 129.86C297.773 127.525 297.053 125.326 296.068 123.174Z" fill="#FFC930"/>
<path d="M296.251 137.067C295.001 137.067 293.934 138.672 293.213 138.499C292.483 138.326 293.843 136.893 293.843 135.735C293.843 134.713 292.675 134.667 291.198 134.659C291.188 134.659 291.188 134.667 291.188 134.667C291.324 135.543 291.225 136.218 290.777 136.675C289.427 138.098 288.169 138.426 287.266 139.777C287.192 139.895 287.092 140.022 287.046 140.169C287.046 140.178 287.046 140.178 287.056 140.178C287.457 140.196 297.61 140.561 297.82 140.57C297.82 140.57 297.82 140.57 297.829 140.57L298.331 140.169C298.331 140.169 298.331 140.169 298.331 140.159C298.495 139.129 298.614 138.098 298.668 137.067C298.668 137.058 298.668 137.058 298.66 137.058L296.251 137.067Z" fill="#AFC967"/>
<path d="M282.184 101.006C283.078 101.006 283.608 100.286 283.371 99.3921L282.887 97.6218H279.657L280.132 99.3921C280.387 100.286 281.3 101.006 282.184 101.006Z" stroke="#080602" stroke-width="0.416055" stroke-linecap="round" stroke-linejoin="round"/>
<path d="M288.04 97.6313H286.261L286.736 99.41C286.982 100.295 287.958 101.034 288.669 101.034C289.044 101.034 289.317 100.961 289.518 100.833" stroke="#080602" stroke-width="0.416055" stroke-linecap="round" stroke-linejoin="round"/>
<path d="M275.952 95.0588L285.741 95.0401L286.68 89.2933" stroke="#2F2F2F" stroke-width="0.416055" stroke-linecap="round" stroke-linejoin="round"/>
<path d="M286.124 93.1161L287.411 93.5259" stroke="#2F2F2F" stroke-width="0.416055" stroke-linecap="round" stroke-linejoin="round"/>
<path d="M267.68 85.2795L268.382 84.5035" stroke="#2F2F2F" stroke-width="0.416055" stroke-linecap="round" stroke-linejoin="round"/>
<path opacity="0.2" d="M274.366 89.9229L275.142 92.4224C275.142 92.4318 275.16 92.4318 275.16 92.4224L276.756 87.7699C276.756 87.7605 276.747 87.7522 276.739 87.7605L274.366 89.9229C274.366 89.9136 274.366 89.9136 274.366 89.9229Z" fill="#2F2F2F"/>
<path d="M274.366 89.9322L276.739 87.7604" stroke="#2F2F2F" stroke-width="0.416055" stroke-linecap="round" stroke-linejoin="round"/>
<path d="M277.778 78.9482C277.778 78.9482 277.131 78.9212 276.647 78.9846" stroke="#2F2F2F" stroke-width="0.416055" stroke-linecap="round" stroke-linejoin="round"/>
<path d="M285.404 105.294C284.975 109.107 283.608 111.268 283.881 115.921" stroke="#080602" stroke-width="0.416055" stroke-linecap="round" stroke-linejoin="round"/>
<path d="M260.199 73.8038C261.111 74.898 262.844 77.6263 262.844 77.6263" stroke="#171717" stroke-width="0.416055" stroke-linecap="round" stroke-linejoin="round"/>
<path d="M259.277 74.7252C259.733 75.3638 261.011 77.261 261.749 78.5383" stroke="#171717" stroke-width="0.416055" stroke-linecap="round" stroke-linejoin="round"/>
<path d="M258.729 76.0014C258.729 76.0014 260.107 78.3646 260.745 79.4588" stroke="#171717" stroke-width="0.416055" stroke-linecap="round" stroke-linejoin="round"/>
<path d="M282.823 137.031C281.572 137.031 280.486 138.654 279.775 138.48C278.608 138.107 282.941 134.476 277.951 134.65C277.941 134.65 277.941 134.65 277.941 134.659C277.969 137.842 274.028 137.933 273.024 140.169C273.024 140.169 273.024 140.169 273.024 140.178C273.034 140.205 273.089 140.387 273.097 140.423C273.097 140.423 273.097 140.433 273.107 140.433L284.802 140.524H284.81L285.066 140.186C285.294 139.165 285.485 138.125 285.632 137.094C285.632 137.085 285.632 137.085 285.623 137.085C285.431 137.067 282.823 137.031 282.823 137.031Z" fill="#AFC967"/>
<path d="M263.739 76.8774C263.957 77.2789 264.35 77.9633 264.35 77.9633" stroke="#171717" stroke-width="0.416055" stroke-linecap="round" stroke-linejoin="round"/>
<path d="M277.065 136.847L277.896 137.596" stroke="black" stroke-width="0.416055" stroke-linecap="round" stroke-linejoin="round"/>
<path d="M276.164 137.596L276.802 138.509" stroke="black" stroke-width="0.416055" stroke-linecap="round" stroke-linejoin="round"/>
<path d="M290.622 136.893L291.406 137.596" stroke="black" stroke-width="0.416055" stroke-linecap="round" stroke-linejoin="round"/>
<path d="M289.746 137.614L290.311 138.508" stroke="black" stroke-width="0.416055" stroke-linecap="round" stroke-linejoin="round"/>
<path d="M286.726 141.482H298.056C298.056 141.482 298.066 141.482 298.066 141.473C298.083 141.418 298.202 140.953 298.33 140.178C298.33 140.168 298.33 140.168 298.321 140.168L287.045 140.178C287.045 140.178 287.036 140.178 287.036 140.186C286.854 140.588 286.736 141.026 286.708 141.473C286.717 141.473 286.726 141.482 286.726 141.482Z" fill="black"/>
<path d="M273.015 140.178C272.833 140.588 272.724 141.035 272.705 141.473C272.705 141.482 272.705 141.482 272.714 141.482H284.71C284.71 141.482 284.72 141.482 284.72 141.473C284.737 141.418 284.856 140.989 285.047 140.178C285.047 140.169 285.047 140.169 285.039 140.169C284.655 140.141 273.307 140.178 273.015 140.178C273.015 140.169 273.015 140.169 273.015 140.178Z" fill="black"/>
<path opacity="0.2" d="M283.881 115.93C284.246 117.098 284.702 118.567 285.195 119.881C285.633 121.066 286.144 122.462 286.572 123.474C286.572 123.484 286.591 123.484 286.591 123.474C286.526 122.48 285.605 108.04 285.404 105.311C285.404 105.303 285.386 105.303 285.386 105.311C285.048 108.742 283.763 111.862 283.881 115.93Z" fill="#080602"/>
<path d="M303.161 85.5137C304.729 85.5137 306 84.2426 306 82.6751C306 81.1077 304.729 79.8366 303.161 79.8366C301.594 79.8366 300.323 81.1077 300.323 82.6751C300.323 84.2426 301.594 85.5137 303.161 85.5137Z" fill="#1A1C20"/>
<path d="M216 114.81C219.491 117.253 227.24 114.182 232.011 111.214C237.317 107.91 237.491 104.454 235.35 104.489C232.372 104.535 225.145 113.832 229.462 115.775C233.023 117.393 239.434 114.31 241.133 116.171C242.832 118.033 243.623 122.199 248.289 124.27" stroke="#231F20" stroke-width="0.416055" stroke-linecap="round" stroke-linejoin="round"/>
<path d="M226.698 55.4883V62.8837H224.233V55.4883H226.698ZM224.233 80.1396V72.7442H226.698V80.1396H224.233ZM227.93 67.814C227.93 69.1821 226.833 70.2791 225.465 70.2791C224.978 70.2791 224.501 70.1345 224.096 69.8636C223.69 69.5928 223.374 69.2078 223.188 68.7573C223.001 68.3069 222.952 67.8112 223.047 67.333C223.142 66.8549 223.377 66.4156 223.722 66.0709C224.067 65.7261 224.506 65.4913 224.984 65.3962C225.462 65.3011 225.958 65.3499 226.408 65.5365C226.859 65.7231 227.244 66.039 227.515 66.4444C227.786 66.8498 227.93 67.3264 227.93 67.814ZM241.488 57.9535C246.936 57.9535 251.349 62.366 251.349 67.814C251.349 73.2619 246.936 77.6745 241.488 77.6745C237.051 77.6745 233.304 74.741 232.059 70.7105L229.163 67.814L232.059 64.9174C233.304 60.887 237.051 57.9535 241.488 57.9535ZM240.256 69.0465L245.839 72.4854L246.825 70.8954L242.105 68.0605V61.6512H240.256V69.0465Z" fill="#FDF0E0"/>
<defs>
<linearGradient id="paint0_linear_52_3274" x1="169" y1="9.48834" x2="169" y2="179.488" gradientUnits="userSpaceOnUse">
<stop stop-color="white"/>
<stop offset="1" stop-color="#21ADE0" stop-opacity="0"/>
</linearGradient>
</defs>
</svg>
