<svg width="391" height="123" viewBox="0 0 391 123" fill="none" xmlns="http://www.w3.org/2000/svg">
<g filter="url(#filter0_f_175_2039)">
<rect x="30" y="30" width="330.604" height="63" rx="10" fill="#ED8350"/>
</g>
<rect x="1.30176" y="21" width="388" height="60" rx="10" fill="#ED8350"/>
<path d="M168.627 58C168.275 58 167.995 57.896 167.787 57.688C167.595 57.48 167.499 57.2 167.499 56.848V42.112C167.499 41.744 167.595 41.464 167.787 41.272C167.979 41.08 168.251 40.984 168.603 40.984C168.971 40.984 169.251 41.08 169.443 41.272C169.635 41.464 169.731 41.744 169.731 42.112V56.08H177.363C177.699 56.08 177.947 56.16 178.107 56.32C178.283 56.48 178.371 56.712 178.371 57.016C178.371 57.336 178.283 57.584 178.107 57.76C177.947 57.92 177.699 58 177.363 58H168.627ZM185.21 58.216C184.058 58.216 183.058 57.968 182.21 57.472C181.362 56.976 180.706 56.272 180.242 55.36C179.778 54.448 179.546 53.376 179.546 52.144C179.546 51.216 179.674 50.384 179.93 49.648C180.202 48.896 180.586 48.256 181.082 47.728C181.578 47.2 182.17 46.8 182.858 46.528C183.562 46.24 184.346 46.096 185.21 46.096C186.362 46.096 187.362 46.344 188.21 46.84C189.058 47.336 189.714 48.04 190.178 48.952C190.642 49.848 190.874 50.912 190.874 52.144C190.874 53.072 190.738 53.912 190.466 54.664C190.21 55.416 189.834 56.056 189.338 56.584C188.842 57.112 188.242 57.52 187.538 57.808C186.85 58.08 186.074 58.216 185.21 58.216ZM185.21 56.488C185.914 56.488 186.522 56.32 187.034 55.984C187.562 55.648 187.962 55.16 188.234 54.52C188.522 53.88 188.666 53.088 188.666 52.144C188.666 50.736 188.354 49.664 187.73 48.928C187.106 48.192 186.266 47.824 185.21 47.824C184.522 47.824 183.914 47.992 183.386 48.328C182.874 48.648 182.474 49.128 182.186 49.768C181.898 50.408 181.754 51.2 181.754 52.144C181.754 53.552 182.066 54.632 182.69 55.384C183.33 56.12 184.17 56.488 185.21 56.488ZM198.928 62.536C198.064 62.536 197.224 62.44 196.408 62.248C195.608 62.056 194.88 61.76 194.224 61.36C194.016 61.232 193.872 61.08 193.792 60.904C193.728 60.744 193.712 60.576 193.744 60.4C193.792 60.224 193.872 60.064 193.984 59.92C194.112 59.792 194.256 59.704 194.416 59.656C194.592 59.624 194.768 59.664 194.944 59.776C195.648 60.176 196.32 60.448 196.96 60.592C197.6 60.736 198.208 60.808 198.784 60.808C199.92 60.808 200.768 60.512 201.328 59.92C201.904 59.344 202.192 58.496 202.192 57.376V54.784H202.408C202.184 55.68 201.68 56.392 200.896 56.92C200.128 57.448 199.232 57.712 198.208 57.712C197.152 57.712 196.232 57.472 195.448 56.992C194.664 56.496 194.056 55.816 193.624 54.952C193.192 54.072 192.976 53.056 192.976 51.904C192.976 51.024 193.096 50.232 193.336 49.528C193.592 48.808 193.944 48.2 194.392 47.704C194.856 47.192 195.408 46.8 196.048 46.528C196.688 46.24 197.408 46.096 198.208 46.096C199.248 46.096 200.152 46.36 200.92 46.888C201.688 47.416 202.184 48.128 202.408 49.024L202.144 49.36V47.248C202.144 46.88 202.24 46.608 202.432 46.432C202.624 46.24 202.896 46.144 203.248 46.144C203.584 46.144 203.848 46.24 204.04 46.432C204.232 46.608 204.328 46.88 204.328 47.248V57.088C204.328 58.896 203.864 60.256 202.936 61.168C202.024 62.08 200.688 62.536 198.928 62.536ZM198.688 55.984C199.408 55.984 200.024 55.824 200.536 55.504C201.064 55.168 201.464 54.696 201.736 54.088C202.024 53.464 202.168 52.736 202.168 51.904C202.168 50.64 201.856 49.648 201.232 48.928C200.608 48.192 199.76 47.824 198.688 47.824C197.968 47.824 197.344 47.992 196.816 48.328C196.304 48.648 195.904 49.112 195.616 49.72C195.328 50.328 195.184 51.056 195.184 51.904C195.184 53.152 195.496 54.144 196.12 54.88C196.76 55.616 197.616 55.984 198.688 55.984ZM208.908 58.12C208.572 58.12 208.308 58.016 208.116 57.808C207.924 57.6 207.828 57.312 207.828 56.944V47.368C207.828 46.984 207.924 46.696 208.116 46.504C208.308 46.296 208.572 46.192 208.908 46.192C209.26 46.192 209.532 46.296 209.724 46.504C209.916 46.696 210.012 46.984 210.012 47.368V56.944C210.012 57.312 209.916 57.6 209.724 57.808C209.548 58.016 209.276 58.12 208.908 58.12ZM208.908 43.6C208.476 43.6 208.132 43.488 207.876 43.264C207.636 43.024 207.516 42.712 207.516 42.328C207.516 41.912 207.636 41.6 207.876 41.392C208.132 41.168 208.476 41.056 208.908 41.056C209.372 41.056 209.716 41.168 209.94 41.392C210.18 41.6 210.3 41.912 210.3 42.328C210.3 42.712 210.18 43.024 209.94 43.264C209.716 43.488 209.372 43.6 208.908 43.6ZM214.603 58.168C214.267 58.168 214.003 58.072 213.811 57.88C213.619 57.688 213.523 57.408 213.523 57.04V47.248C213.523 46.88 213.619 46.608 213.811 46.432C214.003 46.24 214.267 46.144 214.603 46.144C214.939 46.144 215.195 46.24 215.371 46.432C215.563 46.608 215.659 46.88 215.659 47.248V49.216L215.395 48.856C215.731 47.944 216.275 47.256 217.027 46.792C217.795 46.328 218.667 46.096 219.643 46.096C220.587 46.096 221.363 46.264 221.971 46.6C222.579 46.936 223.035 47.448 223.339 48.136C223.643 48.824 223.795 49.696 223.795 50.752V57.04C223.795 57.408 223.699 57.688 223.507 57.88C223.331 58.072 223.067 58.168 222.715 58.168C222.363 58.168 222.091 58.072 221.899 57.88C221.707 57.688 221.611 57.408 221.611 57.04V50.872C221.611 49.832 221.411 49.072 221.011 48.592C220.611 48.112 219.971 47.872 219.091 47.872C218.067 47.872 217.243 48.192 216.619 48.832C216.011 49.456 215.707 50.304 215.707 51.376V57.04C215.707 57.792 215.339 58.168 214.603 58.168Z" fill="white"/>
<defs>
<filter id="filter0_f_175_2039" x="0" y="0" width="390.604" height="123" filterUnits="userSpaceOnUse" color-interpolation-filters="sRGB">
<feFlood flood-opacity="0" result="BackgroundImageFix"/>
<feBlend mode="normal" in="SourceGraphic" in2="BackgroundImageFix" result="shape"/>
<feGaussianBlur stdDeviation="15" result="effect1_foregroundBlur_175_2039"/>
</filter>
</defs>
</svg>
