<svg width="159" height="60" viewBox="0 0 159 60" fill="none" xmlns="http://www.w3.org/2000/svg">
<rect x="0.5" y="0.5" width="158" height="59" rx="9.5" fill="white" stroke="#ED8350"/>
<path d="M48.0385 35.128C47.7078 35.128 47.4518 35.0373 47.2705 34.856C47.0998 34.664 47.0145 34.4027 47.0145 34.072V25.432H43.8945C43.6172 25.432 43.3985 25.3573 43.2385 25.208C43.0892 25.048 43.0145 24.8347 43.0145 24.568C43.0145 24.2907 43.0892 24.0827 43.2385 23.944C43.3985 23.7947 43.6172 23.72 43.8945 23.72H52.1825C52.4598 23.72 52.6732 23.7947 52.8225 23.944C52.9825 24.0827 53.0625 24.2907 53.0625 24.568C53.0625 24.8347 52.9825 25.048 52.8225 25.208C52.6732 25.3573 52.4598 25.432 52.1825 25.432H49.0625V34.072C49.0625 34.4027 48.9772 34.664 48.8065 34.856C48.6358 35.0373 48.3798 35.128 48.0385 35.128ZM53.814 35.128C53.4833 35.128 53.2273 35.0427 53.046 34.872C52.8753 34.6907 52.79 34.4347 52.79 34.104V28.056C52.79 27.7253 52.8753 27.4747 53.046 27.304C53.2167 27.1333 53.4567 27.048 53.766 27.048C54.0753 27.048 54.3153 27.1333 54.486 27.304C54.6567 27.4747 54.742 27.7253 54.742 28.056V29.064H54.582C54.7313 28.424 55.0247 27.9387 55.462 27.608C55.8993 27.2773 56.4807 27.08 57.206 27.016C57.43 26.9947 57.606 27.0533 57.734 27.192C57.8727 27.32 57.9527 27.5227 57.974 27.8C57.9953 28.0667 57.9313 28.2853 57.782 28.456C57.6433 28.616 57.43 28.712 57.142 28.744L56.79 28.776C56.1393 28.84 55.6487 29.0427 55.318 29.384C54.9873 29.7147 54.822 30.184 54.822 30.792V34.104C54.822 34.4347 54.7367 34.6907 54.566 34.872C54.3953 35.0427 54.1447 35.128 53.814 35.128ZM61.524 38.008C61.2893 38.008 61.0973 37.944 60.948 37.816C60.7987 37.6987 60.708 37.5387 60.676 37.336C60.6547 37.1333 60.692 36.92 60.788 36.696L61.876 34.28V35.112L58.964 28.376C58.868 28.1413 58.836 27.9227 58.868 27.72C58.9 27.5173 58.996 27.3573 59.156 27.24C59.3267 27.112 59.556 27.048 59.844 27.048C60.0893 27.048 60.2867 27.1067 60.436 27.224C60.5853 27.3307 60.7187 27.5387 60.836 27.848L62.996 33.24H62.516L64.724 27.832C64.8413 27.5333 64.98 27.3307 65.14 27.224C65.3 27.1067 65.5133 27.048 65.78 27.048C66.0147 27.048 66.2013 27.112 66.34 27.24C66.4787 27.3573 66.564 27.5173 66.596 27.72C66.628 27.912 66.5907 28.1253 66.484 28.36L62.596 37.24C62.4573 37.5387 62.308 37.7413 62.148 37.848C61.988 37.9547 61.78 38.008 61.524 38.008ZM72.6096 35.128C72.3536 35.128 72.1456 35.0693 71.9856 34.952C71.8363 34.8347 71.7456 34.68 71.7136 34.488C71.6816 34.2853 71.719 34.0613 71.8256 33.816L76.0496 24.456C76.1883 24.1467 76.3536 23.928 76.5456 23.8C76.7483 23.6613 76.9776 23.592 77.2336 23.592C77.479 23.592 77.6976 23.6613 77.8896 23.8C78.0923 23.928 78.263 24.1467 78.4016 24.456L82.6416 33.816C82.759 34.0613 82.8016 34.2853 82.7696 34.488C82.7376 34.6907 82.647 34.8507 82.4976 34.968C82.3483 35.0747 82.151 35.128 81.9056 35.128C81.607 35.128 81.3723 35.0587 81.2016 34.92C81.0416 34.7707 80.8976 34.5467 80.7696 34.248L79.7296 31.832L80.5936 32.392H73.8416L74.7056 31.832L73.6816 34.248C73.543 34.5573 73.399 34.7813 73.2496 34.92C73.1003 35.0587 72.887 35.128 72.6096 35.128ZM77.2016 25.944L74.9616 31.272L74.5456 30.76H79.8896L79.4896 31.272L77.2336 25.944H77.2016ZM87.7818 38.04C87.2058 38.04 86.6458 37.9867 86.1018 37.88C85.5684 37.7733 85.0831 37.608 84.6458 37.384C84.4431 37.2773 84.3044 37.1493 84.2298 37C84.1658 36.8507 84.1444 36.696 84.1658 36.536C84.1978 36.3867 84.2618 36.2533 84.3578 36.136C84.4644 36.0187 84.5924 35.9387 84.7418 35.896C84.8911 35.8533 85.0458 35.8747 85.2057 35.96C85.6751 36.1947 86.1178 36.344 86.5338 36.408C86.9604 36.4827 87.3231 36.52 87.6218 36.52C88.3364 36.52 88.8698 36.344 89.2218 35.992C89.5844 35.6507 89.7658 35.1387 89.7658 34.456V33.016H89.9098C89.7498 33.56 89.4138 33.9973 88.9018 34.328C88.4004 34.648 87.8298 34.808 87.1898 34.808C86.4858 34.808 85.8724 34.648 85.3498 34.328C84.8271 33.9973 84.4218 33.5387 84.1338 32.952C83.8458 32.3653 83.7018 31.6827 83.7018 30.904C83.7018 30.3173 83.7818 29.7893 83.9418 29.32C84.1124 28.84 84.3471 28.4293 84.6458 28.088C84.9551 27.7467 85.3231 27.4853 85.7498 27.304C86.1871 27.112 86.6671 27.016 87.1898 27.016C87.8511 27.016 88.4271 27.1813 88.9178 27.512C89.4191 27.832 89.7444 28.2587 89.8938 28.792L89.7338 29.192V28.056C89.7338 27.7253 89.8191 27.4747 89.9898 27.304C90.1711 27.1333 90.4164 27.048 90.7258 27.048C91.0458 27.048 91.2911 27.1333 91.4618 27.304C91.6324 27.4747 91.7178 27.7253 91.7178 28.056V34.216C91.7178 35.4853 91.3818 36.44 90.7098 37.08C90.0378 37.72 89.0618 38.04 87.7818 38.04ZM87.7338 33.288C88.1498 33.288 88.5071 33.192 88.8058 33C89.1044 32.808 89.3338 32.536 89.4938 32.184C89.6644 31.8213 89.7498 31.3947 89.7498 30.904C89.7498 30.168 89.5684 29.592 89.2058 29.176C88.8431 28.7493 88.3524 28.536 87.7338 28.536C87.3178 28.536 86.9604 28.632 86.6618 28.824C86.3631 29.016 86.1284 29.288 85.9578 29.64C85.7978 29.992 85.7178 30.4133 85.7178 30.904C85.7178 31.64 85.8991 32.2213 86.2618 32.648C86.6244 33.0747 87.1151 33.288 87.7338 33.288ZM96.366 35.16C95.8007 35.16 95.294 35.0533 94.846 34.84C94.4087 34.616 94.062 34.3173 93.806 33.944C93.5607 33.5707 93.438 33.1493 93.438 32.68C93.438 32.104 93.5873 31.6507 93.886 31.32C94.1847 30.9787 94.67 30.7333 95.342 30.584C96.014 30.4347 96.9153 30.36 98.046 30.36H98.846V31.512H98.062C97.4007 31.512 96.8727 31.544 96.478 31.608C96.0833 31.672 95.8007 31.784 95.63 31.944C95.47 32.0933 95.39 32.3067 95.39 32.584C95.39 32.936 95.5127 33.224 95.758 33.448C96.0033 33.672 96.3447 33.784 96.782 33.784C97.134 33.784 97.4433 33.704 97.71 33.544C97.9873 33.3733 98.206 33.144 98.366 32.856C98.526 32.568 98.606 32.2373 98.606 31.864V30.024C98.606 29.4907 98.4887 29.1067 98.254 28.872C98.0193 28.6373 97.6247 28.52 97.07 28.52C96.7607 28.52 96.4247 28.5573 96.062 28.632C95.71 28.7067 95.3367 28.8347 94.942 29.016C94.7393 29.112 94.558 29.1387 94.398 29.096C94.2487 29.0533 94.1313 28.968 94.046 28.84C93.9607 28.7013 93.918 28.552 93.918 28.392C93.918 28.232 93.9607 28.0773 94.046 27.928C94.1313 27.768 94.2753 27.6507 94.478 27.576C94.9687 27.3733 95.438 27.2293 95.886 27.144C96.3447 27.0587 96.7607 27.016 97.134 27.016C97.902 27.016 98.5313 27.1333 99.022 27.368C99.5233 27.6027 99.8967 27.96 100.142 28.44C100.387 28.9093 100.51 29.5173 100.51 30.264V34.104C100.51 34.4347 100.43 34.6907 100.27 34.872C100.11 35.0427 99.8807 35.128 99.582 35.128C99.2833 35.128 99.0487 35.0427 98.878 34.872C98.718 34.6907 98.638 34.4347 98.638 34.104V33.336H98.766C98.6913 33.7093 98.542 34.0347 98.318 34.312C98.1047 34.5787 97.8327 34.7867 97.502 34.936C97.1713 35.0853 96.7927 35.16 96.366 35.16ZM103.532 35.112C103.212 35.112 102.967 35.016 102.796 34.824C102.625 34.632 102.54 34.3653 102.54 34.024V28.152C102.54 27.8 102.625 27.5333 102.796 27.352C102.967 27.16 103.212 27.064 103.532 27.064C103.852 27.064 104.097 27.16 104.268 27.352C104.449 27.5333 104.54 27.8 104.54 28.152V34.024C104.54 34.3653 104.455 34.632 104.284 34.824C104.113 35.016 103.863 35.112 103.532 35.112ZM103.532 25.576C103.159 25.576 102.865 25.4853 102.652 25.304C102.449 25.112 102.348 24.8507 102.348 24.52C102.348 24.1787 102.449 23.9173 102.652 23.736C102.865 23.5547 103.159 23.464 103.532 23.464C103.916 23.464 104.209 23.5547 104.412 23.736C104.615 23.9173 104.716 24.1787 104.716 24.52C104.716 24.8507 104.615 25.112 104.412 25.304C104.209 25.4853 103.916 25.576 103.532 25.576ZM107.61 35.128C107.29 35.128 107.045 35.0427 106.874 34.872C106.703 34.6907 106.618 34.4347 106.618 34.104V28.056C106.618 27.7253 106.703 27.4747 106.874 27.304C107.045 27.1333 107.285 27.048 107.594 27.048C107.903 27.048 108.143 27.1333 108.314 27.304C108.485 27.4747 108.57 27.7253 108.57 28.056V29.144L108.394 28.744C108.629 28.1787 108.991 27.752 109.482 27.464C109.983 27.1653 110.549 27.016 111.178 27.016C111.807 27.016 112.325 27.1333 112.73 27.368C113.135 27.6027 113.439 27.96 113.642 28.44C113.845 28.9093 113.946 29.5067 113.946 30.232V34.104C113.946 34.4347 113.861 34.6907 113.69 34.872C113.519 35.0427 113.274 35.128 112.954 35.128C112.634 35.128 112.383 35.0427 112.202 34.872C112.031 34.6907 111.946 34.4347 111.946 34.104V30.328C111.946 29.72 111.829 29.2773 111.594 29C111.37 28.7227 111.018 28.584 110.538 28.584C109.951 28.584 109.482 28.7707 109.13 29.144C108.789 29.5067 108.618 29.992 108.618 30.6V34.104C108.618 34.7867 108.282 35.128 107.61 35.128Z" fill="#ED8350"/>
</svg>
