<svg width="338" height="189" viewBox="0 0 338 189" fill="none" xmlns="http://www.w3.org/2000/svg">
<path d="M338 15.0002C338 6.5187 330.974 -0.275851 322.497 0.00862706L14.4969 10.3451C6.41299 10.6164 0 17.2482 0 25.3367V162.283C0 170.347 6.37576 176.968 14.4341 177.272L322.434 188.901C330.934 189.222 338 182.418 338 173.911V15.0002Z" fill="#FFC930"/>
<path d="M35.672 150.04C35.672 151.704 36.648 152.792 38.536 153.224L40.44 153.656C41.544 153.912 42.04 154.488 42.04 155.4C42.04 156.552 41.064 157.272 39.528 157.272C38.072 157.272 37.144 156.568 37.112 155.464H35.512C35.608 157.448 37.176 158.68 39.528 158.68C41.992 158.68 43.608 157.352 43.608 155.272C43.608 153.64 42.648 152.616 40.76 152.184L38.856 151.736C37.768 151.48 37.24 150.92 37.24 149.992C37.24 148.856 38.184 148.12 39.64 148.12C40.936 148.12 41.752 148.792 41.832 149.944H43.416C43.288 147.944 41.864 146.712 39.656 146.712C37.272 146.712 35.672 148.056 35.672 150.04ZM47.5304 158.488V151.928H49.0664V150.664H47.5304V148.216H46.0264V150.664H44.4904V151.928H46.0264V158.488H47.5304ZM52.6104 158.68C53.8744 158.68 54.9464 158.12 55.3464 157.224L55.5064 158.488H56.7864V153.576C56.7864 151.464 55.4744 150.44 53.5384 150.44C51.5224 150.44 50.1784 151.512 50.1784 153.144H51.4904C51.4904 152.2 52.2104 151.64 53.4744 151.64C54.5304 151.64 55.3144 152.104 55.3144 153.416V153.64L52.8504 153.832C51.0104 153.976 49.9384 154.872 49.9384 156.312C49.9384 157.736 50.9304 158.68 52.6104 158.68ZM53.0424 157.512C52.0664 157.512 51.4584 157.096 51.4584 156.264C51.4584 155.496 52.0024 154.984 53.3304 154.856L55.3304 154.696V155.112C55.3304 156.584 54.4664 157.512 53.0424 157.512ZM63.3493 150.6C63.0453 150.536 62.8213 150.504 62.5493 150.504C61.4773 150.504 60.6933 151.048 60.3733 151.864L60.2773 150.68H58.8693V158.488H60.3733V154.344C60.3733 152.84 61.2533 151.976 62.6773 151.976H63.3493V150.6ZM67.2804 158.488V151.928H68.8164V150.664H67.2804V148.216H65.7764V150.664H64.2404V151.928H65.7764V158.488H67.2804Z" fill="#1A1C20"/>
<path fill-rule="evenodd" clip-rule="evenodd" d="M98 152.488C98 158.011 93.5228 162.488 88 162.488C82.4772 162.488 78 158.011 78 152.488C78 146.965 82.4772 142.488 88 142.488C93.5228 142.488 98 146.965 98 152.488ZM86.2929 156.195C85.9024 155.805 85.9024 155.172 86.2929 154.781L88.5858 152.488L86.2929 150.195C85.9024 149.805 85.9024 149.172 86.2929 148.781C86.6834 148.391 87.3166 148.391 87.7071 148.781L90.4446 151.519C90.9801 152.054 90.9801 152.922 90.4446 153.458L87.7071 156.195C87.3166 156.586 86.6834 156.586 86.2929 156.195Z" fill="#1A1C20"/>
<path d="M327 23.8293C327 16.5489 320.975 10.7131 313.698 10.9453L23.4793 20.2079C16.5237 20.4299 11 26.1327 11 33.0919V154.67C11 161.609 16.4932 167.303 23.428 167.552L313.647 177.972C320.943 178.234 327 172.391 327 165.09V23.8293Z" stroke="url(#paint0_linear_52_3133)" stroke-width="2"/>
<path d="M35.408 49.7763H40.544V64.4883H43.616V49.7763H48.752V46.9443H35.408V49.7763ZM56.6786 52.5843C56.1986 52.4643 55.7906 52.4163 55.3826 52.4163C53.7986 52.4163 52.6706 53.2083 52.1666 54.3843L51.9986 52.6563H49.2386V64.4883H52.1666V58.7283C52.1666 56.4243 53.4866 55.2963 55.5986 55.2963H56.6786V52.5843ZM66.7004 52.6323V58.8483C66.7004 61.1043 65.8124 62.1843 63.9644 62.1843C62.3324 62.1843 61.4444 61.2723 61.4444 59.0163V52.6323H58.5164V60.0483C58.5164 62.9523 60.1244 64.8003 62.8604 64.8003C64.4444 64.8003 65.9804 64.0323 66.7004 62.9043L66.9164 64.4883H69.6284V52.6323H66.7004ZM77.7223 64.8003C80.8183 64.8003 82.9783 63.2403 83.4823 60.6483H80.7703C80.4343 61.7763 79.3783 62.4003 77.7703 62.4003C75.8263 62.4003 74.7223 61.3443 74.5063 59.2563L83.4343 59.2323V58.3443C83.4343 54.6483 81.1783 52.2723 77.6263 52.2723C74.1463 52.2723 71.7223 54.8403 71.7223 58.5603C71.7223 62.2323 74.1943 64.8003 77.7223 64.8003ZM77.6503 54.6723C79.4023 54.6723 80.5303 55.7523 80.5303 57.3843H74.5783C74.8663 55.6083 75.9223 54.6723 77.6503 54.6723ZM91.5504 58.5363C91.5504 62.2323 94.2144 64.7763 97.8864 64.7763C101.558 64.7763 104.222 62.2323 104.222 58.5363C104.222 54.8403 101.558 52.2963 97.8864 52.2963C94.2144 52.2963 91.5504 54.8403 91.5504 58.5363ZM94.4784 58.5363C94.4784 56.3763 95.8704 54.9123 97.8864 54.9123C99.9024 54.9123 101.294 56.3763 101.294 58.5363C101.294 60.6963 99.9024 62.1603 97.8864 62.1603C95.8704 62.1603 94.4784 60.6963 94.4784 58.5363ZM113.983 52.5843C113.503 52.4643 113.095 52.4163 112.687 52.4163C111.103 52.4163 109.975 53.2083 109.471 54.3843L109.303 52.6563H106.543V64.4883H109.471V58.7283C109.471 56.4243 110.791 55.2963 112.903 55.2963H113.983V52.5843ZM46.544 89.3123V86.5523H40.016V81.7763H47.792V78.9443H36.944V96.4883H40.016V89.3123H46.544ZM52.6963 96.8003C54.5443 96.8003 56.1523 95.9603 56.6563 94.7363L56.8723 96.4883H59.4403V89.2883C59.4403 86.0003 57.4723 84.2723 54.2803 84.2723C51.0643 84.2723 48.9523 85.9523 48.9523 88.5203H51.4483C51.4483 87.2723 52.4083 86.5523 54.1363 86.5523C55.6243 86.5523 56.5843 87.2003 56.5843 88.8083V89.0723L53.0323 89.3363C50.2243 89.5523 48.6403 90.9203 48.6403 93.1043C48.6403 95.3363 50.1763 96.8003 52.6963 96.8003ZM53.6562 94.5923C52.3363 94.5923 51.6163 94.0643 51.6163 92.9843C51.6163 92.0243 52.3123 91.4243 54.1363 91.2563L56.6083 91.0643V91.6883C56.6083 93.5123 55.4563 94.5923 53.6562 94.5923ZM65.2687 96.4883V78.6323H62.3647V96.4883H65.2687ZM67.4281 92.8883C67.4281 95.2163 69.3001 96.8003 72.2521 96.8003C75.1801 96.8003 77.2201 95.3123 77.2201 92.9123C77.2201 91.0883 76.2121 90.1763 74.2201 89.7203L72.0841 89.2163C71.0761 88.9763 70.5481 88.5443 70.5481 87.8723C70.5481 86.9843 71.2201 86.4563 72.3721 86.4563C73.5001 86.4563 74.1721 87.1043 74.1961 88.1123H76.9801C76.9561 85.8083 75.1561 84.2723 72.4921 84.2723C69.7561 84.2723 67.7881 85.6643 67.7881 87.9923C67.7881 89.8883 68.8201 90.8963 70.9561 91.3763L73.0921 91.8803C74.1481 92.1203 74.4601 92.5523 74.4601 93.1523C74.4601 94.0163 73.7161 94.5683 72.3481 94.5683C71.0041 94.5683 70.2361 93.9203 70.2121 92.8883H67.4281ZM84.7535 96.8003C87.8495 96.8003 90.0095 95.2403 90.5135 92.6483H87.8015C87.4655 93.7763 86.4095 94.4003 84.8015 94.4003C82.8575 94.4003 81.7535 93.3443 81.5375 91.2563L90.4655 91.2323V90.3443C90.4655 86.6483 88.2095 84.2723 84.6575 84.2723C81.1775 84.2723 78.7535 86.8403 78.7535 90.5603C78.7535 94.2323 81.2255 96.8003 84.7535 96.8003ZM84.6815 86.6723C86.4335 86.6723 87.5615 87.7523 87.5615 89.3843H81.6095C81.8975 87.6083 82.9535 86.6723 84.6815 86.6723Z" fill="#1A1C20"/>
<path d="M277.362 52.5743L275.473 47.5934L279.239 50.901L279.919 47.4883L281.059 50.7258L284.186 47.8315L282.419 51.9231L287.969 51.9818L282.412 53.8942L286.684 57.7767L281.221 56.2765L280.32 61.9786L278.861 56.3527L274.485 59.9673L277.379 54.5217L272.02 53.1441L277.362 52.5743Z" fill="#EE7C97"/>
<path d="M303.943 82.4214L302.864 79.5776L305.014 81.4663L305.403 79.5178L306.054 81.3663L307.839 79.7136L306.83 82.0495L310 82.0835L306.827 83.1757L309.267 85.392L306.147 84.5358L305.631 87.7918L304.799 84.5791L302.299 86.6439L303.952 83.5332L300.892 82.747L303.943 82.4214Z" fill="#ED8350"/>
<path d="M234.421 100.266L242.473 108.32C243.461 109.308 243.469 110.913 242.473 111.909C241.486 112.897 239.88 112.904 238.884 111.909L229.006 102.032C227.665 100.689 227.665 98.5169 229.006 97.1753C230.349 95.8327 232.52 95.8327 233.862 97.1753L241.191 104.504" stroke="#231F20" stroke-width="0.412153" stroke-linecap="round" stroke-linejoin="round"/>
<path d="M248.342 124.882L246.91 116.192C246.769 115.334 247.348 114.526 248.206 114.384L250.474 114.011C251.331 113.87 252.14 114.449 252.281 115.307L253.713 123.997C253.855 124.856 253.275 125.663 252.417 125.805L250.149 126.179C249.292 126.32 248.483 125.741 248.342 124.882Z" fill="white"/>
<path d="M211.945 125.936L211.576 123.695C211.435 122.837 212.014 122.029 212.872 121.887L215.113 121.518C215.971 121.377 216.779 121.956 216.921 122.814L217.29 125.055C217.432 125.914 216.852 126.722 215.994 126.864L213.753 127.233C212.895 127.374 212.087 126.795 211.945 125.936Z" fill="#FFC930"/>
<path d="M210.883 119.487L210.514 117.246C210.371 116.388 210.952 115.58 211.809 115.439L214.051 115.069C214.908 114.928 215.717 115.507 215.858 116.365L216.228 118.607C216.369 119.465 215.789 120.273 214.932 120.415L212.69 120.784C211.833 120.926 211.024 120.346 210.883 119.487Z" fill="#FFC930"/>
<path d="M205.522 126.995L205.153 124.754C205.011 123.895 205.591 123.088 206.449 122.946L208.691 122.577C209.548 122.435 210.357 123.014 210.498 123.873L210.868 126.115C211.009 126.972 210.429 127.781 209.572 127.922L207.33 128.291C206.472 128.433 205.664 127.853 205.522 126.995Z" fill="#FFC930"/>
<path d="M204.459 120.547L204.09 118.305C203.949 117.447 204.528 116.638 205.386 116.497L207.627 116.127C208.486 115.986 209.293 116.566 209.436 117.424L209.805 119.666C209.946 120.523 209.367 121.332 208.508 121.473L206.267 121.843C205.409 121.984 204.601 121.404 204.459 120.547Z" fill="#FFC930"/>
<path d="M247.909 109.191L249.288 108.964L248.467 110.161" stroke="white" stroke-width="0.412153" stroke-linecap="round" stroke-linejoin="round"/>
<path d="M221.024 120.362L219.83 120.559" stroke="#FFC930" stroke-width="0.412153" stroke-linecap="round" stroke-linejoin="round"/>
<path d="M220.906 119.643L219.712 119.84" stroke="#FFC930" stroke-width="0.412153" stroke-linecap="round" stroke-linejoin="round"/>
<path d="M218.631 59.5323C219.845 59.775 220.634 60.9562 220.391 62.17L220.284 62.7022C220.036 63.9487 219.579 65.1345 218.939 66.2129H225.662C226.899 66.2129 227.903 67.2166 227.903 68.4538C227.903 69.6349 226.992 70.6013 225.835 70.69C226.194 71.0868 226.409 71.6143 226.409 72.1886C226.409 73.281 225.625 74.1914 224.593 74.3874C224.798 74.7236 224.915 75.1251 224.915 75.5499C224.915 76.5443 224.266 77.3893 223.37 77.6787C223.402 77.8328 223.421 77.9962 223.421 78.1643C223.421 79.4014 222.417 80.4051 221.18 80.4051H217.749C216.862 80.4051 215.998 80.1437 215.26 79.6535L213.463 78.4537C212.217 77.6227 211.47 76.2222 211.47 74.7236V69.5322C211.47 68.169 212.091 66.8852 213.15 66.0308L213.496 65.7554C214.733 64.7657 215.578 63.3744 215.886 61.8245L215.993 61.2923C216.236 60.0785 217.417 59.2895 218.631 59.5323ZM205.494 66.9598H208.482C209.308 66.9598 209.976 67.6274 209.976 68.4538V78.9112C209.976 79.7375 209.308 80.4051 208.482 80.4051H205.494C204.668 80.4051 204 79.7375 204 78.9112V68.4538C204 67.6274 204.668 66.9598 205.494 66.9598Z" fill="#AFC967"/>
<path d="M240.66 80.3614C239.447 80.1186 238.658 78.9375 238.9 77.7237L239.008 77.1914C239.255 75.945 239.713 74.7592 240.352 73.6807H233.63C232.392 73.6807 231.389 72.677 231.389 71.4398C231.389 70.2587 232.299 69.2923 233.457 69.2036C233.097 68.8068 232.883 68.2793 232.883 67.705C232.883 66.6126 233.667 65.7023 234.699 65.5062C234.493 65.17 234.377 64.7686 234.377 64.3437C234.377 63.3493 235.026 62.5043 235.922 62.2149C235.889 62.0608 235.871 61.8974 235.871 61.7294C235.871 60.4922 236.874 59.4885 238.111 59.4885H241.543C242.43 59.4885 243.293 59.7499 244.031 60.2401L245.828 61.4399C247.075 62.2709 247.822 63.6715 247.822 65.17V70.3614C247.822 71.7246 247.201 73.0085 246.141 73.8628L245.796 74.1382C244.559 75.128 243.714 76.5192 243.405 78.0691L243.298 78.6013C243.055 79.8151 241.874 80.6041 240.66 80.3614ZM253.798 72.9338H250.81C249.983 72.9338 249.316 72.2662 249.316 71.4398V60.9824C249.316 60.1561 249.983 59.4885 250.81 59.4885H253.798C254.624 59.4885 255.292 60.1561 255.292 60.9824V71.4398C255.292 72.2662 254.624 72.9338 253.798 72.9338Z" fill="#ED8350"/>
<path d="M289.435 69.4356C291.44 69.4356 293.065 67.8107 293.065 65.8056C293.065 63.8015 291.44 62.1755 289.435 62.1755C287.43 62.1755 285.805 63.8015 285.805 65.8056C285.805 67.8107 287.43 69.4356 289.435 69.4356Z" fill="#231F20"/>
<path d="M287.408 129.726C287.021 127.285 286.333 124.237 285.69 121.303C285.584 120.809 285.47 120.317 285.364 119.823C285.046 118.36 284.773 116.695 284.545 114.889L284.475 114.166H293.232L293.514 114.88C293.497 116.378 293.664 117.012 294.033 118.404C294.157 118.88 294.307 119.4 294.465 119.955C295.17 122.414 296.148 125.77 296.236 129.709V129.717L291.188 137.047L287.408 129.726Z" fill="#FAA378"/>
<path opacity="0.2" d="M284.616 115.427C284.589 115.241 284.571 115.065 284.545 114.889L284.475 114.166H293.232L293.514 114.88C293.497 116.378 293.664 117.012 294.033 118.404L294.043 118.439L284.616 115.427Z" fill="#030202"/>
<path d="M282.457 77.2159C282.14 77.2767 281.831 77.3035 281.54 77.3035C280.421 77.3035 279.514 76.845 279.188 76.1052C279.179 76.0877 279.17 76.0701 279.162 76.0526C279.003 75.7178 278.686 75.013 279.135 72.4401C279.267 71.7085 279.321 71.1274 279.364 70.6606C279.488 69.3562 279.54 68.7658 280.845 67.6035C281.576 66.9513 282.765 67.1275 284.113 67.1275C285.654 67.1275 286.342 67.3737 286.897 68.0878C287.91 69.3912 288.413 69.6035 288.298 72.0609C288.227 73.489 288.562 76.7131 288.562 76.7131C288.562 76.7131 288.51 77.8321 288.492 78.0701L288.298 78.608L282.36 78.7842L282.457 77.2159Z" fill="#FAA378"/>
<path opacity="0.2" d="M282.457 77.2159L282.554 77.1973C283.09 77.118 283.54 76.9779 284.06 76.8099L284.113 76.7924L282.668 78.7048L282.36 78.7573L282.457 77.2159Z" fill="#030202"/>
<path d="M288.544 77.1365C288.527 77.1365 285.443 76.1762 285.656 75.9774L285.773 75.8661L285.813 75.8321C285.91 75.7507 287.989 74.5018 287.214 72.9511C286.985 72.5019 286.589 72.2731 286.043 72.2731C285.223 72.2731 284.399 72.8553 284.326 72.7852L284.314 72.7657L284.281 72.7275C284.133 72.4936 284.104 70.81 284.018 70.7173C283.972 70.6606 283.276 70.9511 282.686 70.9511C282.333 70.9511 282.086 70.845 281.937 70.6431C281.725 70.3432 281.743 69.8229 281.538 69.7054C281.284 69.6116 280.624 69.7178 280.192 69.7178C279.778 69.7178 279.497 69.5941 279.497 69.5941C279.646 68.8811 279.91 68.3165 280.773 67.5499C281.514 66.8987 282.651 66.537 283.981 66.537C285.496 66.537 286.985 66.9955 287.673 67.726C288.959 68.7832 288.879 69.6292 288.8 72.0877C288.738 73.489 288.544 77.1365 288.544 77.1365Z" fill="#231F20"/>
<path d="M265.338 92.889C263.752 92.889 262.527 91.9905 262.448 91.9205L261.153 91.6649C261.162 91.6289 261.831 88.0174 260.977 87.5856C260.396 87.2951 260.166 86.819 260.202 86.5017C260.228 86.2729 260.386 86.1142 260.624 86.0524C260.712 86.0349 260.827 86.0256 260.986 86.0256C262.633 86.0256 267.716 87.1889 267.77 87.1972H267.788L266.193 92.8633H265.734C265.602 92.8808 265.47 92.889 265.338 92.889Z" fill="#FAA378"/>
<path d="M283.249 139.215L283.284 138.845C283.381 138.687 283.487 138.536 283.611 138.396C283.981 137.955 284.589 137.515 285.241 137.047C286.254 136.317 287.311 135.558 287.576 134.704C287.849 133.831 287.787 132.184 287.39 129.691H289.76C290.676 129.691 291.425 130.414 291.469 131.33L291.619 134.677L293.073 130.809C293.32 130.149 293.963 129.7 294.676 129.7L296.253 129.717C296.263 130.193 296.263 130.66 296.253 131.109C296.174 133.7 295.945 136.307 295.575 138.863L295.363 139.233H283.249V139.215Z" fill="#AFC967"/>
<path d="M273.91 131.453L273.284 129.752C273.259 128.528 273.17 127.144 273.083 125.735C272.924 123.338 272.756 120.625 272.853 117.876C272.889 116.915 272.959 115.903 273.073 114.88L273.381 113.893L281.954 114.158L282.254 114.88V114.889C281.593 116.863 281.294 118.325 281.346 119.374C281.399 120.528 281.497 121.541 281.584 122.607C281.76 124.59 281.946 126.642 281.902 129.699L279.232 134.448L276.659 136.493L273.91 131.453Z" fill="#FAA378"/>
<path opacity="0.2" d="M281.452 117.814C280.122 117.382 278.333 116.871 276.747 116.422C274.105 115.665 273.038 115.241 273.038 115.241C273.046 115.118 273.065 114.977 273.073 114.88L273.381 113.893L281.954 114.158L282.254 114.88V114.889C281.919 115.841 281.654 116.819 281.47 117.806V117.823L281.452 117.814Z" fill="#030202"/>
<path d="M268.448 139.215L268.386 138.845V138.836C268.483 138.677 268.589 138.536 268.704 138.396C269.083 137.947 269.699 137.488 270.342 137.004C271.32 136.272 272.324 135.523 272.659 134.704C273.126 133.558 273.311 131.982 273.267 129.673L275.108 129.691C276.025 129.691 276.774 130.413 276.818 131.329L276.967 134.677L278.421 130.809C278.668 130.149 279.311 129.699 280.025 129.699L281.91 129.682C281.902 130.069 281.875 130.475 281.867 130.845C281.778 133.532 281.443 136.237 280.88 138.863V138.871L280.537 139.233H268.448V139.215Z" fill="#AFC967"/>
<path d="M282.809 140.625V140.607C282.809 140.598 282.703 139.77 283.284 138.828L295.584 138.836C295.425 139.937 295.276 140.625 295.276 140.625H282.809Z" fill="black"/>
<path d="M267.919 140.625V140.607C267.919 140.598 267.805 139.779 268.386 138.836L280.889 138.845C280.651 139.947 280.465 140.615 280.465 140.615L267.919 140.625Z" fill="black"/>
<path d="M273.065 114.889C274.281 103.867 279.76 93.3919 279.813 93.2857H291.108C291.117 93.295 291.989 94.5634 292.792 96.6778C293.522 98.6252 294.341 101.955 294.033 106.722C293.946 108.105 293.866 109.268 293.795 110.255C293.646 112.528 293.549 113.903 293.531 114.889H273.065Z" fill="#ED8350"/>
<path opacity="0.2" d="M293.54 99.4175C286.773 97.9904 281.981 93.6113 281.936 93.568L281.901 93.5412H291.082L291.09 93.5505C291.108 93.568 292.72 95.4093 293.566 99.4L293.576 99.4268L293.54 99.4175Z" fill="#505050"/>
<path d="M289.258 94.2636C291.196 102.722 289.787 106.774 290.36 114.881" stroke="#505050" stroke-width="0.412153" stroke-linecap="round" stroke-linejoin="round"/>
<path d="M291.373 96.6602C289.831 96.6602 288.095 96.4047 286.616 95.9462H286.606L286.43 93.5681H279.734L279.567 92.2811C279.355 92.651 277.795 95.0745 274.465 95.1538C274.395 95.1538 274.324 95.1538 274.254 95.1538C272.272 95.1538 270.06 94.5284 268.554 94.008C266.924 93.4444 265.751 92.8633 265.734 92.8633L265.726 92.854L267.056 87.0128L273.84 88.4223C273.91 88.1493 274.8 84.6954 276.483 82.0876C277.584 80.3781 279.497 79.321 282.165 78.9335C282.219 78.9243 282.254 78.916 282.289 78.916L282.403 77.9464L288.5 77.964C288.483 78.4925 288.457 78.8367 288.457 78.916C288.579 78.9335 289.408 79.0479 290.492 79.5497C291.567 80.0525 293.117 81.0572 294.403 82.9778C296.844 86.6336 298.033 91.1446 297.232 93.7082C296.403 96.2811 293.205 96.6602 291.373 96.6602Z" fill="#21ADE0"/>
<path opacity="0.2" d="M288.941 90.6161L288.958 90.5894C289.196 90.2287 289.231 89.6208 289.258 89.0304C289.293 88.2813 289.328 87.5765 289.778 87.3828L289.795 87.3735L289.804 87.3921L290.871 90.4925L288.941 90.6161Z" fill="black"/>
<path opacity="0.2" d="M279.162 88.4573L279.584 92.2461V92.2553C279.135 93.0034 278.518 93.6474 277.795 94.1317L277.76 94.1584L279.162 88.4573Z" fill="black"/>
<path d="M273.84 88.4491L274.438 89.7875" stroke="black" stroke-width="0.412153" stroke-linecap="round" stroke-linejoin="round"/>
<path d="M279.125 87.8319L279.566 92.2368" stroke="black" stroke-width="0.412153" stroke-linecap="round" stroke-linejoin="round"/>
<path d="M290.051 88.1842L290.827 90.4665" stroke="black" stroke-width="0.412153" stroke-linecap="round" stroke-linejoin="round"/>
<path d="M261.751 92.9601C261.575 92.9601 261.452 92.9333 261.364 92.8808C260.959 92.616 260.986 92.1399 260.994 92.0431C260.914 92.0256 260.571 91.9462 260.395 91.6557C260.271 91.4527 260.262 91.1796 260.368 90.8715C260.28 90.8015 259.664 90.3162 259.989 89.6732C259.91 89.6114 259.47 89.2415 259.725 88.5717C259.813 88.3337 260.148 87.9999 260.641 87.7443C261.179 87.4713 261.805 87.3476 262.316 87.3476C262.438 87.3476 262.554 87.3559 262.659 87.3734C263.029 87.427 263.143 87.6114 263.232 87.8144C263.346 88.0967 263.267 88.3698 263.205 88.4573C263.294 88.4924 263.496 88.6511 263.575 88.9684C263.654 89.3033 263.408 89.5939 263.319 89.6732C263.435 89.7618 263.778 89.9287 263.681 90.2554C263.672 90.616 263.197 91.1096 262.606 91.3826C262.703 91.3651 262.835 91.3383 262.994 91.3383C263.549 91.3383 263.672 91.4712 263.672 91.8143C263.672 92.1842 263.355 92.5109 263.064 92.6428C262.651 92.8272 262.13 92.9601 261.751 92.9601Z" fill="#FAA378"/>
<path d="M285.144 96.2728C283.76 96.2728 282.386 95.9997 282.368 95.9997C282.36 95.9997 280.844 96.2192 279.681 96.2192C278.809 96.2192 278.351 96.0966 278.316 95.8493C278.236 95.2589 280.016 94.924 280.712 94.8096C280.721 94.8096 280.721 94.8014 280.712 94.8014C279.946 94.7839 279.179 94.722 278.421 94.6252C277.822 94.5541 277.443 94.3872 277.311 94.1224C277.214 93.9286 277.276 93.7524 277.302 93.6999C276.986 93.5237 276.818 93.3125 276.791 93.092C276.765 92.7746 277.029 92.5284 277.082 92.484C277.065 92.3954 276.986 91.8318 277.892 91.5062C278.765 91.1889 280.792 91.0127 281.179 90.9776C281.003 90.889 280.483 90.5984 280.386 90.2553C280.351 90.1399 280.368 90.0256 280.438 89.9287C280.518 89.8143 280.756 89.7618 281.162 89.7618C282.835 89.7618 286.844 90.7046 286.889 90.7128H286.906L286.994 96.0605H286.985C286.5 96.2285 285.884 96.2728 285.144 96.2728Z" fill="#FAA378"/>
<path d="M286.879 90.7397L291.901 90.3873" stroke="black" stroke-width="0.412153" stroke-linecap="round" stroke-linejoin="round"/>
<path d="M287.576 134.748L289.425 135.453" stroke="black" stroke-width="0.412153" stroke-linecap="round" stroke-linejoin="round"/>
<path d="M286.703 135.973L288.333 137.163" stroke="black" stroke-width="0.412153" stroke-linecap="round" stroke-linejoin="round"/>
<path d="M272.659 134.757L274.51 135.461" stroke="black" stroke-width="0.412153" stroke-linecap="round" stroke-linejoin="round"/>
<path d="M271.849 135.902L273.478 137.092" stroke="black" stroke-width="0.412153" stroke-linecap="round" stroke-linejoin="round"/>
<path d="M285.822 73.8228L285.056 74.3431" stroke="#030202" stroke-width="0.412153" stroke-linecap="round" stroke-linejoin="round"/>
<path d="M281.065 73.2592L281.038 73.2335C280.941 73.1541 280.906 73.013 280.958 72.8986L281.011 72.6863" stroke="#030202" stroke-width="0.412153" stroke-linecap="round" stroke-linejoin="round"/>
<path d="M281.637 73.9991C281.381 74.3164 280.941 74.3082 280.81 74.2021" stroke="#030202" stroke-width="0.412153" stroke-linecap="round" stroke-linejoin="round"/>
<path d="M282.289 72.5371C282.421 72.5371 282.527 72.4309 282.527 72.2991C282.527 72.1682 282.421 72.061 282.289 72.061C282.158 72.061 282.051 72.1682 282.051 72.2991C282.051 72.4309 282.158 72.5371 282.289 72.5371Z" fill="#231F20"/>
<path d="M280.184 72.2197C280.316 72.2197 280.421 72.1135 280.421 71.9816C280.421 71.8508 280.316 71.7447 280.184 71.7447C280.052 71.7447 279.946 71.8508 279.946 71.9816C279.946 72.1135 280.052 72.2197 280.184 72.2197Z" fill="#231F20"/>
<path d="M282.36 77.2334C283.241 77.0572 283.804 76.7924 283.804 76.7924" stroke="#030202" stroke-width="0.412153" stroke-linecap="round" stroke-linejoin="round"/>
<path d="M277.1 92.5017C278.351 92.2369 281.108 92.0174 281.972 92.0174" stroke="#030202" stroke-width="0.412153" stroke-linecap="round" stroke-linejoin="round"/>
<path d="M277.32 93.7082L281.892 93.2857" stroke="#030202" stroke-width="0.412153" stroke-linecap="round" stroke-linejoin="round"/>
<path d="M281.205 90.9601L282.738 90.9158" stroke="#030202" stroke-width="0.412153" stroke-linecap="round" stroke-linejoin="round"/>
<path d="M259.989 89.6732C260.924 89.0828 262.086 88.6429 263.17 88.4667" stroke="#030202" stroke-width="0.412153" stroke-linecap="round" stroke-linejoin="round"/>
<path d="M260.456 90.8448C261.24 90.2637 262.237 89.903 263.267 89.6825" stroke="#030202" stroke-width="0.412153" stroke-linecap="round" stroke-linejoin="round"/>
<path d="M261.064 91.973C261.857 91.4712 262.941 91.2857 262.941 91.2857" stroke="#030202" stroke-width="0.412153" stroke-linecap="round" stroke-linejoin="round"/>
<path d="M288.738 69.3655C288.589 68.7833 288.219 68.2991 287.673 67.7437C287.284 67.3563 286.713 67.0214 286.008 66.8194" stroke="#231F20" stroke-width="0.412153" stroke-linecap="round" stroke-linejoin="round"/>
<path d="M260.977 87.5857C260.977 87.5857 262.43 87.2951 262.536 87.3127C262.906 87.3652 263.135 87.5064 263.223 87.7083C263.338 87.9906 263.143 88.3698 263.083 88.4574C263.17 88.4924 263.47 88.5635 263.549 88.8809C263.629 89.2158 263.294 89.5857 263.205 89.665C263.302 89.7268 263.646 89.9113 263.637 90.2554C263.708 90.6779 262.915 91.2683 262.597 91.3651C262.686 91.3559 262.783 91.2765 262.88 91.2765C263.435 91.2765 263.726 91.4527 263.726 91.7969C263.726 92.1668 263.294 92.5285 263.003 92.6603" stroke="black" stroke-width="0.412153" stroke-linecap="round" stroke-linejoin="round"/>
<path d="M280.712 94.8097L282.06 94.8014" stroke="#030202" stroke-width="0.412153" stroke-linecap="round" stroke-linejoin="round"/>
<defs>
<linearGradient id="paint0_linear_52_3133" x1="169" y1="9.48834" x2="169" y2="179.488" gradientUnits="userSpaceOnUse">
<stop stop-color="white"/>
<stop offset="1" stop-color="white" stop-opacity="0"/>
</linearGradient>
</defs>
</svg>
