<svg width="24" height="24" viewBox="0 0 24 24" fill="none" xmlns="http://www.w3.org/2000/svg">
<path fill-rule="evenodd" clip-rule="evenodd" d="M9.79606 2.24387C11.6528 1.82605 13 3.42223 13 4.99998V9.99998C13 10.5523 13.4477 11 14 11H19C20.5777 11 22.1739 12.3472 21.7561 14.2039C20.752 18.6661 16.7665 22 12 22C6.47715 22 2 17.5228 2 12C2 7.23347 5.33387 3.248 9.79606 2.24387Z" fill="#1A1C20" fill-opacity="0.5"/>
<path fill-rule="evenodd" clip-rule="evenodd" d="M21.1281 9.07905C20.6041 9.66034 19.8211 10 18.9999 10L16.9999 10C15.3431 10 13.9999 8.65686 13.9999 7.00001L13.9999 5.00001C13.9999 4.17885 14.3396 3.3958 14.9209 2.87186C15.5222 2.32985 16.3885 2.07136 17.2909 2.38379C19.3146 3.08444 20.9155 4.68531 21.6162 6.70906C21.9286 7.61145 21.6701 8.47773 21.1281 9.07905Z" fill="#1A1C20" fill-opacity="0.5"/>
</svg>
