<svg width="24" height="24" viewBox="0 0 24 24" fill="none" xmlns="http://www.w3.org/2000/svg">
<path fill-rule="evenodd" clip-rule="evenodd" d="M9.3316 3.80339C10.3198 1.43175 13.6796 1.43175 14.6678 3.80339C14.8607 4.26629 15.4058 4.48037 15.8674 4.26734C18.3219 3.13448 20.8652 5.67775 19.7323 8.13227C19.5193 8.59383 19.7334 9.13897 20.1963 9.33184C22.5679 10.32 22.5679 13.6799 20.1963 14.668C19.7334 14.8609 19.5193 15.4061 19.7323 15.8676C20.8652 18.3221 18.3219 20.8654 15.8674 19.7325C15.4058 19.5195 14.8607 19.7336 14.6678 20.1965C13.6796 22.5681 10.3198 22.5681 9.3316 20.1965C9.13872 19.7336 8.59359 19.5195 8.13202 19.7325C5.6775 20.8654 3.13424 18.3221 4.26709 15.8676C4.48012 15.4061 4.26605 14.8609 3.80315 14.668C1.4315 13.6799 1.4315 10.32 3.80315 9.33184C4.26605 9.13897 4.48012 8.59383 4.26709 8.13227C3.13424 5.67775 5.6775 3.13448 8.13202 4.26734C8.59359 4.48037 9.13872 4.26629 9.3316 3.80339ZM7.99951 12C7.99951 9.79086 9.79037 8 11.9995 8C14.2087 8 15.9995 9.79086 15.9995 12C15.9995 14.2091 14.2087 16 11.9995 16C9.79037 16 7.99951 14.2091 7.99951 12Z" fill="#1A1C20" fill-opacity="0.5"/>
<path fill-rule="evenodd" clip-rule="evenodd" d="M12 10C10.8954 10 10 10.8954 10 12C10 13.1046 10.8954 14 12 14C13.1046 14 14 13.1046 14 12C14 10.8954 13.1046 10 12 10Z" fill="#1A1C20" fill-opacity="0.5"/>
</svg>
