<svg width="428" height="321" viewBox="0 0 428 321" fill="none" xmlns="http://www.w3.org/2000/svg">
<g clip-path="url(#clip0_94_1786)">
<path d="M428 0H0V320.935H428V0Z" fill="#FEF8F1"/>
<path d="M111.149 271.659V271.608C111.149 267.299 114.632 263.816 118.94 263.816H127.144V228.73H134.987V263.816H143.191C147.499 263.816 150.982 267.299 150.982 271.608V271.659H111.149Z" fill="#21ADE0"/>
<path d="M91.5418 251.278V243.436H127.454C129.621 243.436 131.375 245.19 131.375 247.357C131.375 249.524 129.621 251.278 127.454 251.278H91.5418Z" fill="#EFDCD7"/>
<path d="M69.0975 215.419V137.146H111.459C116.464 137.146 120.54 141.222 120.54 146.227V215.419H69.0975Z" fill="#EFDCD7"/>
<path d="M68.7101 271.659V271.608C68.7101 267.299 72.1929 263.816 76.5013 263.816H84.7052V228.73H92.548V263.816H100.752C105.06 263.816 108.543 267.299 108.543 271.608V271.659H68.7101Z" fill="#21ADE0"/>
<path opacity="0.2" d="M127.144 228.73H134.986V238.327L127.144 240.004V228.73Z" fill="black"/>
<path opacity="0.2" d="M84.7055 228.73H92.5483V247.409L84.7055 249.085V228.73Z" fill="black"/>
<path d="M102.378 233.478V215.316H150.415C155.42 215.316 159.496 219.392 159.496 224.397C159.496 229.402 155.42 233.478 150.415 233.478H102.378Z" fill="#EFDCD7"/>
<path d="M70.7996 233.478C64.8659 233.478 60.0674 228.653 60.0674 222.746V146.227C60.0674 141.222 64.1436 137.146 69.1485 137.146C74.1535 137.146 78.2297 141.222 78.2297 146.227V215.315H108.105C113.109 215.315 117.186 219.392 117.186 224.397C117.186 229.402 113.109 233.478 108.105 233.478H70.7996Z" fill="#21ADE0"/>
<path d="M134.936 233.426H127.196" stroke="black" stroke-width="1.03195" stroke-linecap="round" stroke-linejoin="round"/>
<path d="M134.936 263.352H127.196" stroke="black" stroke-width="1.03195" stroke-linecap="round" stroke-linejoin="round"/>
<path d="M92.3678 263.352H84.6282" stroke="black" stroke-width="1.03195" stroke-linecap="round" stroke-linejoin="round"/>
<path d="M78.1774 215.367L71.4698 220.913" stroke="black" stroke-width="1.03195" stroke-linecap="round" stroke-linejoin="round"/>
<path d="M92.3678 233.942H84.6282" stroke="black" stroke-width="1.03195" stroke-linecap="round" stroke-linejoin="round"/>
<path d="M214.153 210.781C211.986 210.781 210.231 209.027 210.231 206.86V174.56H218.074V206.86C218.074 209.027 216.32 210.781 214.153 210.781Z" fill="#EFDCD7"/>
<path opacity="0.2" d="M210.231 174.56H218.074V184.518L210.231 189.059V174.56Z" fill="#4F1100"/>
<path d="M185.516 178.533C183.349 178.533 181.595 176.779 181.595 174.612C181.595 172.445 183.349 170.69 185.516 170.69H242.531C244.698 170.69 246.453 172.445 246.453 174.612C246.453 176.779 244.698 178.533 242.531 178.533H185.516Z" fill="#21ADE0"/>
<path d="M210.025 178.482H218.023" stroke="#4F1100" stroke-width="1.03195" stroke-linecap="round" stroke-linejoin="round"/>
<path d="M147.357 157.281C141.366 157.281 136.488 152.4 136.488 146.41V54.8242C136.488 48.8338 141.366 43.9553 147.357 43.9553H280.591C286.582 43.9553 291.46 48.8338 291.46 54.8242V146.41C291.46 152.4 286.582 157.281 280.591 157.281H147.357Z" fill="#FFC930"/>
<path d="M243.191 97.764H135.855C135.726 97.764 135.623 97.6866 135.597 97.5576C130.948 77.8061 154.858 86.6628 158.447 88.1075C158.628 88.1849 158.834 88.0302 158.782 87.8238C157.157 79.7152 161.004 66.496 179.388 66.496C195.164 66.496 201.956 79.2767 203.066 81.6527C203.143 81.8333 203.375 81.8591 203.504 81.7043C207.583 76.7458 213.754 76.7458 217.085 79.3025C220.676 82.0655 221.605 86.9466 221.811 88.4687C221.837 88.6751 222.069 88.7525 222.224 88.6235C229.04 83.2264 241.926 85.0091 243.191 97.764Z" fill="white"/>
<path d="M279.869 155.886H145.264C140.412 155.886 136.488 151.962 136.488 147.106V97.5316H291.46V144.294C291.46 150.698 286.272 155.886 279.869 155.886Z" fill="#21ADE0"/>
<path d="M152.197 61.3937C155.62 61.3937 158.396 58.6203 158.396 55.1968C158.396 51.7759 155.62 49 152.197 49C148.773 49 146 51.7759 146 55.1968C146 58.6203 148.773 61.3937 152.197 61.3937Z" fill="white"/>
<path d="M136.462 119.478H291.641V147.985C291.641 152.632 287.872 156.401 283.225 156.401H146.118C140.773 156.401 136.462 152.09 136.462 146.744V119.478Z" fill="#21ADE0"/>
<path d="M235.792 117.337H230.111V191.416H235.792V117.337Z" fill="#EFDCD7"/>
<path opacity="0.3" d="M235.792 130.453L230.111 128.129V117.337H235.792V130.453Z" fill="#9D827B"/>
<path d="M205.84 124.54C207.777 129.912 229.647 124.902 232.9 120.281C232.9 120.255 232.926 120.255 232.951 120.281C236.23 124.927 258.048 129.886 260.012 124.54C261.044 121.571 250.897 117.183 244.236 116.357C244.21 116.357 244.21 116.331 244.236 116.305C251.103 112.508 263.058 101.278 260.45 98.1277C258.825 96.0096 251.671 98.7726 244.21 104.324C244.184 104.35 244.158 104.324 244.158 104.299C246.999 95.6226 247.36 88.0817 244.906 87.1271H244.881C243.049 86.4821 240.131 89.7096 237.471 94.926C237.471 94.9518 237.42 94.9518 237.42 94.926C235.714 81.7042 230.214 81.6784 228.511 94.926C228.511 94.9518 228.486 94.9518 228.46 94.926C225.8 89.7096 222.882 86.4821 221.048 87.1271C218.543 88.0043 218.907 95.571 221.773 104.299C221.773 104.324 221.747 104.35 221.721 104.324C214.258 98.7726 207.055 96.0096 205.478 98.1277C202.922 101.303 214.825 112.482 221.721 116.305C221.747 116.305 221.747 116.357 221.721 116.357C220.764 116.512 219.835 116.692 218.829 116.925C213.509 118.137 209.119 120.126 207.055 122.035C206.123 122.915 205.659 123.766 205.84 124.54Z" fill="#EE7C97"/>
<path opacity="0.3" d="M205.841 124.539C207.778 129.911 229.648 124.9 232.901 120.28C232.901 120.254 232.927 120.254 232.952 120.28C236.206 124.926 258.075 129.885 260.013 124.539C260.58 122.088 254.796 118.652 247.129 116.924C246.148 116.691 245.165 116.511 244.237 116.356C244.211 116.356 244.211 116.33 244.237 116.304C251.104 112.533 263.059 101.277 260.477 98.1266C258.852 96.0085 251.698 98.7716 244.237 104.323C244.211 104.349 244.185 104.323 244.185 104.298C247.026 95.6732 247.387 88.1322 244.959 87.1519C244.933 87.1519 244.933 87.1519 244.933 87.1777C239.82 107.938 222.909 123.507 207.107 122.034H207.081C206.176 122.914 205.66 123.636 205.841 124.539Z" fill="#C0BEBF"/>
<path d="M221.748 116.33C222.573 116.743 223.141 117.027 223.966 117.491" stroke="#888888" stroke-width="1.03195" stroke-linecap="round" stroke-linejoin="round"/>
<path d="M242.041 117.569C242.738 117.208 243.463 116.795 244.211 116.356" stroke="#888888" stroke-width="1.03195" stroke-linecap="round" stroke-linejoin="round"/>
<path d="M244.106 104.401C243.9 104.556 243.694 104.711 243.487 104.866C238.4 108.764 234.502 112.948 232.951 115.941C231.403 112.948 227.528 108.764 222.417 104.866C222.211 104.711 221.979 104.556 221.772 104.401" stroke="#888888" stroke-width="1.03195" stroke-linecap="round" stroke-linejoin="round"/>
<path d="M230.111 134.196H235.689" stroke="#9D827B" stroke-width="1.03195" stroke-linecap="round" stroke-linejoin="round"/>
<path d="M230.137 158.959H235.637" stroke="#9D827B" stroke-width="1.03195" stroke-linecap="round" stroke-linejoin="round"/>
<path d="M230.137 151.007H235.817" stroke="#9D827B" stroke-width="1.03195" stroke-linecap="round" stroke-linejoin="round"/>
<path d="M237.471 95.0037C236.308 97.2997 235.302 99.7016 234.45 102.129C233.883 103.86 233.364 105.511 232.951 107.114C232.564 105.486 232.074 103.835 231.455 102.129C230.601 99.65 229.595 97.2482 228.408 94.9263" stroke="#888888" stroke-width="1.03195" stroke-linecap="round" stroke-linejoin="round"/>
<path d="M230.111 122.424C231.171 121.854 232.126 121.132 232.951 120.254C233.777 121.132 234.76 121.88 235.818 122.45" stroke="#888888" stroke-width="1.03195" stroke-linecap="round" stroke-linejoin="round"/>
<path d="M264.219 107.188C243.849 111.708 245.474 135.18 245.474 135.18C245.474 135.18 225.671 135.747 224.819 156.401H282.345C285.521 156.401 288.155 154.002 288.465 150.852L291.641 117.853C287.201 112.662 277.622 104.219 264.219 107.188Z" fill="#FFC930"/>
<path d="M186.604 137.888C185.985 121.08 172.634 108.015 156.781 108.66C149.14 108.97 142.166 112.481 137.133 118.085L138.758 150.023C138.939 153.614 141.908 156.401 145.474 156.401H203.647C203.492 146.383 196.029 138.251 186.604 137.888Z" fill="#FFC930"/>
<path d="M149.578 161.592C140.36 161.567 132.897 154.106 132.871 144.888V56.3234C132.897 47.1056 140.36 39.642 149.578 39.6162H278.422C287.64 39.642 295.103 47.1056 295.129 56.3234V144.862C295.103 154.08 287.64 161.541 278.422 161.567L149.578 161.592ZM149.578 45.9162C143.846 45.9162 139.171 50.591 139.171 56.3234V144.862C139.171 150.594 143.846 155.267 149.578 155.267H278.422C284.155 155.267 288.829 150.594 288.829 144.862V56.3234C288.829 50.591 284.155 45.9162 278.422 45.9162H149.578Z" fill="white"/>
<path d="M186.604 137.888C180.614 138.069 176.742 141.944 176.742 141.944" stroke="#A3883C" stroke-width="1.03195" stroke-linecap="round" stroke-linejoin="round"/>
<path d="M245.475 135.18C254.718 134.197 260.141 138.33 260.141 138.33" stroke="#A3883C" stroke-width="1.03195" stroke-linecap="round" stroke-linejoin="round"/>
<path d="M204.691 271.353H224.045C228.193 271.353 231.779 268.438 232.6 264.375L237.46 240.893H191.275L196.136 264.375C196.956 268.438 200.542 271.353 204.691 271.353Z" fill="#22728F"/>
<path d="M205.619 245.43V239.489C205.619 234.649 209.527 230.74 214.367 230.74C219.207 230.74 223.116 234.649 223.116 239.489V245.43" stroke="#010202" stroke-width="1.03195" stroke-linecap="round" stroke-linejoin="round"/>
<path d="M194.256 255.368L196.116 264.374C196.957 268.438 200.522 271.353 204.668 271.353H224.025C228.173 271.353 231.759 268.438 232.579 264.374L234.437 255.368H194.256Z" fill="#21ADE0"/>
<path d="M208.535 255.368H220.201" stroke="#010202" stroke-width="1.03195" stroke-linecap="round" stroke-linejoin="round"/>
<path opacity="0.3" d="M234.565 240.893C231.802 252.169 224.671 263.08 214.13 271.353H224.024C228.172 271.353 231.758 268.438 232.579 264.375L237.439 240.893H234.565Z" fill="#010202"/>
<path d="M276.523 271.393V271.341C276.523 267.033 280.006 263.55 284.314 263.55H292.518V228.464H300.361V263.55H308.565C312.873 263.55 316.356 267.033 316.356 271.341V271.393H276.523Z" fill="#21ADE0"/>
<path d="M300.051 251.012C297.883 251.012 296.129 249.257 296.129 247.09C296.129 244.923 297.883 243.169 300.051 243.169H335.962V251.012H300.051Z" fill="#EFDCD7"/>
<path d="M306.965 215.151V145.959C306.965 140.954 311.041 136.878 316.046 136.878H358.407V215.151H306.965Z" fill="#EFDCD7"/>
<path d="M318.961 271.393V271.341C318.961 267.033 322.444 263.55 326.752 263.55H334.956V228.464H342.799V263.55H351.003C355.311 263.55 358.794 267.033 358.794 271.341V271.393H318.961Z" fill="#21ADE0"/>
<path opacity="0.2" d="M292.517 238.061V228.464H300.36V239.738L292.517 238.061Z" fill="black"/>
<path opacity="0.2" d="M334.956 247.142V228.464H342.799V248.819L334.956 247.142Z" fill="black"/>
<path d="M277.09 233.211C272.085 233.211 268.009 229.135 268.009 224.13C268.009 219.125 272.085 215.049 277.09 215.049H325.127V233.211H277.09Z" fill="#EFDCD7"/>
<path d="M319.4 233.21C314.395 233.21 310.319 229.134 310.319 224.129C310.319 219.124 314.395 215.048 319.4 215.048H349.275V145.959C349.275 140.954 353.351 136.878 358.356 136.878C363.361 136.878 367.437 140.954 367.437 145.959V222.478C367.437 228.412 362.613 233.21 356.705 233.21H319.4Z" fill="#21ADE0"/>
<path d="M292.57 233.159H300.309" stroke="black" stroke-width="1.03195" stroke-linecap="round" stroke-linejoin="round"/>
<path d="M292.57 263.085H300.309" stroke="black" stroke-width="1.03195" stroke-linecap="round" stroke-linejoin="round"/>
<path d="M335.137 263.085H342.876" stroke="black" stroke-width="1.03195" stroke-linecap="round" stroke-linejoin="round"/>
<path d="M349.327 215.099L356.034 220.646" stroke="black" stroke-width="1.03195" stroke-linecap="round" stroke-linejoin="round"/>
<path d="M335.137 233.675H342.876" stroke="black" stroke-width="1.03195" stroke-linecap="round" stroke-linejoin="round"/>
<path d="M290.765 229.987C290.802 229.968 290.81 229.938 290.818 229.91C292.15 220.85 291.431 215.691 293.493 206.385C294.086 203.728 294.839 201.144 295.777 198.43C295.785 198.403 295.773 198.341 295.746 198.333C294.985 197.938 287.503 193.533 281.011 191.717C278.755 191.086 272.753 191.81 272.088 191.833C272.058 191.824 272.014 191.874 272.007 191.901C270.007 202.277 268.57 215.575 267.767 223.492C267.763 223.611 274.909 229.216 281.742 231.098C285.129 231.984 290.207 230.16 290.765 229.987Z" fill="#E59763"/>
<path opacity="0.2" d="M294.323 203.098C294.853 201.205 295.307 199.8 295.779 198.429C295.794 198.374 295.775 198.339 295.72 198.324L282.903 194.738L282.845 194.84C282.887 194.793 292.987 202.186 294.195 203.124C294.245 203.167 294.307 203.155 294.323 203.098Z" fill="#030202"/>
<path opacity="0.2" d="M316.918 204.374C313.72 203.45 299.18 199.262 297.763 198.956C297.708 198.941 297.665 198.988 297.677 199.053C298.005 200.886 298.278 202.706 298.688 204.563C298.708 204.598 298.73 204.636 298.765 204.614C299.817 204.608 313.894 204.551 316.905 204.523C316.99 204.547 317.002 204.397 316.918 204.374Z" fill="#030202"/>
<path d="M322.563 205.895C322.618 205.911 322.661 205.864 322.649 205.799C320.803 194.138 322.791 183.486 320.667 171.535C319.257 163.15 315.42 155.709 312.121 151.721C312.121 151.721 312.099 151.686 312.072 151.678C311.237 151.444 288.552 145.008 287.259 144.796C287.231 144.788 287.196 144.808 287.189 144.835C286.641 145.826 277.242 164.705 272.027 191.729C272.011 191.783 272.031 191.818 272.088 191.834C274.193 192.364 319.748 205.108 322.563 205.895Z" fill="white"/>
<path opacity="0.2" d="M287.286 144.803C287.927 144.982 293.38 146.537 294.55 146.865C294.634 146.888 294.638 146.981 294.568 147.02C290.908 148.611 287.925 152.073 285.209 154.917C283.776 156.38 282.414 157.17 281.95 157.431C281.88 157.471 281.811 157.392 281.827 157.335C282.32 156.002 285.356 148.378 287.216 144.843C287.196 144.808 287.231 144.788 287.286 144.803Z" fill="#D07FB2"/>
<path d="M261.876 265.168C262.647 264.451 264.377 263.103 265.514 262.371C265.549 262.351 265.565 262.294 265.546 262.259C264.222 260.115 249.674 257.457 249.619 257.654C248.567 258.292 247.227 259.867 246.826 260.867C246.81 260.924 246.83 260.959 246.887 260.975C248.112 261.317 261.876 265.168 261.876 265.168Z" fill="#1E1A0E"/>
<path d="M265.62 262.309C267.082 261.277 269.443 259.923 271.306 259.603C271.635 259.606 281.03 259.529 281.78 259.53C281.81 259.538 281.845 259.518 281.852 259.491C284.749 253.54 286.956 247.578 288.543 241.263C289.46 237.343 290.308 233.345 290.779 230.05C290.787 230.023 290.765 229.987 290.71 229.972C289.346 229.59 269.494 223.975 267.824 223.508C267.767 223.492 267.723 223.542 267.716 223.569C267.7 223.835 267.625 224.535 267.569 225.06C267.197 228.862 266.846 232.158 266.468 235.329C265.231 243.303 264.94 250.672 259.071 253.507C257.662 254.136 256.413 254.628 255.059 255.178C252.595 256.142 251.586 256.31 249.725 257.592C249.654 257.634 249.686 257.731 249.743 257.747C251.407 258.242 264.712 262.117 265.514 262.371C265.585 262.329 265.585 262.329 265.62 262.309Z" fill="#FFC930"/>
<path d="M276.354 269.159C277.688 267.397 280.625 262.272 281.822 259.601C281.837 259.546 281.817 259.511 281.76 259.495C280.949 259.389 275.625 258.77 271.369 259.591C271.341 259.584 271.306 259.603 271.29 259.66C271.119 260.274 269.439 266.384 269.229 267.134C269.213 267.191 269.233 267.226 269.288 267.241C270.013 267.444 275.67 269.027 276.254 269.19C276.281 269.198 276.319 269.179 276.354 269.159Z" fill="#1E1A0E"/>
<path d="M276.763 243.315C278.37 243.794 280.204 242.716 280.547 241.068C280.547 241.068 283.273 229.063 283.515 227.989C283.53 227.935 283.509 227.897 283.454 227.881L275.633 225.664C275.576 225.648 275.532 225.698 275.525 225.725L274.528 240.137C274.436 241.644 275.369 242.925 276.763 243.315Z" fill="#1E1A0E"/>
<path d="M330.185 229.117C327.564 220.663 324.235 215.164 322.657 205.979C322.665 205.952 322.645 205.917 322.618 205.909C321.463 205.527 313.226 201.358 311.527 200.883C305.013 199.031 297.632 198.89 297.612 198.855L297.616 198.945C299.157 209.44 303.74 223.672 306.567 232.575C306.559 232.602 306.587 232.61 306.614 232.617C307.085 232.87 313.158 235.11 319.869 234.102C323.16 233.611 329.484 229.583 330.134 229.191C330.199 229.18 330.207 229.153 330.185 229.117Z" fill="#E59763"/>
<path d="M318.813 274.396C319.244 273.496 320.307 271.629 321.083 270.466C321.126 270.417 321.087 270.347 321.029 270.331C319.928 270.293 313.456 269.804 313.127 269.803L313.1 269.795C312.71 269.895 304.751 272.356 304.228 272.51C304.199 272.502 304.191 272.529 304.191 272.529C303.439 273.61 302.854 275.49 302.887 276.55C302.898 276.615 302.928 276.623 302.983 276.638C304.239 276.448 317.901 274.532 318.775 274.415L318.813 274.396Z" fill="#1E1A0E"/>
<path d="M321.186 270.312C322.482 268.363 323.873 266.828 325.016 266.066C325.266 265.927 333.74 261.627 334.401 261.3C334.436 261.281 334.444 261.253 334.452 261.226C334.947 250.759 333.27 239.143 330.245 229.223C330.226 229.188 330.206 229.153 330.169 229.172C328.873 229.292 308.298 232.398 306.706 232.614C306.641 232.626 306.625 232.68 306.644 232.718C307.964 237.022 309.579 241.889 310.714 245.662C312.53 252.599 315.473 259.911 311.144 264.859C310.101 266.011 309.106 266.994 308.13 268.013C306.577 269.59 305.213 270.923 304.294 272.378C304.251 272.425 304.317 272.505 304.383 272.491C306.095 272.279 320.34 270.437 321.149 270.331C321.179 270.339 321.179 270.339 321.186 270.312Z" fill="#FFC930"/>
<path d="M333.302 272.319C333.731 270.457 334.41 264.068 334.44 261.373C334.429 261.308 334.382 261.266 334.339 261.315C328.511 263.35 325.405 265.755 325.053 266.047C325.016 266.066 325.008 266.093 325.029 266.132C325.11 266.695 325.923 272.599 326.015 273.346C326.034 273.38 326.056 273.419 326.119 273.404L333.251 272.396C333.258 272.369 333.293 272.349 333.302 272.319Z" fill="#1E1A0E"/>
<path d="M322.309 246.859C324.383 247.501 326.614 245.54 326.104 243.385C326.104 243.385 323.822 231.241 323.616 230.16C323.594 230.124 323.574 230.089 323.512 230.101L315.482 231.311C315.417 231.322 315.402 231.377 315.424 231.415L320.254 244.963C320.6 245.872 321.36 246.593 322.309 246.859Z" fill="#1E1A0E"/>
<path d="M319.832 107.069C321.727 103.302 324.58 97.4029 325.493 95.4346L325.104 96.7083C326.742 93.44 329.775 87.318 326.976 82.9293C325.201 80.1502 322.589 76.596 319.024 75.5987C317.128 75.0684 314.715 76.2845 312.855 76.4876C310.184 76.6994 308.416 77.437 306.825 78.8244C305.4 80.0492 304.139 81.7699 302.628 84.0502C302.62 84.0775 302.585 84.0972 302.558 84.0896C302.152 84.0376 300.382 83.8132 299.997 84.5467C299.533 85.3463 300.181 87.0012 300.32 87.3693C300.339 87.4068 300.331 87.4341 300.296 87.4538C297.524 91.6664 296.872 94.2165 297.816 96.8543C298.503 99.1199 302.471 101.042 305.173 100.836C305.238 100.824 305.277 100.894 305.261 100.951C305.106 101.296 304.64 102.31 304.5 102.6C304.485 102.655 304.481 102.774 304.538 102.79L319.832 107.069Z" fill="#E59763"/>
<path opacity="0.2" d="M308.404 100.569C306.962 100.887 305.659 100.822 305.363 100.798C305.336 100.791 305.301 100.81 305.293 100.84L304.457 102.648L303.925 103.793C303.903 103.875 303.971 103.956 304.049 103.887L308.485 100.71C308.527 100.663 308.474 100.527 308.404 100.569Z" fill="#030202"/>
<path d="M329.875 138.838C340.006 141.493 346.056 130.506 338.966 123.625C338.946 123.59 338.935 123.525 338.97 123.506C343.449 119.741 345.472 114.33 344.329 108.964C343.221 103.695 339.172 99.5888 333.515 98.0063C331.843 97.5385 330.019 97.2988 328.145 97.2248C328.091 97.2095 328.041 97.1662 328.087 97.1174C329.213 93.4086 331.73 86.2395 327.762 80.9851C324.599 76.8241 318.751 74.3174 313.493 74.861C311.05 75.1074 308.697 76.6431 306.868 78.7756C306.833 78.7953 306.853 78.8303 306.873 78.8652C307.053 79.1864 308.069 80.8233 310.548 81.5169C311.105 81.6726 311.706 81.782 312.338 81.7763C312.402 81.765 312.433 81.8648 312.391 81.9118C310.48 84.0213 309.942 87.9855 311.34 90.1795C311.359 90.217 311.386 90.2246 311.424 90.2032C311.876 90.0912 314.851 89.1204 317.144 89.7325C318.535 90.1217 319.333 91.0333 319.531 92.471C320.076 96.8615 312.998 98.4256 312.418 98.5635C312.391 98.5558 312.383 98.5832 312.375 98.613C307.599 110.103 311.062 122.64 328.126 121.675C328.153 121.683 328.211 121.699 328.203 121.726C328.41 122.596 329.639 129.369 329.814 138.73C329.825 138.795 329.848 138.83 329.875 138.838Z" fill="#231F20"/>
<path d="M303.566 90.6832C302.915 91.4012 301.624 91.19 301.045 90.7871" stroke="#030202" stroke-width="1.03195" stroke-linecap="round" stroke-linejoin="round"/>
<path d="M305.09 86.4223C304.705 86.3146 304.48 85.914 304.587 85.5314C304.695 85.1463 305.095 84.9208 305.48 85.0285C305.865 85.1363 306.088 85.5362 305.981 85.9213C305.874 86.3039 305.475 86.5301 305.09 86.4223Z" fill="#231F20"/>
<path d="M308.792 100.464C308.792 100.464 306.484 100.659 305.309 100.781" stroke="#030202" stroke-width="1.03195" stroke-linecap="round" stroke-linejoin="round"/>
<path d="M315.049 93.3523L312.609 94.02" stroke="#030202" stroke-width="1.03195" stroke-linecap="round" stroke-linejoin="round"/>
<path d="M311.874 102.439C310.307 102.001 309.389 100.37 309.827 98.802C310.266 97.2343 311.897 96.3163 313.464 96.7549C315.035 97.1941 315.95 98.8245 315.512 100.392C315.073 101.96 313.444 102.879 311.874 102.439Z" fill="#DFDFDF"/>
<path d="M330.363 91.9886C334.867 93.2806 337.034 90.1604 335.982 85.5398C334.872 79.732 328.177 71.8799 322.739 70.4794C318.233 69.1892 316.069 72.3076 317.121 76.9282C318.229 82.7353 324.861 90.5995 330.363 91.9886Z" fill="white"/>
<path d="M329.757 78.2136L323.056 83.6078" stroke="#FF0000" stroke-width="1.03195" stroke-linecap="round" stroke-linejoin="round"/>
<path d="M323.709 77.5603L329.104 84.2612" stroke="#FF0000" stroke-width="1.03195" stroke-linecap="round" stroke-linejoin="round"/>
<path d="M241.602 164.741C243.58 165.294 246.568 163.095 248.012 161.908C248.09 161.839 248.214 161.932 248.156 162.036C247.526 163.213 246.045 165.502 247.215 166.041C248.546 166.654 251.274 163.991 254.623 161.143C257.043 159.055 259.85 156.746 262.575 154.955C262.61 154.936 262.626 154.878 262.579 154.836C261.839 153.938 254.797 144.097 253.819 143.191C253.799 143.156 253.734 143.168 253.726 143.197C249.441 146.055 246.228 148.521 244.307 150.236L244.299 150.263C244.027 150.699 235.494 157.894 237.831 161.463C237.858 161.47 237.851 161.498 237.843 161.525C237.693 162.386 237.849 163.541 239.159 163.908C239.522 164.009 239.963 164.041 240.421 164.02C240.449 164.027 240.449 164.027 240.476 164.035C240.792 164.303 241.147 164.643 241.602 164.741Z" fill="#E59763"/>
<path d="M263.585 158.964C275.974 153.024 285.876 142.427 287.747 140.365C287.797 140.29 287.902 140.349 287.878 140.433L287.189 144.717C287.181 144.744 287.196 144.807 287.25 144.823L311.53 151.676C311.56 151.685 311.56 151.685 311.58 151.72C311.88 152.254 315.738 159.942 315.804 159.81C318.169 159.631 320.122 159.095 321.786 158.299C331.307 153.691 330.146 139.908 329.241 128.749C328.636 122.962 327.619 118.112 326.596 116.082C324.38 111.648 319.742 109.327 318.889 108.938C318.834 108.923 318.822 108.86 318.857 108.841C319.14 108.258 319.478 107.691 319.77 107.082C319.785 107.027 319.765 106.992 319.738 106.984C318.634 106.525 305.554 103.016 304.496 102.72C304.468 102.713 304.403 102.724 304.396 102.751C304.232 103.126 303.257 105.107 303.101 105.454C303.094 105.481 303.056 105.5 303.029 105.493C301.931 105.338 292.171 104.47 284.274 115.511L272.249 131.644C272.249 131.644 272.241 131.671 272.214 131.663C271.787 131.906 262.009 137.641 253.841 143.109C253.806 143.129 253.791 143.183 253.81 143.221C254.439 144.297 262.753 158.07 263.496 158.969C263.523 158.976 263.551 158.984 263.585 158.964Z" fill="white"/>
<path opacity="0.2" d="M315.932 159.787C318.359 159.595 320.13 159.067 321.713 158.339C321.778 158.328 321.775 158.236 321.725 158.192C317.128 153.901 318.214 147.655 318.963 143.149C319.445 140.249 319.852 137.93 318.547 137.233C318.49 137.217 318.454 137.239 318.446 137.267L312.144 151.636C312.137 151.663 312.128 151.693 312.156 151.701C312.421 152.255 315.801 159.929 315.932 159.787Z" fill="#D07FB2"/>
<path d="M316.296 143.664L318.582 145.595" stroke="#D07FB2" stroke-width="1.03195" stroke-linecap="round" stroke-linejoin="round"/>
<path d="M312.099 151.686L314.62 145.9L289.154 138.776L287.957 140.153L287.204 144.78L312.099 151.686Z" fill="#EE7C97"/>
<path opacity="0.2" d="M294.746 146.92C294.37 142.788 295.6 138.926 296.577 135.864C297.577 132.72 298.39 130.245 297.201 128.589C297.178 128.553 297.096 128.53 297.081 128.585C293.782 132.862 289.396 138.332 287.992 140.133L287.984 140.16C287.933 140.449 287.345 144.158 287.254 144.703C287.246 144.733 287.266 144.768 287.32 144.783L294.746 146.92Z" fill="#D07FB2"/>
<path d="M318.47 137.182L312.128 151.693C312.128 151.693 315.373 155.874 316.892 159.573" stroke="#D07FB2" stroke-width="1.03195" stroke-linecap="round" stroke-linejoin="round"/>
<path d="M287.957 140.153L297.132 128.51" stroke="#D07FB2" stroke-width="1.03195" stroke-linecap="round" stroke-linejoin="round"/>
<path d="M264.81 152.876C266.062 153.226 267.346 152.503 267.697 151.249C268.048 149.997 267.325 148.712 266.072 148.362C264.818 148.011 263.533 148.734 263.183 149.986C262.832 151.241 263.555 152.525 264.81 152.876Z" fill="#EE7C97"/>
<path d="M303.095 105.478C303.095 105.478 302.068 105.282 300.708 105.411" stroke="#D07FB2" stroke-width="1.03195" stroke-linecap="round" stroke-linejoin="round"/>
<path d="M237.859 161.467C237.859 161.467 242.864 155.718 246.447 152.573" stroke="#030202" stroke-width="1.03195" stroke-linecap="round" stroke-linejoin="round"/>
<path d="M240.457 164C240.457 164 246.938 157.369 248.912 155.58" stroke="#030202" stroke-width="1.03195" stroke-linecap="round" stroke-linejoin="round"/>
<path d="M248.16 161.914C248.16 161.914 249.145 160.328 251.117 158.535" stroke="#030202" stroke-width="1.03195" stroke-linecap="round" stroke-linejoin="round"/>
<path d="M162.586 118.414C162.684 115.692 160.086 115.496 159.89 115.47C159.89 115.47 159.865 115.47 159.865 115.447C159.227 113.731 158.123 113.486 157.29 113.633C157.218 113.633 157.218 112.947 156.359 112.947C156.924 110.617 158.002 105.445 155.917 105.248C154.421 105.125 151.506 113.29 149.421 119.714C149.395 119.763 149.372 119.835 149.346 119.884C149.029 120.815 148.464 122.632 147.925 124.445C146.87 127.631 145.546 132.608 144.494 136.973C144.494 136.999 144.494 136.999 144.517 136.999L151.8 140.554L159.668 141.632C159.694 141.632 159.694 141.632 159.694 141.607C159.939 139.254 160.086 137.391 160.332 136.408C163.322 134.055 162.759 130.575 162.416 127.608C162.39 127.337 162.341 127.069 162.318 126.798C162.318 126.798 162.318 126.775 162.341 126.775C162.537 126.726 162.733 126.602 162.906 126.481C164.818 125.132 166.265 118.266 162.586 118.437C162.612 118.437 162.586 118.414 162.586 118.414Z" fill="#FAA378"/>
<path d="M156.335 123.733C158.296 121.773 159.008 119.126 159.89 115.47" stroke="black" stroke-width="1.03195" stroke-linecap="round" stroke-linejoin="round"/>
<path d="M160.086 124.884C161.067 123.658 162.073 120.495 162.612 118.434" stroke="black" stroke-width="1.03195" stroke-linecap="round" stroke-linejoin="round"/>
<path d="M162.318 126.847C161.116 127.069 160.159 126.749 160.159 124.788C160.159 124.788 159.129 125.867 157.904 125.621C156.874 125.425 156.678 124.468 156.335 123.488" stroke="black" stroke-width="1.03195" stroke-linecap="round" stroke-linejoin="round"/>
<path opacity="0.2" d="M162.319 126.795C161.019 127.285 160.355 127.089 160.159 124.834C160.159 124.809 160.136 124.809 160.11 124.809C159.401 125.472 158.421 125.864 157.561 125.691C157.316 125.642 157.144 125.642 156.947 125.544C156.924 125.544 156.898 125.544 156.924 125.57C157.095 126.135 157.291 126.697 157.414 127.334C157.414 127.334 157.414 127.36 157.438 127.36C158.199 127.383 158.983 127.236 159.401 126.893C159.424 126.893 159.424 126.893 159.424 126.893C160.185 129.125 162.466 127.873 162.44 127.605C162.391 127.236 162.368 127.04 162.342 126.821C162.368 126.795 162.342 126.795 162.319 126.795Z" fill="black"/>
<path d="M149.934 118.583C151.159 116.377 156.139 111.522 157.168 113.361C158.393 115.57 154.962 121.207 154.962 121.207C154.962 121.207 158.615 127.091 157.658 132.486" stroke="black" stroke-width="1.03195" stroke-linecap="round" stroke-linejoin="round"/>
<path d="M149.445 258.727L150.304 252.621C150.255 252.131 150.229 251.615 150.229 251.075C150.229 249.801 150.745 247.618 151.431 245.07C151.457 244.995 151.408 245.144 151.431 245.07L151.751 242.887C151.751 242.864 151.751 242.864 151.725 242.864L130.127 243.403C130.127 243.403 130.101 243.403 130.101 243.426L129.317 244.972C128.827 249.605 128.63 254.287 128.752 258.9L129.905 261.181L129.928 261.204L149.445 258.727C149.445 258.753 149.445 258.753 149.445 258.727Z" fill="#FAA378"/>
<path d="M150.305 252.673C150.305 252.65 150.305 252.65 150.305 252.673L142.067 252.65C140.545 252.65 139.418 254.022 139.663 255.493L140.3 258.901C140.3 258.924 140.3 258.924 140.277 258.924H128.752C128.729 258.924 128.729 258.924 128.729 258.95C128.801 261.548 128.974 264.368 129.243 266.942C129.243 266.942 129.243 266.968 129.268 266.968L148.246 269.468L160.823 266.795C160.846 266.795 160.846 266.772 160.846 266.746C157.83 262.528 151.04 261.401 150.305 252.673Z" fill="#FFC930"/>
<path d="M129.267 266.794C129.438 268.389 129.66 270.006 129.928 271.601L129.954 271.624H162.269C162.292 271.624 162.292 271.624 162.292 271.601C162.292 269.565 161.73 268.045 160.871 266.794H160.845L129.291 266.771L129.267 266.794Z" fill="#AFC967"/>
<path d="M156.114 199.517C146.331 187.895 118.847 181.788 118.675 181.739H101.635H101.611C101.389 181.961 96.4129 187.036 94.8934 195.593C93.0798 206.134 101.193 215.502 111.908 215.502H136.303C136.329 215.502 136.329 215.525 136.329 215.525C132.797 224.622 130.395 234.872 129.34 244.995C129.34 245.021 129.34 245.021 129.366 245.021L151.431 245.07C151.431 245.07 151.457 245.07 151.457 245.044C154.914 232.738 163.91 208.784 156.114 199.517Z" fill="#EE7C97"/>
<path opacity="0.2" d="M136.133 201.65C145.497 202.362 149.739 210.133 146.994 223.863C143.168 242.915 141.305 247.843 141.599 253.874C142.066 263.363 151.31 264.343 152.584 271.601C152.584 271.624 152.584 271.624 152.559 271.624H120.612C120.589 271.624 120.589 271.624 120.589 271.601C120.563 270.179 119.165 200.376 136.133 201.65Z" fill="#623C54"/>
<path d="M131.057 259.684L132.283 252.67C132.283 250.121 132.626 248.232 133.606 245.044C133.606 245.02 133.606 245.02 133.581 245.02C132.969 244.922 121.69 243.181 121.569 243.158L108.917 244.334C108.084 248.722 107.323 254.042 106.98 258.949L107.274 261.524C107.274 261.547 107.299 261.547 107.299 261.547L131.057 259.684C131.057 259.71 131.057 259.71 131.057 259.684Z" fill="#FAA378"/>
<path d="M140.642 266.745C138.044 262.478 132.356 261.328 132.283 252.649C132.283 252.623 132.283 252.623 132.258 252.623H124.265C122.769 252.623 121.641 253.972 121.887 255.417L122.452 258.874C122.452 258.9 122.452 258.9 122.426 258.9L107.006 258.949C106.98 258.949 106.98 258.949 106.98 258.972C106.81 261.475 106.686 264.147 106.663 266.82C106.663 266.843 106.663 266.843 106.686 266.843C107.349 266.892 123.213 269.637 123.409 269.686C123.605 269.663 140.005 267.114 140.642 266.794C140.642 266.771 140.642 266.771 140.642 266.745Z" fill="#FFC930"/>
<path d="M140.792 199.517C131.009 187.895 100.141 181.765 99.9678 181.739H86.3126H86.2867C86.0675 181.961 81.0909 187.036 79.5688 195.593C77.7551 206.134 85.8714 215.502 96.5856 215.502H118.7C118.723 215.502 118.723 215.525 118.723 215.525C114.433 223.984 111.074 233.13 108.917 244.309C108.917 244.334 108.917 244.334 108.941 244.334L133.581 245.021C133.581 245.021 133.607 245.021 133.607 244.995C137.554 232.052 148.758 209.003 140.792 199.517Z" fill="#EE7C97"/>
<path opacity="0.2" d="M123.014 208.097C124.167 203.954 106.735 215.502 102.421 215.502H118.723H118.749C118.87 215.257 120.906 211.774 123.014 208.097Z" fill="#623C54"/>
<path d="M106.636 266.869C106.613 268.437 106.662 269.98 106.685 271.6C106.685 271.623 106.685 271.623 106.711 271.623H141.844C141.87 271.623 141.87 271.623 141.87 271.6C141.87 269.539 141.38 268.019 140.642 266.794H140.618L106.662 266.869C106.662 266.843 106.636 266.843 106.636 266.869Z" fill="#AFC967"/>
<path d="M140.641 266.795C138.043 262.504 132.332 261.351 132.283 252.624C132.283 252.133 132.283 251.617 132.332 251.078C132.43 249.51 132.871 247.425 133.632 244.998C137.579 232.054 148.807 208.983 140.814 199.494C137.037 195.007 130.126 191.354 123.039 188.509" stroke="#623C54" stroke-width="1.03195" stroke-linecap="round" stroke-linejoin="round"/>
<path d="M137.335 176.566C141.821 178.798 145.964 182.255 149.127 186.326C150.549 188.163 153.637 192.012 151.431 192.505C149.739 192.897 145.792 188.924 145.154 188.287C145.131 188.261 145.105 188.287 145.105 188.31C145.448 189.218 147.729 195.299 146.259 196.524C145.131 197.481 143.635 196.132 143.439 195.936C143.439 195.936 143.413 195.936 143.39 195.936C142.04 198.805 139.956 196.55 139.76 196.328H139.737C135.421 199.736 132.725 189.587 132.627 189.195C132.627 189.195 132.627 189.169 132.601 189.169C130.493 188.434 128.556 187.404 126.719 186.104C126.719 186.104 126.719 186.104 126.693 186.104C126.569 186.13 125.295 186.398 123.53 186.79C123.507 186.79 123.507 186.79 123.507 186.767L123.213 179.951L125.295 173.06L125.32 173.037C129.807 173.87 134.244 175.024 137.335 176.566Z" fill="#FAA378"/>
<path d="M144.517 137.019C143.34 141.825 142.481 145.795 142.383 146.164C142.383 146.188 142.36 146.188 142.36 146.188C141.55 145.919 140.766 145.648 140.005 145.403C124.363 140.207 116.051 140.035 115.684 139.962C115.586 139.937 109.874 138.097 109.678 138.048L98.768 139.962C98.719 139.962 93.5438 139.913 92.4654 139.913C92.3442 139.913 92.1971 139.913 92.0733 139.937C80.967 141.309 80.7709 151.902 84.2769 162.518C83.957 167.789 82.9277 169.285 82.9535 173.919C82.9535 177.131 85.5772 178.578 85.6752 178.627L92.8085 179.411C92.8085 179.411 92.8085 179.434 92.8343 179.434C93.6676 180.588 94.4751 181.617 95.2362 182.476C96.2656 183.603 97.1969 184.46 98.007 184.927C104.062 189.978 117.498 188.064 123.506 186.864C123.506 186.864 123.53 186.864 123.53 186.839C123.604 186.348 125.245 173.673 125.32 173.108C125.32 173.108 125.32 173.085 125.294 173.085C124.167 172.889 123.014 172.693 121.886 172.52C121.863 172.52 121.863 172.497 121.863 172.497C122.523 167.224 123.186 161.953 123.236 161.512C123.236 161.489 123.261 161.489 123.261 161.489C123.726 161.61 130.175 163.473 136.966 164.407C141.697 165.067 146.601 165.263 149.715 164.11C156.286 161.685 158.812 150.873 159.717 141.652C159.717 141.652 159.717 141.629 159.694 141.629L144.543 136.996C144.517 136.996 144.517 136.996 144.517 137.019Z" fill="#AFC967"/>
<path d="M124.438 120.251C124.216 119.369 122.304 119.441 122.082 119.441C122.059 119.441 122.059 119.441 122.059 119.418C121.814 117.994 121.569 116.5 121.249 115.151C120.661 112.749 118.772 111.472 117.155 109.903C115.194 107.943 111.074 106.57 104.944 108.802C97.6381 112.086 98.6933 115.912 98.9152 120.398C99.0132 122.385 97.8342 129.91 98.2522 134.396C98.3502 135.452 98.4482 136.36 98.5205 136.971C98.5721 137.363 98.5953 137.608 98.5953 137.732C98.5953 137.755 98.6211 137.755 98.6211 137.755L115.341 136.997C115.364 136.997 115.364 136.997 115.364 136.971C115.315 136.628 115.021 134.593 114.972 134.324C114.972 134.298 114.972 134.298 114.998 134.298C120.612 134.985 122.451 132.606 123.285 130.524C124.216 128.169 123.628 125.3 122.892 122.679V122.653C123.014 122.532 124.657 121.353 124.438 120.251Z" fill="#FAA378"/>
<path d="M98.226 134.399C98.0557 132.438 97.1967 122.704 97.0754 120.351C96.8535 115.79 97.5888 110.641 104.872 107.38C109.309 105.592 115.707 106.327 118.233 109C120.023 110.788 120.735 113.045 121.249 115.127V115.153C121.151 115.251 120.268 115.986 118.21 116.012C117.719 116.061 116.958 115.816 116.517 115.888C116.494 115.888 116.494 115.914 116.494 115.914C116.592 116.917 116.445 117.653 115.978 118.143C115.364 118.976 113.599 118.659 113.011 118.463C112.988 118.463 112.988 118.463 112.988 118.486C113.256 121.11 112.299 122.681 111.884 123.243C111.786 123.367 111.613 123.416 111.466 123.318C110.119 122.459 105.287 120.155 103.326 123.096C100.948 126.553 106.097 130.746 106.466 131.016C106.466 131.016 106.489 131.04 106.466 131.04C103.94 134.375 98.275 134.399 98.226 134.399Z" fill="#231F20"/>
<path opacity="0.2" d="M114.924 134.277C114.727 134.251 112.865 133.885 110.169 132.634C110.143 132.634 110.12 132.657 110.143 132.683L114.851 137.44H114.874L115.316 136.999V136.973L114.924 134.277C114.924 134.277 114.949 134.3 114.924 134.277Z" fill="black"/>
<path d="M118.798 215.452L123.014 208.097" stroke="#623C54" stroke-width="1.03195" stroke-linecap="round" stroke-linejoin="round"/>
<path d="M151.751 257.942L148.611 259.217" stroke="#423615" stroke-width="1.03195" stroke-linecap="round" stroke-linejoin="round"/>
<path d="M153.809 260.543L151.159 262.723" stroke="#423615" stroke-width="1.03195" stroke-linecap="round" stroke-linejoin="round"/>
<path d="M133.264 257.942L129.905 259.217" stroke="#423615" stroke-width="1.03195" stroke-linecap="round" stroke-linejoin="round"/>
<path d="M134.907 260.666L132.454 262.724" stroke="#423615" stroke-width="1.03195" stroke-linecap="round" stroke-linejoin="round"/>
<path d="M80.0101 193.632H86.385" stroke="#623C54" stroke-width="1.03195" stroke-linecap="round" stroke-linejoin="round"/>
<path d="M115.684 139.94L115.341 137.023C115.341 136.999 115.341 136.999 115.315 136.999C111.711 136.999 102.248 136.974 98.5203 136.974C98.4971 136.974 98.4971 136.974 98.4971 136.999C98.5204 137.268 98.7422 139.572 98.768 139.915C98.768 139.915 98.768 139.94 98.7912 139.94L106.588 143.323H106.613L109.8 138.568C109.8 138.542 109.825 138.542 109.849 138.568L112.521 143.299C112.521 143.323 112.545 143.323 112.57 143.299L115.684 139.94Z" fill="#EE7C97"/>
<path d="M124.193 154.455L123.236 161.493" stroke="black" stroke-width="1.03195" stroke-linecap="round" stroke-linejoin="round"/>
<path d="M109.728 146.609C112.031 146.658 112.031 150.04 109.728 150.089C107.421 150.04 107.421 146.658 109.728 146.609Z" fill="#AFC967"/>
<path d="M154.964 143.766C157.267 143.815 157.267 147.197 154.964 147.246C152.657 147.197 152.657 143.815 154.964 143.766Z" fill="#AFC967"/>
<path d="M142.383 146.189L140.593 154.38" stroke="black" stroke-width="1.03195" stroke-linecap="round" stroke-linejoin="round"/>
<path d="M114.949 134.324C113.577 134.004 111.737 133.392 110.169 132.655" stroke="black" stroke-width="1.03195" stroke-linecap="round" stroke-linejoin="round"/>
<path d="M121.226 125.769C120.834 126.014 119.386 126.21 118.772 125.082" stroke="black" stroke-width="1.03195" stroke-linecap="round" stroke-linejoin="round"/>
<path d="M118.772 119.517C119.706 119.54 119.706 120.913 118.772 120.939C117.841 120.913 117.841 119.54 118.772 119.517Z" fill="#231F20"/>
<path d="M106.908 125.523L109.14 126.798" stroke="black" stroke-width="1.03195" stroke-linecap="round" stroke-linejoin="round"/>
<path d="M109.728 146.609C112.031 146.658 112.031 150.04 109.728 150.089C107.421 150.04 107.421 146.658 109.728 146.609Z" fill="#AFC967"/>
<path d="M145.154 188.289C144.493 186.573 144.615 186.597 143.56 184.414" stroke="black" stroke-width="1.03195" stroke-linecap="round" stroke-linejoin="round"/>
<path d="M139.76 185.714C141.478 189.367 142.703 193.412 143.413 195.912" stroke="black" stroke-width="1.03195" stroke-linecap="round" stroke-linejoin="round"/>
<path d="M135.887 186.94C137.162 189.884 138.926 193.707 139.76 196.356" stroke="black" stroke-width="1.03195" stroke-linecap="round" stroke-linejoin="round"/>
<path opacity="0.2" d="M142.36 146.168C141.723 145.946 140.276 145.456 140.031 145.384C140.005 145.384 140.005 145.384 140.005 145.407L140.57 154.356C140.57 154.382 140.619 154.382 140.619 154.356L142.36 146.168C142.383 146.168 142.383 146.191 142.36 146.168Z" fill="black"/>
<path opacity="0.2" d="M124.193 154.454L123.236 161.443C123.236 161.443 123.236 161.466 123.261 161.466C123.653 161.59 130.126 163.427 136.868 164.384C136.891 164.384 136.917 164.358 136.891 164.335C135.959 163.698 127.405 157.911 124.242 154.431C124.216 154.431 124.193 154.431 124.193 154.454Z" fill="black"/>
<path d="M103.548 160.584L108.156 170.612" stroke="black" stroke-width="1.03195" stroke-linecap="round" stroke-linejoin="round"/>
<path d="M92.2462 178.579C90.43 176.324 86.6556 169.018 86.1165 167.375" stroke="black" stroke-width="1.03195" stroke-linecap="round" stroke-linejoin="round"/>
<path d="M121.887 172.501C114.777 171.42 110.807 170.832 108.157 170.612" stroke="black" stroke-width="1.03195" stroke-linecap="round" stroke-linejoin="round"/>
<path d="M118.675 181.033C120.981 181.082 120.981 184.464 118.675 184.513C116.371 184.464 116.371 181.082 118.675 181.033Z" fill="#AFC967"/>
<path opacity="0.2" d="M86.0906 167.4C85.9435 173.308 86.9006 176.814 87.5869 178.579L87.6101 178.605H92.1971C92.2203 178.605 92.2203 178.579 92.2203 178.556C90.0868 175.442 87.9042 171.544 86.1396 167.4C86.1164 167.351 86.0906 167.375 86.0906 167.4Z" fill="black"/>
<path opacity="0.2" d="M103.548 160.584C103.523 160.559 103.499 160.584 103.499 160.608L108.156 170.612C108.156 170.612 111.002 170.832 113.233 171.249C113.256 171.249 103.548 160.584 103.548 160.584Z" fill="black"/>
<path d="M92.2456 178.579H87.5863H85.6747C85.6489 178.579 85.6489 178.579 85.6489 178.604V182.43C85.6489 182.454 85.6489 182.454 85.6747 182.454H95.1866C95.2124 182.454 95.2124 182.43 95.2124 182.405C94.4514 181.545 93.6413 180.542 92.8338 179.415C92.6377 179.144 92.4417 178.875 92.2456 178.579Z" fill="#AFC967"/>
</g>
<defs>
<clipPath id="clip0_94_1786">
<rect width="428" height="320.935" fill="white"/>
</clipPath>
</defs>
</svg>
