<svg width="428" height="547" viewBox="0 0 428 547" fill="none" xmlns="http://www.w3.org/2000/svg">
<path d="M0 16C0 7.16344 7.16344 0 16 0H412C420.837 0 428 7.16344 428 16V547H0V16Z" fill="white"/>
<path d="M39.1329 72.552C39.1329 74.216 40.1089 75.304 41.9969 75.736L43.9009 76.168C45.0049 76.424 45.5009 77 45.5009 77.912C45.5009 79.064 44.5249 79.784 42.9889 79.784C41.5329 79.784 40.6049 79.08 40.5729 77.976H38.9729C39.0689 79.96 40.6369 81.192 42.9889 81.192C45.4529 81.192 47.0689 79.864 47.0689 77.784C47.0689 76.152 46.1089 75.128 44.2209 74.696L42.3169 74.248C41.2289 73.992 40.7009 73.432 40.7009 72.504C40.7009 71.368 41.6449 70.632 43.1009 70.632C44.3969 70.632 45.2129 71.304 45.2929 72.456H46.8769C46.7489 70.456 45.3249 69.224 43.1169 69.224C40.7329 69.224 39.1329 70.568 39.1329 72.552ZM52.1593 81.192C54.0953 81.192 55.4073 80.248 55.7913 78.568H54.3833C54.1273 79.464 53.3593 79.944 52.1913 79.944C50.7033 79.944 49.8393 79.032 49.7273 77.384L55.7753 77.368V76.808C55.7753 74.488 54.3193 72.952 52.0953 72.952C49.8233 72.952 48.2713 74.648 48.2713 77.096C48.2713 79.528 49.8553 81.192 52.1593 81.192ZM52.0953 74.216C53.4233 74.216 54.2713 75.08 54.2713 76.376H49.7593C49.9513 75 50.7833 74.216 52.0953 74.216ZM58.9912 81V69.224H57.4872V81H58.9912ZM64.5812 81.192C66.5172 81.192 67.8292 80.248 68.2132 78.568H66.8052C66.5492 79.464 65.7812 79.944 64.6132 79.944C63.1252 79.944 62.2612 79.032 62.1492 77.384L68.1972 77.368V76.808C68.1972 74.488 66.7412 72.952 64.5172 72.952C62.2452 72.952 60.6932 74.648 60.6932 77.096C60.6932 79.528 62.2772 81.192 64.5812 81.192ZM64.5172 74.216C65.8452 74.216 66.6932 75.08 66.6932 76.376H62.1812C62.3732 75 63.2052 74.216 64.5172 74.216ZM69.3651 77.096C69.3651 79.56 70.8851 81.192 73.1891 81.192C75.0771 81.192 76.5331 80.056 76.8371 78.36H75.3331C75.0611 79.288 74.2611 79.848 73.1891 79.848C71.7651 79.848 70.8531 78.76 70.8531 77.08C70.8531 75.384 71.8291 74.296 73.2531 74.296C74.2611 74.296 75.0611 74.824 75.3171 75.816H76.8211C76.5491 74.072 75.1731 72.952 73.2051 72.952C70.9171 72.952 69.3651 74.648 69.3651 77.096ZM80.6319 81V74.44H82.1679V73.176H80.6319V70.728H79.1279V73.176H77.5919V74.44H79.1279V81H80.6319ZM90.1007 81V74.44H91.6367V73.176H90.1007V70.728H88.5967V73.176H87.0607V74.44H88.5967V81H90.1007ZM94.4904 80.984V76.728C94.4904 75.384 95.2744 74.328 96.7304 74.328C97.8504 74.328 98.6024 74.968 98.6024 76.552V81H100.106V76.216C100.106 74.216 99.1464 72.952 97.1464 72.952C95.9304 72.952 94.9864 73.528 94.4904 74.376V69.224H92.9864V80.984H94.4904ZM105.566 81.192C107.502 81.192 108.814 80.248 109.198 78.568H107.79C107.534 79.464 106.766 79.944 105.598 79.944C104.11 79.944 103.246 79.032 103.134 77.384L109.182 77.368V76.808C109.182 74.488 107.726 72.952 105.502 72.952C103.23 72.952 101.678 74.648 101.678 77.096C101.678 79.528 103.262 81.192 105.566 81.192ZM105.502 74.216C106.83 74.216 107.678 75.08 107.678 76.376H103.166C103.358 75 104.19 74.216 105.502 74.216ZM114.724 77.096C114.724 79.56 116.244 81.192 118.548 81.192C120.436 81.192 121.892 80.056 122.196 78.36H120.692C120.42 79.288 119.62 79.848 118.548 79.848C117.124 79.848 116.212 78.76 116.212 77.08C116.212 75.384 117.188 74.296 118.612 74.296C119.62 74.296 120.42 74.824 120.676 75.816H122.18C121.908 74.072 120.532 72.952 118.564 72.952C116.276 72.952 114.724 74.648 114.724 77.096ZM123.271 77.08C123.271 79.496 124.999 81.192 127.351 81.192C129.687 81.192 131.415 79.496 131.415 77.08C131.415 74.664 129.687 72.968 127.351 72.968C124.999 72.968 123.271 74.664 123.271 77.08ZM124.791 77.08C124.791 75.448 125.831 74.312 127.351 74.312C128.855 74.312 129.911 75.448 129.911 77.08C129.911 78.712 128.855 79.848 127.351 79.848C125.831 79.848 124.791 78.712 124.791 77.08ZM137.56 73.112C137.256 73.048 137.032 73.016 136.76 73.016C135.688 73.016 134.904 73.56 134.584 74.376L134.488 73.192H133.08V81H134.584V76.856C134.584 75.352 135.464 74.488 136.888 74.488H137.56V73.112ZM143.451 73.112C143.147 73.048 142.923 73.016 142.651 73.016C141.579 73.016 140.795 73.56 140.475 74.376L140.379 73.192H138.971V81H140.475V76.856C140.475 75.352 141.355 74.488 142.779 74.488H143.451V73.112ZM147.956 81.192C149.892 81.192 151.204 80.248 151.588 78.568H150.18C149.924 79.464 149.156 79.944 147.988 79.944C146.5 79.944 145.636 79.032 145.524 77.384L151.572 77.368V76.808C151.572 74.488 150.116 72.952 147.892 72.952C145.62 72.952 144.068 74.648 144.068 77.096C144.068 79.528 145.652 81.192 147.956 81.192ZM147.892 74.216C149.22 74.216 150.068 75.08 150.068 76.376H145.556C145.748 75 146.58 74.216 147.892 74.216ZM152.74 77.096C152.74 79.56 154.26 81.192 156.564 81.192C158.452 81.192 159.908 80.056 160.212 78.36H158.708C158.436 79.288 157.636 79.848 156.564 79.848C155.14 79.848 154.228 78.76 154.228 77.08C154.228 75.384 155.204 74.296 156.628 74.296C157.636 74.296 158.436 74.824 158.692 75.816H160.196C159.924 74.072 158.548 72.952 156.58 72.952C154.292 72.952 152.74 74.648 152.74 77.096ZM164.007 81V74.44H165.543V73.176H164.007V70.728H162.503V73.176H160.967V74.44H162.503V81H164.007ZM173.556 81.192C174.82 81.192 175.892 80.632 176.292 79.736L176.452 81H177.732V76.088C177.732 73.976 176.42 72.952 174.484 72.952C172.468 72.952 171.124 74.024 171.124 75.656H172.436C172.436 74.712 173.156 74.152 174.42 74.152C175.476 74.152 176.26 74.616 176.26 75.928V76.152L173.796 76.344C171.956 76.488 170.884 77.384 170.884 78.824C170.884 80.248 171.876 81.192 173.556 81.192ZM173.988 80.024C173.012 80.024 172.404 79.608 172.404 78.776C172.404 78.008 172.948 77.496 174.276 77.368L176.276 77.208V77.624C176.276 79.096 175.412 80.024 173.988 80.024ZM181.319 81V76.856C181.319 75.336 182.135 74.328 183.543 74.328C184.695 74.328 185.431 74.968 185.431 76.552V81H186.935V76.216C186.935 74.216 185.991 72.952 183.927 72.952C182.823 72.952 181.831 73.48 181.335 74.376L181.175 73.176H179.815V81H181.319ZM188.284 78.728C188.284 80.216 189.452 81.192 191.292 81.192C193.148 81.192 194.428 80.248 194.428 78.76C194.428 77.592 193.772 76.984 192.444 76.664L191.068 76.328C190.3 76.136 189.916 75.784 189.916 75.256C189.916 74.536 190.444 74.12 191.388 74.12C192.3 74.12 192.828 74.616 192.86 75.4H194.3C194.268 73.912 193.148 72.952 191.436 72.952C189.708 72.952 188.492 73.864 188.492 75.304C188.492 76.456 189.148 77.144 190.54 77.48L191.916 77.8C192.732 78.008 192.988 78.328 192.988 78.856C192.988 79.576 192.38 80.008 191.324 80.008C190.332 80.008 189.724 79.528 189.724 78.728H188.284ZM197.588 81H199.076L200.436 76.824C200.724 75.88 200.868 75.368 200.948 74.984C201.028 75.416 201.188 76.024 201.444 76.808L202.804 81H204.228L206.9 73.176H205.332L204.02 77.24C203.796 77.928 203.652 78.472 203.524 79.096C203.396 78.536 203.14 77.624 203.012 77.24L201.716 73.176H200.18L198.868 77.24C198.692 77.752 198.484 78.408 198.356 79.096C198.212 78.408 198.052 77.816 197.876 77.24L196.58 73.176H195.028L197.588 81ZM211.206 81.192C213.142 81.192 214.454 80.248 214.838 78.568H213.43C213.174 79.464 212.406 79.944 211.238 79.944C209.75 79.944 208.886 79.032 208.774 77.384L214.822 77.368V76.808C214.822 74.488 213.366 72.952 211.142 72.952C208.87 72.952 207.318 74.648 207.318 77.096C207.318 79.528 208.902 81.192 211.206 81.192ZM211.142 74.216C212.47 74.216 213.318 75.08 213.318 76.376H208.806C208.998 75 209.83 74.216 211.142 74.216ZM220.982 73.112C220.678 73.048 220.454 73.016 220.182 73.016C219.11 73.016 218.326 73.56 218.006 74.376L217.91 73.192H216.502V81H218.006V76.856C218.006 75.352 218.886 74.488 220.31 74.488H220.982V73.112ZM225.936 73.176V74.44H227.088V81H228.592V74.44H230.448V73.176H228.592V71.928C228.592 71.08 228.848 70.584 229.824 70.584H230.496V69.288C230.192 69.24 229.856 69.224 229.568 69.224C228.144 69.224 227.088 70.008 227.088 71.928V73.176H225.936ZM236.326 73.112C236.022 73.048 235.798 73.016 235.526 73.016C234.454 73.016 233.67 73.56 233.35 74.376L233.254 73.192H231.846V81H233.35V76.856C233.35 75.352 234.23 74.488 235.654 74.488H236.326V73.112ZM236.943 77.08C236.943 79.496 238.671 81.192 241.023 81.192C243.359 81.192 245.087 79.496 245.087 77.08C245.087 74.664 243.359 72.968 241.023 72.968C238.671 72.968 236.943 74.664 236.943 77.08ZM238.463 77.08C238.463 75.448 239.503 74.312 241.023 74.312C242.527 74.312 243.583 75.448 243.583 77.08C243.583 78.712 242.527 79.848 241.023 79.848C239.503 79.848 238.463 78.712 238.463 77.08ZM248.256 81V76.36C248.256 75.112 249.008 74.328 250.144 74.328C251.2 74.328 251.872 75 251.872 76.232V81H253.36V76.36C253.36 75.112 254.112 74.312 255.248 74.312C256.304 74.312 256.992 75.016 256.992 76.248V81H258.464V75.88C258.464 74.072 257.376 72.952 255.584 72.952C254.368 72.952 253.424 73.56 253.056 74.536C252.656 73.56 251.792 72.952 250.576 72.952C249.472 72.952 248.64 73.464 248.24 74.2L248.096 73.176H246.752V81H248.256ZM264.924 84.504H266.428V79.72C266.94 80.68 267.98 81.208 269.228 81.208C271.548 81.208 272.86 79.416 272.86 77.032C272.86 74.632 271.468 72.952 269.228 72.952C267.98 72.952 266.924 73.512 266.396 74.584L266.284 73.176H264.924V84.504ZM266.444 77.096C266.444 75.464 267.372 74.328 268.908 74.328C270.444 74.328 271.356 75.48 271.356 77.096C271.356 78.696 270.444 79.848 268.908 79.848C267.372 79.848 266.444 78.696 266.444 77.096ZM278.998 73.112C278.694 73.048 278.47 73.016 278.198 73.016C277.126 73.016 276.342 73.56 276.022 74.376L275.926 73.192H274.518V81H276.022V76.856C276.022 75.352 276.902 74.488 278.326 74.488H278.998V73.112ZM279.615 77.08C279.615 79.496 281.343 81.192 283.695 81.192C286.031 81.192 287.759 79.496 287.759 77.08C287.759 74.664 286.031 72.968 283.695 72.968C281.343 72.968 279.615 74.664 279.615 77.08ZM281.135 77.08C281.135 75.448 282.175 74.312 283.695 74.312C285.199 74.312 286.255 75.448 286.255 77.08C286.255 78.712 285.199 79.848 283.695 79.848C282.175 79.848 281.135 78.712 281.135 77.08ZM291.257 81H292.745L296.009 73.176H294.441L292.697 77.544C292.425 78.232 292.169 78.904 292.041 79.416C291.913 78.936 291.689 78.28 291.417 77.544L289.705 73.176H288.105L291.257 81ZM297.941 71.32C298.485 71.32 298.933 70.872 298.933 70.328C298.933 69.768 298.485 69.336 297.941 69.336C297.397 69.336 296.949 69.768 296.949 70.328C296.949 70.872 297.397 71.32 297.941 71.32ZM297.205 81H298.709V73.176H297.205V81ZM304.029 81.192C305.277 81.192 306.333 80.648 306.845 79.576L306.973 81H308.317V69.224H306.829V74.44C306.301 73.48 305.293 72.952 304.093 72.952C301.773 72.952 300.381 74.712 300.381 77.112C300.381 79.496 301.757 81.192 304.029 81.192ZM304.333 79.832C302.797 79.832 301.901 78.68 301.901 77.064C301.901 75.464 302.797 74.312 304.333 74.312C305.869 74.312 306.813 75.464 306.813 77.064C306.813 78.696 305.869 79.832 304.333 79.832ZM313.862 81.192C315.798 81.192 317.11 80.248 317.494 78.568H316.086C315.83 79.464 315.062 79.944 313.894 79.944C312.406 79.944 311.542 79.032 311.43 77.384L317.478 77.368V76.808C317.478 74.488 316.022 72.952 313.798 72.952C311.526 72.952 309.974 74.648 309.974 77.096C309.974 79.528 311.558 81.192 313.862 81.192ZM313.798 74.216C315.126 74.216 315.974 75.08 315.974 76.376H311.462C311.654 75 312.486 74.216 313.798 74.216ZM322.294 81.192C323.542 81.192 324.598 80.648 325.11 79.576L325.238 81H326.582V69.224H325.094V74.44C324.566 73.48 323.558 72.952 322.358 72.952C320.038 72.952 318.646 74.712 318.646 77.112C318.646 79.496 320.022 81.192 322.294 81.192ZM322.598 79.832C321.062 79.832 320.166 78.68 320.166 77.064C320.166 75.464 321.062 74.312 322.598 74.312C324.134 74.312 325.078 75.464 325.078 77.064C325.078 78.696 324.134 79.832 322.598 79.832ZM332.615 77.08C332.615 79.496 334.343 81.192 336.695 81.192C339.031 81.192 340.759 79.496 340.759 77.08C340.759 74.664 339.031 72.968 336.695 72.968C334.343 72.968 332.615 74.664 332.615 77.08ZM334.135 77.08C334.135 75.448 335.175 74.312 336.695 74.312C338.199 74.312 339.255 75.448 339.255 77.08C339.255 78.712 338.199 79.848 336.695 79.848C335.175 79.848 334.135 78.712 334.135 77.08ZM342.424 84.504H343.928V79.72C344.44 80.68 345.48 81.208 346.728 81.208C349.048 81.208 350.36 79.416 350.36 77.032C350.36 74.632 348.968 72.952 346.728 72.952C345.48 72.952 344.424 73.512 343.896 74.584L343.784 73.176H342.424V84.504ZM343.944 77.096C343.944 75.464 344.872 74.328 346.408 74.328C347.944 74.328 348.856 75.48 348.856 77.096C348.856 78.696 347.944 79.848 346.408 79.848C344.872 79.848 343.944 78.696 343.944 77.096ZM354.148 81V74.44H355.684V73.176H354.148V70.728H352.644V73.176H351.108V74.44H352.644V81H354.148ZM357.769 71.32C358.313 71.32 358.761 70.872 358.761 70.328C358.761 69.768 358.313 69.336 357.769 69.336C357.225 69.336 356.777 69.768 356.777 70.328C356.777 70.872 357.225 71.32 357.769 71.32ZM357.033 81H358.537V73.176H357.033V81ZM360.209 77.08C360.209 79.496 361.937 81.192 364.289 81.192C366.625 81.192 368.353 79.496 368.353 77.08C368.353 74.664 366.625 72.968 364.289 72.968C361.937 72.968 360.209 74.664 360.209 77.08ZM361.729 77.08C361.729 75.448 362.769 74.312 364.289 74.312C365.793 74.312 366.849 75.448 366.849 77.08C366.849 78.712 365.793 79.848 364.289 79.848C362.769 79.848 361.729 78.712 361.729 77.08ZM371.522 81V76.856C371.522 75.336 372.338 74.328 373.746 74.328C374.898 74.328 375.634 74.968 375.634 76.552V81H377.138V76.216C377.138 74.216 376.194 72.952 374.13 72.952C373.026 72.952 372.034 73.48 371.538 74.376L371.378 73.176H370.018V81H371.522ZM378.487 78.728C378.487 80.216 379.655 81.192 381.495 81.192C383.351 81.192 384.631 80.248 384.631 78.76C384.631 77.592 383.975 76.984 382.647 76.664L381.271 76.328C380.503 76.136 380.119 75.784 380.119 75.256C380.119 74.536 380.647 74.12 381.591 74.12C382.503 74.12 383.031 74.616 383.063 75.4H384.503C384.471 73.912 383.351 72.952 381.639 72.952C379.911 72.952 378.695 73.864 378.695 75.304C378.695 76.456 379.351 77.144 380.743 77.48L382.119 77.8C382.935 78.008 383.191 78.328 383.191 78.856C383.191 79.576 382.583 80.008 381.527 80.008C380.535 80.008 379.927 79.528 379.927 78.728H378.487ZM387.325 81.192C387.933 81.192 388.461 80.68 388.461 80.072C388.461 79.448 387.933 78.936 387.325 78.936C386.701 78.936 386.173 79.448 386.173 80.072C386.173 80.68 386.701 81.192 387.325 81.192ZM104.512 103L105.536 100.12H110.4L111.44 103H113.088L108.848 91.432H107.104L102.88 103H104.512ZM107.776 93.928C107.856 93.688 107.936 93.416 107.968 93.256C108 93.432 108.08 93.704 108.16 93.928L109.936 98.76H106.016L107.776 93.928ZM115.873 103V98.856C115.873 97.336 116.689 96.328 118.097 96.328C119.249 96.328 119.985 96.968 119.985 98.552V103H121.489V98.216C121.489 96.216 120.545 94.952 118.481 94.952C117.377 94.952 116.385 95.48 115.889 96.376L115.729 95.176H114.369V103H115.873ZM122.839 100.728C122.839 102.216 124.007 103.192 125.847 103.192C127.703 103.192 128.983 102.248 128.983 100.76C128.983 99.592 128.327 98.984 126.999 98.664L125.623 98.328C124.855 98.136 124.471 97.784 124.471 97.256C124.471 96.536 124.999 96.12 125.943 96.12C126.855 96.12 127.383 96.616 127.415 97.4H128.855C128.823 95.912 127.703 94.952 125.991 94.952C124.263 94.952 123.047 95.864 123.047 97.304C123.047 98.456 123.703 99.144 125.095 99.48L126.471 99.8C127.287 100.008 127.543 100.328 127.543 100.856C127.543 101.576 126.935 102.008 125.879 102.008C124.887 102.008 124.279 101.528 124.279 100.728H122.839ZM132.143 103H133.631L134.991 98.824C135.279 97.88 135.423 97.368 135.503 96.984C135.583 97.416 135.743 98.024 135.999 98.808L137.359 103H138.783L141.455 95.176H139.887L138.575 99.24C138.351 99.928 138.207 100.472 138.079 101.096C137.951 100.536 137.695 99.624 137.567 99.24L136.271 95.176H134.735L133.423 99.24C133.247 99.752 133.039 100.408 132.911 101.096C132.767 100.408 132.607 99.816 132.431 99.24L131.135 95.176H129.583L132.143 103ZM145.761 103.192C147.697 103.192 149.009 102.248 149.393 100.568H147.985C147.729 101.464 146.961 101.944 145.793 101.944C144.305 101.944 143.441 101.032 143.329 99.384L149.377 99.368V98.808C149.377 96.488 147.921 94.952 145.697 94.952C143.425 94.952 141.873 96.648 141.873 99.096C141.873 101.528 143.457 103.192 145.761 103.192ZM145.697 96.216C147.025 96.216 147.873 97.08 147.873 98.376H143.361C143.553 97 144.385 96.216 145.697 96.216ZM155.537 95.112C155.233 95.048 155.009 95.016 154.737 95.016C153.665 95.016 152.881 95.56 152.561 96.376L152.465 95.192H151.057V103H152.561V98.856C152.561 97.352 153.441 96.488 154.865 96.488H155.537V95.112ZM160.49 95.176V96.44H161.642V103H163.146V96.44H165.002V95.176H163.146V93.928C163.146 93.08 163.402 92.584 164.378 92.584H165.05V91.288C164.746 91.24 164.41 91.224 164.122 91.224C162.698 91.224 161.642 92.008 161.642 93.928V95.176H160.49ZM168.439 103.192C169.703 103.192 170.775 102.632 171.175 101.736L171.335 103H172.615V98.088C172.615 95.976 171.303 94.952 169.367 94.952C167.351 94.952 166.007 96.024 166.007 97.656H167.319C167.319 96.712 168.039 96.152 169.303 96.152C170.359 96.152 171.143 96.616 171.143 97.928V98.152L168.679 98.344C166.839 98.488 165.767 99.384 165.767 100.824C165.767 102.248 166.759 103.192 168.439 103.192ZM168.871 102.024C167.895 102.024 167.287 101.608 167.287 100.776C167.287 100.008 167.831 99.496 169.159 99.368L171.159 99.208V99.624C171.159 101.096 170.295 102.024 168.871 102.024ZM174.057 100.728C174.057 102.216 175.225 103.192 177.065 103.192C178.921 103.192 180.201 102.248 180.201 100.76C180.201 99.592 179.545 98.984 178.217 98.664L176.841 98.328C176.073 98.136 175.689 97.784 175.689 97.256C175.689 96.536 176.217 96.12 177.161 96.12C178.073 96.12 178.601 96.616 178.633 97.4H180.073C180.041 95.912 178.921 94.952 177.209 94.952C175.481 94.952 174.265 95.864 174.265 97.304C174.265 98.456 174.921 99.144 176.313 99.48L177.689 99.8C178.505 100.008 178.761 100.328 178.761 100.856C178.761 101.576 178.153 102.008 177.097 102.008C176.105 102.008 175.497 101.528 175.497 100.728H174.057ZM184.077 103V96.44H185.613V95.176H184.077V92.728H182.573V95.176H181.037V96.44H182.573V103H184.077ZM193.546 103V96.44H195.082V95.176H193.546V92.728H192.042V95.176H190.506V96.44H192.042V103H193.546ZM195.842 99.08C195.842 101.496 197.57 103.192 199.922 103.192C202.258 103.192 203.986 101.496 203.986 99.08C203.986 96.664 202.258 94.968 199.922 94.968C197.57 94.968 195.842 96.664 195.842 99.08ZM197.362 99.08C197.362 97.448 198.402 96.312 199.922 96.312C201.426 96.312 202.482 97.448 202.482 99.08C202.482 100.712 201.426 101.848 199.922 101.848C198.402 101.848 197.362 100.712 197.362 99.08ZM209.53 98.888C209.53 101.08 210.938 102.792 213.161 102.792C214.394 102.792 215.418 102.248 215.93 101.336V102.904C215.93 104.392 214.97 105.352 213.498 105.352C212.186 105.352 211.322 104.68 211.13 103.528H209.626C209.914 105.512 211.37 106.712 213.498 106.712C215.898 106.712 217.418 105.144 217.418 102.68V95.176H216.074L215.962 96.504C215.466 95.528 214.49 94.952 213.226 94.952C210.954 94.952 209.53 96.68 209.53 98.888ZM211.034 98.856C211.034 97.416 211.93 96.264 213.434 96.264C214.97 96.264 215.866 97.352 215.866 98.856C215.866 100.392 214.938 101.48 213.418 101.48C211.946 101.48 211.034 100.328 211.034 98.856ZM222.964 103.192C224.9 103.192 226.212 102.248 226.596 100.568H225.188C224.932 101.464 224.164 101.944 222.996 101.944C221.508 101.944 220.644 101.032 220.532 99.384L226.58 99.368V98.808C226.58 96.488 225.124 94.952 222.9 94.952C220.628 94.952 219.076 96.648 219.076 99.096C219.076 101.528 220.66 103.192 222.964 103.192ZM222.9 96.216C224.228 96.216 225.076 97.08 225.076 98.376H220.564C220.756 97 221.588 96.216 222.9 96.216ZM230.39 103V96.44H231.926V95.176H230.39V92.728H228.886V95.176H227.35V96.44H228.886V103H230.39ZM241.027 103.192C242.963 103.192 244.275 102.248 244.659 100.568H243.251C242.995 101.464 242.227 101.944 241.059 101.944C239.571 101.944 238.707 101.032 238.595 99.384L244.642 99.368V98.808C244.642 96.488 243.187 94.952 240.963 94.952C238.691 94.952 237.139 96.648 237.139 99.096C237.139 101.528 238.723 103.192 241.027 103.192ZM240.963 96.216C242.291 96.216 243.139 97.08 243.139 98.376H238.627C238.819 97 239.651 96.216 240.963 96.216ZM246.826 103L248.746 100.136L250.698 103H252.442L249.77 99.128L252.49 95.176H250.778L248.842 98.088L246.858 95.176H245.114L247.834 99.128L245.098 103H246.826ZM256.265 103V96.44H257.801V95.176H256.265V92.728H254.761V95.176H253.225V96.44H254.761V103H256.265ZM263.631 95.112C263.327 95.048 263.103 95.016 262.831 95.016C261.759 95.016 260.975 95.56 260.655 96.376L260.559 95.192H259.151V103H260.655V98.856C260.655 97.352 261.535 96.488 262.959 96.488H263.631V95.112ZM267.017 103.192C268.281 103.192 269.353 102.632 269.753 101.736L269.913 103H271.193V98.088C271.193 95.976 269.881 94.952 267.945 94.952C265.929 94.952 264.585 96.024 264.585 97.656H265.897C265.897 96.712 266.617 96.152 267.881 96.152C268.937 96.152 269.721 96.616 269.721 97.928V98.152L267.257 98.344C265.417 98.488 264.345 99.384 264.345 100.824C264.345 102.248 265.337 103.192 267.017 103.192ZM267.449 102.024C266.473 102.024 265.865 101.608 265.865 100.776C265.865 100.008 266.409 99.496 267.737 99.368L269.737 99.208V99.624C269.737 101.096 268.873 102.024 267.449 102.024ZM277.651 106.504H279.155V101.72C279.667 102.68 280.707 103.208 281.955 103.208C284.275 103.208 285.587 101.416 285.587 99.032C285.587 96.632 284.195 94.952 281.955 94.952C280.707 94.952 279.651 95.512 279.123 96.584L279.011 95.176H277.651V106.504ZM279.171 99.096C279.171 97.464 280.099 96.328 281.635 96.328C283.171 96.328 284.083 97.48 284.083 99.096C284.083 100.696 283.171 101.848 281.635 101.848C280.099 101.848 279.171 100.696 279.171 99.096ZM286.732 99.08C286.732 101.496 288.46 103.192 290.812 103.192C293.148 103.192 294.876 101.496 294.876 99.08C294.876 96.664 293.148 94.968 290.812 94.968C288.46 94.968 286.732 96.664 286.732 99.08ZM288.252 99.08C288.252 97.448 289.292 96.312 290.812 96.312C292.316 96.312 293.372 97.448 293.372 99.08C293.372 100.712 292.316 101.848 290.812 101.848C289.292 101.848 288.252 100.712 288.252 99.08ZM297.277 93.32C297.821 93.32 298.269 92.872 298.269 92.328C298.269 91.768 297.821 91.336 297.277 91.336C296.733 91.336 296.285 91.768 296.285 92.328C296.285 92.872 296.733 93.32 297.277 93.32ZM296.541 103H298.045V95.176H296.541V103ZM301.733 103V98.856C301.733 97.336 302.549 96.328 303.957 96.328C305.109 96.328 305.845 96.968 305.845 98.552V103H307.349V98.216C307.349 96.216 306.405 94.952 304.341 94.952C303.237 94.952 302.245 95.48 301.749 96.376L301.589 95.176H300.229V103H301.733ZM311.64 103V96.44H313.176V95.176H311.64V92.728H310.136V95.176H308.6V96.44H310.136V103H311.64ZM313.886 100.728C313.886 102.216 315.054 103.192 316.894 103.192C318.75 103.192 320.03 102.248 320.03 100.76C320.03 99.592 319.374 98.984 318.046 98.664L316.67 98.328C315.902 98.136 315.518 97.784 315.518 97.256C315.518 96.536 316.046 96.12 316.99 96.12C317.902 96.12 318.43 96.616 318.462 97.4H319.902C319.87 95.912 318.75 94.952 317.038 94.952C315.31 94.952 314.094 95.864 314.094 97.304C314.094 98.456 314.75 99.144 316.142 99.48L317.518 99.8C318.334 100.008 318.59 100.328 318.59 100.856C318.59 101.576 317.982 102.008 316.926 102.008C315.934 102.008 315.326 101.528 315.326 100.728H313.886ZM323.537 99.528C323.697 98.344 323.825 96.232 323.825 94.12V91.432H322.097V94.12C322.097 96.2 322.209 98.328 322.369 99.528H323.537ZM322.961 103.224C323.569 103.224 324.097 102.712 324.097 102.088C324.097 101.464 323.569 100.952 322.961 100.952C322.321 100.952 321.809 101.464 321.809 102.088C321.809 102.712 322.321 103.224 322.961 103.224Z" fill="#1A1C20"/>
<rect x="20" y="349" width="388" height="54" rx="8" fill="#FDF0E0"/>
<path d="M52.4632 376.016C54.3032 376.016 55.2632 376.944 55.2632 378.336C55.2632 379.824 54.2872 380.784 52.7832 380.784C51.3272 380.784 50.3992 379.904 50.3992 378.4H48.8472C48.8472 380.8 50.4792 382.192 52.7512 382.192C55.1032 382.192 56.8632 380.704 56.8632 378.368C56.8632 376.288 55.3752 374.96 53.4072 374.72L56.5752 371.696V370.432H49.3912V371.824H54.5912L51.3112 374.976V376.016H52.4632ZM64.6039 382H66.0919L67.4519 377.824C67.7399 376.88 67.8839 376.368 67.9639 375.984C68.0439 376.416 68.2039 377.024 68.4599 377.808L69.8199 382H71.2439L73.9159 374.176H72.3479L71.0359 378.24C70.8119 378.928 70.6679 379.472 70.5399 380.096C70.4119 379.536 70.1559 378.624 70.0279 378.24L68.7319 374.176H67.1959L65.8839 378.24C65.7079 378.752 65.4999 379.408 65.3719 380.096C65.2279 379.408 65.0679 378.816 64.8919 378.24L63.5959 374.176H62.0439L64.6039 382ZM79.6852 374.112C79.3812 374.048 79.1572 374.016 78.8852 374.016C77.8132 374.016 77.0292 374.56 76.7092 375.376L76.6132 374.192H75.2052V382H76.7092V377.856C76.7092 376.352 77.5892 375.488 79.0132 375.488H79.6852V374.112ZM80.3026 378.08C80.3026 380.496 82.0306 382.192 84.3826 382.192C86.7186 382.192 88.4466 380.496 88.4466 378.08C88.4466 375.664 86.7186 373.968 84.3826 373.968C82.0306 373.968 80.3026 375.664 80.3026 378.08ZM81.8226 378.08C81.8226 376.448 82.8626 375.312 84.3826 375.312C85.8866 375.312 86.9426 376.448 86.9426 378.08C86.9426 379.712 85.8866 380.848 84.3826 380.848C82.8626 380.848 81.8226 379.712 81.8226 378.08ZM91.6154 382V377.856C91.6154 376.336 92.4314 375.328 93.8394 375.328C94.9914 375.328 95.7274 375.968 95.7274 377.552V382H97.2314V377.216C97.2314 375.216 96.2874 373.952 94.2234 373.952C93.1194 373.952 92.1274 374.48 91.6314 375.376L91.4714 374.176H90.1114V382H91.6154ZM98.8186 377.888C98.8186 380.08 100.227 381.792 102.451 381.792C103.683 381.792 104.707 381.248 105.219 380.336V381.904C105.219 383.392 104.259 384.352 102.787 384.352C101.475 384.352 100.611 383.68 100.419 382.528H98.9146C99.2026 384.512 100.659 385.712 102.787 385.712C105.187 385.712 106.707 384.144 106.707 381.68V374.176H105.363L105.251 375.504C104.755 374.528 103.779 373.952 102.515 373.952C100.243 373.952 98.8186 375.68 98.8186 377.888ZM100.323 377.856C100.323 376.416 101.219 375.264 102.723 375.264C104.259 375.264 105.155 376.352 105.155 377.856C105.155 379.392 104.227 380.48 102.707 380.48C101.235 380.48 100.323 379.328 100.323 377.856ZM112.74 378.032C112.74 380.416 114.068 382.208 116.372 382.208C117.62 382.208 118.66 381.68 119.188 380.72V385.504H120.676V374.176H119.332L119.204 375.584C118.692 374.512 117.62 373.952 116.388 373.952C114.148 373.952 112.74 375.632 112.74 378.032ZM114.26 378.096C114.26 376.48 115.156 375.328 116.692 375.328C118.228 375.328 119.172 376.464 119.172 378.096C119.172 379.696 118.228 380.848 116.692 380.848C115.156 380.848 114.26 379.696 114.26 378.096ZM128.254 374.176V378.304C128.254 379.984 127.502 380.864 126.126 380.864C124.974 380.864 124.254 380.224 124.254 378.544V374.176H122.75V379.04C122.75 380.96 123.774 382.192 125.598 382.192C126.75 382.192 127.79 381.632 128.238 380.816L128.398 382H129.742V374.176H128.254ZM135.144 382.192C137.08 382.192 138.392 381.248 138.776 379.568H137.368C137.112 380.464 136.344 380.944 135.176 380.944C133.688 380.944 132.824 380.032 132.712 378.384L138.76 378.368V377.808C138.76 375.488 137.304 373.952 135.08 373.952C132.808 373.952 131.256 375.648 131.256 378.096C131.256 380.528 132.84 382.192 135.144 382.192ZM135.08 375.216C136.408 375.216 137.256 376.08 137.256 377.376H132.744C132.936 376 133.768 375.216 135.08 375.216ZM139.8 379.728C139.8 381.216 140.968 382.192 142.808 382.192C144.664 382.192 145.944 381.248 145.944 379.76C145.944 378.592 145.288 377.984 143.96 377.664L142.584 377.328C141.816 377.136 141.432 376.784 141.432 376.256C141.432 375.536 141.96 375.12 142.904 375.12C143.816 375.12 144.344 375.616 144.376 376.4H145.816C145.784 374.912 144.664 373.952 142.952 373.952C141.224 373.952 140.008 374.864 140.008 376.304C140.008 377.456 140.664 378.144 142.056 378.48L143.432 378.8C144.248 379.008 144.504 379.328 144.504 379.856C144.504 380.576 143.896 381.008 142.84 381.008C141.848 381.008 141.24 380.528 141.24 379.728H139.8ZM149.819 382V375.44H151.355V374.176H149.819V371.728H148.315V374.176H146.779V375.44H148.315V382H149.819ZM153.441 372.32C153.985 372.32 154.433 371.872 154.433 371.328C154.433 370.768 153.985 370.336 153.441 370.336C152.897 370.336 152.449 370.768 152.449 371.328C152.449 371.872 152.897 372.32 153.441 372.32ZM152.705 382H154.209V374.176H152.705V382ZM155.881 378.08C155.881 380.496 157.609 382.192 159.961 382.192C162.297 382.192 164.025 380.496 164.025 378.08C164.025 375.664 162.297 373.968 159.961 373.968C157.609 373.968 155.881 375.664 155.881 378.08ZM157.401 378.08C157.401 376.448 158.441 375.312 159.961 375.312C161.465 375.312 162.521 376.448 162.521 378.08C162.521 379.712 161.465 380.848 159.961 380.848C158.441 380.848 157.401 379.712 157.401 378.08ZM167.194 382V377.856C167.194 376.336 168.01 375.328 169.418 375.328C170.57 375.328 171.306 375.968 171.306 377.552V382H172.81V377.216C172.81 375.216 171.866 373.952 169.802 373.952C168.698 373.952 167.706 374.48 167.21 375.376L167.05 374.176H165.69V382H167.194ZM174.159 379.728C174.159 381.216 175.327 382.192 177.167 382.192C179.023 382.192 180.303 381.248 180.303 379.76C180.303 378.592 179.647 377.984 178.319 377.664L176.943 377.328C176.175 377.136 175.791 376.784 175.791 376.256C175.791 375.536 176.319 375.12 177.263 375.12C178.175 375.12 178.703 375.616 178.735 376.4H180.175C180.143 374.912 179.023 373.952 177.311 373.952C175.583 373.952 174.367 374.864 174.367 376.304C174.367 377.456 175.023 378.144 176.415 378.48L177.791 378.8C178.607 379.008 178.863 379.328 178.863 379.856C178.863 380.576 178.255 381.008 177.199 381.008C176.207 381.008 175.599 380.528 175.599 379.728H174.159ZM187.082 372.32C187.626 372.32 188.074 371.872 188.074 371.328C188.074 370.768 187.626 370.336 187.082 370.336C186.538 370.336 186.09 370.768 186.09 371.328C186.09 371.872 186.538 372.32 187.082 372.32ZM186.346 382H187.85V374.176H186.346V382ZM191.537 382V377.856C191.537 376.336 192.353 375.328 193.761 375.328C194.913 375.328 195.649 375.968 195.649 377.552V382H197.153V377.216C197.153 375.216 196.209 373.952 194.145 373.952C193.041 373.952 192.049 374.48 191.553 375.376L191.393 374.176H190.033V382H191.537ZM205.899 382.192C207.163 382.192 208.235 381.632 208.635 380.736L208.795 382H210.075V377.088C210.075 374.976 208.763 373.952 206.827 373.952C204.811 373.952 203.467 375.024 203.467 376.656H204.779C204.779 375.712 205.499 375.152 206.763 375.152C207.819 375.152 208.603 375.616 208.603 376.928V377.152L206.139 377.344C204.299 377.488 203.227 378.384 203.227 379.824C203.227 381.248 204.219 382.192 205.899 382.192ZM206.331 381.024C205.355 381.024 204.747 380.608 204.747 379.776C204.747 379.008 205.291 378.496 206.619 378.368L208.619 378.208V378.624C208.619 380.096 207.755 381.024 206.331 381.024ZM221.013 374.112C220.709 374.048 220.485 374.016 220.213 374.016C219.141 374.016 218.357 374.56 218.037 375.376L217.941 374.192H216.533V382H218.037V377.856C218.037 376.352 218.917 375.488 220.341 375.488H221.013V374.112ZM221.631 378.08C221.631 380.496 223.359 382.192 225.711 382.192C228.047 382.192 229.775 380.496 229.775 378.08C229.775 375.664 228.047 373.968 225.711 373.968C223.359 373.968 221.631 375.664 221.631 378.08ZM223.151 378.08C223.151 376.448 224.191 375.312 225.711 375.312C227.215 375.312 228.271 376.448 228.271 378.08C228.271 379.712 227.215 380.848 225.711 380.848C224.191 380.848 223.151 379.712 223.151 378.08ZM232.76 382H234.248L235.608 377.824C235.896 376.88 236.04 376.368 236.12 375.984C236.2 376.416 236.36 377.024 236.616 377.808L237.976 382H239.4L242.072 374.176H240.504L239.192 378.24C238.968 378.928 238.824 379.472 238.696 380.096C238.568 379.536 238.312 378.624 238.184 378.24L236.888 374.176H235.352L234.04 378.24C233.864 378.752 233.656 379.408 233.528 380.096C233.384 379.408 233.224 378.816 233.048 378.24L231.752 374.176H230.2L232.76 382ZM250.024 382.192C251.288 382.192 252.36 381.632 252.76 380.736L252.92 382H254.2V377.088C254.2 374.976 252.888 373.952 250.952 373.952C248.936 373.952 247.592 375.024 247.592 376.656H248.904C248.904 375.712 249.624 375.152 250.888 375.152C251.944 375.152 252.728 375.616 252.728 376.928V377.152L250.264 377.344C248.424 377.488 247.352 378.384 247.352 379.824C247.352 381.248 248.344 382.192 250.024 382.192ZM250.456 381.024C249.48 381.024 248.872 380.608 248.872 379.776C248.872 379.008 249.416 378.496 250.744 378.368L252.744 378.208V378.624C252.744 380.096 251.88 381.024 250.456 381.024ZM257.787 382V377.856C257.787 376.336 258.603 375.328 260.011 375.328C261.163 375.328 261.899 375.968 261.899 377.552V382H263.403V377.216C263.403 375.216 262.459 373.952 260.395 373.952C259.291 373.952 258.299 374.48 257.803 375.376L257.643 374.176H256.283V382H257.787ZM268.622 382.192C269.87 382.192 270.926 381.648 271.438 380.576L271.566 382H272.91V370.224H271.422V375.44C270.894 374.48 269.886 373.952 268.686 373.952C266.366 373.952 264.974 375.712 264.974 378.112C264.974 380.496 266.35 382.192 268.622 382.192ZM268.926 380.832C267.39 380.832 266.494 379.68 266.494 378.064C266.494 376.464 267.39 375.312 268.926 375.312C270.462 375.312 271.406 376.464 271.406 378.064C271.406 379.696 270.462 380.832 268.926 380.832ZM280.191 372.32C280.735 372.32 281.183 371.872 281.183 371.328C281.183 370.768 280.735 370.336 280.191 370.336C279.647 370.336 279.199 370.768 279.199 371.328C279.199 371.872 279.647 372.32 280.191 372.32ZM279.455 382H280.959V374.176H279.455V382ZM285.351 382V375.44H286.887V374.176H285.351V371.728H283.847V374.176H282.311V375.44H283.847V382H285.351ZM287.596 379.728C287.596 381.216 288.764 382.192 290.604 382.192C292.46 382.192 293.74 381.248 293.74 379.76C293.74 378.592 293.084 377.984 291.756 377.664L290.38 377.328C289.612 377.136 289.228 376.784 289.228 376.256C289.228 375.536 289.756 375.12 290.7 375.12C291.612 375.12 292.14 375.616 292.172 376.4H293.612C293.58 374.912 292.46 373.952 290.748 373.952C289.02 373.952 287.804 374.864 287.804 376.304C287.804 377.456 288.46 378.144 289.852 378.48L291.228 378.8C292.044 379.008 292.3 379.328 292.3 379.856C292.3 380.576 291.692 381.008 290.636 381.008C289.644 381.008 289.036 380.528 289.036 379.728H287.596ZM299.287 377.888C299.287 380.08 300.695 381.792 302.919 381.792C304.151 381.792 305.175 381.248 305.687 380.336V381.904C305.687 383.392 304.727 384.352 303.255 384.352C301.943 384.352 301.079 383.68 300.887 382.528H299.383C299.671 384.512 301.127 385.712 303.255 385.712C305.655 385.712 307.175 384.144 307.175 381.68V374.176H305.831L305.719 375.504C305.223 374.528 304.247 373.952 302.983 373.952C300.711 373.952 299.287 375.68 299.287 377.888ZM300.791 377.856C300.791 376.416 301.687 375.264 303.191 375.264C304.727 375.264 305.623 376.352 305.623 377.856C305.623 379.392 304.695 380.48 303.175 380.48C301.703 380.48 300.791 379.328 300.791 377.856ZM311.634 382.192C312.898 382.192 313.97 381.632 314.37 380.736L314.53 382H315.81V377.088C315.81 374.976 314.498 373.952 312.562 373.952C310.546 373.952 309.202 375.024 309.202 376.656H310.514C310.514 375.712 311.234 375.152 312.498 375.152C313.554 375.152 314.338 375.616 314.338 376.928V377.152L311.874 377.344C310.034 377.488 308.962 378.384 308.962 379.824C308.962 381.248 309.954 382.192 311.634 382.192ZM312.066 381.024C311.09 381.024 310.482 380.608 310.482 379.776C310.482 379.008 311.026 378.496 312.354 378.368L314.354 378.208V378.624C314.354 380.096 313.49 381.024 312.066 381.024ZM319.397 382V377.36C319.397 376.112 320.149 375.328 321.285 375.328C322.341 375.328 323.013 376 323.013 377.232V382H324.501V377.36C324.501 376.112 325.253 375.312 326.389 375.312C327.445 375.312 328.133 376.016 328.133 377.248V382H329.605V376.88C329.605 375.072 328.517 373.952 326.725 373.952C325.509 373.952 324.565 374.56 324.197 375.536C323.797 374.56 322.933 373.952 321.717 373.952C320.613 373.952 319.781 374.464 319.381 375.2L319.237 374.176H317.893V382H319.397ZM335.066 382.192C337.002 382.192 338.314 381.248 338.698 379.568H337.29C337.034 380.464 336.266 380.944 335.098 380.944C333.61 380.944 332.746 380.032 332.634 378.384L338.682 378.368V377.808C338.682 375.488 337.226 373.952 335.002 373.952C332.73 373.952 331.178 375.648 331.178 378.096C331.178 380.528 332.762 382.192 335.066 382.192ZM335.002 375.216C336.33 375.216 337.178 376.08 337.178 377.376H332.666C332.858 376 333.69 375.216 335.002 375.216ZM344.224 378.08C344.224 380.496 345.952 382.192 348.304 382.192C350.64 382.192 352.368 380.496 352.368 378.08C352.368 375.664 350.64 373.968 348.304 373.968C345.952 373.968 344.224 375.664 344.224 378.08ZM345.744 378.08C345.744 376.448 346.784 375.312 348.304 375.312C349.808 375.312 350.864 376.448 350.864 378.08C350.864 379.712 349.808 380.848 348.304 380.848C346.784 380.848 345.744 379.712 345.744 378.08ZM355.866 382H357.354L360.618 374.176H359.05L357.306 378.544C357.034 379.232 356.778 379.904 356.65 380.416C356.522 379.936 356.298 379.28 356.026 378.544L354.314 374.176H352.714L355.866 382ZM364.831 382.192C366.767 382.192 368.079 381.248 368.463 379.568H367.055C366.799 380.464 366.031 380.944 364.863 380.944C363.375 380.944 362.511 380.032 362.399 378.384L368.447 378.368V377.808C368.447 375.488 366.991 373.952 364.767 373.952C362.495 373.952 360.943 375.648 360.943 378.096C360.943 380.528 362.527 382.192 364.831 382.192ZM364.767 375.216C366.095 375.216 366.943 376.08 366.943 377.376H362.431C362.623 376 363.455 375.216 364.767 375.216ZM374.607 374.112C374.303 374.048 374.079 374.016 373.807 374.016C372.735 374.016 371.951 374.56 371.631 375.376L371.535 374.192H370.127V382H371.631V377.856C371.631 376.352 372.511 375.488 373.935 375.488H374.607V374.112ZM377.858 378.528C378.018 377.344 378.146 375.232 378.146 373.12V370.432H376.418V373.12C376.418 375.2 376.53 377.328 376.69 378.528H377.858ZM377.282 382.224C377.89 382.224 378.418 381.712 378.418 381.088C378.418 380.464 377.89 379.952 377.282 379.952C376.642 379.952 376.13 380.464 376.13 381.088C376.13 381.712 376.642 382.224 377.282 382.224Z" fill="#1A1C20"/>
<path d="M26.304 144.712C27.84 144.712 29.12 145.448 29.552 146.92H31.216C30.832 144.696 28.864 143.24 26.336 143.24C22.928 143.24 20.656 145.736 20.656 149.256C20.656 152.824 22.912 155.192 26.192 155.192C27.888 155.192 29.296 154.456 29.92 153.448L30.032 155.016H31.344V148.632H26V150.024H29.872V150.36C29.872 152.696 28.288 153.704 26.32 153.704C23.936 153.704 22.304 152.088 22.304 149.288C22.304 146.552 23.808 144.712 26.304 144.712ZM36.6984 155.192C38.6344 155.192 39.9464 154.248 40.3304 152.568H38.9224C38.6664 153.464 37.8984 153.944 36.7304 153.944C35.2424 153.944 34.3784 153.032 34.2664 151.384L40.3144 151.368V150.808C40.3144 148.488 38.8584 146.952 36.6344 146.952C34.3624 146.952 32.8104 148.648 32.8104 151.096C32.8104 153.528 34.3944 155.192 36.6984 155.192ZM36.6344 148.216C37.9624 148.216 38.8104 149.08 38.8104 150.376H34.2984C34.4904 149 35.3224 148.216 36.6344 148.216ZM44.1241 155V148.44H45.6601V147.176H44.1241V144.728H42.6201V147.176H41.0841V148.44H42.6201V155H44.1241ZM56.1369 150.872C58.3929 150.872 59.8649 149.304 59.8649 147.144C59.8649 144.92 58.4089 143.432 56.1369 143.432H51.6409V155H53.2089V150.872H56.1369ZM55.8649 144.84C57.3369 144.84 58.2169 145.672 58.2169 147.128C58.2169 148.552 57.3529 149.464 55.8009 149.464H53.2089V144.84H55.8649ZM60.5135 151.08C60.5135 153.496 62.2415 155.192 64.5935 155.192C66.9295 155.192 68.6575 153.496 68.6575 151.08C68.6575 148.664 66.9295 146.968 64.5935 146.968C62.2415 146.968 60.5135 148.664 60.5135 151.08ZM62.0335 151.08C62.0335 149.448 63.0735 148.312 64.5935 148.312C66.0975 148.312 67.1535 149.448 67.1535 151.08C67.1535 152.712 66.0975 153.848 64.5935 153.848C63.0735 153.848 62.0335 152.712 62.0335 151.08ZM71.0584 145.32C71.6024 145.32 72.0504 144.872 72.0504 144.328C72.0504 143.768 71.6024 143.336 71.0584 143.336C70.5144 143.336 70.0664 143.768 70.0664 144.328C70.0664 144.872 70.5144 145.32 71.0584 145.32ZM70.3224 155H71.8264V147.176H70.3224V155ZM75.5139 155V150.856C75.5139 149.336 76.3299 148.328 77.7379 148.328C78.8899 148.328 79.6259 148.968 79.6259 150.552V155H81.1299V150.216C81.1299 148.216 80.1859 146.952 78.1219 146.952C77.0179 146.952 76.0259 147.48 75.5299 148.376L75.3699 147.176H74.0099V155H75.5139ZM85.421 155V148.44H86.957V147.176H85.421V144.728H83.917V147.176H82.381V148.44H83.917V155H85.421ZM87.6668 152.728C87.6668 154.216 88.8348 155.192 90.6748 155.192C92.5308 155.192 93.8108 154.248 93.8108 152.76C93.8108 151.592 93.1548 150.984 91.8268 150.664L90.4508 150.328C89.6828 150.136 89.2988 149.784 89.2988 149.256C89.2988 148.536 89.8268 148.12 90.7708 148.12C91.6828 148.12 92.2108 148.616 92.2428 149.4H93.6828C93.6508 147.912 92.5308 146.952 90.8188 146.952C89.0908 146.952 87.8748 147.864 87.8748 149.304C87.8748 150.456 88.5308 151.144 89.9228 151.48L91.2988 151.8C92.1148 152.008 92.3708 152.328 92.3708 152.856C92.3708 153.576 91.7628 154.008 90.7068 154.008C89.7148 154.008 89.1068 153.528 89.1068 152.728H87.6668ZM99.0216 147.176V148.44H100.174V155H101.678V148.44H103.534V147.176H101.678V145.928C101.678 145.08 101.934 144.584 102.91 144.584H103.582V143.288C103.278 143.24 102.942 143.224 102.654 143.224C101.23 143.224 100.174 144.008 100.174 145.928V147.176H99.0216ZM104.185 151.08C104.185 153.496 105.913 155.192 108.265 155.192C110.601 155.192 112.329 153.496 112.329 151.08C112.329 148.664 110.601 146.968 108.265 146.968C105.913 146.968 104.185 148.664 104.185 151.08ZM105.705 151.08C105.705 149.448 106.745 148.312 108.265 148.312C109.769 148.312 110.825 149.448 110.825 151.08C110.825 152.712 109.769 153.848 108.265 153.848C106.745 153.848 105.705 152.712 105.705 151.08ZM118.474 147.112C118.17 147.048 117.946 147.016 117.674 147.016C116.602 147.016 115.818 147.56 115.498 148.376L115.402 147.192H113.994V155H115.498V150.856C115.498 149.352 116.378 148.488 117.802 148.488H118.474V147.112Z" fill="#1A1C20"/>
<rect x="20" y="180" width="32" height="32" rx="16" fill="#1A1C20"/>
<path d="M41.3332 192L33.9998 199.333L30.6665 196" stroke="white" stroke-width="2" stroke-linecap="round" stroke-linejoin="round"/>
<path d="M62.912 202V197.424H65.872L68.032 202H69.776L67.424 197.12C68.864 196.656 69.664 195.504 69.664 193.904C69.664 191.744 68.192 190.432 65.712 190.432H61.344V202H62.912ZM62.912 191.84H65.712C67.152 191.84 68.016 192.576 68.016 193.92C68.016 195.248 67.184 196.032 65.728 196.032H62.912V191.84ZM72.2928 192.32C72.8368 192.32 73.2848 191.872 73.2848 191.328C73.2848 190.768 72.8368 190.336 72.2928 190.336C71.7488 190.336 71.3008 190.768 71.3008 191.328C71.3008 191.872 71.7488 192.32 72.2928 192.32ZM71.5568 202H73.0608V194.176H71.5568V202ZM74.7483 197.888C74.7483 200.08 76.1562 201.792 78.3802 201.792C79.6123 201.792 80.6363 201.248 81.1483 200.336V201.904C81.1483 203.392 80.1883 204.352 78.7163 204.352C77.4043 204.352 76.5403 203.68 76.3483 202.528H74.8443C75.1323 204.512 76.5883 205.712 78.7163 205.712C81.1163 205.712 82.6363 204.144 82.6363 201.68V194.176H81.2923L81.1803 195.504C80.6843 194.528 79.7083 193.952 78.4443 193.952C76.1723 193.952 74.7483 195.68 74.7483 197.888ZM76.2523 197.856C76.2523 196.416 77.1483 195.264 78.6523 195.264C80.1883 195.264 81.0843 196.352 81.0843 197.856C81.0843 199.392 80.1563 200.48 78.6363 200.48C77.1643 200.48 76.2523 199.328 76.2523 197.856ZM86.3108 201.984V197.728C86.3108 196.384 87.0948 195.328 88.5508 195.328C89.6708 195.328 90.4228 195.968 90.4228 197.552V202H91.9268V197.216C91.9268 195.216 90.9668 193.952 88.9668 193.952C87.7508 193.952 86.8068 194.528 86.3108 195.376V190.224H84.8068V201.984H86.3108ZM96.2179 202V195.44H97.7539V194.176H96.2179V191.728H94.7139V194.176H93.1779V195.44H94.7139V202H96.2179ZM104.215 202L105.239 199.12H110.103L111.143 202H112.791L108.551 190.432H106.807L102.583 202H104.215ZM107.479 192.928C107.559 192.688 107.639 192.416 107.671 192.256C107.703 192.432 107.783 192.704 107.863 192.928L109.639 197.76H105.719L107.479 192.928ZM115.576 202V197.856C115.576 196.336 116.392 195.328 117.8 195.328C118.952 195.328 119.688 195.968 119.688 197.552V202H121.192V197.216C121.192 195.216 120.248 193.952 118.184 193.952C117.08 193.952 116.088 194.48 115.592 195.376L115.432 194.176H114.072V202H115.576ZM122.542 199.728C122.542 201.216 123.71 202.192 125.55 202.192C127.406 202.192 128.686 201.248 128.686 199.76C128.686 198.592 128.03 197.984 126.702 197.664L125.326 197.328C124.558 197.136 124.174 196.784 124.174 196.256C124.174 195.536 124.702 195.12 125.646 195.12C126.558 195.12 127.086 195.616 127.118 196.4H128.558C128.526 194.912 127.406 193.952 125.694 193.952C123.966 193.952 122.75 194.864 122.75 196.304C122.75 197.456 123.406 198.144 124.798 198.48L126.174 198.8C126.99 199.008 127.246 199.328 127.246 199.856C127.246 200.576 126.638 201.008 125.582 201.008C124.59 201.008 123.982 200.528 123.982 199.728H122.542ZM131.846 202H133.334L134.694 197.824C134.982 196.88 135.126 196.368 135.206 195.984C135.286 196.416 135.446 197.024 135.702 197.808L137.062 202H138.486L141.158 194.176H139.59L138.278 198.24C138.054 198.928 137.91 199.472 137.782 200.096C137.654 199.536 137.398 198.624 137.27 198.24L135.974 194.176H134.438L133.126 198.24C132.95 198.752 132.742 199.408 132.614 200.096C132.47 199.408 132.31 198.816 132.134 198.24L130.838 194.176H129.286L131.846 202ZM145.464 202.192C147.4 202.192 148.712 201.248 149.096 199.568H147.688C147.432 200.464 146.664 200.944 145.496 200.944C144.008 200.944 143.144 200.032 143.032 198.384L149.08 198.368V197.808C149.08 195.488 147.624 193.952 145.4 193.952C143.128 193.952 141.576 195.648 141.576 198.096C141.576 200.528 143.16 202.192 145.464 202.192ZM145.4 195.216C146.728 195.216 147.576 196.08 147.576 197.376H143.064C143.256 196 144.088 195.216 145.4 195.216ZM155.24 194.112C154.936 194.048 154.712 194.016 154.44 194.016C153.368 194.016 152.584 194.56 152.264 195.376L152.168 194.192H150.76V202H152.264V197.856C152.264 196.352 153.144 195.488 154.568 195.488H155.24V194.112Z" fill="#696969"/>
<rect x="20" y="227" width="32" height="32" rx="16" fill="#1A1C20"/>
<path d="M40 248.333V241.667" stroke="white" stroke-width="2" stroke-linecap="round" stroke-linejoin="round"/>
<path d="M36 248.333V237.667" stroke="white" stroke-width="2" stroke-linecap="round" stroke-linejoin="round"/>
<path d="M32 248.333V244.333" stroke="white" stroke-width="2" stroke-linecap="round" stroke-linejoin="round"/>
<path d="M66.144 249.176C68.752 249.176 70.816 247.64 71.312 245.336H69.648C69.216 246.76 67.872 247.672 66.176 247.672C63.84 247.672 62.304 245.912 62.304 243.208C62.304 240.504 63.84 238.744 66.176 238.744C67.856 238.744 69.152 239.656 69.584 241.16H71.264C70.832 238.792 68.832 237.24 66.224 237.24C62.912 237.24 60.656 239.656 60.656 243.224C60.656 246.808 62.848 249.176 66.144 249.176ZM72.4666 245.08C72.4666 247.496 74.1946 249.192 76.5466 249.192C78.8826 249.192 80.6106 247.496 80.6106 245.08C80.6106 242.664 78.8826 240.968 76.5466 240.968C74.1946 240.968 72.4666 242.664 72.4666 245.08ZM73.9866 245.08C73.9866 243.448 75.0266 242.312 76.5466 242.312C78.0506 242.312 79.1066 243.448 79.1066 245.08C79.1066 246.712 78.0506 247.848 76.5466 247.848C75.0266 247.848 73.9866 246.712 73.9866 245.08ZM83.7795 249V244.856C83.7795 243.336 84.5955 242.328 86.0035 242.328C87.1555 242.328 87.8915 242.968 87.8915 244.552V249H89.3955V244.216C89.3955 242.216 88.4515 240.952 86.3875 240.952C85.2835 240.952 84.2915 241.48 83.7955 242.376L83.6355 241.176H82.2755V249H83.7795ZM90.7449 246.728C90.7449 248.216 91.9129 249.192 93.7529 249.192C95.6089 249.192 96.8889 248.248 96.8889 246.76C96.8889 245.592 96.2329 244.984 94.9049 244.664L93.5289 244.328C92.7609 244.136 92.3769 243.784 92.3769 243.256C92.3769 242.536 92.9049 242.12 93.8489 242.12C94.7609 242.12 95.2889 242.616 95.3209 243.4H96.7609C96.7289 241.912 95.6089 240.952 93.8969 240.952C92.1689 240.952 90.9529 241.864 90.9529 243.304C90.9529 244.456 91.6089 245.144 93.0009 245.48L94.3769 245.8C95.1929 246.008 95.4489 246.328 95.4489 246.856C95.4489 247.576 94.8409 248.008 93.7849 248.008C92.7929 248.008 92.1849 247.528 92.1849 246.728H90.7449ZM101.933 249.192C103.869 249.192 105.181 248.248 105.565 246.568H104.157C103.901 247.464 103.133 247.944 101.965 247.944C100.477 247.944 99.6128 247.032 99.5008 245.384L105.549 245.368V244.808C105.549 242.488 104.093 240.952 101.869 240.952C99.5968 240.952 98.0448 242.648 98.0448 245.096C98.0448 247.528 99.6288 249.192 101.933 249.192ZM101.869 242.216C103.197 242.216 104.045 243.08 104.045 244.376H99.5328C99.7248 243 100.557 242.216 101.869 242.216ZM106.717 245.096C106.717 247.56 108.237 249.192 110.541 249.192C112.429 249.192 113.885 248.056 114.189 246.36H112.685C112.413 247.288 111.613 247.848 110.541 247.848C109.117 247.848 108.205 246.76 108.205 245.08C108.205 243.384 109.181 242.296 110.605 242.296C111.613 242.296 112.413 242.824 112.669 243.816H114.173C113.901 242.072 112.525 240.952 110.557 240.952C108.269 240.952 106.717 242.648 106.717 245.096ZM121.184 241.176V245.304C121.184 246.984 120.432 247.864 119.056 247.864C117.904 247.864 117.184 247.224 117.184 245.544V241.176H115.68V246.04C115.68 247.96 116.704 249.192 118.528 249.192C119.68 249.192 120.72 248.632 121.168 247.816L121.328 249H122.672V241.176H121.184ZM127.062 249V242.44H128.598V241.176H127.062V238.728H125.558V241.176H124.022V242.44H125.558V249H127.062ZM130.683 239.32C131.227 239.32 131.675 238.872 131.675 238.328C131.675 237.768 131.227 237.336 130.683 237.336C130.139 237.336 129.691 237.768 129.691 238.328C129.691 238.872 130.139 239.32 130.683 239.32ZM129.947 249H131.451V241.176H129.947V249ZM135.827 249H137.315L140.579 241.176H139.011L137.267 245.544C136.995 246.232 136.739 246.904 136.611 247.416C136.483 246.936 136.259 246.28 135.987 245.544L134.275 241.176H132.675L135.827 249ZM144.792 249.192C146.728 249.192 148.04 248.248 148.424 246.568H147.016C146.76 247.464 145.992 247.944 144.824 247.944C143.336 247.944 142.472 247.032 142.36 245.384L148.408 245.368V244.808C148.408 242.488 146.952 240.952 144.728 240.952C142.456 240.952 140.904 242.648 140.904 245.096C140.904 247.528 142.488 249.192 144.792 249.192ZM144.728 242.216C146.056 242.216 146.904 243.08 146.904 244.376H142.392C142.584 243 143.416 242.216 144.728 242.216ZM156.287 249V244.424H159.247L161.407 249H163.151L160.799 244.12C162.239 243.656 163.039 242.504 163.039 240.904C163.039 238.744 161.567 237.432 159.087 237.432H154.719V249H156.287ZM156.287 238.84H159.087C160.527 238.84 161.391 239.576 161.391 240.92C161.391 242.248 160.559 243.032 159.103 243.032H156.287V238.84ZM165.668 239.32C166.212 239.32 166.66 238.872 166.66 238.328C166.66 237.768 166.212 237.336 165.668 237.336C165.124 237.336 164.676 237.768 164.676 238.328C164.676 238.872 165.124 239.32 165.668 239.32ZM164.932 249H166.436V241.176H164.932V249ZM168.123 244.888C168.123 247.08 169.531 248.792 171.755 248.792C172.987 248.792 174.011 248.248 174.523 247.336V248.904C174.523 250.392 173.563 251.352 172.091 251.352C170.779 251.352 169.915 250.68 169.723 249.528H168.219C168.507 251.512 169.963 252.712 172.091 252.712C174.491 252.712 176.011 251.144 176.011 248.68V241.176H174.667L174.555 242.504C174.059 241.528 173.083 240.952 171.819 240.952C169.547 240.952 168.123 242.68 168.123 244.888ZM169.627 244.856C169.627 243.416 170.523 242.264 172.027 242.264C173.563 242.264 174.459 243.352 174.459 244.856C174.459 246.392 173.531 247.48 172.011 247.48C170.539 247.48 169.627 246.328 169.627 244.856ZM179.686 248.984V244.728C179.686 243.384 180.47 242.328 181.926 242.328C183.046 242.328 183.798 242.968 183.798 244.552V249H185.302V244.216C185.302 242.216 184.342 240.952 182.342 240.952C181.126 240.952 180.182 241.528 179.686 242.376V237.224H178.182V248.984H179.686ZM189.593 249V242.44H191.129V241.176H189.593V238.728H188.089V241.176H186.553V242.44H188.089V249H189.593ZM199.142 249.192C200.406 249.192 201.478 248.632 201.878 247.736L202.038 249H203.318V244.088C203.318 241.976 202.006 240.952 200.07 240.952C198.054 240.952 196.71 242.024 196.71 243.656H198.022C198.022 242.712 198.742 242.152 200.006 242.152C201.062 242.152 201.846 242.616 201.846 243.928V244.152L199.382 244.344C197.542 244.488 196.47 245.384 196.47 246.824C196.47 248.248 197.462 249.192 199.142 249.192ZM199.574 248.024C198.598 248.024 197.99 247.608 197.99 246.776C197.99 246.008 198.534 245.496 199.862 245.368L201.862 245.208V245.624C201.862 247.096 200.998 248.024 199.574 248.024ZM206.905 249V244.856C206.905 243.336 207.721 242.328 209.129 242.328C210.281 242.328 211.017 242.968 211.017 244.552V249H212.521V244.216C212.521 242.216 211.577 240.952 209.513 240.952C208.409 240.952 207.417 241.48 206.921 242.376L206.761 241.176H205.401V249H206.905ZM213.87 246.728C213.87 248.216 215.038 249.192 216.878 249.192C218.734 249.192 220.014 248.248 220.014 246.76C220.014 245.592 219.358 244.984 218.03 244.664L216.654 244.328C215.886 244.136 215.502 243.784 215.502 243.256C215.502 242.536 216.03 242.12 216.974 242.12C217.886 242.12 218.414 242.616 218.446 243.4H219.886C219.854 241.912 218.734 240.952 217.022 240.952C215.294 240.952 214.078 241.864 214.078 243.304C214.078 244.456 214.734 245.144 216.126 245.48L217.502 245.8C218.318 246.008 218.574 246.328 218.574 246.856C218.574 247.576 217.966 248.008 216.91 248.008C215.918 248.008 215.31 247.528 215.31 246.728H213.87ZM223.174 249H224.662L226.022 244.824C226.31 243.88 226.454 243.368 226.534 242.984C226.614 243.416 226.774 244.024 227.03 244.808L228.39 249H229.814L232.486 241.176H230.918L229.606 245.24C229.382 245.928 229.238 246.472 229.11 247.096C228.982 246.536 228.726 245.624 228.598 245.24L227.302 241.176H225.766L224.454 245.24C224.278 245.752 224.07 246.408 223.942 247.096C223.798 246.408 223.638 245.816 223.462 245.24L222.166 241.176H220.614L223.174 249ZM236.792 249.192C238.728 249.192 240.04 248.248 240.424 246.568H239.016C238.76 247.464 237.992 247.944 236.824 247.944C235.336 247.944 234.472 247.032 234.36 245.384L240.408 245.368V244.808C240.408 242.488 238.952 240.952 236.728 240.952C234.456 240.952 232.904 242.648 232.904 245.096C232.904 247.528 234.488 249.192 236.792 249.192ZM236.728 242.216C238.056 242.216 238.904 243.08 238.904 244.376H234.392C234.584 243 235.416 242.216 236.728 242.216ZM246.568 241.112C246.264 241.048 246.04 241.016 245.768 241.016C244.696 241.016 243.912 241.56 243.592 242.376L243.496 241.192H242.088V249H243.592V244.856C243.592 243.352 244.472 242.488 245.896 242.488H246.568V241.112ZM247.339 246.728C247.339 248.216 248.507 249.192 250.347 249.192C252.203 249.192 253.483 248.248 253.483 246.76C253.483 245.592 252.827 244.984 251.499 244.664L250.123 244.328C249.355 244.136 248.971 243.784 248.971 243.256C248.971 242.536 249.499 242.12 250.443 242.12C251.355 242.12 251.883 242.616 251.915 243.4H253.355C253.323 241.912 252.203 240.952 250.491 240.952C248.763 240.952 247.547 241.864 247.547 243.304C247.547 244.456 248.203 245.144 249.595 245.48L250.971 245.8C251.787 246.008 252.043 246.328 252.043 246.856C252.043 247.576 251.435 248.008 250.379 248.008C249.387 248.008 248.779 247.528 248.779 246.728H247.339Z" fill="#696969"/>
<rect x="20" y="274" width="32" height="32" rx="16" fill="#1A1C20"/>
<g clip-path="url(#clip0_52_1071)">
<path d="M36.0002 296.667C39.6821 296.667 42.6668 293.682 42.6668 290C42.6668 286.318 39.6821 283.333 36.0002 283.333C32.3183 283.333 29.3335 286.318 29.3335 290C29.3335 293.682 32.3183 296.667 36.0002 296.667Z" stroke="white" stroke-width="2" stroke-linecap="round" stroke-linejoin="round"/>
<path d="M36 286V290L38.6667 291.333" stroke="white" stroke-width="2" stroke-linecap="round" stroke-linejoin="round"/>
</g>
<path d="M60.224 285.872H63.712V296H65.28V285.872H68.752V284.432H60.224V285.872ZM70.8084 286.32C71.3524 286.32 71.8004 285.872 71.8004 285.328C71.8004 284.768 71.3524 284.336 70.8084 284.336C70.2644 284.336 69.8164 284.768 69.8164 285.328C69.8164 285.872 70.2644 286.32 70.8084 286.32ZM70.0724 296H71.5764V288.176H70.0724V296ZM75.2639 296V291.36C75.2639 290.112 76.0159 289.328 77.1519 289.328C78.2079 289.328 78.8799 290 78.8799 291.232V296H80.3679V291.36C80.3679 290.112 81.1199 289.312 82.2559 289.312C83.3119 289.312 83.9999 290.016 83.9999 291.248V296H85.4719V290.88C85.4719 289.072 84.3839 287.952 82.5919 287.952C81.3759 287.952 80.4319 288.56 80.0639 289.536C79.6639 288.56 78.7999 287.952 77.5839 287.952C76.4799 287.952 75.6479 288.464 75.2479 289.2L75.1039 288.176H73.7599V296H75.2639ZM90.9328 296.192C92.8688 296.192 94.1808 295.248 94.5648 293.568H93.1568C92.9008 294.464 92.1328 294.944 90.9648 294.944C89.4768 294.944 88.6128 294.032 88.5008 292.384L94.5487 292.368V291.808C94.5487 289.488 93.0928 287.952 90.8688 287.952C88.5968 287.952 87.0448 289.648 87.0448 292.096C87.0448 294.528 88.6288 296.192 90.9328 296.192ZM90.8688 289.216C92.1968 289.216 93.0448 290.08 93.0448 291.376H88.5328C88.7248 290 89.5568 289.216 90.8688 289.216ZM100.86 296H105.436C107.724 296 109.116 294.832 109.116 292.912C109.116 291.536 108.46 290.608 107.18 290.192C108.332 289.712 108.908 288.816 108.908 287.488C108.908 285.584 107.532 284.432 105.276 284.432H100.86V296ZM105.18 285.824C106.54 285.824 107.308 286.48 107.308 287.632C107.308 288.832 106.572 289.536 105.276 289.536H102.428V285.824H105.18ZM105.404 290.896C106.732 290.896 107.5 291.568 107.5 292.72C107.5 293.92 106.748 294.608 105.404 294.608H102.428V290.896H105.404ZM110.31 292.08C110.31 294.496 112.038 296.192 114.39 296.192C116.726 296.192 118.454 294.496 118.454 292.08C118.454 289.664 116.726 287.968 114.39 287.968C112.038 287.968 110.31 289.664 110.31 292.08ZM111.83 292.08C111.83 290.448 112.87 289.312 114.39 289.312C115.894 289.312 116.95 290.448 116.95 292.08C116.95 293.712 115.894 294.848 114.39 294.848C112.87 294.848 111.83 293.712 111.83 292.08ZM121.623 296V291.856C121.623 290.336 122.439 289.328 123.847 289.328C124.999 289.328 125.735 289.968 125.735 291.552V296H127.239V291.216C127.239 289.216 126.295 287.952 124.231 287.952C123.127 287.952 122.135 288.48 121.639 289.376L121.479 288.176H120.119V296H121.623ZM134.73 288.176V292.304C134.73 293.984 133.978 294.864 132.602 294.864C131.45 294.864 130.73 294.224 130.73 292.544V288.176H129.226V293.04C129.226 294.96 130.25 296.192 132.074 296.192C133.226 296.192 134.266 295.632 134.714 294.816L134.874 296H136.218V288.176H134.73ZM137.604 293.728C137.604 295.216 138.772 296.192 140.612 296.192C142.468 296.192 143.748 295.248 143.748 293.76C143.748 292.592 143.092 291.984 141.764 291.664L140.388 291.328C139.62 291.136 139.236 290.784 139.236 290.256C139.236 289.536 139.764 289.12 140.708 289.12C141.62 289.12 142.148 289.616 142.18 290.4H143.62C143.588 288.912 142.468 287.952 140.756 287.952C139.028 287.952 137.812 288.864 137.812 290.304C137.812 291.456 138.468 292.144 139.86 292.48L141.236 292.8C142.052 293.008 142.308 293.328 142.308 293.856C142.308 294.576 141.7 295.008 140.644 295.008C139.652 295.008 139.044 294.528 139.044 293.728H137.604Z" fill="#696969"/>
<path d="M144.341 28.786C145.925 28.786 147.257 29.506 147.671 31.054H150.101C149.723 28.372 147.401 26.626 144.395 26.626C140.435 26.626 137.825 29.47 137.825 33.466C137.825 37.516 140.399 40.198 144.089 40.198C145.871 40.198 147.365 39.496 148.085 38.488L148.229 40H150.173V32.602H144.053V34.636H148.031V34.69C148.031 36.796 146.645 38.056 144.359 38.056C141.929 38.056 140.237 36.454 140.237 33.52C140.237 30.676 141.731 28.786 144.341 28.786ZM155.073 40.234C156.459 40.234 157.665 39.604 158.043 38.686L158.205 40H160.131V34.6C160.131 32.134 158.655 30.838 156.261 30.838C153.849 30.838 152.265 32.098 152.265 34.024H154.137C154.137 33.088 154.857 32.548 156.153 32.548C157.269 32.548 157.989 33.034 157.989 34.24V34.438L155.325 34.636C153.219 34.798 152.031 35.824 152.031 37.462C152.031 39.136 153.183 40.234 155.073 40.234ZM155.793 38.578C154.803 38.578 154.263 38.182 154.263 37.372C154.263 36.652 154.785 36.202 156.153 36.076L158.007 35.932V36.4C158.007 37.768 157.143 38.578 155.793 38.578ZM164.574 40V34.96C164.574 33.52 165.42 32.836 166.464 32.836C167.508 32.836 168.174 33.502 168.174 34.744V40H170.37V34.96C170.37 33.502 171.18 32.818 172.242 32.818C173.286 32.818 173.97 33.484 173.97 34.762V40H176.148V34.186C176.148 32.134 174.96 30.838 172.8 30.838C171.45 30.838 170.406 31.504 169.956 32.53C169.488 31.504 168.552 30.838 167.202 30.838C165.924 30.838 165.024 31.414 164.574 32.152L164.394 31.108H162.378V40H164.574ZM182.372 40.234C184.694 40.234 186.314 39.064 186.692 37.12H184.658C184.406 37.966 183.614 38.434 182.408 38.434C180.95 38.434 180.122 37.642 179.96 36.076L186.656 36.058V35.392C186.656 32.62 184.964 30.838 182.3 30.838C179.69 30.838 177.872 32.764 177.872 35.554C177.872 38.308 179.726 40.234 182.372 40.234ZM182.318 32.638C183.632 32.638 184.478 33.448 184.478 34.672H180.014C180.23 33.34 181.022 32.638 182.318 32.638ZM196.073 26.842H193.769V40H196.073V26.842ZM200.952 40V35.212C200.952 33.772 201.78 32.836 203.13 32.836C204.264 32.836 205.002 33.556 205.002 35.05V40H207.198V34.528C207.198 32.224 206.046 30.838 203.814 30.838C202.608 30.838 201.528 31.36 200.97 32.26L200.79 31.108H198.756V40H200.952ZM208.656 37.3C208.656 39.046 210.06 40.234 212.274 40.234C214.47 40.234 216 39.118 216 37.318C216 35.95 215.244 35.266 213.75 34.924L212.148 34.546C211.392 34.366 210.996 34.042 210.996 33.538C210.996 32.872 211.5 32.476 212.364 32.476C213.21 32.476 213.714 32.962 213.732 33.718H215.82C215.802 31.99 214.452 30.838 212.454 30.838C210.402 30.838 208.926 31.882 208.926 33.628C208.926 35.05 209.7 35.806 211.302 36.166L212.904 36.544C213.696 36.724 213.93 37.048 213.93 37.498C213.93 38.146 213.372 38.56 212.346 38.56C211.338 38.56 210.762 38.074 210.744 37.3H208.656ZM220.786 40V32.944H222.514V31.108H220.786V28.336H218.59V31.108H216.88V32.944H218.59V40H220.786ZM229.549 31.072C229.189 30.982 228.883 30.946 228.577 30.946C227.389 30.946 226.543 31.54 226.165 32.422L226.039 31.126H223.969V40H226.165V35.68C226.165 33.952 227.155 33.106 228.739 33.106H229.549V31.072ZM237.156 31.108V35.77C237.156 37.462 236.49 38.272 235.104 38.272C233.88 38.272 233.214 37.588 233.214 35.896V31.108H231.018V36.67C231.018 38.848 232.224 40.234 234.276 40.234C235.464 40.234 236.616 39.658 237.156 38.812L237.318 40H239.352V31.108H237.156ZM241.012 35.536C241.012 38.362 242.776 40.234 245.476 40.234C247.798 40.234 249.526 38.812 249.796 36.742H247.582C247.348 37.714 246.574 38.254 245.476 38.254C244.072 38.254 243.208 37.21 243.208 35.536C243.208 33.862 244.144 32.8 245.548 32.8C246.592 32.8 247.33 33.322 247.582 34.33H249.778C249.544 32.188 247.888 30.838 245.458 30.838C242.83 30.838 241.012 32.782 241.012 35.536ZM254.544 40V32.944H256.272V31.108H254.544V28.336H252.348V31.108H250.638V32.944H252.348V40H254.544ZM258.826 29.326C259.546 29.326 260.14 28.732 260.14 27.994C260.14 27.256 259.546 26.68 258.826 26.68C258.07 26.68 257.476 27.256 257.476 27.994C257.476 28.732 258.07 29.326 258.826 29.326ZM257.728 40H259.924V31.108H257.728V40ZM261.76 35.536C261.76 38.308 263.758 40.216 266.512 40.216C269.266 40.216 271.264 38.308 271.264 35.536C271.264 32.764 269.266 30.856 266.512 30.856C263.758 30.856 261.76 32.764 261.76 35.536ZM263.956 35.536C263.956 33.916 265 32.818 266.512 32.818C268.024 32.818 269.068 33.916 269.068 35.536C269.068 37.156 268.024 38.254 266.512 38.254C265 38.254 263.956 37.156 263.956 35.536ZM275.291 40V35.212C275.291 33.772 276.119 32.836 277.469 32.836C278.603 32.836 279.341 33.556 279.341 35.05V40H281.537V34.528C281.537 32.224 280.385 30.838 278.153 30.838C276.947 30.838 275.867 31.36 275.309 32.26L275.129 31.108H273.095V40H275.291ZM282.995 37.3C282.995 39.046 284.399 40.234 286.613 40.234C288.809 40.234 290.339 39.118 290.339 37.318C290.339 35.95 289.583 35.266 288.089 34.924L286.487 34.546C285.731 34.366 285.335 34.042 285.335 33.538C285.335 32.872 285.839 32.476 286.703 32.476C287.549 32.476 288.053 32.962 288.071 33.718H290.159C290.141 31.99 288.791 30.838 286.793 30.838C284.741 30.838 283.265 31.882 283.265 33.628C283.265 35.05 284.039 35.806 285.641 36.166L287.243 36.544C288.035 36.724 288.269 37.048 288.269 37.498C288.269 38.146 287.711 38.56 286.685 38.56C285.677 38.56 285.101 38.074 285.083 37.3H282.995Z" fill="#1A1C20"/>
<defs>
<clipPath id="clip0_52_1071">
<rect width="16" height="16" fill="white" transform="translate(28 282)"/>
</clipPath>
</defs>
</svg>
