<svg width="197" height="16" viewBox="0 0 197 16" fill="none" xmlns="http://www.w3.org/2000/svg">
<path d="M3.83499 11.8098C7.26883 11.8098 9.57945 9.46712 9.57945 6.01724C9.57945 2.55131 7.23674 0.208598 3.77081 0.208598H5.97759e-06V11.8098H3.83499ZM3.65849 1.65274C6.30607 1.65274 7.94276 3.32152 7.94276 6.01724C7.94276 8.68087 6.30607 10.3496 3.72267 10.3496H1.57251V1.65274H3.65849ZM14.709 12.0024C16.6506 12.0024 17.9663 11.0557 18.3515 9.37084H16.9394C16.6827 10.2694 15.9125 10.7508 14.7411 10.7508C13.2488 10.7508 12.3824 9.83618 12.27 8.18344L18.3354 8.1674V7.60579C18.3354 5.27912 16.8752 3.73871 14.6448 3.73871C12.3663 3.73871 10.8098 5.43958 10.8098 7.89462C10.8098 10.3336 12.3984 12.0024 14.709 12.0024ZM14.6448 5.00634C15.9766 5.00634 16.8271 5.87282 16.8271 7.17255H12.3021C12.4947 5.79259 13.3291 5.00634 14.6448 5.00634ZM21.952 11.8098H23.4443L26.7177 3.96335H25.1452L23.3962 8.3439C23.1234 9.03388 22.8666 9.70781 22.7383 10.2213C22.6099 9.7399 22.3853 9.08202 22.1125 8.3439L20.3956 3.96335H18.791L21.952 11.8098ZM30.943 12.0024C32.8846 12.0024 34.2004 11.0557 34.5855 9.37084H33.1734C32.9167 10.2694 32.1465 10.7508 30.9751 10.7508C29.4828 10.7508 28.6164 9.83618 28.504 8.18344L34.5694 8.1674V7.60579C34.5694 5.27912 33.1092 3.73871 30.8788 3.73871C28.6003 3.73871 27.0439 5.43958 27.0439 7.89462C27.0439 10.3336 28.6324 12.0024 30.943 12.0024ZM30.8788 5.00634C32.2107 5.00634 33.0611 5.87282 33.0611 7.17255H28.5361C28.7287 5.79259 29.5631 5.00634 30.8788 5.00634ZM37.7945 11.8098V0H36.2862V11.8098H37.7945ZM39.5014 7.87857C39.5014 10.3015 41.2344 12.0024 43.5931 12.0024C45.9358 12.0024 47.6688 10.3015 47.6688 7.87857C47.6688 5.45563 45.9358 3.75476 43.5931 3.75476C41.2344 3.75476 39.5014 5.45563 39.5014 7.87857ZM41.0258 7.87857C41.0258 6.24188 42.0688 5.10262 43.5931 5.10262C45.1015 5.10262 46.1605 6.24188 46.1605 7.87857C46.1605 9.51526 45.1015 10.6545 43.5931 10.6545C42.0688 10.6545 41.0258 9.51526 41.0258 7.87857ZM49.3385 15.3239H50.8468V10.5262C51.3603 11.4889 52.4032 12.0184 53.6548 12.0184C55.9815 12.0184 57.2973 10.2213 57.2973 7.83043C57.2973 5.42354 55.9013 3.73871 53.6548 3.73871C52.4032 3.73871 51.3442 4.30032 50.8147 5.3754L50.7024 3.96335H49.3385V15.3239ZM50.8628 7.89462C50.8628 6.25793 51.7935 5.11866 53.3339 5.11866C54.8743 5.11866 55.7889 6.27397 55.7889 7.89462C55.7889 9.49921 54.8743 10.6545 53.3339 10.6545C51.7935 10.6545 50.8628 9.49921 50.8628 7.89462ZM62.3455 12.0024C64.287 12.0024 65.6028 11.0557 65.9879 9.37084H64.5759C64.3191 10.2694 63.5489 10.7508 62.3776 10.7508C60.8853 10.7508 60.0188 9.83618 59.9065 8.18344L65.9719 8.1674V7.60579C65.9719 5.27912 64.5117 3.73871 62.2813 3.73871C60.0028 3.73871 58.4463 5.43958 58.4463 7.89462C58.4463 10.3336 60.0349 12.0024 62.3455 12.0024ZM62.2813 5.00634C63.6131 5.00634 64.4635 5.87282 64.4635 7.17255H59.9386C60.1311 5.79259 60.9655 5.00634 62.2813 5.00634ZM70.8016 12.0024C72.0532 12.0024 73.1122 11.4568 73.6257 10.3817L73.754 11.8098H75.1019V0H73.6096V5.23099C73.0801 4.26823 72.0692 3.73871 70.8658 3.73871C68.5391 3.73871 67.1431 5.50377 67.1431 7.91066C67.1431 10.3015 68.523 12.0024 70.8016 12.0024ZM71.1064 10.6385C69.566 10.6385 68.6675 9.48317 68.6675 7.86252C68.6675 6.25793 69.566 5.10262 71.1064 5.10262C72.6469 5.10262 73.5936 6.25793 73.5936 7.86252C73.5936 9.49921 72.6469 10.6385 71.1064 10.6385ZM83.0294 11.8098L83.1417 10.3817C83.6551 11.4568 84.6981 12.0024 85.9337 12.0024C88.2122 12.0024 89.6242 10.3015 89.6242 7.92671C89.6242 5.50377 88.2764 3.73871 86.0299 3.73871C84.7463 3.73871 83.6872 4.28427 83.1738 5.31122V0H81.6654V11.8098H83.0294ZM83.1898 7.86252C83.1898 6.25793 84.1205 5.10262 85.6609 5.10262C87.2013 5.10262 88.1159 6.25793 88.1159 7.86252C88.1159 9.48317 87.2013 10.6385 85.6609 10.6385C84.1205 10.6385 83.1898 9.49921 83.1898 7.86252ZM90.2662 15.3239C90.6674 15.4202 91.0846 15.4844 91.582 15.4844C92.7854 15.4844 93.5717 14.9227 94.1012 13.5749L97.8078 3.96335H96.2514L93.9247 10.2855L91.6462 3.96335H90.0576L93.2187 12.227L92.9459 12.9812C92.5768 13.976 91.9992 14.0884 91.2771 14.0884H90.2662V15.3239ZM107.491 11.8098C110.925 11.8098 113.236 9.46712 113.236 6.01724C113.236 2.55131 110.893 0.208598 107.427 0.208598H103.656V11.8098H107.491ZM107.315 1.65274C109.962 1.65274 111.599 3.32152 111.599 6.01724C111.599 8.68087 109.962 10.3496 107.379 10.3496H105.229V1.65274H107.315ZM114.562 3.33756C114.562 5.00634 115.541 6.09747 117.435 6.53071L119.344 6.96395C120.451 7.22069 120.949 7.79834 120.949 8.71296C120.949 9.86827 119.97 10.5903 118.43 10.5903C116.969 10.5903 116.039 9.88432 116.007 8.77714H114.402C114.498 10.7668 116.071 12.0024 118.43 12.0024C120.901 12.0024 122.521 10.6706 122.521 8.58459C122.521 6.9479 121.558 5.92096 119.665 5.48772L117.756 5.03843C116.664 4.7817 116.135 4.22009 116.135 3.28942C116.135 2.15016 117.082 1.41205 118.542 1.41205C119.842 1.41205 120.66 2.08598 120.74 3.24129H122.329C122.2 1.23554 120.772 0 118.558 0C116.167 0 114.562 1.34786 114.562 3.33756ZM129.006 7.66997C131.269 7.66997 132.745 6.09747 132.745 3.93126C132.745 1.70087 131.285 0.208598 129.006 0.208598H124.497V11.8098H126.07V7.66997H129.006ZM128.733 1.62064C130.21 1.62064 131.092 2.45503 131.092 3.91522C131.092 5.34331 130.226 6.25793 128.669 6.25793H126.07V1.62064H128.733ZM143.888 1.49228C145.428 1.49228 146.712 2.23039 147.145 3.70662H148.814C148.429 1.47623 146.455 0.0160467 143.92 0.0160467C140.502 0.0160467 138.224 2.51922 138.224 6.04933C138.224 9.62758 140.486 12.0024 143.775 12.0024C145.476 12.0024 146.888 11.2643 147.514 10.2534L147.627 11.8259H148.942V5.42354H143.583V6.81954H147.466V7.1565C147.466 9.49921 145.878 10.5101 143.904 10.5101C141.513 10.5101 139.876 8.88947 139.876 6.08142C139.876 3.33756 141.385 1.49228 143.888 1.49228ZM155.419 3.89917C155.114 3.83499 154.89 3.80289 154.617 3.80289C153.542 3.80289 152.756 4.34846 152.435 5.1668L152.338 3.9794H150.926V11.8098H152.435V7.65393C152.435 6.14561 153.317 5.27912 154.745 5.27912H155.419V3.89917ZM156.038 7.87857C156.038 10.3015 157.771 12.0024 160.13 12.0024C162.473 12.0024 164.206 10.3015 164.206 7.87857C164.206 5.45563 162.473 3.75476 160.13 3.75476C157.771 3.75476 156.038 5.45563 156.038 7.87857ZM157.563 7.87857C157.563 6.24188 158.606 5.10262 160.13 5.10262C161.638 5.10262 162.697 6.24188 162.697 7.87857C162.697 9.51526 161.638 10.6545 160.13 10.6545C158.606 10.6545 157.563 9.51526 157.563 7.87857ZM171.111 3.96335V8.10321C171.111 9.78804 170.357 10.6706 168.977 10.6706C167.822 10.6706 167.099 10.0287 167.099 8.3439V3.96335H165.591V8.84133C165.591 10.7668 166.618 12.0024 168.447 12.0024C169.603 12.0024 170.646 11.4408 171.095 10.6224L171.255 11.8098H172.603V3.96335H171.111ZM174.792 15.3239H176.3V10.5262C176.813 11.4889 177.856 12.0184 179.108 12.0184C181.435 12.0184 182.75 10.2213 182.75 7.83043C182.75 5.42354 181.354 3.73871 179.108 3.73871C177.856 3.73871 176.797 4.30032 176.268 5.3754L176.156 3.96335H174.792V15.3239ZM176.316 7.89462C176.316 6.25793 177.247 5.11866 178.787 5.11866C180.327 5.11866 181.242 6.27397 181.242 7.89462C181.242 9.49921 180.327 10.6545 178.787 10.6545C177.247 10.6545 176.316 9.49921 176.316 7.89462ZM188.464 8.58459C188.464 10.6385 190.148 12.0024 192.732 12.0024C195.299 12.0024 197 10.6385 197 8.60064C197 7.17255 196.166 6.01724 194.866 5.60004C195.957 5.1668 196.567 4.25218 196.567 3.06478C196.567 1.23554 195.026 0 192.748 0C190.437 0 188.881 1.23554 188.881 3.04873C188.881 4.22009 189.474 5.13471 190.566 5.60004C189.282 6.06538 188.464 7.18859 188.464 8.58459ZM190.325 3.14501C190.325 2.06993 191.272 1.36391 192.716 1.36391C194.176 1.36391 195.09 2.06993 195.09 3.1771C195.09 4.30032 194.176 5.02239 192.716 5.02239C191.272 5.02239 190.325 4.28427 190.325 3.14501ZM190.004 8.47227C190.004 7.18859 191.063 6.37025 192.716 6.37025C194.384 6.37025 195.444 7.18859 195.444 8.47227C195.444 9.77199 194.368 10.6064 192.732 10.6064C191.079 10.6064 190.004 9.77199 190.004 8.47227Z" fill="black"/>
</svg>
