<svg width="81" height="13" viewBox="0 0 81 13" fill="none" xmlns="http://www.w3.org/2000/svg">
<path d="M6.44282 7.16752V5.31524H2.06177V2.10998H7.28038V0.20938H0.000102244V11.9835H2.06177V7.16752H6.44282ZM9.83142 2.43212C10.4757 2.43212 11.0072 1.90059 11.0072 1.24021C11.0072 0.579837 10.4757 0.0644187 9.83142 0.0644187C9.15493 0.0644187 8.62341 0.579837 8.62341 1.24021C8.62341 1.90059 9.15493 2.43212 9.83142 2.43212ZM8.8489 11.9835H10.8139V4.02669H8.8489V11.9835ZM14.8092 11.9835V7.69904C14.8092 6.4105 15.5501 5.57295 16.7581 5.57295C17.7728 5.57295 18.4332 6.21722 18.4332 7.55408V11.9835H20.3982V7.08699C20.3982 5.02531 19.3674 3.78509 17.3702 3.78509C16.291 3.78509 15.3246 4.25219 14.8253 5.05753L14.6642 4.02669H12.8441V11.9835H14.8092ZM24.6966 12.1928C25.9368 12.1928 27.016 11.6291 27.3542 10.8077L27.4992 11.9835H29.2226V7.15141C29.2226 4.94478 27.9019 3.78509 25.7597 3.78509C23.6014 3.78509 22.184 4.91257 22.184 6.63599H23.8591C23.8591 5.79844 24.5033 5.31524 25.663 5.31524C26.6616 5.31524 27.3059 5.75012 27.3059 6.82928V7.00645L24.9221 7.18363C23.0376 7.32859 21.9746 8.24668 21.9746 9.71239C21.9746 11.2103 23.0054 12.1928 24.6966 12.1928ZM25.3409 10.711C24.455 10.711 23.9718 10.3567 23.9718 9.63186C23.9718 8.98759 24.4389 8.58492 25.663 8.47217L27.322 8.34332V8.76209C27.322 9.98621 26.5489 10.711 25.3409 10.711ZM33.1342 11.9835V-8.64036e-06H31.1853V11.9835H33.1342ZM39.1502 3.49517C39.1502 5.29913 40.1971 6.44271 42.1944 6.8776L44.0628 7.29637C45.0292 7.50576 45.4319 7.97286 45.4319 8.76209C45.4319 9.74461 44.5621 10.3406 43.193 10.3406C41.8723 10.3406 41.0669 9.74461 41.0508 8.74599H38.9891C39.0375 10.856 40.6804 12.1928 43.193 12.1928C45.7862 12.1928 47.4935 10.7754 47.4935 8.58492C47.4935 6.82928 46.511 5.79844 44.4977 5.36356L42.6454 4.96089C41.6629 4.73539 41.2119 4.26829 41.2119 3.43074C41.2119 2.44823 42.0333 1.83617 43.3058 1.83617C44.4655 1.83617 45.1903 2.43212 45.2386 3.44685H47.3002C47.2358 1.32075 45.7218 -8.64036e-06 43.338 -8.64036e-06C40.8575 -8.64036e-06 39.1502 1.4335 39.1502 3.49517ZM48.6016 7.98897C48.6016 10.5177 50.1801 12.1928 52.5961 12.1928C54.6739 12.1928 56.2201 10.9204 56.4617 9.06812H54.4806C54.2712 9.93789 53.5786 10.4211 52.5961 10.4211C51.3398 10.4211 50.5667 9.4869 50.5667 7.98897C50.5667 6.49103 51.4042 5.54073 52.6605 5.54073C53.5947 5.54073 54.2551 6.00783 54.4806 6.90981H56.4456C56.2363 4.9931 54.7544 3.78509 52.58 3.78509C50.2284 3.78509 48.6016 5.52463 48.6016 7.98897ZM57.4572 7.98897C57.4572 10.4694 59.2451 12.1767 61.7094 12.1767C64.1738 12.1767 65.9616 10.4694 65.9616 7.98897C65.9616 5.50852 64.1738 3.8012 61.7094 3.8012C59.2451 3.8012 57.4572 5.50852 57.4572 7.98897ZM59.4223 7.98897C59.4223 6.53935 60.3564 5.55684 61.7094 5.55684C63.0624 5.55684 63.9966 6.53935 63.9966 7.98897C63.9966 9.43858 63.0624 10.4211 61.7094 10.4211C60.3564 10.4211 59.4223 9.43858 59.4223 7.98897ZM72.5123 3.99448C72.1902 3.91394 71.9164 3.88173 71.6425 3.88173C70.5795 3.88173 69.8225 4.41326 69.4842 5.20249L69.3715 4.0428H67.5192V11.9835H69.4842V8.11782C69.4842 6.57157 70.3701 5.81455 71.7875 5.81455H72.5123V3.99448ZM77.1346 12.1928C79.2124 12.1928 80.662 11.1459 81.0002 9.40636H79.1801C78.9546 10.1634 78.2459 10.5822 77.1668 10.5822C75.8621 10.5822 75.1212 9.87346 74.9763 8.47217L80.968 8.45606V7.86011C80.968 5.37966 79.454 3.78509 77.0702 3.78509C74.7347 3.78509 73.1079 5.50852 73.1079 8.00507C73.1079 10.4694 74.7669 12.1928 77.1346 12.1928ZM77.0863 5.39577C78.2621 5.39577 79.0191 6.12058 79.0191 7.21584H75.0246C75.2179 6.02394 75.9266 5.39577 77.0863 5.39577Z" fill="white"/>
</svg>
