<svg width="175" height="22" viewBox="0 0 175 22" fill="none" xmlns="http://www.w3.org/2000/svg">
<path d="M2.912 5.432H1.344V17H2.912V5.432ZM11.2326 17V12.856C11.2326 11.336 12.0486 10.328 13.4566 10.328C14.6086 10.328 15.3446 10.968 15.3446 12.552V17H16.8486V12.216C16.8486 10.216 15.9046 8.952 13.8406 8.952C12.7366 8.952 11.7446 9.48 11.2486 10.376L11.0886 9.176H9.72863V17H11.2326ZM22.3078 17.192C24.2438 17.192 25.5558 16.248 25.9398 14.568H24.5318C24.2758 15.464 23.5078 15.944 22.3398 15.944C20.8518 15.944 19.9878 15.032 19.8758 13.384L25.9237 13.368V12.808C25.9237 10.488 24.4678 8.952 22.2438 8.952C19.9718 8.952 18.4198 10.648 18.4198 13.096C18.4198 15.528 20.0038 17.192 22.3078 17.192ZM22.2438 10.216C23.5718 10.216 24.4198 11.08 24.4198 12.376H19.9078C20.0998 11 20.9318 10.216 22.2438 10.216ZM30.9796 17.192C32.9156 17.192 34.2276 16.248 34.6116 14.568H33.2036C32.9476 15.464 32.1796 15.944 31.0116 15.944C29.5236 15.944 28.6596 15.032 28.5476 13.384L34.5956 13.368V12.808C34.5956 10.488 33.1396 8.952 30.9156 8.952C28.6436 8.952 27.0916 10.648 27.0916 13.096C27.0916 15.528 28.6756 17.192 30.9796 17.192ZM30.9156 10.216C32.2436 10.216 33.0916 11.08 33.0916 12.376H28.5796C28.7716 11 29.6036 10.216 30.9156 10.216ZM39.4115 17.192C40.6595 17.192 41.7155 16.648 42.2275 15.576L42.3555 17H43.6995V5.224H42.2115V10.44C41.6835 9.48 40.6755 8.952 39.4755 8.952C37.1555 8.952 35.7635 10.712 35.7635 13.112C35.7635 15.496 37.1395 17.192 39.4115 17.192ZM39.7155 15.832C38.1795 15.832 37.2835 14.68 37.2835 13.064C37.2835 11.464 38.1795 10.312 39.7155 10.312C41.2515 10.312 42.1955 11.464 42.1955 13.064C42.1955 14.696 41.2515 15.832 39.7155 15.832ZM52.5323 17.192C53.7963 17.192 54.8683 16.632 55.2683 15.736L55.4283 17H56.7083V12.088C56.7083 9.976 55.3963 8.952 53.4603 8.952C51.4443 8.952 50.1003 10.024 50.1003 11.656H51.4123C51.4123 10.712 52.1323 10.152 53.3963 10.152C54.4523 10.152 55.2363 10.616 55.2363 11.928V12.152L52.7723 12.344C50.9323 12.488 49.8603 13.384 49.8603 14.824C49.8603 16.248 50.8523 17.192 52.5323 17.192ZM52.9643 16.024C51.9883 16.024 51.3803 15.608 51.3803 14.776C51.3803 14.008 51.9243 13.496 53.2523 13.368L55.2523 13.208V13.624C55.2523 15.096 54.3883 16.024 52.9643 16.024ZM64.6701 17V12.856C64.6701 11.336 65.4861 10.328 66.8941 10.328C68.0461 10.328 68.7821 10.968 68.7821 12.552V17H70.2861V12.216C70.2861 10.216 69.3421 8.952 67.2781 8.952C66.1741 8.952 65.1821 9.48 64.6861 10.376L64.5261 9.176H63.1661V17H64.6701ZM75.7453 17.192C77.6813 17.192 78.9933 16.248 79.3773 14.568H77.9693C77.7133 15.464 76.9453 15.944 75.7773 15.944C74.2893 15.944 73.4253 15.032 73.3133 13.384L79.3612 13.368V12.808C79.3612 10.488 77.9053 8.952 75.6813 8.952C73.4093 8.952 71.8573 10.648 71.8573 13.096C71.8573 15.528 73.4413 17.192 75.7453 17.192ZM75.6813 10.216C77.0093 10.216 77.8573 11.08 77.8573 12.376H73.3453C73.5373 11 74.3693 10.216 75.6813 10.216ZM82.4555 17H83.9435L85.3035 12.824C85.5915 11.88 85.7355 11.368 85.8155 10.984C85.8955 11.416 86.0555 12.024 86.3115 12.808L87.6715 17H89.0955L91.7675 9.176H90.1995L88.8875 13.24C88.6635 13.928 88.5195 14.472 88.3915 15.096C88.2635 14.536 88.0075 13.624 87.8795 13.24L86.5835 9.176H85.0475L83.7355 13.24C83.5595 13.752 83.3515 14.408 83.2235 15.096C83.0795 14.408 82.9195 13.816 82.7435 13.24L81.4475 9.176H79.8955L82.4555 17ZM99.7198 17.192C100.984 17.192 102.056 16.632 102.456 15.736L102.616 17H103.896V12.088C103.896 9.976 102.584 8.952 100.648 8.952C98.6318 8.952 97.2878 10.024 97.2878 11.656H98.5998C98.5998 10.712 99.3198 10.152 100.584 10.152C101.64 10.152 102.424 10.616 102.424 11.928V12.152L99.9598 12.344C98.1198 12.488 97.0478 13.384 97.0478 14.824C97.0478 16.248 98.0398 17.192 99.7198 17.192ZM100.152 16.024C99.1758 16.024 98.5678 15.608 98.5678 14.776C98.5678 14.008 99.1118 13.496 100.44 13.368L102.44 13.208V13.624C102.44 15.096 101.576 16.024 100.152 16.024ZM105.467 13.096C105.467 15.56 106.987 17.192 109.291 17.192C111.179 17.192 112.635 16.056 112.939 14.36H111.435C111.163 15.288 110.363 15.848 109.291 15.848C107.867 15.848 106.955 14.76 106.955 13.08C106.955 11.384 107.931 10.296 109.355 10.296C110.363 10.296 111.163 10.824 111.419 11.816H112.923C112.651 10.072 111.275 8.952 109.307 8.952C107.019 8.952 105.467 10.648 105.467 13.096ZM114.014 13.096C114.014 15.56 115.534 17.192 117.838 17.192C119.726 17.192 121.182 16.056 121.486 14.36H119.982C119.71 15.288 118.91 15.848 117.838 15.848C116.414 15.848 115.502 14.76 115.502 13.08C115.502 11.384 116.478 10.296 117.902 10.296C118.91 10.296 119.71 10.824 119.966 11.816H121.47C121.198 10.072 119.822 8.952 117.854 8.952C115.566 8.952 114.014 10.648 114.014 13.096ZM122.56 13.08C122.56 15.496 124.288 17.192 126.64 17.192C128.976 17.192 130.704 15.496 130.704 13.08C130.704 10.664 128.976 8.968 126.64 8.968C124.288 8.968 122.56 10.664 122.56 13.08ZM124.08 13.08C124.08 11.448 125.12 10.312 126.64 10.312C128.144 10.312 129.2 11.448 129.2 13.08C129.2 14.712 128.144 15.848 126.64 15.848C125.12 15.848 124.08 14.712 124.08 13.08ZM137.59 9.176V13.304C137.59 14.984 136.838 15.864 135.462 15.864C134.31 15.864 133.59 15.224 133.59 13.544V9.176H132.086V14.04C132.086 15.96 133.11 17.192 134.934 17.192C136.086 17.192 137.126 16.632 137.574 15.816L137.734 17H139.078V9.176H137.59ZM142.764 17V12.856C142.764 11.336 143.58 10.328 144.988 10.328C146.14 10.328 146.876 10.968 146.876 12.552V17H148.38V12.216C148.38 10.216 147.436 8.952 145.372 8.952C144.268 8.952 143.276 9.48 142.78 10.376L142.62 9.176H141.26V17H142.764ZM152.671 17V10.44H154.207V9.176H152.671V6.728H151.167V9.176H149.631V10.44H151.167V17H152.671Z" fill="#ED8350"/>
<path d="M167 6.33331L171.667 11L167 15.6666" stroke="#ED8350" stroke-width="2" stroke-linecap="round" stroke-linejoin="round"/>
</svg>
