<svg width="90" height="39" viewBox="0 0 90 39" fill="none" xmlns="http://www.w3.org/2000/svg">
<rect width="90" height="39" rx="19.5" fill="#FEF8F1"/>
<path d="M26.546 17.622C26.546 19.19 27.456 20.184 29.192 20.562L30.816 20.926C31.656 21.108 32.006 21.514 32.006 22.2C32.006 23.054 31.25 23.572 30.06 23.572C28.912 23.572 28.212 23.054 28.198 22.186H26.406C26.448 24.02 27.876 25.182 30.06 25.182C32.314 25.182 33.798 23.95 33.798 22.046C33.798 20.52 32.944 19.624 31.194 19.246L29.584 18.896C28.73 18.7 28.338 18.294 28.338 17.566C28.338 16.712 29.052 16.18 30.158 16.18C31.166 16.18 31.796 16.698 31.838 17.58H33.63C33.574 15.732 32.258 14.584 30.186 14.584C28.03 14.584 26.546 15.83 26.546 17.622ZM36.8752 25V21.22C36.8752 20.184 37.5052 19.428 38.5832 19.428C39.4512 19.428 40.0252 19.988 40.0252 21.15V25H41.7332V20.744C41.7332 18.952 40.8372 17.874 39.1292 17.874C38.1352 17.874 37.3232 18.308 36.8892 18.98V14.584H35.1672V25H36.8752ZM45.4693 25.182C46.5473 25.182 47.4853 24.692 47.7793 23.978L47.9053 25H49.4033V20.8C49.4033 18.882 48.2553 17.874 46.3933 17.874C44.5173 17.874 43.2853 18.854 43.2853 20.352H44.7413C44.7413 19.624 45.3013 19.204 46.3093 19.204C47.1773 19.204 47.7373 19.582 47.7373 20.52V20.674L45.6653 20.828C44.0273 20.954 43.1033 21.752 43.1033 23.026C43.1033 24.328 43.9993 25.182 45.4693 25.182ZM46.0293 23.894C45.2593 23.894 44.8393 23.586 44.8393 22.956C44.8393 22.396 45.2453 22.046 46.3093 21.948L47.7513 21.836V22.2C47.7513 23.264 47.0793 23.894 46.0293 23.894ZM55.4212 18.056C55.1412 17.986 54.9032 17.958 54.6652 17.958C53.7412 17.958 53.0832 18.42 52.7892 19.106L52.6912 18.098H51.0812V25H52.7892V21.64C52.7892 20.296 53.5592 19.638 54.7912 19.638H55.4212V18.056ZM59.4389 25.182C61.2449 25.182 62.5049 24.272 62.7989 22.76H61.2169C61.0209 23.418 60.4049 23.782 59.4669 23.782C58.3329 23.782 57.6889 23.166 57.5629 21.948L62.7709 21.934V21.416C62.7709 19.26 61.4549 17.874 59.3829 17.874C57.3529 17.874 55.9389 19.372 55.9389 21.542C55.9389 23.684 57.3809 25.182 59.4389 25.182ZM59.3969 19.274C60.4189 19.274 61.0769 19.904 61.0769 20.856H57.6049C57.7729 19.82 58.3889 19.274 59.3969 19.274Z" fill="#ED8350"/>
</svg>
