<svg width="63" height="22" viewBox="0 0 63 22" fill="none" xmlns="http://www.w3.org/2000/svg">
<path d="M0.672 8.552C0.672 10.216 1.648 11.304 3.536 11.736L5.44 12.168C6.544 12.424 7.04 13 7.04 13.912C7.04 15.064 6.064 15.784 4.528 15.784C3.072 15.784 2.144 15.08 2.112 13.976H0.512C0.608 15.96 2.176 17.192 4.528 17.192C6.992 17.192 8.608 15.864 8.608 13.784C8.608 12.152 7.648 11.128 5.76 10.696L3.856 10.248C2.768 9.992 2.24 9.432 2.24 8.504C2.24 7.368 3.184 6.632 4.64 6.632C5.936 6.632 6.752 7.304 6.832 8.456H8.416C8.288 6.456 6.864 5.224 4.656 5.224C2.272 5.224 0.672 6.568 0.672 8.552ZM12.5304 17V10.44H14.0664V9.176H12.5304V6.728H11.0264V9.176H9.49038V10.44H11.0264V17H12.5304ZM17.6104 17.192C18.8744 17.192 19.9464 16.632 20.3464 15.736L20.5064 17H21.7864V12.088C21.7864 9.976 20.4744 8.952 18.5384 8.952C16.5224 8.952 15.1784 10.024 15.1784 11.656H16.4904C16.4904 10.712 17.2104 10.152 18.4744 10.152C19.5304 10.152 20.3144 10.616 20.3144 11.928V12.152L17.8504 12.344C16.0104 12.488 14.9384 13.384 14.9384 14.824C14.9384 16.248 15.9304 17.192 17.6104 17.192ZM18.0424 16.024C17.0664 16.024 16.4584 15.608 16.4584 14.776C16.4584 14.008 17.0024 13.496 18.3304 13.368L20.3304 13.208V13.624C20.3304 15.096 19.4664 16.024 18.0424 16.024ZM28.3493 9.112C28.0453 9.048 27.8213 9.016 27.5493 9.016C26.4773 9.016 25.6933 9.56 25.3733 10.376L25.2773 9.192H23.8693V17H25.3733V12.856C25.3733 11.352 26.2533 10.488 27.6773 10.488H28.3493V9.112ZM32.2804 17V10.44H33.8164V9.176H32.2804V6.728H30.7764V9.176H29.2404V10.44H30.7764V17H32.2804Z" fill="#030202"/>
<path fill-rule="evenodd" clip-rule="evenodd" d="M63 11C63 16.5228 58.5228 21 53 21C47.4772 21 43 16.5228 43 11C43 5.47715 47.4772 1 53 1C58.5228 1 63 5.47715 63 11ZM51.2929 14.7071C50.9024 14.3166 50.9024 13.6834 51.2929 13.2929L53.5858 11L51.2929 8.70711C50.9024 8.31658 50.9024 7.68342 51.2929 7.29289C51.6834 6.90237 52.3166 6.90237 52.7071 7.29289L55.4446 10.0304C55.9801 10.5659 55.9801 11.4341 55.4446 11.9696L52.7071 14.7071C52.3166 15.0976 51.6834 15.0976 51.2929 14.7071Z" fill="#030202"/>
</svg>
