<svg width="349" height="222" viewBox="0 0 349 222" fill="none" xmlns="http://www.w3.org/2000/svg">
<path d="M1.872 26.704C1.872 32.08 4.992 35.488 10.944 36.784L16.512 38.032C19.392 38.656 20.592 40.048 20.592 42.4C20.592 45.328 18 47.104 13.92 47.104C9.984 47.104 7.584 45.328 7.536 42.352H1.392C1.536 48.64 6.432 52.624 13.92 52.624C21.648 52.624 26.736 48.4 26.736 41.872C26.736 36.64 23.808 33.568 17.808 32.272L12.288 31.072C9.36 30.4 8.016 29.008 8.016 26.512C8.016 23.584 10.464 21.76 14.256 21.76C17.712 21.76 19.872 23.536 20.016 26.56H26.16C25.968 20.224 21.456 16.288 14.352 16.288C6.96 16.288 1.872 20.56 1.872 26.704ZM39.4943 52V33.184H44.1023V28.288H39.4943V20.896H33.6383V28.288H29.0783V33.184H33.6383V52H39.4943ZM54.6581 52.624C58.3541 52.624 61.5701 50.944 62.5781 48.496L63.0101 52H68.1461V37.6C68.1461 31.024 64.2101 27.568 57.8261 27.568C51.3941 27.568 47.1701 30.928 47.1701 36.064H52.1621C52.1621 33.568 54.0821 32.128 57.5381 32.128C60.5141 32.128 62.4341 33.424 62.4341 36.64V37.168L55.3301 37.696C49.7141 38.128 46.5461 40.864 46.5461 45.232C46.5461 49.696 49.6181 52.624 54.6581 52.624ZM56.5781 48.208C53.9381 48.208 52.4981 47.152 52.4981 44.992C52.4981 43.072 53.8901 41.872 57.5381 41.536L62.4821 41.152V42.4C62.4821 46.048 60.1781 48.208 56.5781 48.208ZM88.779 28.192C87.819 27.952 87.003 27.856 86.187 27.856C83.019 27.856 80.763 29.44 79.755 31.792L79.419 28.336H73.899V52H79.755V40.48C79.755 35.872 82.395 33.616 86.619 33.616H88.779V28.192ZM101.744 52V33.184H106.352V28.288H101.744V20.896H95.8883V28.288H91.3283V33.184H95.8883V52H101.744ZM10.032 83.912H3.888V119H24.72V113.336H10.032V83.912ZM38.9914 119.624C45.1834 119.624 49.5034 116.504 50.5114 111.32H45.0874C44.4154 113.576 42.3034 114.824 39.0874 114.824C35.1994 114.824 32.9914 112.712 32.5594 108.536L50.4154 108.488V106.712C50.4154 99.32 45.9034 94.568 38.7994 94.568C31.8394 94.568 26.9914 99.704 26.9914 107.144C26.9914 114.488 31.9354 119.624 38.9914 119.624ZM38.8474 99.368C42.3514 99.368 44.6074 101.528 44.6074 104.792H32.7034C33.2794 101.24 35.3914 99.368 38.8474 99.368ZM61.9238 119.624C65.6198 119.624 68.8358 117.944 69.8438 115.496L70.2758 119H75.4118V104.6C75.4118 98.024 71.4758 94.568 65.0918 94.568C58.6598 94.568 54.4358 97.928 54.4358 103.064H59.4278C59.4278 100.568 61.3478 99.128 64.8038 99.128C67.7798 99.128 69.6998 100.424 69.6998 103.64V104.168L62.5958 104.696C56.9798 105.128 53.8118 107.864 53.8118 112.232C53.8118 116.696 56.8838 119.624 61.9238 119.624ZM63.8438 115.208C61.2038 115.208 59.7638 114.152 59.7638 111.992C59.7638 110.072 61.1558 108.872 64.8038 108.536L69.7478 108.152V109.4C69.7478 113.048 67.4438 115.208 63.8438 115.208ZM96.0446 95.192C95.0846 94.952 94.2686 94.856 93.4526 94.856C90.2846 94.856 88.0286 96.44 87.0206 98.792L86.6846 95.336H81.1646V119H87.0206V107.48C87.0206 102.872 89.6606 100.616 93.8846 100.616H96.0446V95.192ZM105.864 119V106.232C105.864 102.392 108.072 99.896 111.672 99.896C114.696 99.896 116.664 101.816 116.664 105.8V119H122.52V104.408C122.52 98.264 119.448 94.568 113.496 94.568C110.28 94.568 107.4 95.96 105.912 98.36L105.432 95.288H100.008V119H105.864ZM131.202 90.536C133.122 90.536 134.706 88.952 134.706 86.984C134.706 85.016 133.122 83.48 131.202 83.48C129.186 83.48 127.602 85.016 127.602 86.984C127.602 88.952 129.186 90.536 131.202 90.536ZM128.274 119H134.13V95.288H128.274V119ZM146.036 119V106.232C146.036 102.392 148.244 99.896 151.844 99.896C154.868 99.896 156.836 101.816 156.836 105.8V119H162.692V104.408C162.692 98.264 159.62 94.568 153.668 94.568C150.452 94.568 147.572 95.96 146.084 98.36L145.604 95.288H140.18V119H146.036ZM167.102 106.616C167.102 113.48 171.518 118.52 178.238 118.52C181.646 118.52 184.574 117.128 186.062 114.92V118.856C186.062 122.792 183.47 125.336 179.438 125.336C175.838 125.336 173.486 123.512 173.102 120.44H167.246C167.966 126.776 172.622 130.664 179.438 130.664C187.118 130.664 191.87 125.72 191.87 117.8V95.288H186.446L186.11 98.552C184.718 96.008 181.934 94.52 178.382 94.52C171.614 94.52 167.102 99.704 167.102 106.616ZM173.006 106.472C173.006 102.584 175.502 99.656 179.39 99.656C183.47 99.656 185.918 102.44 185.918 106.472C185.918 110.6 183.422 113.432 179.39 113.432C175.55 113.432 173.006 110.456 173.006 106.472Z" fill="#1A1C20"/>
<path d="M2.912 151.432H1.344V163H8V161.544H2.912V151.432ZM12.6671 163.192C14.6031 163.192 15.9151 162.248 16.2991 160.568H14.8911C14.6351 161.464 13.8671 161.944 12.6991 161.944C11.2111 161.944 10.3471 161.032 10.2351 159.384L16.2831 159.368V158.808C16.2831 156.488 14.8271 154.952 12.6031 154.952C10.3311 154.952 8.77913 156.648 8.77913 159.096C8.77913 161.528 10.3631 163.192 12.6671 163.192ZM12.6031 156.216C13.9311 156.216 14.7791 157.08 14.7791 158.376H10.2671C10.4591 157 11.2911 156.216 12.6031 156.216ZM20.1729 163.192C21.4369 163.192 22.5089 162.632 22.9089 161.736L23.0689 163H24.3489V158.088C24.3489 155.976 23.0369 154.952 21.1009 154.952C19.0849 154.952 17.7409 156.024 17.7409 157.656H19.0529C19.0529 156.712 19.7729 156.152 21.0369 156.152C22.0929 156.152 22.8769 156.616 22.8769 157.928V158.152L20.4129 158.344C18.5729 158.488 17.5009 159.384 17.5009 160.824C17.5009 162.248 18.4929 163.192 20.1729 163.192ZM20.6049 162.024C19.6289 162.024 19.0209 161.608 19.0209 160.776C19.0209 160.008 19.5649 159.496 20.8929 159.368L22.8929 159.208V159.624C22.8929 161.096 22.0289 162.024 20.6049 162.024ZM30.9118 155.112C30.6078 155.048 30.3838 155.016 30.1118 155.016C29.0398 155.016 28.2558 155.56 27.9358 156.376L27.8398 155.192H26.4318V163H27.9358V158.856C27.9358 157.352 28.8158 156.488 30.2398 156.488H30.9118V155.112ZM33.8264 163V158.856C33.8264 157.336 34.6424 156.328 36.0504 156.328C37.2024 156.328 37.9384 156.968 37.9384 158.552V163H39.4424V158.216C39.4424 156.216 38.4984 154.952 36.4344 154.952C35.3304 154.952 34.3384 155.48 33.8424 156.376L33.6824 155.176H32.3224V163H33.8264ZM47.6925 163V158.056C47.6925 156.44 47.6605 155.256 47.5805 154.696L50.9405 163H52.4125L55.7885 154.664C55.7085 155.48 55.6925 156.264 55.6925 158.424V163H57.2285V151.432H55.6605L51.6765 161.16L47.6925 151.432H46.1565V163H47.6925ZM60.4021 153.32C60.9461 153.32 61.3941 152.872 61.3941 152.328C61.3941 151.768 60.9461 151.336 60.4021 151.336C59.8581 151.336 59.4101 151.768 59.4101 152.328C59.4101 152.872 59.8581 153.32 60.4021 153.32ZM59.6661 163H61.1701V155.176H59.6661V163ZM66.4896 163.192C67.7376 163.192 68.7936 162.648 69.3056 161.576L69.4336 163H70.7776V151.224H69.2896V156.44C68.7616 155.48 67.7536 154.952 66.5536 154.952C64.2336 154.952 62.8416 156.712 62.8416 159.112C62.8416 161.496 64.2176 163.192 66.4896 163.192ZM66.7936 161.832C65.2576 161.832 64.3616 160.68 64.3616 159.064C64.3616 157.464 65.2576 156.312 66.7936 156.312C68.3296 156.312 69.2736 157.464 69.2736 159.064C69.2736 160.696 68.3296 161.832 66.7936 161.832ZM74.6274 163H76.1154L77.4754 158.824C77.7634 157.88 77.9074 157.368 77.9874 156.984C78.0674 157.416 78.2274 158.024 78.4834 158.808L79.8434 163H81.2674L83.9394 155.176H82.3714L81.0594 159.24C80.8354 159.928 80.6914 160.472 80.5634 161.096C80.4354 160.536 80.1794 159.624 80.0514 159.24L78.7554 155.176H77.2194L75.9074 159.24C75.7314 159.752 75.5234 160.408 75.3954 161.096C75.2514 160.408 75.0914 159.816 74.9154 159.24L73.6194 155.176H72.0674L74.6274 163ZM85.9646 153.32C86.5086 153.32 86.9566 152.872 86.9566 152.328C86.9566 151.768 86.5086 151.336 85.9646 151.336C85.4206 151.336 84.9726 151.768 84.9726 152.328C84.9726 152.872 85.4206 153.32 85.9646 153.32ZM85.2286 163H86.7326V155.176H85.2286V163ZM88.0841 155.176V156.44H89.2361V163H90.7401V156.44H92.5961V155.176H90.7401V153.928C90.7401 153.08 90.9961 152.584 91.9721 152.584H92.6441V151.288C92.3401 151.24 92.0041 151.224 91.7161 151.224C90.2921 151.224 89.2361 152.008 89.2361 153.928V155.176H88.0841ZM97.1359 163.192C99.0719 163.192 100.384 162.248 100.768 160.568H99.3599C99.1039 161.464 98.3359 161.944 97.1679 161.944C95.6799 161.944 94.8159 161.032 94.7039 159.384L100.752 159.368V158.808C100.752 156.488 99.2959 154.952 97.0719 154.952C94.7999 154.952 93.2479 156.648 93.2479 159.096C93.2479 161.528 94.8319 163.192 97.1359 163.192ZM97.0719 156.216C98.3999 156.216 99.2479 157.08 99.2479 158.376H94.7359C94.9279 157 95.7599 156.216 97.0719 156.216ZM106.912 155.112C106.608 155.048 106.384 155.016 106.112 155.016C105.04 155.016 104.256 155.56 103.936 156.376L103.84 155.192H102.432V163H103.936V158.856C103.936 157.352 104.816 156.488 106.24 156.488H106.912V155.112ZM107.805 166.504C108.205 166.6 108.621 166.664 109.117 166.664C110.317 166.664 111.101 166.104 111.629 164.76L115.325 155.176H113.773L111.453 161.48L109.181 155.176H107.597L110.749 163.416L110.477 164.168C110.109 165.16 109.533 165.272 108.813 165.272H107.805V166.504ZM120.389 159.08C120.389 161.496 122.117 163.192 124.469 163.192C126.805 163.192 128.533 161.496 128.533 159.08C128.533 156.664 126.805 154.968 124.469 154.968C122.117 154.968 120.389 156.664 120.389 159.08ZM121.909 159.08C121.909 157.448 122.949 156.312 124.469 156.312C125.973 156.312 127.029 157.448 127.029 159.08C127.029 160.712 125.973 161.848 124.469 161.848C122.949 161.848 121.909 160.712 121.909 159.08ZM131.701 163V158.856C131.701 157.336 132.517 156.328 133.925 156.328C135.077 156.328 135.813 156.968 135.813 158.552V163H137.317V158.216C137.317 156.216 136.373 154.952 134.309 154.952C133.205 154.952 132.213 155.48 131.717 156.376L131.557 155.176H130.197V163H131.701ZM145.984 163V156.44H147.52V155.176H145.984V152.728H144.48V155.176H142.944V156.44H144.48V163H145.984ZM150.373 162.984V158.728C150.373 157.384 151.157 156.328 152.613 156.328C153.733 156.328 154.485 156.968 154.485 158.552V163H155.989V158.216C155.989 156.216 155.029 154.952 153.029 154.952C151.813 154.952 150.869 155.528 150.373 156.376V151.224H148.869V162.984H150.373ZM161.448 163.192C163.384 163.192 164.696 162.248 165.08 160.568H163.672C163.416 161.464 162.648 161.944 161.48 161.944C159.992 161.944 159.128 161.032 159.016 159.384L165.064 159.368V158.808C165.064 156.488 163.608 154.952 161.384 154.952C159.112 154.952 157.56 156.648 157.56 159.096C157.56 161.528 159.144 163.192 161.448 163.192ZM161.384 156.216C162.712 156.216 163.56 157.08 163.56 158.376H159.048C159.24 157 160.072 156.216 161.384 156.216ZM170.623 158.888C170.623 161.08 172.031 162.792 174.255 162.792C175.487 162.792 176.511 162.248 177.023 161.336V162.904C177.023 164.392 176.063 165.352 174.591 165.352C173.279 165.352 172.415 164.68 172.223 163.528H170.719C171.007 165.512 172.463 166.712 174.591 166.712C176.991 166.712 178.511 165.144 178.511 162.68V155.176H177.167L177.055 156.504C176.559 155.528 175.583 154.952 174.319 154.952C172.047 154.952 170.623 156.68 170.623 158.888ZM172.127 158.856C172.127 157.416 173.023 156.264 174.527 156.264C176.063 156.264 176.959 157.352 176.959 158.856C176.959 160.392 176.031 161.48 174.511 161.48C173.039 161.48 172.127 160.328 172.127 158.856ZM180.17 159.08C180.17 161.496 181.898 163.192 184.25 163.192C186.586 163.192 188.314 161.496 188.314 159.08C188.314 156.664 186.586 154.968 184.25 154.968C181.898 154.968 180.17 156.664 180.17 159.08ZM181.69 159.08C181.69 157.448 182.73 156.312 184.25 156.312C185.754 156.312 186.81 157.448 186.81 159.08C186.81 160.712 185.754 161.848 184.25 161.848C182.73 161.848 181.69 160.712 181.69 159.08ZM196.034 163H197.522L198.882 158.824C199.17 157.88 199.314 157.368 199.394 156.984C199.474 157.416 199.634 158.024 199.89 158.808L201.25 163H202.674L205.346 155.176H203.778L202.466 159.24C202.242 159.928 202.098 160.472 201.97 161.096C201.842 160.536 201.586 159.624 201.458 159.24L200.162 155.176H198.626L197.314 159.24C197.138 159.752 196.93 160.408 196.802 161.096C196.658 160.408 196.498 159.816 196.322 159.24L195.026 155.176H193.474L196.034 163ZM207.371 153.32C207.915 153.32 208.363 152.872 208.363 152.328C208.363 151.768 207.915 151.336 207.371 151.336C206.827 151.336 206.379 151.768 206.379 152.328C206.379 152.872 206.827 153.32 207.371 153.32ZM206.635 163H208.139V155.176H206.635V163ZM212.53 163V156.44H214.066V155.176H212.53V152.728H211.026V155.176H209.49V156.44H211.026V163H212.53ZM216.92 162.984V158.728C216.92 157.384 217.704 156.328 219.16 156.328C220.28 156.328 221.032 156.968 221.032 158.552V163H222.536V158.216C222.536 156.216 221.576 154.952 219.576 154.952C218.36 154.952 217.416 155.528 216.92 156.376V151.224H215.416V162.984H216.92ZM229.25 163H233.826C236.114 163 237.506 161.832 237.506 159.912C237.506 158.536 236.85 157.608 235.57 157.192C236.722 156.712 237.298 155.816 237.298 154.488C237.298 152.584 235.922 151.432 233.666 151.432H229.25V163ZM233.57 152.824C234.93 152.824 235.698 153.48 235.698 154.632C235.698 155.832 234.962 156.536 233.666 156.536H230.818V152.824H233.57ZM233.794 157.896C235.122 157.896 235.89 158.568 235.89 159.72C235.89 160.92 235.138 161.608 233.794 161.608H230.818V157.896H233.794ZM239.949 153.32C240.493 153.32 240.941 152.872 240.941 152.328C240.941 151.768 240.493 151.336 239.949 151.336C239.405 151.336 238.957 151.768 238.957 152.328C238.957 152.872 239.405 153.32 239.949 153.32ZM239.213 163H240.717V155.176H239.213V163ZM247.381 155.112C247.077 155.048 246.853 155.016 246.581 155.016C245.509 155.016 244.725 155.56 244.405 156.376L244.309 155.192H242.901V163H244.405V158.856C244.405 157.352 245.285 156.488 246.709 156.488H247.381V155.112ZM251.312 163V156.44H252.848V155.176H251.312V152.728H249.808V155.176H248.272V156.44H249.808V163H251.312ZM255.701 162.984V158.728C255.701 157.384 256.485 156.328 257.941 156.328C259.061 156.328 259.813 156.968 259.813 158.552V163H261.317V158.216C261.317 156.216 260.357 154.952 258.357 154.952C257.141 154.952 256.197 155.528 255.701 156.376V151.224H254.197V162.984H255.701ZM275.547 163H277.307L275.515 160.952C276.075 160.056 276.395 158.904 276.395 157.592H274.939C274.939 158.456 274.795 159.224 274.539 159.848L271.771 156.696C273.259 155.688 273.851 154.792 273.851 153.64C273.851 152.216 272.763 151.24 271.179 151.24C269.547 151.24 268.411 152.28 268.411 153.736C268.411 154.6 268.779 155.304 269.771 156.44C267.851 157.432 266.939 158.568 266.939 159.992C266.939 161.928 268.571 163.208 271.051 163.208C272.507 163.208 273.739 162.76 274.635 161.96L275.547 163ZM269.835 153.72C269.835 152.952 270.347 152.456 271.163 152.456C271.963 152.456 272.443 152.92 272.443 153.672C272.443 154.536 271.979 155.24 271.003 155.832C270.107 154.808 269.835 154.328 269.835 153.72ZM268.507 159.88C268.507 158.84 269.083 158.088 270.523 157.288L273.771 160.968C273.131 161.592 272.267 161.912 271.195 161.912C269.515 161.912 268.507 161.144 268.507 159.88ZM282.594 163H287.17C289.458 163 290.85 161.832 290.85 159.912C290.85 158.536 290.194 157.608 288.914 157.192C290.066 156.712 290.642 155.816 290.642 154.488C290.642 152.584 289.266 151.432 287.01 151.432H282.594V163ZM286.914 152.824C288.274 152.824 289.042 153.48 289.042 154.632C289.042 155.832 288.306 156.536 287.01 156.536H284.162V152.824H286.914ZM287.138 157.896C288.466 157.896 289.234 158.568 289.234 159.72C289.234 160.92 288.482 161.608 287.138 161.608H284.162V157.896H287.138ZM292.045 159.08C292.045 161.496 293.773 163.192 296.125 163.192C298.461 163.192 300.189 161.496 300.189 159.08C300.189 156.664 298.461 154.968 296.125 154.968C293.773 154.968 292.045 156.664 292.045 159.08ZM293.565 159.08C293.565 157.448 294.605 156.312 296.125 156.312C297.629 156.312 298.685 157.448 298.685 159.08C298.685 160.712 297.629 161.848 296.125 161.848C294.605 161.848 293.565 160.712 293.565 159.08ZM304.99 163.192C306.238 163.192 307.294 162.648 307.806 161.576L307.934 163H309.278V151.224H307.79V156.44C307.262 155.48 306.254 154.952 305.054 154.952C302.734 154.952 301.342 156.712 301.342 159.112C301.342 161.496 302.718 163.192 304.99 163.192ZM305.294 161.832C303.758 161.832 302.862 160.68 302.862 159.064C302.862 157.464 303.758 156.312 305.294 156.312C306.83 156.312 307.774 157.464 307.774 159.064C307.774 160.696 306.83 161.832 305.294 161.832ZM310.695 166.504C311.095 166.6 311.511 166.664 312.007 166.664C313.207 166.664 313.991 166.104 314.519 164.76L318.215 155.176H316.663L314.343 161.48L312.071 155.176H310.487L313.639 163.416L313.367 164.168C312.999 165.16 312.423 165.272 311.703 165.272H310.695V166.504ZM319.208 163.192C319.816 163.192 320.344 162.68 320.344 162.072C320.344 161.448 319.816 160.936 319.208 160.936C318.584 160.936 318.056 161.448 318.056 162.072C318.056 162.68 318.584 163.192 319.208 163.192ZM0.672 180.552C0.672 182.216 1.648 183.304 3.536 183.736L5.44 184.168C6.544 184.424 7.04 185 7.04 185.912C7.04 187.064 6.064 187.784 4.528 187.784C3.072 187.784 2.144 187.08 2.112 185.976H0.512C0.608 187.96 2.176 189.192 4.528 189.192C6.992 189.192 8.608 187.864 8.608 185.784C8.608 184.152 7.648 183.128 5.76 182.696L3.856 182.248C2.768 181.992 2.24 181.432 2.24 180.504C2.24 179.368 3.184 178.632 4.64 178.632C5.936 178.632 6.752 179.304 6.832 180.456H8.416C8.288 178.456 6.864 177.224 4.656 177.224C2.272 177.224 0.672 178.568 0.672 180.552ZM12.5304 189V182.44H14.0664V181.176H12.5304V178.728H11.0264V181.176H9.49038V182.44H11.0264V189H12.5304ZM17.6104 189.192C18.8744 189.192 19.9464 188.632 20.3464 187.736L20.5064 189H21.7864V184.088C21.7864 181.976 20.4744 180.952 18.5384 180.952C16.5224 180.952 15.1784 182.024 15.1784 183.656H16.4904C16.4904 182.712 17.2104 182.152 18.4744 182.152C19.5304 182.152 20.3144 182.616 20.3144 183.928V184.152L17.8504 184.344C16.0104 184.488 14.9384 185.384 14.9384 186.824C14.9384 188.248 15.9304 189.192 17.6104 189.192ZM18.0424 188.024C17.0664 188.024 16.4584 187.608 16.4584 186.776C16.4584 186.008 17.0024 185.496 18.3304 185.368L20.3304 185.208V185.624C20.3304 187.096 19.4664 188.024 18.0424 188.024ZM28.3493 181.112C28.0453 181.048 27.8213 181.016 27.5493 181.016C26.4773 181.016 25.6933 181.56 25.3733 182.376L25.2773 181.192H23.8693V189H25.3733V184.856C25.3733 183.352 26.2533 182.488 27.6773 182.488H28.3493V181.112ZM32.2804 189V182.44H33.8164V181.176H32.2804V178.728H30.7764V181.176H29.2404V182.44H30.7764V189H32.2804ZM41.0771 189V177.224H39.5731V189H41.0771ZM46.6671 189.192C48.6031 189.192 49.9151 188.248 50.2991 186.568H48.8911C48.6351 187.464 47.8671 187.944 46.6991 187.944C45.2111 187.944 44.3471 187.032 44.2351 185.384L50.2831 185.368V184.808C50.2831 182.488 48.8271 180.952 46.6031 180.952C44.3311 180.952 42.7791 182.648 42.7791 185.096C42.7791 187.528 44.3631 189.192 46.6671 189.192ZM46.6031 182.216C47.9311 182.216 48.7791 183.08 48.7791 184.376H44.2671C44.4591 183 45.2911 182.216 46.6031 182.216ZM54.1729 189.192C55.4369 189.192 56.5089 188.632 56.9089 187.736L57.0689 189H58.3489V184.088C58.3489 181.976 57.0369 180.952 55.1009 180.952C53.0849 180.952 51.7409 182.024 51.7409 183.656H53.0529C53.0529 182.712 53.7729 182.152 55.0369 182.152C56.0929 182.152 56.8769 182.616 56.8769 183.928V184.152L54.4129 184.344C52.5729 184.488 51.5009 185.384 51.5009 186.824C51.5009 188.248 52.4929 189.192 54.1729 189.192ZM54.6049 188.024C53.6289 188.024 53.0209 187.608 53.0209 186.776C53.0209 186.008 53.5649 185.496 54.8929 185.368L56.8929 185.208V185.624C56.8929 187.096 56.0289 188.024 54.6049 188.024ZM64.9118 181.112C64.6078 181.048 64.3838 181.016 64.1118 181.016C63.0398 181.016 62.2558 181.56 61.9358 182.376L61.8398 181.192H60.4318V189H61.9358V184.856C61.9358 183.352 62.8158 182.488 64.2398 182.488H64.9118V181.112ZM67.8264 189V184.856C67.8264 183.336 68.6424 182.328 70.0504 182.328C71.2024 182.328 71.9384 182.968 71.9384 184.552V189H73.4424V184.216C73.4424 182.216 72.4984 180.952 70.4344 180.952C69.3304 180.952 68.3384 181.48 67.8424 182.376L67.6824 181.176H66.3224V189H67.8264ZM76.2615 179.32C76.8055 179.32 77.2535 178.872 77.2535 178.328C77.2535 177.768 76.8055 177.336 76.2615 177.336C75.7175 177.336 75.2695 177.768 75.2695 178.328C75.2695 178.872 75.7175 179.32 76.2615 179.32ZM75.5255 189H77.0295V181.176H75.5255V189ZM80.717 189V184.856C80.717 183.336 81.533 182.328 82.941 182.328C84.093 182.328 84.829 182.968 84.829 184.552V189H86.333V184.216C86.333 182.216 85.389 180.952 83.325 180.952C82.221 180.952 81.229 181.48 80.733 182.376L80.573 181.176H79.213V189H80.717ZM87.9201 184.888C87.9201 187.08 89.3281 188.792 91.5521 188.792C92.7841 188.792 93.8081 188.248 94.3201 187.336V188.904C94.3201 190.392 93.3601 191.352 91.8881 191.352C90.5761 191.352 89.7121 190.68 89.5201 189.528H88.0161C88.3041 191.512 89.7601 192.712 91.8881 192.712C94.2881 192.712 95.8081 191.144 95.8081 188.68V181.176H94.4641L94.3521 182.504C93.8561 181.528 92.8801 180.952 91.6161 180.952C89.3441 180.952 87.9201 182.68 87.9201 184.888ZM89.4241 184.856C89.4241 183.416 90.3201 182.264 91.8241 182.264C93.3601 182.264 94.2561 183.352 94.2561 184.856C94.2561 186.392 93.3281 187.48 91.8081 187.48C90.3361 187.48 89.4241 186.328 89.4241 184.856ZM104.034 189H105.522L106.882 184.824C107.17 183.88 107.314 183.368 107.394 182.984C107.474 183.416 107.634 184.024 107.89 184.808L109.25 189H110.674L113.346 181.176H111.778L110.466 185.24C110.242 185.928 110.098 186.472 109.97 187.096C109.842 186.536 109.586 185.624 109.458 185.24L108.162 181.176H106.626L105.314 185.24C105.138 185.752 104.93 186.408 104.802 187.096C104.658 186.408 104.498 185.816 104.322 185.24L103.026 181.176H101.474L104.034 189ZM115.371 179.32C115.915 179.32 116.363 178.872 116.363 178.328C116.363 177.768 115.915 177.336 115.371 177.336C114.827 177.336 114.379 177.768 114.379 178.328C114.379 178.872 114.827 179.32 115.371 179.32ZM114.635 189H116.139V181.176H114.635V189ZM120.53 189V182.44H122.066V181.176H120.53V178.728H119.026V181.176H117.49V182.44H119.026V189H120.53ZM124.92 188.984V184.728C124.92 183.384 125.704 182.328 127.16 182.328C128.28 182.328 129.032 182.968 129.032 184.552V189H130.536V184.216C130.536 182.216 129.576 180.952 127.576 180.952C126.36 180.952 125.416 181.528 124.92 182.376V177.224H123.416V188.984H124.92ZM136.162 181.176V182.44H137.314V189H138.818V182.44H140.674V181.176H138.818V179.928C138.818 179.08 139.074 178.584 140.05 178.584H140.722V177.288C140.418 177.24 140.082 177.224 139.794 177.224C138.37 177.224 137.314 178.008 137.314 179.928V181.176H136.162ZM147.48 181.176V185.304C147.48 186.984 146.728 187.864 145.352 187.864C144.2 187.864 143.48 187.224 143.48 185.544V181.176H141.976V186.04C141.976 187.96 143 189.192 144.824 189.192C145.976 189.192 147.016 188.632 147.464 187.816L147.624 189H148.968V181.176H147.48ZM152.655 189V184.856C152.655 183.336 153.471 182.328 154.879 182.328C156.031 182.328 156.767 182.968 156.767 184.552V189H158.271V184.216C158.271 182.216 157.327 180.952 155.263 180.952C154.159 180.952 153.167 181.48 152.671 182.376L152.511 181.176H151.151V189H152.655ZM163.897 181.176V182.44H165.049V189H166.553V182.44H168.409V181.176H166.553V179.928C166.553 179.08 166.809 178.584 167.785 178.584H168.457V177.288C168.153 177.24 167.817 177.224 167.529 177.224C166.105 177.224 165.049 178.008 165.049 179.928V181.176H163.897ZM174.287 181.112C173.983 181.048 173.759 181.016 173.487 181.016C172.415 181.016 171.631 181.56 171.311 182.376L171.215 181.192H169.807V189H171.311V184.856C171.311 183.352 172.191 182.488 173.615 182.488H174.287V181.112ZM174.904 185.08C174.904 187.496 176.632 189.192 178.984 189.192C181.32 189.192 183.048 187.496 183.048 185.08C183.048 182.664 181.32 180.968 178.984 180.968C176.632 180.968 174.904 182.664 174.904 185.08ZM176.424 185.08C176.424 183.448 177.464 182.312 178.984 182.312C180.488 182.312 181.544 183.448 181.544 185.08C181.544 186.712 180.488 187.848 178.984 187.848C177.464 187.848 176.424 186.712 176.424 185.08ZM186.217 189V184.36C186.217 183.112 186.969 182.328 188.105 182.328C189.161 182.328 189.833 183 189.833 184.232V189H191.321V184.36C191.321 183.112 192.073 182.312 193.209 182.312C194.265 182.312 194.953 183.016 194.953 184.248V189H196.425V183.88C196.425 182.072 195.337 180.952 193.545 180.952C192.329 180.952 191.385 181.56 191.017 182.536C190.617 181.56 189.753 180.952 188.537 180.952C187.433 180.952 186.601 181.464 186.201 182.2L186.057 181.176H184.713V189H186.217ZM204.389 189V184.36C204.389 183.112 205.141 182.328 206.277 182.328C207.333 182.328 208.005 183 208.005 184.232V189H209.493V184.36C209.493 183.112 210.245 182.312 211.381 182.312C212.437 182.312 213.125 183.016 213.125 184.248V189H214.597V183.88C214.597 182.072 213.509 180.952 211.717 180.952C210.501 180.952 209.557 181.56 209.189 182.536C208.789 181.56 207.925 180.952 206.709 180.952C205.605 180.952 204.773 181.464 204.373 182.2L204.229 181.176H202.885V189H204.389ZM222.09 181.176V185.304C222.09 186.984 221.338 187.864 219.962 187.864C218.81 187.864 218.09 187.224 218.09 185.544V181.176H216.586V186.04C216.586 187.96 217.61 189.192 219.434 189.192C220.586 189.192 221.626 188.632 222.074 187.816L222.234 189H223.578V181.176H222.09ZM227.296 189V177.224H225.792V189H227.296ZM231.718 189V182.44H233.254V181.176H231.718V178.728H230.214V181.176H228.678V182.44H230.214V189H231.718ZM235.34 179.32C235.884 179.32 236.332 178.872 236.332 178.328C236.332 177.768 235.884 177.336 235.34 177.336C234.796 177.336 234.348 177.768 234.348 178.328C234.348 178.872 234.796 179.32 235.34 179.32ZM234.604 189H236.108V181.176H234.604V189ZM238.291 192.504H239.795V187.72C240.307 188.68 241.347 189.208 242.595 189.208C244.915 189.208 246.227 187.416 246.227 185.032C246.227 182.632 244.835 180.952 242.595 180.952C241.347 180.952 240.291 181.512 239.763 182.584L239.651 181.176H238.291V192.504ZM239.811 185.096C239.811 183.464 240.739 182.328 242.275 182.328C243.811 182.328 244.723 183.48 244.723 185.096C244.723 186.696 243.811 187.848 242.275 187.848C240.739 187.848 239.811 186.696 239.811 185.096ZM249.421 189V177.224H247.917V189H249.421ZM255.011 189.192C256.947 189.192 258.259 188.248 258.643 186.568H257.235C256.979 187.464 256.211 187.944 255.043 187.944C253.555 187.944 252.691 187.032 252.579 185.384L258.627 185.368V184.808C258.627 182.488 257.171 180.952 254.947 180.952C252.675 180.952 251.123 182.648 251.123 185.096C251.123 187.528 252.707 189.192 255.011 189.192ZM254.947 182.216C256.275 182.216 257.123 183.08 257.123 184.376H252.611C252.803 183 253.635 182.216 254.947 182.216ZM264.17 185.096C264.17 187.56 265.69 189.192 267.994 189.192C269.882 189.192 271.338 188.056 271.642 186.36H270.138C269.866 187.288 269.066 187.848 267.994 187.848C266.57 187.848 265.658 186.76 265.658 185.08C265.658 183.384 266.634 182.296 268.058 182.296C269.066 182.296 269.866 182.824 270.122 183.816H271.626C271.354 182.072 269.978 180.952 268.01 180.952C265.722 180.952 264.17 182.648 264.17 185.096ZM274.733 188.984V184.728C274.733 183.384 275.517 182.328 276.973 182.328C278.093 182.328 278.845 182.968 278.845 184.552V189H280.349V184.216C280.349 182.216 279.389 180.952 277.389 180.952C276.173 180.952 275.229 181.528 274.733 182.376V177.224H273.229V188.984H274.733ZM281.92 185.08C281.92 187.496 283.648 189.192 286 189.192C288.336 189.192 290.064 187.496 290.064 185.08C290.064 182.664 288.336 180.968 286 180.968C283.648 180.968 281.92 182.664 281.92 185.08ZM283.44 185.08C283.44 183.448 284.48 182.312 286 182.312C287.504 182.312 288.56 183.448 288.56 185.08C288.56 186.712 287.504 187.848 286 187.848C284.48 187.848 283.44 186.712 283.44 185.08ZM292.465 179.32C293.009 179.32 293.457 178.872 293.457 178.328C293.457 177.768 293.009 177.336 292.465 177.336C291.921 177.336 291.473 177.768 291.473 178.328C291.473 178.872 291.921 179.32 292.465 179.32ZM291.729 189H293.233V181.176H291.729V189ZM294.904 185.096C294.904 187.56 296.424 189.192 298.728 189.192C300.616 189.192 302.072 188.056 302.376 186.36H300.872C300.6 187.288 299.8 187.848 298.728 187.848C297.304 187.848 296.392 186.76 296.392 185.08C296.392 183.384 297.368 182.296 298.792 182.296C299.8 182.296 300.6 182.824 300.856 183.816H302.36C302.088 182.072 300.712 180.952 298.744 180.952C296.456 180.952 294.904 182.648 294.904 185.096ZM307.339 189.192C309.275 189.192 310.587 188.248 310.971 186.568H309.563C309.307 187.464 308.539 187.944 307.371 187.944C305.883 187.944 305.019 187.032 304.907 185.384L310.955 185.368V184.808C310.955 182.488 309.499 180.952 307.275 180.952C305.003 180.952 303.451 182.648 303.451 185.096C303.451 187.528 305.035 189.192 307.339 189.192ZM307.275 182.216C308.603 182.216 309.451 183.08 309.451 184.376H304.939C305.131 183 305.963 182.216 307.275 182.216ZM311.995 186.728C311.995 188.216 313.163 189.192 315.003 189.192C316.859 189.192 318.139 188.248 318.139 186.76C318.139 185.592 317.483 184.984 316.155 184.664L314.779 184.328C314.011 184.136 313.627 183.784 313.627 183.256C313.627 182.536 314.155 182.12 315.099 182.12C316.011 182.12 316.539 182.616 316.571 183.4H318.011C317.979 181.912 316.859 180.952 315.147 180.952C313.419 180.952 312.203 181.864 312.203 183.304C312.203 184.456 312.859 185.144 314.251 185.48L315.627 185.8C316.443 186.008 316.699 186.328 316.699 186.856C316.699 187.576 316.091 188.008 315.035 188.008C314.043 188.008 313.435 187.528 313.435 186.728H311.995ZM323.67 185.08C323.67 187.496 325.398 189.192 327.75 189.192C330.086 189.192 331.814 187.496 331.814 185.08C331.814 182.664 330.086 180.968 327.75 180.968C325.398 180.968 323.67 182.664 323.67 185.08ZM325.19 185.08C325.19 183.448 326.23 182.312 327.75 182.312C329.254 182.312 330.31 183.448 330.31 185.08C330.31 186.712 329.254 187.848 327.75 187.848C326.23 187.848 325.19 186.712 325.19 185.08ZM332.6 181.176V182.44H333.752V189H335.256V182.44H337.112V181.176H335.256V179.928C335.256 179.08 335.512 178.584 336.488 178.584H337.16V177.288C336.856 177.24 336.52 177.224 336.232 177.224C334.808 177.224 333.752 178.008 333.752 179.928V181.176H332.6ZM0.592 210.888C0.592 213.08 2 214.792 4.224 214.792C5.456 214.792 6.48 214.248 6.992 213.336V214.904C6.992 216.392 6.032 217.352 4.56 217.352C3.248 217.352 2.384 216.68 2.192 215.528H0.688C0.976 217.512 2.432 218.712 4.56 218.712C6.96 218.712 8.48 217.144 8.48 214.68V207.176H7.136L7.024 208.504C6.528 207.528 5.552 206.952 4.288 206.952C2.016 206.952 0.592 208.68 0.592 210.888ZM2.096 210.856C2.096 209.416 2.992 208.264 4.496 208.264C6.032 208.264 6.928 209.352 6.928 210.856C6.928 212.392 6 213.48 4.48 213.48C3.008 213.48 2.096 212.328 2.096 210.856ZM12.9385 215.192C14.2025 215.192 15.2745 214.632 15.6745 213.736L15.8345 215H17.1145V210.088C17.1145 207.976 15.8025 206.952 13.8665 206.952C11.8505 206.952 10.5065 208.024 10.5065 209.656H11.8185C11.8185 208.712 12.5385 208.152 13.8025 208.152C14.8585 208.152 15.6425 208.616 15.6425 209.928V210.152L13.1785 210.344C11.3385 210.488 10.2665 211.384 10.2665 212.824C10.2665 214.248 11.2585 215.192 12.9385 215.192ZM13.3705 214.024C12.3945 214.024 11.7865 213.608 11.7865 212.776C11.7865 212.008 12.3305 211.496 13.6585 211.368L15.6585 211.208V211.624C15.6585 213.096 14.7945 214.024 13.3705 214.024ZM20.7014 215V210.36C20.7014 209.112 21.4534 208.328 22.5894 208.328C23.6454 208.328 24.3174 209 24.3174 210.232V215H25.8054V210.36C25.8054 209.112 26.5574 208.312 27.6934 208.312C28.7494 208.312 29.4374 209.016 29.4374 210.248V215H30.9094V209.88C30.9094 208.072 29.8214 206.952 28.0294 206.952C26.8134 206.952 25.8694 207.56 25.5014 208.536C25.1014 207.56 24.2374 206.952 23.0214 206.952C21.9174 206.952 21.0854 207.464 20.6854 208.2L20.5414 207.176H19.1974V215H20.7014ZM36.3703 215.192C38.3063 215.192 39.6183 214.248 40.0023 212.568H38.5943C38.3383 213.464 37.5703 213.944 36.4023 213.944C34.9143 213.944 34.0503 213.032 33.9383 211.384L39.9862 211.368V210.808C39.9862 208.488 38.5303 206.952 36.3063 206.952C34.0343 206.952 32.4823 208.648 32.4823 211.096C32.4823 213.528 34.0663 215.192 36.3703 215.192ZM36.3063 208.216C37.6343 208.216 38.4823 209.08 38.4823 210.376H33.9703C34.1623 209 34.9943 208.216 36.3063 208.216ZM41.0261 212.728C41.0261 214.216 42.1941 215.192 44.0341 215.192C45.8901 215.192 47.1701 214.248 47.1701 212.76C47.1701 211.592 46.5141 210.984 45.1861 210.664L43.8101 210.328C43.0421 210.136 42.6581 209.784 42.6581 209.256C42.6581 208.536 43.1861 208.12 44.1301 208.12C45.0421 208.12 45.5701 208.616 45.6021 209.4H47.0421C47.0101 207.912 45.8901 206.952 44.1781 206.952C42.4501 206.952 41.2341 207.864 41.2341 209.304C41.2341 210.456 41.8901 211.144 43.2821 211.48L44.6581 211.8C45.4741 212.008 45.7301 212.328 45.7301 212.856C45.7301 213.576 45.1221 214.008 44.0661 214.008C43.0741 214.008 42.4661 213.528 42.4661 212.728H41.0261ZM55.501 215.192C56.765 215.192 57.837 214.632 58.237 213.736L58.397 215H59.677V210.088C59.677 207.976 58.365 206.952 56.429 206.952C54.413 206.952 53.069 208.024 53.069 209.656H54.381C54.381 208.712 55.101 208.152 56.365 208.152C57.421 208.152 58.205 208.616 58.205 209.928V210.152L55.741 210.344C53.901 210.488 52.829 211.384 52.829 212.824C52.829 214.248 53.821 215.192 55.501 215.192ZM55.933 214.024C54.957 214.024 54.349 213.608 54.349 212.776C54.349 212.008 54.893 211.496 56.221 211.368L58.221 211.208V211.624C58.221 213.096 57.357 214.024 55.933 214.024ZM63.2639 215V210.856C63.2639 209.336 64.0799 208.328 65.4879 208.328C66.6399 208.328 67.3759 208.968 67.3759 210.552V215H68.8799V210.216C68.8799 208.216 67.9359 206.952 65.8719 206.952C64.7679 206.952 63.7759 207.48 63.2799 208.376L63.1199 207.176H61.7599V215H63.2639ZM74.099 215.192C75.347 215.192 76.403 214.648 76.915 213.576L77.043 215H78.387V203.224H76.899V208.44C76.371 207.48 75.363 206.952 74.163 206.952C71.843 206.952 70.451 208.712 70.451 211.112C70.451 213.496 71.827 215.192 74.099 215.192ZM74.403 213.832C72.867 213.832 71.971 212.68 71.971 211.064C71.971 209.464 72.867 208.312 74.403 208.312C75.939 208.312 76.883 209.464 76.883 211.064C76.883 212.696 75.939 213.832 74.403 213.832ZM87.2198 215.192C88.4838 215.192 89.5558 214.632 89.9558 213.736L90.1158 215H91.3958V210.088C91.3958 207.976 90.0838 206.952 88.1478 206.952C86.1318 206.952 84.7878 208.024 84.7878 209.656H86.0998C86.0998 208.712 86.8198 208.152 88.0838 208.152C89.1398 208.152 89.9238 208.616 89.9238 209.928V210.152L87.4598 210.344C85.6198 210.488 84.5478 211.384 84.5478 212.824C84.5478 214.248 85.5398 215.192 87.2198 215.192ZM87.6518 214.024C86.6758 214.024 86.0678 213.608 86.0678 212.776C86.0678 212.008 86.6118 211.496 87.9398 211.368L89.9398 211.208V211.624C89.9398 213.096 89.0758 214.024 87.6518 214.024ZM92.9666 211.096C92.9666 213.56 94.4866 215.192 96.7906 215.192C98.6786 215.192 100.135 214.056 100.439 212.36H98.9346C98.6626 213.288 97.8626 213.848 96.7906 213.848C95.3666 213.848 94.4546 212.76 94.4546 211.08C94.4546 209.384 95.4306 208.296 96.8546 208.296C97.8626 208.296 98.6626 208.824 98.9186 209.816H100.423C100.151 208.072 98.7746 206.952 96.8066 206.952C94.5186 206.952 92.9666 208.648 92.9666 211.096ZM104.234 215V208.44H105.77V207.176H104.234V204.728H102.73V207.176H101.194V208.44H102.73V215H104.234ZM107.855 205.32C108.399 205.32 108.847 204.872 108.847 204.328C108.847 203.768 108.399 203.336 107.855 203.336C107.311 203.336 106.863 203.768 106.863 204.328C106.863 204.872 107.311 205.32 107.855 205.32ZM107.119 215H108.623V207.176H107.119V215ZM112.999 215H114.487L117.751 207.176H116.183L114.439 211.544C114.167 212.232 113.911 212.904 113.783 213.416C113.655 212.936 113.431 212.28 113.159 211.544L111.447 207.176H109.847L112.999 215ZM119.683 205.32C120.227 205.32 120.675 204.872 120.675 204.328C120.675 203.768 120.227 203.336 119.683 203.336C119.139 203.336 118.691 203.768 118.691 204.328C118.691 204.872 119.139 205.32 119.683 205.32ZM118.947 215H120.451V207.176H118.947V215ZM124.843 215V208.44H126.379V207.176H124.843V204.728H123.339V207.176H121.803V208.44H123.339V215H124.843ZM128.465 205.32C129.009 205.32 129.457 204.872 129.457 204.328C129.457 203.768 129.009 203.336 128.465 203.336C127.921 203.336 127.473 203.768 127.473 204.328C127.473 204.872 127.921 205.32 128.465 205.32ZM127.729 215H129.233V207.176H127.729V215ZM134.792 215.192C136.728 215.192 138.04 214.248 138.424 212.568H137.016C136.76 213.464 135.992 213.944 134.824 213.944C133.336 213.944 132.472 213.032 132.36 211.384L138.408 211.368V210.808C138.408 208.488 136.952 206.952 134.728 206.952C132.456 206.952 130.904 208.648 130.904 211.096C130.904 213.528 132.488 215.192 134.792 215.192ZM134.728 208.216C136.056 208.216 136.904 209.08 136.904 210.376H132.392C132.584 209 133.416 208.216 134.728 208.216ZM139.448 212.728C139.448 214.216 140.616 215.192 142.456 215.192C144.312 215.192 145.592 214.248 145.592 212.76C145.592 211.592 144.936 210.984 143.608 210.664L142.232 210.328C141.464 210.136 141.08 209.784 141.08 209.256C141.08 208.536 141.608 208.12 142.552 208.12C143.464 208.12 143.992 208.616 144.024 209.4H145.464C145.432 207.912 144.312 206.952 142.6 206.952C140.872 206.952 139.656 207.864 139.656 209.304C139.656 210.456 140.312 211.144 141.704 211.48L143.08 211.8C143.896 212.008 144.152 212.328 144.152 212.856C144.152 213.576 143.544 214.008 142.488 214.008C141.496 214.008 140.888 213.528 140.888 212.728H139.448ZM148.286 215.192C148.894 215.192 149.422 214.68 149.422 214.072C149.422 213.448 148.894 212.936 148.286 212.936C147.662 212.936 147.134 213.448 147.134 214.072C147.134 214.68 147.662 215.192 148.286 215.192Z" fill="#353839"/>
</svg>
