<svg width="120" height="39" viewBox="0 0 120 39" fill="none" xmlns="http://www.w3.org/2000/svg">
<rect x="0.5" y="0.5" width="119" height="38" rx="19" fill="#FEF8F1"/>
<path d="M19.048 25V20.506H24.06V25H25.432V14.878H24.06V19.232H19.048V14.878H17.676V25H19.048ZM27.1075 21.57C27.1075 23.684 28.6195 25.168 30.6775 25.168C32.7215 25.168 34.2335 23.684 34.2335 21.57C34.2335 19.456 32.7215 17.972 30.6775 17.972C28.6195 17.972 27.1075 19.456 27.1075 21.57ZM28.4375 21.57C28.4375 20.142 29.3475 19.148 30.6775 19.148C31.9935 19.148 32.9175 20.142 32.9175 21.57C32.9175 22.998 31.9935 23.992 30.6775 23.992C29.3475 23.992 28.4375 22.998 28.4375 21.57ZM36.8458 25H38.1478L39.3378 21.346C39.5898 20.52 39.7158 20.072 39.7858 19.736C39.8558 20.114 39.9958 20.646 40.2198 21.332L41.4098 25H42.6558L44.9938 18.154H43.6218L42.4738 21.71C42.2778 22.312 42.1518 22.788 42.0398 23.334C41.9278 22.844 41.7038 22.046 41.5918 21.71L40.4578 18.154H39.1138L37.9658 21.71C37.8118 22.158 37.6298 22.732 37.5178 23.334C37.3918 22.732 37.2518 22.214 37.0978 21.71L35.9638 18.154H34.6058L36.8458 25ZM51.882 25V19.26H53.226V18.154H51.882V16.012H50.566V18.154H49.222V19.26H50.566V25H51.882ZM53.8907 21.57C53.8907 23.684 55.4027 25.168 57.4607 25.168C59.5047 25.168 61.0167 23.684 61.0167 21.57C61.0167 19.456 59.5047 17.972 57.4607 17.972C55.4027 17.972 53.8907 19.456 53.8907 21.57ZM55.2207 21.57C55.2207 20.142 56.1307 19.148 57.4607 19.148C58.7767 19.148 59.7007 20.142 59.7007 21.57C59.7007 22.998 58.7767 23.992 57.4607 23.992C56.1307 23.992 55.2207 22.998 55.2207 21.57ZM66.3016 28.066H67.6176V23.88C68.0656 24.72 68.9756 25.182 70.0676 25.182C72.0976 25.182 73.2456 23.614 73.2456 21.528C73.2456 19.428 72.0276 17.958 70.0676 17.958C68.9756 17.958 68.0516 18.448 67.5896 19.386L67.4916 18.154H66.3016V28.066ZM67.6316 21.584C67.6316 20.156 68.4436 19.162 69.7876 19.162C71.1316 19.162 71.9296 20.17 71.9296 21.584C71.9296 22.984 71.1316 23.992 69.7876 23.992C68.4436 23.992 67.6316 22.984 67.6316 21.584ZM76.0401 25V14.696H74.7241V25H76.0401ZM79.9794 25.168C81.0854 25.168 82.0234 24.678 82.3734 23.894L82.5134 25H83.6334V20.702C83.6334 18.854 82.4854 17.958 80.7914 17.958C79.0274 17.958 77.8514 18.896 77.8514 20.324H78.9994C78.9994 19.498 79.6294 19.008 80.7354 19.008C81.6594 19.008 82.3454 19.414 82.3454 20.562V20.758L80.1894 20.926C78.5794 21.052 77.6414 21.836 77.6414 23.096C77.6414 24.342 78.5094 25.168 79.9794 25.168ZM80.3574 24.146C79.5034 24.146 78.9714 23.782 78.9714 23.054C78.9714 22.382 79.4474 21.934 80.6094 21.822L82.3594 21.682V22.046C82.3594 23.334 81.6034 24.146 80.3574 24.146ZM84.6338 28.066C84.9838 28.15 85.3478 28.206 85.7818 28.206C86.8318 28.206 87.5178 27.716 87.9798 26.54L91.2138 18.154H89.8558L87.8258 23.67L85.8378 18.154H84.4518L87.2098 25.364L86.9718 26.022C86.6498 26.89 86.1458 26.988 85.5158 26.988H84.6338V28.066ZM99.1306 22.55V22.2C99.1306 21.486 99.6346 21.038 100.377 20.506C101.189 19.918 102.141 19.204 102.141 17.734C102.141 15.956 100.909 14.696 98.9206 14.696C97.0306 14.696 95.6026 16.082 95.6026 17.944H96.9606C96.9606 16.796 97.7866 15.928 98.8926 15.928C100.041 15.928 100.755 16.726 100.755 17.804C100.755 18.728 100.125 19.246 99.4386 19.778C98.6826 20.366 97.9126 21.01 97.9126 22.2V22.55H99.1306ZM98.5846 25.196C99.1166 25.196 99.5786 24.734 99.5786 24.202C99.5786 23.67 99.1166 23.208 98.5846 23.208C98.0246 23.208 97.5766 23.656 97.5766 24.202C97.5766 24.748 98.0246 25.196 98.5846 25.196Z" fill="#ED8350"/>
<rect x="0.5" y="0.5" width="119" height="38" rx="19" stroke="#ED8350"/>
</svg>
