<svg width="428" height="580" viewBox="0 0 428 580" fill="none" xmlns="http://www.w3.org/2000/svg">
<g opacity="0.35">
<path opacity="0.35" d="M312.35 26.0849C310.996 22.5294 309.869 18.8913 308.978 15.1927C308.005 11.5105 307.261 7.77135 306.752 3.99695C308.098 7.55508 309.225 11.1927 310.124 14.8892C311.089 18.5732 311.832 22.3119 312.35 26.0849Z" fill="#ED8350"/>
<path opacity="0.35" d="M277.734 45.4751C275.88 43.9576 274.126 42.339 272.406 40.7203C270.687 39.1016 269.034 37.3481 267.348 35.662C265.662 33.9759 263.976 32.2898 262.458 30.4688C260.941 28.6478 259.288 26.9111 257.805 25.0396C259.659 26.557 261.413 28.1757 263.15 29.7944C264.886 31.413 266.522 33.1666 268.208 34.8527C269.894 36.5388 271.496 38.2249 273.081 40.0459C274.666 41.8669 276.268 43.6035 277.734 45.4751Z" fill="#ED8350"/>
<path opacity="0.35" d="M270.299 83.4623C266.623 82.7036 262.981 81.7762 259.339 80.8826C255.697 79.9889 252.106 78.9604 248.481 77.9993C244.856 77.0383 241.281 75.9423 237.69 74.8295C234.098 73.7166 230.541 72.6038 227 71.3392C230.676 72.098 234.318 73.0253 237.96 73.9021C241.602 74.7789 245.193 75.8411 248.818 76.8022C252.443 77.7633 256.018 78.8593 259.609 79.9721C263.201 81.0849 266.758 82.1809 270.299 83.4623Z" fill="#ED8350"/>
<path opacity="0.35" d="M270.501 116.576C267.719 117.554 264.92 118.397 262.07 119.223C259.221 120.05 256.422 120.808 253.64 121.55C250.858 122.292 247.941 122.967 245.075 123.59C242.208 124.214 239.325 124.838 236.425 125.277C239.207 124.299 242.023 123.456 244.855 122.629C247.688 121.803 250.504 121.044 253.286 120.303C256.068 119.561 258.985 118.869 261.851 118.262C264.718 117.655 267.618 117.048 270.501 116.576Z" fill="#ED8350"/>
<path opacity="0.35" d="M314.829 165.272C314.374 167.869 313.784 170.331 313.143 172.961C312.502 175.591 311.861 178.019 311.17 180.565C310.479 183.111 309.72 185.623 308.911 188.102C308.101 190.581 307.225 193.16 306.331 195.521C306.786 192.941 307.376 190.463 308.017 187.832C308.658 185.202 309.299 182.774 309.99 180.228C310.681 177.682 311.44 175.17 312.249 172.708C313.059 170.246 313.885 167.734 314.829 165.272Z" fill="#ED8350"/>
<path opacity="0.35" d="M354.233 182.032C355.223 184.162 356.008 186.38 356.577 188.659C357.182 190.931 357.56 193.258 357.706 195.605C356.699 193.483 355.913 191.263 355.363 188.979C354.757 186.707 354.379 184.38 354.233 182.032Z" fill="#ED8350"/>
<path opacity="0.35" d="M381.631 149.001C383.52 150.569 385.324 152.238 387.111 153.924C388.898 155.611 390.635 157.297 392.355 158.983C394.075 160.669 395.727 162.507 397.413 164.345C399.099 166.182 400.684 168.003 402.202 169.942C400.297 168.357 398.509 166.705 396.722 165.019C394.935 163.333 393.198 161.647 391.478 159.859C389.758 158.072 388.106 156.336 386.42 154.515C384.734 152.694 383.149 150.94 381.631 149.001Z" fill="#ED8350"/>
<path opacity="0.35" d="M389.371 114.841C392.743 115.482 395.896 116.274 399.133 117.067C402.37 117.859 405.591 118.753 408.811 119.63C412.032 120.506 415.235 121.451 418.405 122.462C421.575 123.474 424.779 124.469 427.915 125.615C424.627 124.975 421.39 124.182 418.152 123.39C414.915 122.597 411.695 121.703 408.474 120.827C405.254 119.95 402.067 119.006 398.88 117.994C395.694 116.982 392.524 115.988 389.371 114.841Z" fill="#ED8350"/>
<path opacity="0.35" d="M389.236 84.2383C392.389 83.1592 395.593 82.215 398.797 81.2876C402 80.3603 405.237 79.5003 408.458 78.6573C411.678 77.8142 414.933 76.9712 418.187 76.3136C421.441 75.656 424.695 74.8804 428 74.2903C424.83 75.3694 421.626 76.3136 418.423 77.241C415.219 78.1683 411.999 79.0282 408.761 79.8713C405.524 80.7143 402.304 81.5574 399.033 82.215C395.762 82.8725 392.524 83.6482 389.236 84.2383Z" fill="#ED8350"/>
<path opacity="0.35" d="M380.316 51.4256C382.491 48.9302 384.767 46.5359 387.06 44.1585C389.353 41.7811 391.68 39.4543 394.024 37.1275C396.368 34.8006 398.762 32.5413 401.207 30.3831C403.652 28.2248 406.08 25.9317 408.609 23.8073C406.434 26.3027 404.157 28.697 401.864 31.0744C399.571 33.4518 397.228 35.7786 394.884 38.0885C392.54 40.3985 390.146 42.6916 387.718 44.833C385.29 46.9743 382.862 49.3011 380.316 51.4256Z" fill="#ED8350"/>
<path opacity="0.35" d="M351.416 27.6352C351.821 25.2578 352.343 22.9141 352.883 20.5873C353.422 18.2605 354.063 15.9337 354.687 13.6237C355.311 11.3138 356.002 9.02065 356.761 6.74441C357.52 4.46817 358.262 2.19193 359.155 0C358.767 2.37741 358.228 4.70423 357.688 7.04791C357.149 9.39159 356.525 11.6847 355.884 13.9947C355.243 16.3046 354.569 18.5977 353.81 20.874C353.052 23.1502 352.31 25.3927 351.416 27.6352Z" fill="#ED8350"/>
</g>
<path d="M349.176 425.993C349.176 431.456 349.024 436.7 341.15 437.931C349.479 437.813 348.855 442.989 349.26 449.616C349.479 443.057 350.053 438.336 356.544 438.032C349.833 436.919 350.002 433.817 349.176 425.993Z" fill="#232324"/>
<path d="M267.416 309.45C267.416 314.913 267.281 320.157 259.407 321.371C267.719 321.27 267.095 326.429 267.5 333.072C267.719 326.513 268.292 321.792 274.784 321.489C268.073 320.376 268.259 317.273 267.416 309.45Z" fill="#232324"/>
<path d="M6.27231 352.074C6.27231 356.323 6.15428 360.504 0 361.381C6.50836 361.297 6.01939 365.394 6.32289 370.52C6.50836 365.461 6.94675 361.701 12.0219 361.465C6.82873 360.605 6.96361 358.177 6.27231 352.074Z" fill="#232324"/>
<path d="M97.0352 252.005C97.0352 256.271 96.9341 260.435 90.7798 261.329C97.2881 261.228 96.7823 265.325 97.1027 270.451C97.2881 265.392 97.7265 261.649 102.802 261.413C97.5579 260.536 97.6928 258.108 97.0352 252.005Z" fill="#ED8350"/>
<path d="M89.3961 449.295C89.3961 454.354 89.2612 459.125 82.0278 460.255C89.6827 460.154 89.0926 464.959 89.4636 470.996C89.6827 464.959 90.2054 460.643 96.208 460.356C90.0031 459.328 90.1717 456.495 89.3961 449.295Z" fill="#232324"/>
<path d="M289.958 483.271C289.958 489.341 289.806 495.192 281.038 496.558C290.295 496.423 289.604 502.273 290.059 509.591C290.295 502.273 290.952 497.013 298.169 496.676C290.699 495.445 290.902 491.904 289.958 483.271Z" fill="#ED8350"/>
<path d="M322.315 253.556C322.315 259.491 322.163 265.19 313.614 266.505C322.652 266.387 322.045 272.086 322.399 279.218C322.652 272.086 323.276 266.96 330.307 266.623C323.023 265.426 323.259 262.054 322.315 253.556Z" fill="#ED8350"/>
<path d="M20.4685 485.479C20.4685 492.037 20.2999 498.36 10.824 499.827C20.8394 499.692 20.0807 505.998 20.5696 513.906C20.8394 505.998 22.593 500.063 30.3996 499.692C22.3232 498.36 21.4464 494.887 20.4685 485.479Z" fill="#ED8350"/>
<path d="M289.807 378.058C289.807 383.976 288.626 389.861 280.061 391.26C289.099 391.142 289.453 396.588 289.908 403.737C290.144 396.588 292.1 391.091 299.148 390.754C291.864 389.557 290.717 386.556 289.807 378.058Z" fill="#EBEBEB"/>
<path d="M77.0876 186.719C77.1719 194.323 76.8852 201.641 65.9087 203.344C77.5091 203.192 76.6323 210.493 77.2056 219.648C77.5091 210.493 78.3184 203.934 87.3222 203.496C78.0655 201.894 78.3184 197.544 77.0876 186.719Z" fill="#EBEBEB"/>
<path d="M359.849 304.476C359.849 310.411 359.714 316.11 351.148 317.442C360.186 317.324 359.579 323.023 359.95 330.155C360.186 323.023 360.81 317.897 367.858 317.56C360.574 316.346 360.776 312.974 359.849 304.476Z" fill="#E0E0E0"/>
<path d="M341.503 530.092C341.503 536.027 341.351 541.727 332.803 543.059C341.84 542.941 341.233 548.64 341.604 555.772C341.84 548.64 342.464 543.514 349.512 543.177C342.228 541.963 342.414 538.59 341.503 530.092Z" fill="#E0E0E0"/>
<path d="M68.6584 330.037C68.6584 324.406 68.5235 319.381 60.3965 318.133C68.9788 318.234 68.338 312.434 68.827 305.656C69.0631 312.401 70.0916 318.251 76.7854 318.572C69.7881 319.651 69.5352 321.927 68.6584 330.037Z" fill="#E0E0E0"/>
<path d="M64.7293 579.749C64.7293 573.004 64.5438 566.867 54.7139 565.333C65.1003 565.468 64.3247 558.436 64.8305 550.158C65.1003 558.369 66.3648 565.333 74.4581 565.788C66.0782 567.255 65.7747 569.986 64.7293 579.749Z" fill="#E0E0E0"/>
</svg>
