<svg width="133" height="76" viewBox="0 0 133 76" fill="none" xmlns="http://www.w3.org/2000/svg">
<path fill-rule="evenodd" clip-rule="evenodd" d="M51 16C51 7.16344 58.1634 0 67 0C75.8366 0 83 7.16344 83 16C83 24.8366 75.8366 32 67 32C58.1634 32 51 24.8366 51 16ZM72.9314 11.6686C73.5562 12.2935 73.5562 13.3065 72.9314 13.9314L67.0389 19.8238C66.1338 20.729 64.6662 20.729 63.7611 19.8238L61.0686 17.1314C60.4438 16.5065 60.4438 15.4935 61.0686 14.8686C61.6935 14.2438 62.7065 14.2438 63.3314 14.8686L65.4 16.9373L70.6686 11.6686C71.2935 11.0438 72.3065 11.0438 72.9314 11.6686Z" fill="#00E833"/>
<path d="M7.47406 70.216C10.5881 70.216 13.0001 68.38 13.5041 65.608H11.1101C10.6781 67.066 9.31006 68.002 7.52806 68.002C5.11606 68.002 3.56806 66.202 3.56806 63.412C3.56806 60.604 5.09806 58.84 7.52806 58.84C9.27406 58.84 10.5881 59.74 11.0381 61.27H13.4681C13.0181 58.444 10.6961 56.626 7.58206 56.626C3.73006 56.626 1.15606 59.344 1.15606 63.43C1.15606 67.552 3.64006 70.216 7.47406 70.216ZM14.8143 65.536C14.8143 68.308 16.8123 70.216 19.5663 70.216C22.3203 70.216 24.3183 68.308 24.3183 65.536C24.3183 62.764 22.3203 60.856 19.5663 60.856C16.8123 60.856 14.8143 62.764 14.8143 65.536ZM17.0103 65.536C17.0103 63.916 18.0543 62.818 19.5663 62.818C21.0783 62.818 22.1223 63.916 22.1223 65.536C22.1223 67.156 21.0783 68.254 19.5663 68.254C18.0543 68.254 17.0103 67.156 17.0103 65.536ZM31.7289 61.072C31.3689 60.982 31.0629 60.946 30.7569 60.946C29.5689 60.946 28.7229 61.54 28.3449 62.422L28.2189 61.126H26.1489V70H28.3449V65.68C28.3449 63.952 29.3349 63.106 30.9189 63.106H31.7289V61.072ZM38.8853 61.072C38.5253 60.982 38.2193 60.946 37.9133 60.946C36.7253 60.946 35.8793 61.54 35.5013 62.422L35.3753 61.126H33.3053V70H35.5013V65.68C35.5013 63.952 36.4913 63.106 38.0753 63.106H38.8853V61.072ZM44.1409 70.234C46.4629 70.234 48.0829 69.064 48.4609 67.12H46.4269C46.1749 67.966 45.3829 68.434 44.1769 68.434C42.7189 68.434 41.8909 67.642 41.7289 66.076L48.4249 66.058V65.392C48.4249 62.62 46.7329 60.838 44.0689 60.838C41.4589 60.838 39.6409 62.764 39.6409 65.554C39.6409 68.308 41.4949 70.234 44.1409 70.234ZM44.0869 62.638C45.4009 62.638 46.2469 63.448 46.2469 64.672H41.7829C41.9989 63.34 42.7909 62.638 44.0869 62.638ZM49.7504 65.536C49.7504 68.362 51.5144 70.234 54.2144 70.234C56.5364 70.234 58.2644 68.812 58.5344 66.742H56.3204C56.0864 67.714 55.3124 68.254 54.2144 68.254C52.8104 68.254 51.9464 67.21 51.9464 65.536C51.9464 63.862 52.8824 62.8 54.2864 62.8C55.3304 62.8 56.0684 63.322 56.3204 64.33H58.5164C58.2824 62.188 56.6264 60.838 54.1964 60.838C51.5684 60.838 49.7504 62.782 49.7504 65.536ZM63.2829 70V62.944H65.0109V61.108H63.2829V58.336H61.0869V61.108H59.3769V62.944H61.0869V70H63.2829ZM72.8657 70L73.9277 66.958H78.8417L79.9037 70H82.3337L77.5817 56.842H75.2237L70.4717 70H72.8657ZM76.1057 60.766C76.2317 60.406 76.3397 60.01 76.3937 59.758C76.4297 60.028 76.5557 60.424 76.6637 60.766L78.1757 65.014H74.6117L76.1057 60.766ZM85.9456 70V65.212C85.9456 63.772 86.7736 62.836 88.1236 62.836C89.2576 62.836 89.9956 63.556 89.9956 65.05V70H92.1916V64.528C92.1916 62.224 91.0396 60.838 88.8076 60.838C87.6016 60.838 86.5216 61.36 85.9636 62.26L85.7836 61.108H83.7496V70H85.9456ZM93.6498 67.3C93.6498 69.046 95.0538 70.234 97.2678 70.234C99.4638 70.234 100.994 69.118 100.994 67.318C100.994 65.95 100.238 65.266 98.7438 64.924L97.1418 64.546C96.3858 64.366 95.9898 64.042 95.9898 63.538C95.9898 62.872 96.4938 62.476 97.3578 62.476C98.2038 62.476 98.7078 62.962 98.7258 63.718H100.814C100.796 61.99 99.4458 60.838 97.4478 60.838C95.3958 60.838 93.9198 61.882 93.9198 63.628C93.9198 65.05 94.6938 65.806 96.2958 66.166L97.8978 66.544C98.6898 66.724 98.9238 67.048 98.9238 67.498C98.9238 68.146 98.3658 68.56 97.3398 68.56C96.3318 68.56 95.7558 68.074 95.7378 67.3H93.6498ZM104.472 70H106.614L107.838 66.184C108.288 64.726 108.45 64.096 108.54 63.682C108.612 64.132 108.81 64.978 109.17 66.148L110.394 70H112.446L115.524 61.108H113.202L112.014 64.924C111.852 65.482 111.564 66.544 111.42 67.21C111.312 66.616 110.952 65.284 110.844 64.924L109.656 61.108H107.424L106.2 64.924C105.912 65.806 105.75 66.364 105.588 67.228C105.426 66.4 105.246 65.626 105.048 64.924L103.878 61.108H101.592L104.472 70ZM120.482 70.234C122.804 70.234 124.424 69.064 124.802 67.12H122.768C122.516 67.966 121.724 68.434 120.518 68.434C119.06 68.434 118.232 67.642 118.07 66.076L124.766 66.058V65.392C124.766 62.62 123.074 60.838 120.41 60.838C117.8 60.838 115.982 62.764 115.982 65.554C115.982 68.308 117.836 70.234 120.482 70.234ZM120.428 62.638C121.742 62.638 122.588 63.448 122.588 64.672H118.124C118.34 63.34 119.132 62.638 120.428 62.638ZM132.194 61.072C131.834 60.982 131.528 60.946 131.222 60.946C130.034 60.946 129.188 61.54 128.81 62.422L128.684 61.126H126.614V70H128.81V65.68C128.81 63.952 129.8 63.106 131.384 63.106H132.194V61.072Z" fill="white"/>
</svg>
