<svg width="338" height="453" viewBox="0 0 338 453" fill="none" xmlns="http://www.w3.org/2000/svg">
<path d="M0 15.0002C0 6.51869 7.02641 -0.275866 15.5031 0.0086118L323.503 10.3451C331.587 10.6164 338 17.2482 338 25.3367V162.283C338 170.347 331.624 176.968 323.566 177.272L15.5659 188.901C7.06576 189.222 0 182.418 0 173.911V15.0002Z" fill="#FFE2E9"/>
<path d="M11 23.8293C11 16.5489 17.025 10.713 24.3017 10.9453L314.521 20.2079C321.476 20.4299 327 26.1327 327 33.0919V154.67C327 161.609 321.507 167.303 314.572 167.552L24.3531 177.972C17.0572 178.234 11 172.391 11 165.09V23.8293Z" stroke="url(#paint0_linear_177_2147)" stroke-width="2"/>
<path d="M138.408 138.776H143.544V153.488H146.616V138.776H151.752V135.944H138.408V138.776ZM159.679 141.584C159.199 141.464 158.791 141.416 158.383 141.416C156.799 141.416 155.671 142.208 155.167 143.384L154.999 141.656H152.239V153.488H155.167V147.728C155.167 145.424 156.487 144.296 158.599 144.296H159.679V141.584ZM163.124 139.256C164.084 139.256 164.876 138.464 164.876 137.48C164.876 136.496 164.084 135.728 163.124 135.728C162.116 135.728 161.324 136.496 161.324 137.48C161.324 138.464 162.116 139.256 163.124 139.256ZM161.66 153.488H164.588V141.632H161.66V153.488ZM170.974 153.488H173.854L178.798 141.632H175.774L173.614 147.08C173.11 148.376 172.678 149.624 172.51 150.368C172.366 149.72 171.958 148.496 171.454 147.08L169.39 141.632H166.27L170.974 153.488ZM181.945 139.256C182.905 139.256 183.697 138.464 183.697 137.48C183.697 136.496 182.905 135.728 181.945 135.728C180.937 135.728 180.145 136.496 180.145 137.48C180.145 138.464 180.937 139.256 181.945 139.256ZM180.481 153.488H183.409V141.632H180.481V153.488ZM189.962 153.8C191.81 153.8 193.418 152.96 193.922 151.736L194.138 153.488H196.706V146.288C196.706 143 194.738 141.272 191.546 141.272C188.33 141.272 186.218 142.952 186.218 145.52H188.714C188.714 144.272 189.674 143.552 191.402 143.552C192.89 143.552 193.85 144.2 193.85 145.808V146.072L190.298 146.336C187.49 146.552 185.906 147.92 185.906 150.104C185.906 152.336 187.442 153.8 189.962 153.8ZM190.922 151.592C189.602 151.592 188.882 151.064 188.882 149.984C188.882 149.024 189.578 148.424 191.402 148.256L193.874 148.064V148.688C193.874 150.512 192.722 151.592 190.922 151.592ZM202.534 153.488V135.632H199.63V153.488H202.534Z" fill="#1A1C20"/>
<path d="M338 279C338 270.519 330.974 263.724 322.497 264.009L14.4969 274.345C6.41299 274.616 0 281.248 0 289.337V426.283C0 434.347 6.37576 440.968 14.4341 441.272L322.434 452.901C330.934 453.222 338 446.418 338 437.911V279Z" fill="#FDF0E0"/>
<path d="M327 287.829C327 280.549 320.975 274.713 313.698 274.945L23.4793 284.208C16.5237 284.43 11 290.133 11 297.092V418.67C11 425.609 16.4932 431.303 23.428 431.552L313.647 441.972C320.943 442.234 327 436.391 327 429.09V287.829Z" stroke="url(#paint1_linear_177_2147)" stroke-width="2"/>
<path d="M118.016 403.944H114.944V421.488H118.016V403.944ZM124.401 421.488V415.104C124.401 413.184 125.505 411.936 127.305 411.936C128.817 411.936 129.801 412.896 129.801 414.888V421.488H132.729V414.192C132.729 411.12 131.193 409.272 128.217 409.272C126.609 409.272 125.169 409.968 124.425 411.168L124.185 409.632H121.473V421.488H124.401ZM139.638 421.488V412.08H141.942V409.632H139.638V405.936H136.71V409.632H134.43V412.08H136.71V421.488H139.638ZM148.949 421.8C152.045 421.8 154.205 420.24 154.709 417.648H151.997C151.661 418.776 150.605 419.4 148.997 419.4C147.053 419.4 145.949 418.344 145.733 416.256L154.661 416.232V415.344C154.661 411.648 152.405 409.272 148.853 409.272C145.373 409.272 142.949 411.84 142.949 415.56C142.949 419.232 145.421 421.8 148.949 421.8ZM148.877 411.672C150.629 411.672 151.757 412.752 151.757 414.384H145.805C146.093 412.608 147.149 411.672 148.877 411.672ZM164.444 409.584C163.964 409.464 163.556 409.416 163.148 409.416C161.564 409.416 160.436 410.208 159.932 411.384L159.764 409.656H157.004V421.488H159.932V415.728C159.932 413.424 161.252 412.296 163.364 412.296H164.444V409.584ZM169.485 421.8C171.333 421.8 172.941 420.96 173.445 419.736L173.661 421.488H176.229V414.288C176.229 411 174.261 409.272 171.069 409.272C167.853 409.272 165.741 410.952 165.741 413.52H168.237C168.237 412.272 169.197 411.552 170.925 411.552C172.413 411.552 173.373 412.2 173.373 413.808V414.072L169.821 414.336C167.013 414.552 165.429 415.92 165.429 418.104C165.429 420.336 166.965 421.8 169.485 421.8ZM170.445 419.592C169.125 419.592 168.405 419.064 168.405 417.984C168.405 417.024 169.101 416.424 170.925 416.256L173.397 416.064V416.688C173.397 418.512 172.245 419.592 170.445 419.592ZM178.41 415.536C178.41 419.304 180.762 421.8 184.362 421.8C187.458 421.8 189.762 419.904 190.122 417.144H187.17C186.858 418.44 185.826 419.16 184.362 419.16C182.49 419.16 181.338 417.768 181.338 415.536C181.338 413.304 182.586 411.888 184.458 411.888C185.85 411.888 186.834 412.584 187.17 413.928H190.098C189.786 411.072 187.578 409.272 184.338 409.272C180.834 409.272 178.41 411.864 178.41 415.536ZM196.333 421.488V412.08H198.637V409.632H196.333V405.936H193.405V409.632H191.125V412.08H193.405V421.488H196.333ZM201.921 407.256C202.881 407.256 203.673 406.464 203.673 405.48C203.673 404.496 202.881 403.728 201.921 403.728C200.913 403.728 200.121 404.496 200.121 405.48C200.121 406.464 200.913 407.256 201.921 407.256ZM200.457 421.488H203.385V409.632H200.457V421.488ZM209.77 421.488H212.65L217.594 409.632H214.57L212.41 415.08C211.906 416.376 211.474 417.624 211.306 418.368C211.162 417.72 210.754 416.496 210.25 415.08L208.186 409.632H205.066L209.77 421.488ZM223.996 421.8C227.092 421.8 229.252 420.24 229.756 417.648H227.044C226.708 418.776 225.652 419.4 224.044 419.4C222.1 419.4 220.996 418.344 220.78 416.256L229.708 416.232V415.344C229.708 411.648 227.452 409.272 223.9 409.272C220.42 409.272 217.996 411.84 217.996 415.56C217.996 419.232 220.468 421.8 223.996 421.8ZM223.924 411.672C225.676 411.672 226.804 412.752 226.804 414.384H220.852C221.14 412.608 222.196 411.672 223.924 411.672Z" fill="#1A1C20"/>
<defs>
<linearGradient id="paint0_linear_177_2147" x1="169" y1="9.48833" x2="169" y2="179.488" gradientUnits="userSpaceOnUse">
<stop stop-color="#EE7C97"/>
<stop offset="1" stop-color="#EE7C97" stop-opacity="0"/>
</linearGradient>
<linearGradient id="paint1_linear_177_2147" x1="169" y1="273.488" x2="169" y2="443.488" gradientUnits="userSpaceOnUse">
<stop stop-color="#ED8350"/>
<stop offset="1" stop-color="white" stop-opacity="0"/>
</linearGradient>
</defs>
</svg>
