<svg width="34" height="12" viewBox="0 0 34 12" fill="none" xmlns="http://www.w3.org/2000/svg">
<path d="M0.160465 3.3369C0.160465 5.00535 1.13908 6.09626 3.03213 6.52942L4.94122 6.96258C6.04817 7.21926 6.5455 7.7968 6.5455 8.71124C6.5455 9.86632 5.56689 10.5882 4.02678 10.5882C2.56688 10.5882 1.6364 9.88236 1.60432 8.77541H3.7233e-05C0.096294 10.7647 1.66849 12 4.02678 12C6.49737 12 8.11769 10.6685 8.11769 8.5829C8.11769 6.94653 7.15513 5.91979 5.26208 5.48664L3.35298 5.03744C2.26207 4.78075 1.73266 4.21926 1.73266 3.28877C1.73266 2.14973 2.67918 1.41177 4.13908 1.41177C5.43855 1.41177 6.25673 2.08556 6.33694 3.24065H7.92518C7.79684 1.2353 6.36903 0 4.15512 0C1.76475 0 0.160465 1.3476 0.160465 3.3369ZM12.0506 11.8075V5.22995H13.5907V3.96257H12.0506V1.50802H10.5425V3.96257H9.00243V5.22995H10.5425V11.8075H12.0506ZM17.1441 12C18.4115 12 19.4864 11.4385 19.8875 10.5401L20.0479 11.8075H21.3313V6.88236C21.3313 4.76471 20.0158 3.73797 18.0746 3.73797C16.0532 3.73797 14.7056 4.81284 14.7056 6.44921H16.0212C16.0212 5.50268 16.7431 4.94118 18.0105 4.94118C19.0693 4.94118 19.8554 5.40642 19.8554 6.72193V6.94653L17.3848 7.13905C15.5399 7.28343 14.465 8.18183 14.465 9.62568C14.465 11.0535 15.4597 12 17.1441 12ZM17.5773 10.8289C16.5987 10.8289 15.9891 10.4118 15.9891 9.57755C15.9891 8.8075 16.5345 8.29413 17.8661 8.16579L19.8714 8.00536V8.42247C19.8714 9.89841 19.0051 10.8289 17.5773 10.8289ZM27.9117 3.8984C27.6069 3.83423 27.3823 3.80214 27.1096 3.80214C26.0347 3.80214 25.2486 4.3476 24.9278 5.16578L24.8315 3.97861H23.4198V11.8075H24.9278V7.65242C24.9278 6.14439 25.8101 5.27808 27.238 5.27808H27.9117V3.8984ZM31.8534 11.8075V5.22995H33.3935V3.96257H31.8534V1.50802H30.3454V3.96257H28.8053V5.22995H30.3454V11.8075H31.8534Z" fill="#030202"/>
</svg>
