<svg width="50" height="50" viewBox="0 0 50 50" fill="none" xmlns="http://www.w3.org/2000/svg">
<path d="M18.5388 2.71946C19.38 1.85862 20.3848 1.17459 21.4941 0.707584C22.6034 0.240574 23.7948 0 24.9984 0C26.202 0 27.3935 0.240574 28.5028 0.707584C29.6121 1.17459 30.6169 1.85862 31.4581 2.71946L33.4019 4.71329L36.1832 4.67891C37.3872 4.66466 38.5818 4.89129 39.6969 5.34546C40.812 5.79964 41.825 6.47219 42.6764 7.32357C43.5278 8.17496 44.2004 9.18798 44.6545 10.3031C45.1087 11.4182 45.3353 12.6128 45.3211 13.8168L45.2898 16.5981L47.2774 18.5419C48.1383 19.3831 48.8223 20.3879 49.2893 21.4972C49.7563 22.6065 49.9969 23.798 49.9969 25.0016C49.9969 26.2052 49.7563 27.3966 49.2893 28.5059C48.8223 29.6152 48.1383 30.62 47.2774 31.4612L45.2867 33.405L45.3211 36.1864C45.3353 37.3903 45.1087 38.585 44.6545 39.7001C44.2004 40.8151 43.5278 41.8282 42.6764 42.6796C41.825 43.5309 40.812 44.2035 39.6969 44.6577C38.5818 45.1118 37.3872 45.3385 36.1832 45.3242L33.4019 45.293L31.4581 47.2805C30.6169 48.1414 29.6121 48.8254 28.5028 49.2924C27.3935 49.7594 26.202 50 24.9984 50C23.7948 50 22.6034 49.7594 21.4941 49.2924C20.3848 48.8254 19.38 48.1414 18.5388 47.2805L16.595 45.2898L13.8136 45.3242C12.6097 45.3385 11.415 45.1118 10.2999 44.6577C9.18485 44.2035 8.17183 43.5309 7.32045 42.6796C6.46907 41.8282 5.79651 40.8151 5.34234 39.7001C4.88816 38.585 4.66154 37.3903 4.67579 36.1864L4.70704 33.405L2.71946 31.4612C1.85862 30.62 1.17459 29.6152 0.707584 28.5059C0.240574 27.3966 0 26.2052 0 25.0016C0 23.798 0.240574 22.6065 0.707584 21.4972C1.17459 20.3879 1.85862 19.3831 2.71946 18.5419L4.71017 16.5981L4.67579 13.8168C4.66154 12.6128 4.88816 11.4182 5.34234 10.3031C5.79651 9.18798 6.46907 8.17496 7.32045 7.32357C8.17183 6.47219 9.18485 5.79964 10.2999 5.34546C11.415 4.89129 12.6097 4.66466 13.8136 4.67891L16.595 4.71016L18.5388 2.72259V2.71946ZM21.8796 34.3769C21.8796 34.7873 21.9604 35.1937 22.1175 35.5729C22.2745 35.952 22.5047 36.2965 22.7949 36.5867C23.0851 36.8769 23.4296 37.1071 23.8088 37.2642C24.1879 37.4212 24.5943 37.502 25.0047 37.502C25.4151 37.502 25.8215 37.4212 26.2006 37.2642C26.5798 37.1071 26.9243 36.8769 27.2145 36.5867C27.5047 36.2965 27.7349 35.952 27.8919 35.5729C28.049 35.1937 28.1298 34.7873 28.1298 34.3769C28.1298 33.5481 27.8006 32.7532 27.2145 32.1671C26.6284 31.5811 25.8335 31.2518 25.0047 31.2518C24.1759 31.2518 23.381 31.5811 22.7949 32.1671C22.2088 32.7532 21.8796 33.5481 21.8796 34.3769ZM26.886 28.0423C27.011 26.3735 27.5048 25.4953 29.5299 24.1047C31.6362 22.6202 32.8112 20.6983 32.8112 17.8982C32.8112 13.7574 29.9361 10.9385 25.7422 10.9385C22.5546 10.9385 20.142 12.4761 19.1795 14.9699C18.8878 15.651 18.7409 16.3854 18.7482 17.1263C18.7482 18.3544 19.3826 19.1263 20.4514 19.1263C21.3014 19.1263 21.8733 18.6669 22.214 17.5325C22.7077 15.6825 23.8546 14.673 25.5703 14.673C27.4767 14.673 28.7892 16.0668 28.7892 18.0607C28.7892 19.8201 28.1392 20.8264 26.2204 22.2015C24.2859 23.5546 23.3265 25.0578 23.3265 27.3267V27.6735C23.3265 29.0111 23.9765 30.0018 25.1547 30.0018C26.2047 30.0018 26.7298 29.2517 26.886 28.0423Z" fill="#ED8350"/>
</svg>
