<svg width="109" height="32" viewBox="0 0 109 32" fill="none" xmlns="http://www.w3.org/2000/svg">
<path d="M109 31.5019H0.861525C0.731567 31.5019 0.6276 31.424 0.601608 31.294C-4.0821 11.3948 20.007 20.3177 23.6225 21.7732C23.8044 21.8512 24.0123 21.6953 23.9604 21.4873C22.3229 13.3182 26.1982 0 44.7199 0C60.6139 0 67.4575 12.8763 68.5751 15.2701C68.6531 15.4521 68.887 15.4781 69.017 15.3221C73.1263 10.3265 79.3435 10.3265 82.699 12.9023C86.3171 15.686 87.2528 20.6036 87.4607 22.1371C87.4867 22.3451 87.7206 22.423 87.8766 22.2931C94.7436 16.8556 107.726 18.6517 109 31.5019Z" fill="white"/>
</svg>
