<svg width="56" height="40" viewBox="0 0 56 40" fill="none" xmlns="http://www.w3.org/2000/svg">
<path opacity="0.3" d="M0.0360749 37.6598C1.98767 43.0702 24.0165 38.0236 27.2934 33.3694C27.2934 33.3434 27.3194 33.3434 27.3454 33.3694C30.6223 38.0496 52.6511 43.0442 54.6027 37.6598C55.1744 35.191 49.3482 31.7296 41.625 29.9885C40.6375 29.7546 39.6474 29.5727 38.7119 29.4168C38.6859 29.4168 38.6859 29.3908 38.7119 29.3648C45.6295 25.5656 57.6717 14.2277 55.0705 11.0547C53.4333 8.92119 46.2272 11.7044 38.7119 17.2967C38.6859 17.3227 38.6599 17.2967 38.6599 17.2707C41.5211 8.58337 41.8849 0.98749 39.4395 0C39.4136 0 39.4136 1.58571e-06 39.4136 0.0259882C34.263 20.9374 17.2288 36.6203 1.31203 35.1365H1.28603C0.3739 36.0226 -0.145831 36.7502 0.0360749 37.6598Z" fill="#C0BEBF"/>
</svg>
