<svg width="56" height="42" viewBox="0 0 56 42" fill="none" xmlns="http://www.w3.org/2000/svg">
<path d="M0.717357 39.6691C2.66115 45.0579 24.6019 40.0315 27.8657 35.3959C27.8657 35.37 27.8916 35.37 27.9175 35.3959C31.2072 40.0574 53.0962 45.032 55.0659 39.6691C56.1012 36.69 45.9215 32.2874 39.2386 31.4591C39.2127 31.4591 39.2127 31.4332 39.2386 31.4074C46.1286 27.5974 58.1226 16.3307 55.5059 13.1704C53.8753 11.0454 46.698 13.8175 39.2127 19.3874C39.1868 19.4133 39.1609 19.3874 39.1609 19.3616C42.0106 10.6572 42.373 3.09169 39.9115 2.13403H39.8857C38.048 1.48696 35.1206 4.72489 32.4521 9.95837C32.4521 9.98425 32.4004 9.98425 32.4004 9.95837C30.6895 -3.30651 25.1713 -3.33239 23.4631 9.95837C23.4631 9.98425 23.4372 9.98425 23.4113 9.95837C20.7428 4.72489 17.8155 1.48696 15.9752 2.13403C13.462 3.01404 13.8269 10.6054 16.7025 19.3616C16.7025 19.3874 16.6766 19.4133 16.6507 19.3874C9.16288 13.8175 1.93643 11.0454 0.354993 13.1704C-2.20998 16.3566 9.7323 27.5715 16.6507 31.4074C16.6766 31.4074 16.6766 31.4591 16.6507 31.4591C15.6905 31.6144 14.7587 31.7956 13.7493 32.0286C8.41228 33.245 4.00705 35.2406 1.93644 37.1559C1.00207 38.0385 0.536178 38.8926 0.717357 39.6691Z" fill="#EE7C97"/>
</svg>
