<svg width="120" height="120" viewBox="0 0 120 120" fill="none" xmlns="http://www.w3.org/2000/svg">
<path d="M44.4932 6.52671C46.512 4.46069 48.9235 2.81903 51.5858 1.6982C54.2481 0.577377 57.1076 0 59.9962 0C62.8849 0 65.7444 0.577377 68.4067 1.6982C71.069 2.81903 73.4805 4.46069 75.4993 6.52671L80.1645 11.3119L86.8398 11.2294C89.7293 11.1952 92.5964 11.7391 95.2726 12.8291C97.9489 13.9191 100.38 15.5333 102.423 17.5766C104.467 19.6199 106.081 22.0511 107.171 24.7274C108.261 27.4036 108.805 30.2707 108.771 33.1602L108.696 39.8355L113.466 44.5007C115.532 46.5195 117.173 48.931 118.294 51.5933C119.415 54.2556 119.992 57.1151 119.992 60.0037C119.992 62.8924 119.415 65.7519 118.294 68.4142C117.173 71.0765 115.532 73.488 113.466 75.5068L108.688 80.172L108.771 86.8473C108.805 89.7368 108.261 92.6039 107.171 95.2801C106.081 97.9564 104.467 100.388 102.423 102.431C100.38 104.474 97.9489 106.088 95.2726 107.178C92.5964 108.268 89.7293 108.812 86.8398 108.778L80.1645 108.703L75.4993 113.473C73.4805 115.539 71.069 117.181 68.4067 118.302C65.7444 119.423 62.8849 120 59.9962 120C57.1076 120 54.2481 119.423 51.5858 118.302C48.9235 117.181 46.512 115.539 44.4932 113.473L39.828 108.696L33.1527 108.778C30.2632 108.812 27.3961 108.268 24.7199 107.178C22.0436 106.088 19.6124 104.474 17.5691 102.431C15.5258 100.388 13.9116 97.9564 12.8216 95.2801C11.7316 92.6039 11.1877 89.7368 11.2219 86.8473L11.2969 80.172L6.52671 75.5068C4.46069 73.488 2.81903 71.0765 1.6982 68.4142C0.577377 65.7519 0 62.8924 0 60.0037C0 57.1151 0.577377 54.2556 1.6982 51.5933C2.81903 48.931 4.46069 46.5195 6.52671 44.5007L11.3044 39.8355L11.2219 33.1602C11.1877 30.2707 11.7316 27.4036 12.8216 24.7274C13.9116 22.0511 15.5258 19.6199 17.5691 17.5766C19.6124 15.5333 22.0436 13.9191 24.7199 12.8291C27.3961 11.7391 30.2632 11.1952 33.1527 11.2294L39.828 11.3044L44.4932 6.53421V6.52671ZM52.511 82.5046C52.511 83.4896 52.705 84.4649 53.0819 85.3748C53.4588 86.2848 54.0113 87.1116 54.7077 87.8081C55.4042 88.5046 56.231 89.057 57.141 89.434C58.051 89.8109 59.0263 90.0049 60.0112 90.0049C60.9962 90.0049 61.9715 89.8109 62.8815 89.434C63.7915 89.057 64.6183 88.5046 65.3148 87.8081C66.0112 87.1116 66.5637 86.2848 66.9406 85.3748C67.3175 84.4649 67.5115 83.4896 67.5115 82.5046C67.5115 80.5154 66.7213 78.6077 65.3148 77.2011C63.9082 75.7945 62.0004 75.0043 60.0112 75.0043C58.022 75.0043 56.1143 75.7945 54.7077 77.2011C53.3012 78.6077 52.511 80.5154 52.511 82.5046ZM64.5264 67.3015C64.8264 63.2964 66.0115 61.1888 70.8717 57.8512C75.9269 54.2885 78.747 49.6759 78.747 42.9556C78.747 33.0177 71.8467 26.2525 61.7813 26.2525C54.131 26.2525 48.3408 29.9426 46.0307 35.9278C45.3307 37.5625 44.9782 39.3249 44.9957 41.103C44.9957 44.0506 46.5182 45.9032 49.0833 45.9032C51.1234 45.9032 52.496 44.8007 53.3135 42.0781C54.4985 37.6379 57.2511 35.2153 61.3688 35.2153C65.944 35.2153 69.0941 38.5604 69.0941 43.3456C69.0941 47.5683 67.534 49.9834 62.9289 53.2835C58.2862 56.5311 55.9836 60.1388 55.9836 65.584V66.4165C55.9836 69.6266 57.5437 72.0042 60.3713 72.0042C62.8914 72.0042 64.1514 70.2041 64.5264 67.3015Z" fill="#EE7C97"/>
</svg>
