<svg width="42" height="39" viewBox="0 0 42 39" fill="none" xmlns="http://www.w3.org/2000/svg">
<path d="M15.9908 38.9383C17.458 37.9024 19.8273 36.5437 21.6967 36.2226C22.0264 36.2261 31.4541 36.1484 32.2065 36.1492C32.2364 36.1575 32.2715 36.1378 32.2792 36.1103C35.1863 30.1386 37.4003 24.1558 38.9928 17.819C39.913 13.8856 40.7639 9.87361 41.237 6.56779C41.2447 6.54037 41.2224 6.50456 41.1676 6.48922C39.7989 6.10634 19.8778 0.471779 18.2024 0.00311666C18.1451 -0.0129241 18.1016 0.0367545 18.0939 0.0641784C18.0784 0.331323 18.0029 1.03334 17.9468 1.56065C17.5732 5.3755 17.2206 8.68279 16.8414 11.8643C15.6001 19.8666 15.3085 27.2608 9.41876 30.1052C8.00553 30.7367 6.75192 31.2301 5.39302 31.7828C2.92088 32.7498 1.9087 32.9183 0.0407182 34.2049C-0.0301703 34.2469 0.00165353 34.3445 0.0589944 34.3605C1.72917 34.8573 15.0797 38.7452 15.8848 39C15.9557 38.958 15.9557 38.958 15.9908 38.9383Z" fill="#FFC930"/>
</svg>
