<svg width="120" height="120" viewBox="0 0 120 120" fill="none" xmlns="http://www.w3.org/2000/svg">
<path d="M5.45455 27.2727C3.90909 27.2727 2.61455 26.7509 1.57091 25.7073C0.523636 24.66 0 23.3636 0 21.8182V16.3636C0 11.8182 1.59091 7.95455 4.77273 4.77273C7.95455 1.59091 11.8182 0 16.3636 0H21.8182C23.3636 0 24.66 0.521818 25.7073 1.56545C26.7509 2.61273 27.2727 3.90909 27.2727 5.45455C27.2727 7 26.7509 8.29455 25.7073 9.33818C24.66 10.3855 23.3636 10.9091 21.8182 10.9091H16.3636C14.8182 10.9091 13.5236 11.4309 12.48 12.4745C11.4327 13.5218 10.9091 14.8182 10.9091 16.3636V21.8182C10.9091 23.3636 10.3873 24.66 9.34364 25.7073C8.29636 26.7509 7 27.2727 5.45455 27.2727ZM16.3636 120C11.8182 120 7.95455 118.409 4.77273 115.227C1.59091 112.045 0 108.182 0 103.636V98.1818C0 96.6364 0.523636 95.3418 1.57091 94.2982C2.61455 93.2509 3.90909 92.7273 5.45455 92.7273C7 92.7273 8.29636 93.2509 9.34364 94.2982C10.3873 95.3418 10.9091 96.6364 10.9091 98.1818V103.636C10.9091 105.182 11.4327 106.476 12.48 107.52C13.5236 108.567 14.8182 109.091 16.3636 109.091H21.8182C23.3636 109.091 24.66 109.615 25.7073 110.662C26.7509 111.705 27.2727 113 27.2727 114.545C27.2727 116.091 26.7509 117.385 25.7073 118.429C24.66 119.476 23.3636 120 21.8182 120H16.3636ZM98.1818 120C96.6364 120 95.3418 119.476 94.2982 118.429C93.2509 117.385 92.7273 116.091 92.7273 114.545C92.7273 113 93.2509 111.705 94.2982 110.662C95.3418 109.615 96.6364 109.091 98.1818 109.091H103.636C105.182 109.091 106.476 108.567 107.52 107.52C108.567 106.476 109.091 105.182 109.091 103.636V98.1818C109.091 96.6364 109.615 95.3418 110.662 94.2982C111.705 93.2509 113 92.7273 114.545 92.7273C116.091 92.7273 117.385 93.2509 118.429 94.2982C119.476 95.3418 120 96.6364 120 98.1818V103.636C120 108.182 118.409 112.045 115.227 115.227C112.045 118.409 108.182 120 103.636 120H98.1818ZM114.545 27.2727C113 27.2727 111.705 26.7509 110.662 25.7073C109.615 24.66 109.091 23.3636 109.091 21.8182V16.3636C109.091 14.8182 108.567 13.5218 107.52 12.4745C106.476 11.4309 105.182 10.9091 103.636 10.9091H98.1818C96.6364 10.9091 95.3418 10.3855 94.2982 9.33818C93.2509 8.29455 92.7273 7 92.7273 5.45455C92.7273 3.90909 93.2509 2.61273 94.2982 1.56545C95.3418 0.521818 96.6364 0 98.1818 0H103.636C108.182 0 112.045 1.59091 115.227 4.77273C118.409 7.95455 120 11.8182 120 16.3636V21.8182C120 23.3636 119.476 24.66 118.429 25.7073C117.385 26.7509 116.091 27.2727 114.545 27.2727ZM60 91.7727L65.4545 88.6364V63.5455L87.2727 51V44.5909L81.8182 41.4545L60 54L38.1818 41.4545L32.7273 44.5909V51L54.5455 63.5455V88.6364L60 91.7727ZM54.5455 101.455L27.2727 85.6364C25.5455 84.6364 24.2055 83.2964 23.2527 81.6164C22.2964 79.9327 21.8182 78.1364 21.8182 76.2273V44.5909C21.8182 42.6818 22.2964 40.8855 23.2527 39.2018C24.2055 37.5218 25.5455 36.1818 27.2727 35.1818L54.5455 19.3636C56.2727 18.3636 58.0909 17.8636 60 17.8636C61.9091 17.8636 63.7273 18.3636 65.4545 19.3636L92.7273 35.1818C94.4545 36.1818 95.7964 37.5218 96.7527 39.2018C97.7055 40.8855 98.1818 42.6818 98.1818 44.5909V76.2273C98.1818 78.1364 97.7055 79.9327 96.7527 81.6164C95.7964 83.2964 94.4545 84.6364 92.7273 85.6364L65.4545 101.455C63.7273 102.455 61.9091 102.955 60 102.955C58.0909 102.955 56.2727 102.455 54.5455 101.455Z" fill="#ED8350"/>
</svg>
