<svg width="12" height="11" viewBox="0 0 12 11" fill="none" xmlns="http://www.w3.org/2000/svg">
<path d="M11.1339 0.000858621H0.77279C0.567833 0.000858621 0.371271 0.0822772 0.226345 0.227203C0.0814187 0.37213 0 0.568692 0 0.773649C0 0.978605 0.0814187 1.17517 0.226345 1.32009C0.371271 1.46502 0.567833 1.54644 0.77279 1.54644H3.68878C3.88656 1.54644 4.11811 1.63488 4.2492 1.97577C4.40233 2.37161 4.32734 3.1361 4.23288 3.72828L4.10924 4.42809C4.10947 4.42991 4.10928 4.43176 4.10868 4.43349C4.10809 4.43523 4.1071 4.43681 4.1058 4.4381L3.11549 10.0712C3.07957 10.2757 3.12611 10.486 3.24492 10.6563C3.36374 10.8265 3.54515 10.9428 3.74946 10.9796C3.85047 10.9975 3.95403 10.9951 4.05412 10.9726C4.1542 10.9501 4.24883 10.908 4.33249 10.8487C4.41616 10.7893 4.4872 10.7139 4.54149 10.6269C4.59578 10.5398 4.63225 10.4429 4.64876 10.3416L5.33311 6.42618C5.33311 6.42618 5.55264 5.49625 5.95334 5.49625C6.36063 5.49625 6.57558 6.42618 6.57558 6.42618L7.25993 10.3451C7.27649 10.4472 7.3132 10.545 7.36794 10.6328C7.42268 10.7206 7.49436 10.7967 7.57878 10.8565C7.6632 10.9163 7.75868 10.9587 7.85966 10.9813C7.96064 11.0038 8.0651 11.006 8.16695 10.9878C8.2688 10.9696 8.366 10.9312 8.45289 10.8751C8.53977 10.8189 8.61461 10.746 8.67303 10.6606C8.73145 10.5752 8.77229 10.479 8.79317 10.3777C8.81405 10.2763 8.81455 10.1718 8.79463 10.0703L7.80403 4.43725C7.80424 4.43545 7.80407 4.43363 7.80353 4.4319C7.80298 4.43018 7.80208 4.42858 7.80088 4.42723L7.67695 3.72742C7.5825 3.13524 7.50751 2.37075 7.66064 1.97491C7.79115 1.63488 8.03015 1.54558 8.21247 1.54558H11.1339C11.3389 1.54558 11.5354 1.46416 11.6803 1.31924C11.8253 1.17431 11.9067 0.977747 11.9067 0.77279C11.9067 0.567833 11.8253 0.371271 11.6803 0.226345C11.5354 0.0814186 11.3389 0 11.1339 0V0.000858621Z" fill="black"/>
</svg>
