<svg width="29" height="40" viewBox="0 0 29 40" fill="none" xmlns="http://www.w3.org/2000/svg">
<path d="M23.0671 38.6431C23.1047 38.6241 23.113 38.5942 23.1207 38.5668C24.4563 29.4796 23.7356 24.3044 25.8038 14.9707C26.399 12.3051 27.1535 9.71365 28.095 6.99178C28.1027 6.96437 28.0906 6.90187 28.0631 6.8942C27.3007 6.49819 19.7959 2.07994 13.2844 0.258412C11.0217 -0.374558 5.00126 0.351503 4.33386 0.374389C4.30396 0.366023 4.26051 0.415679 4.25285 0.44309C2.24706 10.8502 0.805239 24.1881 7.69529e-06 32.1285C-0.00395002 32.2484 7.16412 37.8702 14.0172 39.7578C17.4149 40.6464 22.5079 38.8172 23.0671 38.6431Z" fill="#E59763"/>
</svg>
