<svg width="163" height="122" viewBox="0 0 163 122" fill="none" xmlns="http://www.w3.org/2000/svg">
<path d="M16.7105 122C7.49081 121.974 0.0258037 114.512 0 105.292V16.7105C0.0258037 7.49082 7.49081 0.0258037 16.7105 0H145.579C154.799 0.0258037 162.264 7.49082 162.29 16.7105V105.266C162.264 114.486 154.799 121.948 145.579 121.974L16.7105 122ZM16.7105 6.30127C10.9769 6.30127 6.30126 10.9769 6.30126 16.7105V105.266C6.30126 111 10.9769 115.673 16.7105 115.673H145.579C151.313 115.673 155.989 111 155.989 105.266V16.7105C155.989 10.9769 151.313 6.30127 145.579 6.30127H16.7105Z" fill="white"/>
</svg>
